<svg transform="scale(1)" version="1.1" id="ELoRDB41kK" xmlns="http://www.w3.org/2000/svg" xmlns:xlink="http://www.w3.org/1999/xlink" x="0px" y="0px" viewBox="0 0 500 500" xml:space="preserve" class="pbimage_pbimage__wrapper__image__0LEis false"><title>Conversation</title><style type="text/css"> .st0{fill:#377E39;} .st1{fill:#222;} .st2{fill:#FFFFFF;} .st3{fill:none;}
 .st2{fill:#FFFFFF;}
 .st1{fill:#222222;}
 .st0{fill:#377E39;}</style><g id="character-2"><path class="st0" d="M87.6,39H273c11.5,0,20.8,9.3,20.8,20.8v126.6v43.9c0,2.1-1.7,3.8-3.8,3.8c-1.1,0-2.1-0.4-2.8-1.2l-23.5-25.7
		H87.6c-11.5,0-20.8-9.3-20.8-20.7c0,0,0,0,0,0V59.7C66.9,48.3,76.2,39,87.6,39z" fill="#377E39"></path><path class="st1" d="M160.5,104.9c0,0-36.9,11-53.4,33.8c-17,23.6-16.2,26-16.2,26l28.9,15.9c0,0,17.5-51.6,37.9-58.2
		s13-5.3,13-5.3l2.9-11.1" fill="#222"></path><path class="st1" d="M160.4,104.3c-6.8,2.1-13.4,4.7-19.8,7.8c-12,5.7-23.7,12.9-32.6,23c-2.6,3.1-5.1,6.4-7.4,9.8
		c-2.1,3-4.1,6-6.1,9c-2,2.9-3.8,6-5.4,9.2c-0.2,0.4-0.9,1.7-0.7,2.1s1.2,0.7,1.5,0.9l4.5,2.5l22.5,12.3l0.5,0.3
		c0.6,0.3,1.8,0,2.4-0.2s2-0.4,2.2-1.1c3.6-10.6,8.1-20.9,13.4-30.7c3.9-7.2,8.2-14.4,14-20.3c1.2-1.3,2.6-2.5,4-3.6
		c1.2-0.9,2.4-1.7,3.7-2.3l0.9-0.4l0.2-0.1l1.1-0.4c1.5-0.5,3.1-1,4.6-1.5c2.1-0.7,4.1-1.4,6.2-2.2c0.5-0.2,4.9-1.7,4-2.5
		c-0.5-0.5-2.4,0-3,0.1l1.9,0.3l2.9-11.1c0.2-0.7-1.6-0.3-1.9-0.3c-0.6,0.1-2.7,0.5-2.9,1.2l-2.9,11.1c-0.2,0.7,1.6,0.3,1.9,0.3
		c0.5-0.1-0.8,0.1-0.1,0c0.5,0-0.5,0-0.1,0s-0.3,0-0.4,0c-0.1-0.2-0.1-0.2,0-0.3c-0.2,0.2,0.4-0.2,0.1-0.1c-0.1,0.1-0.6,0.3,0,0
		c-0.4,0.2-0.8,0.4-1.2,0.5l-0.8,0.3c-0.6,0.2,0.5-0.2-0.2,0.1l-0.6,0.2c-4.5,1.6-9.3,2.7-13.5,4.9c-2.9,1.5-5.6,3.5-7.9,5.9
		c-5.7,5.6-10,12.6-13.9,19.5c-3.7,6.8-7,13.7-9.9,20.9c-1.6,3.7-3,7.5-4.3,11.4l4.7-1.2L102.6,169l-9-4.9c-0.2-0.1-0.5-0.4-0.3-0.1
		c0,0,0-0.1,0-0.1c0-0.1,0-0.2,0-0.3c-0.1,0.2,0.1-0.3,0.1-0.4c1-2.3,2.2-4.5,3.6-6.6c3.5-5.8,7.5-11.4,11.4-16.9
		c4-5.7,8.9-10.7,14.4-14.9c5.1-3.9,10.6-7.4,16.4-10.3c4.6-2.4,9.4-4.6,14.2-6.4l1.4-0.6l0.2-0.1l0.8-0.3l2.2-0.8
		c0.9-0.3,1.9-0.7,2.9-1l-0.2,0.1c0.4-0.1,2.4-0.6,2.2-1.2S160.7,104.2,160.4,104.3L160.4,104.3z" fill="#222"></path><path class="st1" d="M108.8,175.8l-2.7,5.2c-0.1,0.2,0.6,0.3,0.6,0.3c0.4,0.1,0.9,0.1,1.3,0.1c0.4,0,0.9-0.1,1.3-0.2
		c0.2-0.1,0.4-0.1,0.5-0.3l2.7-5.2c0.1-0.1-0.6-0.3-0.6-0.3c-0.4-0.1-0.9-0.1-1.3-0.1c-0.4,0-0.9,0.1-1.3,0.2
		C109.1,175.6,108.9,175.6,108.8,175.8z" fill="#222"></path><path class="st1" d="M113.1,177.2v10c0,0.6,1.3,0.9,1.7,1c0.2,0,2,0.5,2,0v-10c0-0.6-1.3-0.9-1.7-1
		C114.9,177.2,113.1,176.7,113.1,177.2L113.1,177.2z" fill="#222"></path><path class="st2" d="M213,207.9c0,0-6.6-29-7.9-36.6c14.1,5.7,29.8,10.3,38.1,7.1c10.9-4.3,28.4-21.4,33.9-36.8
		c3.2-8.9,0.3-18.6-7.6-23.8l-1.3-2.5c-9.8-6.4-19.5-2.1-30.1,6.8l-13.9,10.9c0,0-27.6-11.8-43.6-13c-7-5.7-15.4-8.2-25.6-6.5
		c0,0-16.7-4.9-29.2,38.2s-10.6,56-10.6,56" fill="#FFFFFF"></path><path class="st1" d="M215.3,208.1c-2.2-9.6-4.4-19.3-6.4-29c-0.5-2.5-1.1-5.1-1.5-7.6l-3,1.3c8.8,3.6,18,6.8,27.5,8.1
		c6.8,1.4,13.8-0.2,19.3-4.3c6.4-4.3,12.1-9.6,17-15.6c5-6,10-13,11.8-20.7c2.2-9.1-1.5-18.5-9.3-23.6l0.8,0.8
		c-0.7-1.4-1.1-2.8-2.5-3.6c-2.4-1.6-5.1-2.7-7.9-3.2c-5.4-1-10.8,0.5-15.5,3.1c-3.7,2.2-7.2,4.7-10.5,7.5l-7.2,5.6l-5.9,4.6
		l2.7-0.1c-10.5-4.6-21.4-8.3-32.6-11.2c-4-1-8.1-1.7-12.2-2.1l1.8,0.7c-7.9-6.3-18.1-8.9-28-7.1l1.2,0.1c-2.5-0.7-5.4-0.1-7.7,0.8
		c-6.5,2.6-11.1,8.8-14.4,14.7c-3.2,5.7-5.8,11.8-7.7,18c-2.5,7.7-4.6,15.5-6.5,23.4c-2.5,9.6-4.4,19.3-5.5,29.1
		c-0.4,3.1-0.6,6.2-0.3,9.3c0,0.2,0,0.4,0.1,0.6c0.3,2,5,3,4.6,0.3c0.2,1.1,0-0.2,0-0.5c0-0.9,0-1.9,0-2.8c0.2-4.2,0.6-8.4,1.3-12.5
		c1.2-8,3-15.9,5-23.7c2.7-10.8,5.5-21.7,10-31.8c2.6-6,5.9-12.1,10.7-16.6c0.8-0.8,1.6-1.4,2.5-2.1c0.2-0.1,0.4-0.3,0.6-0.4
		l0.2-0.2l0.1-0.1c0.4-0.2,0.8-0.5,1.2-0.7c0.6-0.3,1.3-0.6,2-0.9c0.2-0.1,1.2-0.3,0.5-0.2l0.9-0.2c0.5-0.1,1-0.1,1.4-0.2
		s-0.6,0-0.2,0c0.1,0,0.2,0,0.3,0h0.5c0.1,0,0.3,0,0.4,0c0.5,0-0.7-0.2-0.3,0h0.2c1.4,0.1,2.8,0,4.1-0.3c1.3-0.1,2.6-0.2,3.9-0.1
		c2.4,0.1,4.8,0.5,7.1,1.3c2.1,0.7,4.1,1.6,6,2.8c0.9,0.6,1.9,1.3,2.8,2c1.1,0.8,2.4,1.2,3.8,1.2c8,0.8,16,3.4,23.7,6
		c5.4,1.8,10.9,3.9,16.4,6.2l0.9,0.4c0.8,0.5,1.9,0.4,2.7-0.1l10.5-8.2c5.4-4.2,10.5-8.9,17.1-11.2c4.4-1.6,9.2-1.1,13.1,1.5
		l-0.8-0.8c0.4,0.8,0.8,1.7,1.2,2.5c0.6,0.7,1.3,1.3,2.1,1.8c3.7,2.9,6,7.1,6.5,11.8c0.8,7.8-3.5,15.2-7.8,21.4
		c-4.6,6.6-10.2,12.5-16.5,17.5c-2.5,2.1-5.2,3.8-8.1,5.3c-2.7,1.3-5.6,1.9-8.6,1.8c-4.6-0.3-9.2-1.1-13.6-2.4
		c-5.3-1.5-10.4-3.3-15.5-5.4c-1.2-0.5-3.3-0.5-3,1.3c1.9,11.1,4.6,22,7.1,32.9l0.8,3.7c0.4,2,5.2,3,4.6,0.3L215.3,208.1z" fill="#222"></path><path class="st2" d="M93.1,223.9c-0.7,1-10.2,13.9-11.6,17c-4.5,9.4-13.6,13.7-13.6,13.7s-10.4,12.3-12,9.8s3.8-16.5,3.8-16.5
		s-27.5,10.8-31.2,9s4.4-5.7,4.4-5.7s-5.2-0.7-4.1-3.2s33.1-16.6,33.1-16.6s5.6-8.8,14.2-19.7C75.8,211.6,94.3,222.2,93.1,223.9z" fill="#FFFFFF"></path><path class="st1" d="M90.8,223.8c-2.9,4.1-5.9,8.1-8.7,12.3c-1.5,2.2-2.7,4.5-4,6.7c-1.9,3.1-4.3,5.8-7.2,7.9c-1,0.7-2,1.4-3.1,2.1
		c0.6-0.4-0.4,0.2-0.6,0.3l-0.4,0.2c-1.4,0.8-2.4,2.3-3.5,3.5c-0.9,1-1.8,1.9-2.7,2.9c-0.9,0.9-1.8,1.7-2.8,2.5
		c-0.4,0.3-0.8,0.6-1.2,0.9s0.4-0.2-0.2,0.1s0.3-0.1,0.5-0.1c0.3-0.1,0.7,0,1,0.1c0.2,0.1,0.2,0.1,0.2,0.2c0-0.4-0.2-0.7-0.2-1
		c0-3,1.1-6.1,2-8.9c0.6-2,1.2-3.7,2-5.6s-2.3-1.7-3.3-1.2l-1.2,0.4c-0.6,0.2,0.6-0.2-0.1,0l-0.7,0.2L55,248
		c-3.1,1.2-6.3,2.3-9.5,3.4c-3.4,1.2-6.8,2.3-10.3,3.2c-0.7,0.2-1.4,0.3-2.1,0.5c0.7-0.1-0.3,0.1-0.5,0.1c-0.3,0.1-0.7,0.1-1,0.2
		l-0.8,0.1h-0.4c0.7-0.1,0.3,0,0.2,0c-0.2,0-0.4,0-0.6,0c0.6,0-0.1-0.1,0.1,0s-0.1,0-0.1-0.1c-0.1-0.1-0.1-0.1-0.2-0.1
		c-0.1-0.1,0-0.2,0-0.1c0.2-0.5,0.6-0.7,1.2-1.2c0.4-0.3,0.7-0.5,1.1-0.7l0.5-0.3c-0.5,0.3,0.1-0.1,0.2-0.1l1-0.6
		c1-0.5,2.3-2.4,0.4-2.6c-0.6-0.1-1.3-0.2-1.9-0.4c-0.4-0.1-0.8-0.4-1.1-0.7c-0.1-0.1-0.2-0.2-0.2-0.4c0,0.1,0-0.2,0-0.2
		c-0.2-0.3,0.1-0.1,0-0.1s-0.3,0.4,0,0c0.1-0.1-0.5,0.4-0.1,0.1c0.1-0.1,0.2-0.2,0.4-0.3c0.6-0.4,1.2-0.8,1.8-1.1
		c0.3-0.2-0.1,0-0.1,0.1l0.3-0.2l0.6-0.4l1.3-0.7c1-0.5,2-1.1,3.1-1.6c2.3-1.2,4.7-2.3,7-3.4c4.4-2.1,8.8-4.1,13.2-6.1
		c2-0.9,4.6-1.6,5.9-3.5c4.2-6.5,8.8-12.7,13.5-18.8l-3.9,1c2.9,1.7,5.8,3.4,8.7,5.2c2,1.3,4,2.6,5.8,4c0.6,0.5,1.3,1,1.8,1.6
		c0.2,0.2,0.3,0.5,0.5,0.7c-0.3-0.3,0-0.2-0.1,0C90.8,224.2,90.8,224,90.8,223.8c-0.6,1,0.6,1.7,1.5,1.7c1.2,0.1,2.4-0.5,3.1-1.5
		c0.6-1.1-0.3-2.1-1.1-2.8c-1.3-1.2-2.7-2.2-4.2-3.2c-3.2-2.2-6.6-4.3-10-6.3c-0.8-0.5-1.6-1-2.4-1.4c-1.3-0.5-2.9-0.2-3.8,0.8
		c-5.1,6.5-10,13.2-14.5,20.1l1.2-1.1c-4.9,2.2-9.8,4.4-14.7,6.7c-3.7,1.7-7.4,3.5-11.1,5.4c-2.6,1.2-5,2.6-7.3,4.2
		c-1.3,1-2.3,2.6-1,4.2c1.1,1.3,3.1,1.8,4.7,2l0.4-2.6c-1.2,0.6-2.3,1.2-3.4,2c-1.3,0.9-3.2,2.3-3.3,4c-0.2,3.3,5,2.7,7,2.3
		c7.5-1.4,14.9-4.2,22.1-6.8c2.2-0.8,4.4-1.6,6.6-2.5l-3.3-1.2c-1.7,4.5-3.6,9.4-4.2,14.3c-0.2,1.1-0.1,2.2,0.4,3.2
		c0.8,1.1,2.5,1,3.6,0.7c2.7-0.7,4.9-2.9,6.8-4.8s3.5-3.6,5.2-5.5c0.2-0.2,0.4-0.4,0.5-0.6l0.1-0.1c0.1,0.1-1.3,0.8-0.8,0.6
		c0.8-0.3,1.6-0.8,2.2-1.3c2.9-1.8,5.6-4,7.9-6.6c1.5-1.6,2.8-3.5,3.9-5.4c0.6-1.1,1.2-2.3,1.8-3.3c3.3-5.2,7-10,10.5-15
		c0.7-1-0.7-1.6-1.4-1.6C92.7,222.3,91.6,222.8,90.8,223.8z" fill="#222"></path><line class="st3" x1="50.1" y1="244.1" x2="31" y2="252.5"></line><path class="st1" d="M50.2,243.3l-16.8,7.3l-2.4,1c-0.5,0.2-1.8,0.9-1.7,1.6s1.3,0.2,1.6,0.1l16.8-7.3l2.4-1
		c0.5-0.2,1.8-0.9,1.7-1.6S50.5,243.2,50.2,243.3L50.2,243.3z" fill="#222"></path><path class="st1" d="M196.2,148.3c0.7,1.6,1.3,3.3,1.7,5c0.8,2.7,1.5,5.4,2.2,8.1c1.2,4.4,2.3,8.8,3.3,13.2c0.3,1.2,4,0.7,3.7-0.4
		c-1.1-4.5-2.2-9-3.4-13.5c-0.7-2.7-1.4-5.4-2.2-8c-0.5-1.8-1.1-3.5-1.8-5.2C199.3,146.4,195.6,147,196.2,148.3L196.2,148.3z" fill="#222"></path><path class="st2" d="M149.2,168.6c0,0-47,79.2-65.1,80.9S57.3,234.1,63,218.2s68.6-96.9,87-102.1" fill="#FFFFFF"></path><path class="st1" d="M147.3,166.9c-2.1,3.6-4.3,7.2-6.6,10.7c-5.2,8.3-10.5,16.4-16,24.4c-6.2,9.1-12.7,18.1-19.8,26.7
		c-3,3.7-6.2,7.2-9.6,10.5c-2.5,2.6-5.3,4.8-8.3,6.7c-1.1,0.7-2.3,1.2-3.6,1.5c0.4-0.1-0.3,0-0.5,0.1c-0.9,0.1-1.7,0.1-2.6,0.1
		c-1.7,0-3.4-0.2-5-0.6c-1.4-0.3-2.7-0.9-3.9-1.6c-0.5-0.3-1.3-0.8-1.5-1c-0.5-0.4-1.2-1-1.4-1.2c-2-2-3.5-4.5-4.3-7.3
		c-1.7-5.7-1.3-11.8,1-17.3c0.4-1,0.9-2,1.5-3c0.8-1.4,1.6-2.8,2.4-4.2c4.9-8,10.4-15.7,16-23.3c7.1-9.6,14.5-19,22.2-28.1
		c7.3-8.8,14.9-17.4,22.9-25.5c3.2-3.2,6.5-6.4,10-9.4c2.5-2.2,5.1-4.2,8-5.9c1-0.6,2-1,3.1-1.3c1.1-0.3,0.2-1.9-0.2-2.4
		c-0.7-0.9-1.8-1.4-3-1.2c-2.7,1-5.2,2.4-7.4,4.2c-3.3,2.5-6.4,5.1-9.4,8c-8,7.7-15.6,15.8-22.8,24.3c-8,9.3-15.7,18.9-23.2,28.8
		c-6.2,8.2-12.4,16.6-18,25.2c-1.9,2.9-3.6,5.8-5.2,8.8c-2.2,4.2-3.3,8.9-3.3,13.6c0,6.8,2.7,13.3,7.6,18.1c5.1,4.8,12,7,18.9,6.1
		c3-0.4,5.6-2.1,8-3.9c3.3-2.6,6.3-5.4,9.1-8.5c7.3-8.1,14.1-16.6,20.3-25.5c6.2-8.7,12.2-17.7,17.9-26.7c3.3-5.2,6.6-10.4,9.7-15.7
		l0.5-0.8C152.1,168.4,148.2,165.4,147.3,166.9L147.3,166.9z" fill="#222"></path><path class="st1" d="M157.8,106.2c0,0-9.4-23.3,5.4-45s29-21.5,49.3-15.4s23.1,46.7,5.6,67.1s-26.9,10.8-26.9,10.8
		s3.7,12.9-2.2,16.8s-34.3-9.9-38.3-17.9S157.8,106.2,157.8,106.2z" fill="#222"></path><path class="st1" d="M160,106.8c-1.4-3.7-2.3-7.6-2.6-11.6c-1-9,0.5-18.2,4.3-26.4c2.3-4.7,5.3-9.2,8.8-13.1c2.7-3.1,5.8-5.8,9.4-8
		c6.1-3.6,12.9-4.3,19.8-3.4c3.9,0.6,7.7,1.4,11.4,2.5c0.8,0.2,1.7,0.5,2.5,0.8c0.2,0.1,0.5,0.2,0.7,0.3c0.4,0.2,0.7,0.3,1,0.5
		l0.4,0.2c-0.4-0.2,0,0,0.1,0.1l0.9,0.6c0.1,0.1,0.8,0.6,0.4,0.3c0.3,0.3,0.7,0.5,1,0.8c1,0.9,1.9,1.9,2.7,3
		c0.8,1.2,1.6,2.4,2.2,3.7c1.5,2.9,2.5,6,3.2,9.2c3.1,14.3,0.4,30.9-8.2,42.8c-2.8,3.8-6.1,7.3-9.9,10.2c-2.5,2.1-5.5,3.7-8.6,4.6
		c-1.1,0.3-2.2,0.4-3.3,0.4c0.4,0-0.4,0-0.5,0l-0.6-0.1l-0.6-0.1c0.3,0.1,0,0-0.3-0.1l-0.5-0.1c-0.1,0-0.7-0.3-0.2-0.1l-0.2-0.1
		l-0.4-0.2c-0.5-0.2,0.6,0.4,0.1,0.1l-0.3-0.2c-0.1,0-0.2-0.1-0.2-0.2c-0.4-0.2,0.5,0.4,0.2,0.2c-0.1-0.1-0.2-0.2-0.3-0.3
		c-0.6-0.6-4-2-3.4,0c1.1,4,1.9,9.2,0.2,13.2c-0.4,1.1-1.2,2.1-2.3,2.8c-0.2,0.1-0.4,0.2-0.7,0.3c-0.4,0.1-0.9,0.1-1.3,0.2
		c-0.4,0-0.7,0-1.1,0c-0.6-0.1-1.2-0.1-1.8-0.2c-1.2-0.2-2.3-0.5-3.5-0.9c-5.8-1.8-11.3-4.3-16.5-7.5c-1.3-0.8-2.6-1.6-3.9-2.5
		l-0.8-0.6c-0.1-0.1-0.8-0.6-0.4-0.3c-0.5-0.4-1-0.8-1.5-1.2s-0.9-0.8-1.3-1.2s0.3,0.3,0,0l-0.3-0.3c-0.2-0.2-0.4-0.4-0.6-0.7
		s-0.3-0.3-0.4-0.5s0.2,0.3,0,0l-0.2-0.3c-0.3-0.5-0.5-1.1-0.7-1.7c-1.3-5.2,3.6-10.8,7.5-13.7c1.6-1.2-2.3-4.2-3.6-3.2
		c-4,3-8.3,7.8-8.4,13c-0.2,6.3,6.1,10.7,10.7,13.8c6,4,12.4,7.1,19.1,9.5c2.7,1,5.5,1.7,8.4,2c2.3,0.2,4.4,0,6.1-1.7
		c2.5-2.5,2.8-6.7,2.5-10c-0.1-2.3-0.5-4.6-1.1-6.8h-3.4c2.2,2,5,3.2,8,3.3c7.2,0.4,13.4-4.4,18.3-9.2c6.2-6,10.7-13.5,13.1-21.8
		c2.3-7.7,3-15.7,2.1-23.7c-0.8-7.1-2.9-14.2-7.2-20c-2-2.7-4.4-4.9-7.3-6.7c-3.4-2-7.3-3-11.2-3.9c-7.4-1.8-15.4-3-22.9-0.8
		c-8.4,2.5-14.8,8.6-19.9,15.5c-6.4,8.4-10,18.7-10.3,29.3c-0.2,6.2,0.7,12.4,2.6,18.2c0.1,0.3,0.2,0.6,0.3,0.9
		c0.5,1.1,1.4,1.9,2.6,2.3C158.9,108,160.4,108,160,106.8z" fill="#222"></path><path class="st2" d="M176.1,100c0,0,0.3,13.8,17,19.5c0,0,11.4,1,20.1-4c12.8-7.3,8.4-42.3,8.4-42.3c-2.6-10-13.6-9.8-13.6-9.8
		c-16.1,1.5-25.4,14.4-25.4,14.4S176.6,90.2,176.1,100z" fill="#FFFFFF"></path><path class="st1" d="M173.9,101c0.2,3.3,1.3,6.5,3.1,9.3c1.8,2.9,4.3,5.4,7.1,7.3c2.6,1.7,5.8,3.6,8.9,3.7c3.4,0.1,6.7-0.1,10-0.7
		c4.3-0.8,8.9-2.2,12.4-4.9c4.8-3.7,6.9-9.8,8-15.5c1-6.1,1.4-12.3,1.1-18.5c0-3.2-0.2-6.4-0.7-9.5c-1.1-6-7-9.8-12.7-10.5
		c-2.4-0.2-4.9,0-7.2,0.7c-9.1,2.3-17.2,7.6-23,15c-0.9,1.4-1.6,3-2.1,4.6c-1.6,3.9-3,7.9-4,12c-0.5,2.2-0.9,4.4-1,6.6
		c-0.1,2.6,4.3,0.7,4.4-1.1c0.4-7.2,3-14.3,5.9-20.9c0.1-0.2,0.2-0.5,0.3-0.7c0.1-0.4-0.4,0.5-0.2,0.3c0.3-0.3,0.6-0.6,0.8-1
		l0.7-0.8l0.3-0.3c0.2-0.2-0.3,0.3-0.1,0.1s0.4-0.4,0.6-0.6c0.9-0.9,1.9-1.8,2.9-2.7c1.1-0.9,2.3-1.8,3.5-2.6
		c1.4-0.9,2.9-1.7,4.4-2.4c3-1.5,6.3-2.3,9.6-2.5c0.2,0,0.4,0,0.6,0c0.2,0-0.4,0,0.1,0l0.7,0.1c1,0.1,2,0.4,3,0.7
		c2.7,0.8,4.9,2.5,6.4,4.9c1.7,2.8,1.7,5.8,1.9,9c0.4,5.4,0.3,10.7-0.2,16.1c-0.3,2.9-0.8,5.8-1.5,8.6c-0.3,1.2-0.7,2.5-1.2,3.6
		c-0.2,0.6-0.5,1.2-0.8,1.7l-0.4,0.8l-0.2,0.4l-0.1,0.2c-0.3,0.5-0.7,1-1.1,1.4c-0.2,0.3,0.2-0.3,0,0L214,113
		c-0.2,0.2-0.5,0.4-0.8,0.7s0.4-0.3,0.1,0l-0.3,0.2l-0.7,0.4c-1,0.5-2,1-3.1,1.4c-3.6,1.3-7.3,1.9-11.1,2c-1.1,0-2.2,0-3.3,0h-0.4
		c-0.4,0,0.2,0,0.2,0s-2.3-0.9-2.5-1c-3.3-1.4-6.3-3.5-8.7-6.2c-2.7-3-4.4-6.8-4.9-10.8c0-0.2-0.1-0.4-0.1-0.7
		c0-1.2-1.8-0.8-2.4-0.6C174.8,98.8,174,99.8,173.9,101z" fill="#222"></path><path class="st2" d="M185.7,93.5c0,0-3.9,6.7,3.2,8.2" fill="#FFFFFF"></path><path class="st1" d="M183.9,93.9c-1.1,1.9-1.8,4.9-0.1,6.7c0.9,0.9,2.1,1.5,3.3,1.7c0.8,0.1,1.6,0,2.3-0.3c0.4-0.1,0.7-0.3,1-0.4
		c0.1,0,0.4-0.3,0.1-0.3c-1.9-0.4-3.7-1.3-4.1-3.3c-0.2-1.3,0-2.6,0.5-3.8c0.1-0.3,0.3-0.6,0.4-0.8c0.2-0.4-1.3-0.2-1.4-0.1
		c-0.5,0.1-0.9,0.2-1.4,0.4C184.4,93.6,184,93.7,183.9,93.9L183.9,93.9z" fill="#222"></path><path class="st2" d="M211.7,89.4c2.4,3.3,5.3,6.3,8.5,8.8c10.9,8.6,9.9,13.5,4.9,13.8s-20.3-10.5-20.3-10.5" fill="#FFFFFF"></path><path class="st1" d="M209.6,90.8c2.4,3.3,5.3,6.3,8.5,8.8c2.4,1.8,4.5,3.9,6.4,6.2c0.9,1.2,2,2.7,2,4.3c0,0.1-0.1,0.8,0,0.6
		c0,0.1-0.1,0.2-0.1,0.3c-0.1,0.3,0-0.3,0,0s0.3-0.3,0-0.1c0.6-0.6-0.2,0.1,0.5-0.4s0.3-0.2,0.1-0.1c0.8-0.4-0.4,0.1,0.3-0.1
		c-0.4,0.2-0.9,0.2-1.4,0.1c-0.7-0.1-1.3-0.2-1.9-0.5c-3.7-1.4-7.2-3.2-10.5-5.4c-2.3-1.4-4.6-2.9-6.9-4.5c-1.1-0.8-5,2.2-3.7,3.1
		c2.1,1.5,4.3,2.9,6.5,4.3c3.6,2.2,7.3,4.6,11.3,5.8c3.4,1,7.7,0,9.6-3.4c1.9-3.6-2.4-7.9-4.7-10.1c-4.1-3.8-8.8-7-11.9-11.7
		C212.9,86.8,208.7,89.5,209.6,90.8L209.6,90.8z" fill="#222"></path><path class="st1" d="M199.4,82.2c1,0.3,1.5,1.4,1.2,2.4c0,0.1-0.1,0.2-0.1,0.3c-0.9,1.9-3.2,0.7-3-1.1c0-0.9,0.8-1.6,1.6-1.6
		C199.2,82.2,199.3,82.2,199.4,82.2z" fill="#222"></path><path class="st1" d="M214,84.9c1,0.3,1.5,1.4,1.2,2.4c0,0.1-0.1,0.2-0.1,0.3c-0.9,1.9-3.2,0.7-3-1.1c0-0.9,0.8-1.6,1.6-1.6
		C213.8,84.9,213.9,84.9,214,84.9z" fill="#222"></path><path class="st1" d="M86.6,171.2c0.2-0.3,0.3-0.6,0.5-0.9c0.2-0.3,0,0.1,0.1-0.1s0.1-0.2,0.2-0.2l0.3-0.4c0.4-0.6,0.8-1.1,1.2-1.7
		l0.7-0.8l0.3-0.4l0.2-0.2c-0.1,0.1-0.2,0.2-0.1,0.1c0.5-0.5,1-1,1.6-1.4c0.1-0.1,0.6-0.5,0.4-0.7s-0.7,0-0.8,0
		c-1.1,0.4-2.2,1-3.1,1.7c-2.4,2-4.3,4.4-5.8,7.1c-0.2,0.3,0.3,0.3,0.4,0.3c0.5-0.1,1-0.3,1.4-0.5c0.6-0.3,1.1-0.6,1.7-1
		C86.1,171.8,86.4,171.5,86.6,171.2L86.6,171.2z" fill="#222"></path><path class="st1" d="M89.8,175.1c1.9-2.1,3.6-4.2,5.3-6.4c0.2-0.3,0.2-0.7,0-0.9c-0.4-0.3-0.8-0.4-1.3-0.3c-1.2,0-2.4,0.5-3.2,1.4
		c-1.7,2.2-3.4,4.4-5.3,6.4c-0.2,0.3-0.2,0.7,0,0.9c0.4,0.3,0.8,0.4,1.3,0.3C87.8,176.5,89,176,89.8,175.1z" fill="#222"></path><path class="st2" d="M279.3,131.4c10.2-1.2,19.3-13.2,25.8-23.7c8.9-14.4-8.9-6.3-8.9-6.3s10.6-9.8,8.1-13.6S288,96,288,96
		s9.1-11.3,5.2-14.1c-3.6-2.5-21.2,20.6-21.2,20.6s0-7.6-4.5-11.1s-5.7,3.7-5.3,9.1s-1.1,10.8-4.1,16.3
		C258.1,116.8,259.5,133.7,279.3,131.4z" fill="#FFFFFF"></path><path class="st1" d="M280.1,132.8c5.7-0.7,10.6-4.2,14.5-8.2c4.5-4.7,8.4-9.8,11.7-15.3c1.6-2.5,4.6-7,2.1-9.8
		c-2-2.2-5.2-1.8-7.8-1.2c-1.9,0.4-3.7,1.1-5.5,1.9l2.6,2.4c1.6-1.5,3.2-3.1,4.6-4.9c1.8-2.2,4.4-5.2,4.2-8.2
		c-0.2-3.2-3.6-4.1-6.3-3.4c-3,0.8-5.7,2.8-8.2,4.6c-1.9,1.3-3.7,2.8-5.4,4.3l3.1,2c2.1-2.5,3.8-5.3,5.2-8.2
		c0.7-1.6,1.5-3.6,0.9-5.4c-0.6-1.8-2.3-3-4.1-2.9c-1.3,0.2-2.5,0.8-3.5,1.6c-1.4,1.1-2.8,2.4-4.1,3.7c-3,3-5.8,6.3-8.5,9.6
		c-1.7,2.1-3.4,4.2-5.1,6.3l3.4,1.4c0-5-2-11.2-6.8-13.4c-1.2-0.7-2.8-0.7-4,0c-1,0.8-1.7,1.9-2,3.1c-1,3.5-0.4,7-0.6,10.6
		c-0.2,2.3-0.6,4.6-1.4,6.7c-0.4,1.1-0.8,2.2-1.3,3.2c-0.4,0.9-1.3,2-1.4,2.9c0,0.7,0.1,1.4,0.3,2c0.8,3.4,2.4,6.6,4.9,9.1
		C266.4,132.2,273.4,133.4,280.1,132.8c0.5-0.1,0.9-0.6,0.9-1.1c0-0.2-0.1-0.3-0.1-0.5c-0.5-0.8-1.4-1.3-2.4-1.2
		c-4.8,0.5-9.9,0.1-13.6-3c-2.2-1.9-3.7-4.4-4.5-7.2c-0.2-0.8-0.4-1.6-0.5-2.5c0-0.1,0-0.2,0-0.2c-0.1,0.6,0.2,0,0.4-0.3
		c1-1.9,1.9-3.9,2.5-6c0.6-1.8,1-3.7,1.2-5.7c0.1-1.8,0.1-3.5,0-5.3c0-2.3-0.1-5.7,1.5-7.5c0.7-0.8,1-0.3,1.7,0.4
		c1.1,1.1,1.8,2.5,2.3,3.9c0.6,1.7,0.9,3.5,1,5.4c0,1.4,2.5,2.7,3.4,1.4c3.4-4.5,7.1-8.9,10.9-13.1c2.2-2.4,4.5-5,7.3-6.7
		c0.4-0.2,0.8-0.3,1.1-0.5c-0.5,0.2,0-0.1,0,0s-0.3-0.1-0.1,0c-1-0.4,0.5,0.3-0.5-0.2c-0.5-0.2-0.2-0.2-0.2-0.1c0-0.3,0,0.2,0,0
		c0,0.2,0.1,0.3,0.1,0.5c0,0.2,0,0.5,0,0.7c-0.1,0.9-0.4,1.8-0.7,2.6c-1.4,3.1-3.2,6-5.3,8.5c-1,1.2,2.1,2.8,3.1,2
		c3.2-2.9,6.8-5.5,10.6-7.6c0.9-0.5,2-0.9,3-1.1c0.3,0,0.2,0.1,0.4,0s-0.2-0.1-0.2-0.1c-0.1-0.1-0.3-0.2-0.4-0.3
		c0.3,0.1-0.1,0.1,0,0s0.1,0.3,0.1,0.3c0,1.2-0.4,2.3-1,3.3c-0.7,1.3-1.6,2.5-2.6,3.7c-1.4,1.7-3,3.4-4.6,4.9
		c-1.3,1.2,1.5,2.9,2.6,2.4c1.2-0.6,2.5-1,3.8-1.4c1-0.3,2-0.6,3.1-0.7c0.3,0,0.5-0.1,0.8-0.1s0,0,0.4,0h0.3c0.1,0,0.2,0,0.3,0.1
		c0.1,0.1-0.4-0.2,0,0c-0.2-0.1-0.3-0.4-0.2-0.1c-0.2-0.5,0,0,0,0s-0.1-0.3,0,0c0.1,0.5,0.1,0.9,0,1.4c-0.5,1.9-1.4,3.7-2.5,5.3
		c-3,4.9-6.5,9.6-10.4,13.8c-3.8,4.1-8.6,8.2-14.4,9C276.3,130.3,278.5,133,280.1,132.8z" fill="#222"></path><path class="st1" d="M282.5,103.6c1.5-1.7,3.1-3.2,4.8-4.7c1.3-1.2,2.5-2.3,3.8-3.5c0.7-0.6,0.2-1.8-0.4-2.3
		c-0.6-0.7-1.6-0.8-2.3-0.3c-2.8,2.5-5.7,5.1-8.3,7.9l-0.3,0.3c-0.5,0.8-0.3,1.8,0.4,2.3C280.7,103.9,281.8,104.4,282.5,103.6
		L282.5,103.6z" fill="#222"></path><path class="st1" d="M296,99.9c-3.1,2.4-6.2,5-9.1,7.6c-0.3,0.2,1.4,2.1,1.6,1.9c2.9-2.7,6-5.2,9.1-7.6
		C297.8,101.7,296.3,99.7,296,99.9z" fill="#222"></path><path class="st1" d="M273.5,112.1c0.2-1.1,0.4-2.3,0.4-3.4c0.2-2.1,0.2-4.1,0-6.2c0-0.3-0.5-0.7-0.8-0.8c-0.4-0.2-0.9-0.3-1.4-0.3
		c-0.7,0-1.6,0.3-1.5,1.2c0.1,1.9,0.1,3.8,0,5.7c0,1.1-0.2,2.2-0.4,3.3c-0.1,0.3,0.2,0.7,0.4,0.9c0.4,0.3,0.8,0.5,1.3,0.5
		C272.2,113,273.3,112.9,273.5,112.1L273.5,112.1z" fill="#222"></path><path class="st1" d="M91.7,209.8c-0.2-1.5-0.3-3.1-0.1-4.6c0.1-0.8,0.5-3.1,1.5-3.3l-1.2,0.1h0.3l-1.2-0.5c0.8,0.5,1,2.2,0.8,3.2
		c-0.2,1.2-0.9,2.3-2,3l3.7,3.1c1.3-1.6,2.8-2.9,4.6-3.9c0.4-0.3,0.9-0.5,1.3-0.6c0.4-0.1,0.8-0.1,1.2-0.2c0,0-0.3-0.1-0.3-0.2
		s0.2,0.6,0.2,0.7c0,1.6-1.6,2.4-3,2.8c-2.1,0.5-4.2,0.5-6.2-0.2c-1.2-0.4-3.1-0.1-3.2,1.5c-0.1,2.4-0.1,4.9-0.4,7.3
		c0,1-0.4,1.9-1,2.6c-0.2,0.2-0.4,0.4-0.7,0.4c0.2,0,0.1-0.1,0-0.1c-1.1-1.3-0.4-3.8,0.4-5.1s2-2.7,3.6-2.4c1.1,0.3,2.2-0.3,2.5-1.4
		c0-0.1,0-0.2,0.1-0.3c-0.1-1.3-1.1-2.3-2.4-2.4c-3.2-0.4-6.4,1.2-7.9,4c-1.8,3-2.3,7.2,0.2,9.9c2.1,2.4,5.7,2.6,8.1,0.5
		c0.4-0.3,0.7-0.7,1-1.2c0.8-1.6,1.3-3.4,1.2-5.2c0.1-2,0.2-3.9,0.3-5.9l-3.2,1.5c3.4,1.2,7.1,1.3,10.6,0.2c2.9-1,5.4-3.5,4.8-6.9
		c-0.7-3.6-4.7-4.9-7.9-3.9c-3.1,1.2-5.8,3.2-7.9,5.8c-1.7,2.1,1.9,4.2,3.7,3.1c3.7-2.4,4.7-7.3,2.3-10.9c-0.3-0.4-0.6-0.8-0.9-1.1
		c-1.3-1.4-3.4-1.6-4.9-0.6c-1.1,0.9-1.9,2-2.3,3.4c-0.9,2.6-0.6,5.5-0.3,8.2c0.1,1.2,1.8,2,2.9,1.9c1,0,1.9-0.8,1.9-1.8
		C91.7,210,91.7,209.9,91.7,209.8L91.7,209.8z" fill="#222"></path><path class="st1" d="M178.3,185.6c-0.6,0-0.6,0-1-0.3c-0.6-0.4-1.1-0.9-1.4-1.4c-1-1.4-1.4-3.1-1-4.7c0.1-0.4,0.3-0.9,0.5-1.2
		c0.2-0.4,0.6-0.6,0.9-0.9s1.3,0.3-0.6-0.5c-1.3-0.5-0.9-0.5-0.7,0c0.2,0.4,0.3,0.9,0.4,1.3c0.4,2,0.2,4.1-0.8,6
		c-0.6,1.3,3.9,2.9,4.7,1.6c0.5-0.8,1.1-1.5,1.8-2.2c0.3-0.2,0.7-0.3,1-0.5c0.2,0,0.1,0-0.2,0c-1.1-0.8-1.4-0.9-1.1-0.3
		c0,0.4,0,0.8-0.1,1.2c-0.1,0.4-0.4,0.8-0.7,1.1c-0.7,0.6-1.6,0.9-2.5,1.1c-1,0.2-0.3,1.2,0.2,1.5c0.9,0.7,2,1.1,3.1,1l-1.7-0.6
		l0.1,0.1c0.1,0.2,0.2,0.4,0.4,0.5c0.3,0.5,0.6,1,0.9,1.5c0.5,0.9,0.9,1.8,1.2,2.8c0.3,0.8,0.5,1.6,0.5,2.4c0,0.3-0.1,0.7-0.2,1
		c-0.1,0.4-0.5,0.5-0.7,0.7c-0.4,0.1-0.1,0.2,0.7,0.2c0.8,0.3,1,0.4,0.7,0.1c-0.1-0.1-0.2-0.3-0.4-0.4c-0.3-0.4-0.5-0.8-0.7-1.2
		c-1.4-3-1.8-6.3-1.4-9.6c0.2-1.6-4.5-2.9-4.7-1.6c-0.5,3.4-0.1,6.9,1.3,10c0.6,1.5,1.6,2.9,3,3.8c1.5,1,3.7,1.7,5.5,1
		c2.8-1.1,1.5-5.1,0.6-7.1c-0.6-1.5-1.3-2.8-2.3-4.1c-1.4-1.6-3.4-2.4-5.5-2.2l3.3,2.5c1.6-0.4,3.4-1.1,4.1-2.7
		c0.7-1.6,0-3.4-1.5-4.2c-1.7-1.1-3.8-1.5-5.7-0.9c-1.7,0.6-2.7,2-3.6,3.4l4.7,1.6c1.2-2.6,1.6-6.5-0.2-9s-7-3.3-8.7-0.1
		c-1.3,2.4-0.4,5.6,1.3,7.6c2.1,2.5,5.1,4,8.3,4.1c0.7,0,1.9-0.1,1.3-1.1C180.6,186.1,179.5,185.6,178.3,185.6L178.3,185.6z" fill="#222"></path><path class="st1" d="M140.6,202.1c-0.1-4.3,3.2-8,6-10.8l0.6-0.5c0.1-0.1,0.5-0.4,0.4-0.4c0.1,0,0.6-0.3,0.3-0.2c0.1,0,0.3,0,0.1,0
		c-0.1,0-0.6,0-0.3,0s-0.4-0.1,0,0s-0.1,0-0.1,0s0.2,0.2,0.1,0.1s0.1,0.1,0.1,0.1c0-0.2,0,0.1,0,0.2c0,0.3-0.1,0.6-0.2,0.8
		c-0.4,1-1,2-1.6,2.9c-0.6,0.9-1.3,1.9-2,2.7c-1.6,2-3.4,3.8-5.4,5.3l4.3,1.3c0.3-0.7,0.8-1.4,1.4-1.9c0.6-0.4,1.3-0.8,2-1
		c0.5-0.2,1.1-0.3,1.6-0.4l0.4-0.1l1-0.1c0.5-0.1,0.9-0.1,1.4-0.1c-0.4,0-0.1,0,0.1,0h0.2c0.3,0,0.3,0,0,0c0.2,0.1,0.2,0.1,0.1,0
		h0.1h0.1c-0.1-0.1-0.1,0,0,0.1c-0.1-0.1-0.1-0.1,0,0.1l0,0c0,0,0,0.6,0,0.4c0,0.2-0.1,0.3-0.2,0.5c-0.1,0.1-0.1,0.2-0.2,0.3
		c-0.1,0.1-0.1,0.1,0,0l-0.3,0.2l0,0c-0.1,0-0.3,0.1-0.5,0.1c-0.5,0.1,0.2,0-0.3,0.1l-0.7,0.1l-1.8,0.2l-3.8,0.4
		c-1,0.1-2.4,0.7-2.3,1.9s1.7,1.6,2.6,1.5c2.6-0.3,5.2-0.4,7.7-0.9c2.3-0.5,5-2.2,4.8-4.9c-0.2-2.5-2.9-3.4-5-3.5
		c-2.6,0-5.2,0.5-7.7,1.4c-2.5,0.8-4.6,2.7-5.6,5.2c-0.3,0.9,0.6,1.6,1.3,1.9c1,0.3,2.1,0.1,3-0.5c2.3-1.8,4.3-3.8,6.2-6.1
		c0.9-1.1,1.7-2.3,2.5-3.5c0.9-1.3,1.6-2.7,1.8-4.2c0-1.6-1-3.1-2.6-3.5c-1.7-0.5-3.5-0.4-5,0.4c-1.4,0.8-2.6,1.8-3.6,3.1
		c-0.9,1-1.8,2-2.6,3.1c-2,2.5-3.2,5.6-3.2,8.9c0,1.2,1.7,1.6,2.6,1.5S140.5,203.4,140.6,202.1L140.6,202.1z" fill="#222"></path><path class="st1" d="M137.7,151.9c-0.8,0.1-1.6,0.2-2.4,0.2c-0.4,0-0.8,0-1.2-0.1l-0.6-0.1c-1.1-0.3-0.5,0.1,1.7,1.2
		c-0.5-0.9-0.9-1.9-0.9-3c-0.1-1,0-2,0.3-3c0.3-0.8,0.8-1.6,1.5-2.1c0.4-0.3,0.8-0.5,1.3-0.5c0.2,0,0.4,0,0.6,0
		c-2-1.6-2.6-1.9-1.8-1.1c1.2,2,0.9,4.1,0.5,6.3c-0.2,0.9,4.2,2.8,4.2,2.6c0.7-2.7,1.8-5.3,3.3-7.7c0.7-1.1,1.6-2.2,2.6-3.1
		c0.5-0.4,1-0.7,1.5-1c0.3-0.2,0.6-0.3,0.8-0.4c0.3-0.1,0.6-0.2,0.9-0.3c0.4,0,0.5,0,0.3,0l-2.6-1.6c-0.5-0.4-0.1,0.1,0,0.3
		c0.1,0.3,0.2,0.6,0.2,0.9c0.1,0.7,0.1,1.3,0,2c-0.2,1.3-0.8,2.5-1.6,3.6c-1.6,2.2-4.1,3.6-6.5,4.9l4.2,2.6c1.7-1.2,3.7-1.9,5.8-1.8
		c1,0,1.9,0,2.9,0.1c0.4,0.1,0.8,0.2,1.2,0.3s1.3,0.7-0.7-0.5c-1.6-1-1-0.8-0.7-0.2c0.9,1.9-1.1,3.5-2.5,4.3c-2,1.1-4.4,1.5-6.6,1.2
		c-0.4-0.1,1.2,1.2,1.2,1.3c0.8,0.7,1.7,1.2,2.7,1.4c2.8,0.4,5.6-0.3,7.9-2c1.1-0.7,1.7-1.9,1.6-3.2c-0.3-1.1-0.9-2-1.9-2.5
		c-2.2-1.8-4.9-2.8-7.7-3c-2.6-0.1-5.4,0.2-7.5,1.9c-0.2,0.2,1.8,1.5,1.9,1.6c0.4,0.3,1.8,1.3,2.3,1c3-1.6,6.2-3.5,7.6-6.8
		c0.6-1.5,0.7-3.1,0.3-4.6c-0.6-1.9-2.9-3.1-4.6-3.8c-2.7-1.2-5.6,1.9-7,3.9c-1.7,2.6-3,5.4-3.7,8.4l4.2,2.6
		c0.5-1.7,0.5-3.4,0.2-5.1c-0.5-1.5-1.6-2.7-2.9-3.5c-1.3-0.9-3.1-2.2-4.8-2c-1.4,0.2-2.6,1.2-3,2.5c-0.5,1.5-0.5,3.2-0.1,4.8
		c0.4,1.5,1.4,2.7,2.8,3.4c1.4,1,2.9,1.7,4.6,2.1c1.3,0.2,2.7,0.2,4.1-0.1c0.5-0.1-1.1-1.2-1.2-1.3c-0.5-0.4-1.1-0.7-1.6-1
		C138.4,152,138,151.9,137.7,151.9L137.7,151.9z" fill="#222"></path><path class="st1" d="M229,155.2c-2.2,0.4-5.3,0.4-6.8-1.6c-0.8-1.1-1.1-2.9,0.2-3.8c0.5-0.3,0.9-0.2,0.2-0.6
		c0.2,0.1,0.3,0.3,0.5,0.4c0.6,0.6,1.1,1.3,1.4,2c0.3,0.5,3.8,3.1,4.1,2.2c1.6-4.6,3.5-10,8.1-12.5l-4.1-2.6
		c1.5,5.2,1,10.8-1.5,15.7l4.2,2.7c0.2-2.2,1.6-4.1,3.6-5c0.5-0.2,0.9-0.3,1.4-0.4c0.4,0,1.1,0.2,1.4,0.1c-1.1-0.9-1.4-1.2-1.1-0.7
		c0.1,0.1,0.1,0.2,0.1,0.3c0.1,0.3,0.2,0.6,0.3,0.8c0.1,0.6,0.1,1.3-0.1,1.9c-1.2,4.2-8,6.1-11.5,3.8c-0.3-0.2-2.1-1.4-2.5-0.8
		s1.5,1.8,1.7,1.9c3.1,2,6.7,3.2,10.4,2.4c3.1-0.6,6.4-2.9,6.2-6.4c-0.2-1.7-1.3-3.3-2.8-4.2c-1.5-1.2-3.4-2-5.4-2.1
		c-3.2,0-5.8,2.4-6.2,5.6c-0.1,1,3.8,3.6,4.2,2.7c2.5-5,3.1-10.7,1.6-16c-0.2-0.7-1.2-1.3-1.8-1.7c-0.4-0.3-1.8-1.2-2.3-0.9
		c-4.7,2.6-6.8,7.8-8.4,12.7l4.1,2.2c-1.6-2.8-4.2-5.1-7.2-6.4c-1.2-0.5-2.6-0.7-3.5,0.4c-0.7,1-0.8,2.4-0.2,3.5
		c1.3,2.8,4.4,4.8,7.1,6.1c2.5,1.2,5.3,1.6,8.1,1.2c0.8-0.1-0.9-1.5-1-1.6C231.2,156,229.9,155.1,229,155.2L229,155.2z" fill="#222"></path><path class="st1" d="M252.5,119.8c-1.7,0.8-3.2,2.1-4.4,3.6c-0.5,0.7-0.9,1.4-1.2,2.1c-0.4,0.8-0.6,1.7-0.4,2.6
		c0.3,0.8,1,1.3,1.8,1.4c1.2,0.2,2.4,0.2,3.6-0.1c2.2-0.4,4.1-1.5,5.6-3.1c1.4-1.5,1.6-3.7,0.5-5.4c-0.2-0.3-1-0.3-1.2-0.3
		c-0.6,0-1.3,0.1-1.9,0.3c-0.5,0.2-2,0.7-1.5,1.5c0.1,0.1,0.1,0.1,0.1,0.2l-0.1-0.2c0.4,0.7,0.6,1.5,0.4,2.3v-0.2
		c-0.1,0.4-0.2,0.7-0.3,1.1c-0.1,0.2-0.2,0.3-0.3,0.5c-0.1,0.1-0.1,0.2-0.2,0.3c0.1-0.1,0,0,0,0s-0.2,0.3-0.4,0.4s-0.3,0.4-0.4,0.4
		l0.1-0.1l-0.1,0.1l-0.3,0.2l-0.2,0.1c-0.3,0.2,0.3-0.1,0.1,0l-0.5,0.2c-0.1,0-0.1,0.1-0.2,0.1c0.1,0,0.5-0.2,0.2-0.1
		c-0.1,0-0.4,0.1,0.1,0s0.1,0,0,0c-0.3,0.1,0.3-0.1,0.4-0.1s-0.5,0.1,0,0s0.1,0,0,0c-0.2,0,0.5,0.1,0.2,0c0,0-0.2-0.1-0.2,0
		c0.2-0.1,0.3,0.1,0.1,0l-0.2-0.1c-0.1,0,0.2,0.2,0,0c-0.1-0.1-0.2-0.2-0.3-0.3l0.1,0.2c-0.2-0.4-0.3-0.8-0.2-1.2v0.3
		c0.1-0.7,0.3-1.4,0.6-2c0.1-0.3,0.3-0.6,0.5-0.9l0.3-0.4l0.1-0.2l0.1-0.1c0.4-0.5,0.9-1,1.4-1.4l0.2-0.2c0.2-0.2-0.2,0.2,0,0
		l0.4-0.3c0.1-0.1,0.3-0.2,0.4-0.3l0.2-0.1c0.2-0.1-0.5,0.2-0.1,0.1s0.9-0.4,1-0.8s-0.1-0.5-0.4-0.6c-0.5-0.1-1-0.2-1.6-0.1
		C253.7,119.3,253.1,119.4,252.5,119.8L252.5,119.8z" fill="#222"></path></g><g id="character-1"><path class="st2" d="M451.9,266H266.5c-11.5,0-20.8,9.3-20.8,20.8l0,0v126.6v43.9c0,2.1,1.7,3.8,3.8,3.8c1.1,0,2.1-0.4,2.8-1.2
		l23.5-25.7h176.1c11.5,0,20.8-9.3,20.8-20.7c0,0,0,0,0,0V286.7C472.6,275.3,463.3,266,451.9,266z"></path><path class="st1" d="M450.7,263.7H265.4c-11.5,0.1-20.8,9.4-20.9,20.9c0,2.4,0,4.8,0,7.2v119.6c0,6.4,0,12.7,0,19.1v24.5
		c0.1,2.9,1.5,5.6,3.8,7.4c1.6,1.1,3.9,0.9,5.2-0.6c0.5-0.6,1.1-1.2,1.6-1.8l16.4-18l3.5-3.8c0.5-0.7,1.1-1.4,1.8-2
		c0.3-0.2,0.7-0.2,1.1-0.1h175c10.4,0,19.3-7.7,20.8-18c0.3-3,0.3-6.1,0.2-9.1V295.7c0-2.6,0.1-5.1,0-7.7c-0.3-6.5-3-12.7-7.5-17.4
		C462.3,266.3,456.7,263.8,450.7,263.7c-0.4,0,0.6,2.3,0.7,2.5c0.3,0.5,0.9,2,1.6,2c6.1,0,11.9,2.8,15.8,7.6
		c1.8,2.7,2.8,5.9,2.6,9.2c0,3.2,0,6.5,0,9.7V407c0,4.3,0.1,8.5-1.8,12.6c-3.4,7.8-11.2,12.2-19.6,12.2H275.3c-0.6,0-0.6,0-1.1,0.5
		l-5.9,6.4l-15.9,17.5c-0.4,0.4-0.8,0.9-1.2,1.3c-0.8,0.9-1.9,1.3-3.1,1.2c-0.6-0.1-1.1-0.3-1.6-0.6c-0.5-0.3-0.7-0.9,0.1,0.6
		c0.9,1.8,0.4,0.9,0.4,0.5c0.1-1.7,0.1-3.5,0-5.2v-25c0-4.6,0-9.2,0-13.7V294.2c0-3.4-0.2-7,0.6-10.3c2.4-9.3,10.8-15.8,20.4-15.7
		h185c0.4,0-0.6-2.3-0.7-2.5C452.1,265.2,451.4,263.7,450.7,263.7z"></path><path class="st2" d="M313.6,451.9c13-6.9,32.5-24.1,32.5-24.1l-12-38.6l-26.5,21.9l-13.8-40.5c-1.4-6.4-1.2-12.4,1-17.7
		s3.1-13.1-2.7-10.8s-8.3,9.9-8.3,9.9s-11.1-28.8-15.6-27.3c-5,1.6,1,15.8,1,15.8s-10.7-16.3-14.5-13.3s4.2,16.2,4.2,16.2
		s-10.9-12.2-9.1,0.2c1.9,13,11.6,25.8,17.2,35.3c0,0,11.6,48.5,20.9,64.4S313.6,451.9,313.6,451.9z"></path><path class="st1" d="M313.8,452.3c6-3.4,11.8-7.2,17.2-11.5c4.7-3.6,9.2-7.3,13.7-11.1c0.9-0.8,1.8-1.5,2.6-2.3
		c0.1-0.1,0.4-0.3,0.3-0.5L337.1,393l-1.5-4.7c-0.2-0.6-2.7,1.1-2.9,1.3l-23.2,19.1l-3.4,2.8l2.9-1.3l-9.8-28.9
		c-1.3-3.8-2.8-7.6-3.9-11.5c-1.3-5-1.3-10.3,0.1-15.3c1-3.7,3.4-7.9,2.3-11.9c-1.4-4.8-8.6,0.3-10.5,2c-2.4,2.2-4.2,5-5.2,8.1
		l3.3-1.7c-2.4-6.4-5.2-12.7-8.4-18.7c-0.9-1.8-2-3.6-3.2-5.3c-0.7-1.2-1.7-2.2-2.8-3c-1.5-0.9-3.4,0.3-4.6,1.2
		c-1.6,1.2-2,2.9-1.9,4.8c0.1,3.9,1.5,7.9,3,11.4l3.3-1.9c-1.1-1.7-2.3-3.4-3.5-5c-1.9-2.8-4.2-5.2-6.8-7.4c-0.9-0.8-2-1.3-3.1-1.4
		c-1.7,0.1-3.3,0.9-4.4,2.3c-2,2.3-0.4,6.3,0.6,8.7c1,2.6,2.3,5.1,3.8,7.5l3.3-1.9c-0.8-0.9-1.7-1.7-2.6-2.5
		c-1.3-1.1-2.9-2.6-4.6-2.9c-2.2-0.1-4.3,1.2-5.2,3.2c-0.3,1.4-0.3,2.7,0,4.1c0.3,2.1,0.8,4.3,1.5,6.3c2.7,8.4,7.5,15.9,12.1,23.3
		c1,1.6,2.1,3.3,3.1,5c0.2,0.4,0.4,0.7,0.6,1.1c0.3,0.9,0.4,1.8,0.7,2.7c2.5,9.9,5.2,19.8,8.1,29.6c1.8,6,3.7,12,5.9,17.9
		c1.6,4.8,3.7,9.4,6.1,13.9c3.2,5.6,8.4,9.6,14.9,10.4c3.9,0.4,7.8-0.1,11.4-1.4c0.2-0.1,0.4-0.2,0.6-0.2c0.6-0.2,1.9-0.8,2.2-1.4
		s-0.4-0.4-0.9-0.2l-0.6,0.2c0.5-0.2-0.3,0.1-0.4,0.1l-1,0.3c-1.8,0.5-3.6,0.7-5.4,0.8c-5.6,0.2-11-2.1-14.8-6.3
		c-3.4-3.9-5.5-8.9-7.4-13.7c-2.1-5.4-4-10.9-5.8-16.4c-3.3-10.3-6.1-20.8-8.8-31.2c-0.6-2.2-0.9-4.7-1.7-6.8
		c-0.3-0.6-0.6-1.2-1-1.8c-1-1.6-2-3.2-3-4.7c-2.2-3.5-4.5-7.1-6.5-10.7c-2.1-3.7-3.8-7.5-5.2-11.5c-0.7-1.9-1.2-3.9-1.5-5.9
		c-0.4-1.5-0.4-3.1-0.2-4.6c0.1-0.3,0.3-0.7,0.3-0.9c-0.2,1.1-2.6,0.8-1.8,1c0.2,0,0.4,0,0.6,0.1c0.8,0.2,1.6,0.6,2.2,1.1
		c1.4,1,2.7,2.2,3.9,3.4c0.2,0.2,0.5,0.5,0.7,0.7c0.5,0.5,3.5-1.4,3.3-1.9c-1-1.7-1.9-3.4-2.8-5.2c-1.2-2.6-2.8-5.9-2.4-8.9
		c0.1-0.5,0.3-0.9,0.4-1.4c0,0.1,0.1-0.1,0.1-0.1l-1.7,0.9h0.2c0.2,0,0.4,0,0.6,0.1c1.1,0.3,2.2,1,3,1.8c2.3,2,4.3,4.3,6.1,6.8
		c1.2,1.6,2.4,3.3,3.5,5c0.3,0.5,3.5-1.2,3.3-1.9c-1.2-2.8-2.1-5.7-2.6-8.6c-0.3-1.7-0.7-3.9,0.1-5.6c0.1-0.1,0.1-0.3,0.2-0.4
		s0.1-0.1,0.1-0.2s-1.1,0.6-1.2,0.7c-0.5,0.2-0.3,0,0,0.1c0.4,0.2,0.8,0.4,1.1,0.6c2.5,2.1,4.1,5.5,5.6,8.4c2,3.7,3.7,7.6,5.3,11.4
		c1,2.2,1.9,4.5,2.8,6.8c0.2,0.6,3.1-1.2,3.2-1.7c0.8-2.5,2.1-4.8,3.9-6.7c1-1,2.3-2.2,3.9-1.7c1.4,0.5,1.6,2.2,1.7,3.4
		c0.1,4.5-2.5,8.6-3.1,13c-0.7,4.2-0.5,8.5,0.6,12.6c1.1,3.7,2.5,7.4,3.8,11.1l6.1,18l3.8,11.1c0.2,0.6,2.7-1.1,2.9-1.3l23.2-19.1
		l3.4-2.8l-2.9,1.3l10.6,33.9l1.5,4.7l0.3-0.5c-7.1,6.4-14.6,12.3-22.4,17.7c-2.9,2.1-5.9,3.9-9,5.6c-0.2,0.1-1.6,0.9-1.4,1.3
		S313.6,452.4,313.8,452.3z"></path><path class="st1" d="M275.8,347.9c-1-2.1-2.2-4.2-3.5-6.2c-1-1.6-1.9-3.1-2.9-4.7s-4.2,0.4-3.1,2.1c2.2,3.4,4.4,6.9,6.2,10.5
		c0.1,0.1,0.1,0.3,0.2,0.4c0.2,0.3,0.6,0.5,1,0.6c0.5,0,1-0.1,1.4-0.4C275.8,349.7,276.1,348.7,275.8,347.9L275.8,347.9z"></path><path class="st1" d="M257.1,343.3c2.5,3.4,4.9,6.9,7.2,10.5c0.4,0.6,2.6-0.6,2.2-1.2c-2.2-3.6-4.6-7.1-7.2-10.5
		C258.8,341.5,256.7,342.8,257.1,343.3z"></path><path class="st1" d="M282.8,360.7c0.1-1.1,0.3-2.2,0.6-3.3c0.5-2,1.1-4,1.9-6c0.3-0.8-0.7-0.9-1.2-0.8c-0.9,0.2-1.7,0.7-2.1,1.5
		c-0.8,2-1.4,4-1.9,6.1c-0.3,1.2-0.6,2.5-0.7,3.7c0,0.8,1.3,0.5,1.7,0.3C281.7,362.1,282.8,361.5,282.8,360.7L282.8,360.7z"></path><path class="st1" d="M454.9,435.8c0,0,1.2-76.3-68.1-77.9c-3.9-0.1-7.9,0.5-11.6,1.8c-12.3-7.6-54.1,37-54.1,37l17.6,39.4"></path><path class="st1" d="M457,434.4c0-2.8-0.2-5.6-0.5-8.3c-0.7-6.7-2-13.3-3.9-19.7c-2.4-8.3-6.1-16.2-10.9-23.3
		c-5.5-8.1-13-14.7-21.6-19.2c-5-2.6-10.4-4.5-15.9-5.6c-3.1-0.7-6.3-1.1-9.4-1.4c-3.9-0.5-7.8-0.5-11.8,0c-2.1,0.3-4.1,0.8-6.1,1.5
		h0.4c-3.2-2-7.5-0.4-10.7,0.9c-5.4,2.5-10.5,5.6-15.2,9.2c-9.5,7.2-18.4,15-26.7,23.4c-1.9,1.9-3.8,3.8-5.6,5.7
		c-0.1,0.1-0.2,0.2-0.2,0.3l5.9,13.3l9.5,21.2l2.2,4.9c0.1,0.3,4.5-2,4.2-2.7l-5.9-13.3l-9.5-21.2l-2.2-4.9l-0.2,0.3
		c7.7-8.2,15.9-16,24.6-23.1c1.6-1.4,3.3-2.7,5-3.9c0.7-0.5,1.3-1,2.1-1.5l1.1-0.8l0.5-0.3c0.2-0.2,0.3-0.2,0,0l0.4-0.3l1.2-0.8
		l0.6-0.4c0.6-0.4-0.4,0.3,0.2-0.1c0.4-0.2,0.8-0.5,1.1-0.7c0.3-0.2,0.7-0.4,1-0.5c1.2-0.7,2.5-1.3,3.8-1.8c2.2-0.8,4.7-1.5,7-0.9
		c0.5,0.1,0.9,0.4,1.3,0.5s0.8,0,1.3-0.2c0.9-0.3,1.9-0.6,2.8-0.8c3.2-0.6,6.5-0.9,9.8-0.6c9.5,0.3,18.8,2.5,27.4,6.4
		c7,3.3,13.3,8,18.4,13.8c8.9,9.9,14.4,22.5,17.4,35.4c1.1,4.7,1.9,9.6,2.4,14.4c0.1,1.6,0.3,3.2,0.3,4.8c-0.1,0.9,0,1.7,0.1,2.6
		c0,0.1,0,0.2,0,0.3c0,0.2,2.1-1,2.3-1.1C455.5,435.8,457,435.1,457,434.4L457,434.4z"></path><path class="st2" d="M431.3,379.5c-4.7,4.4-10.2,8-16.1,10.6c-3,1.3-6.2,2.4-9.4,3.1c-3.5,0.8-7.3,1.4-10.8,0.5
		c-5.9-1.4-10.6-5.9-16.5-7.4c-6.3-1.6-12.4,1.3-18.7,1.2c-3.1,0.1-6-1.2-8-3.5c-2-2.4-3-5.4-4.1-8.2c-0.3-0.8-1.2-2.4-2.2-2.3
		s-0.6,1.6-0.4,2.2c2.2,5.8,5,12.3,10.9,15.1c6.3,3,13.2-0.4,19.7-0.5c6.7-0.1,11.7,4.3,17.5,6.7c6.8,2.8,14.3,1.1,21-1.3
		c7.3-2.6,13.9-6.7,19.6-12C434.9,382.7,432.3,378.6,431.3,379.5L431.3,379.5z"></path><path class="st2" d="M446,408.7c-8.6,11.6-24.6,16.5-38.1,11c-2.2-0.9-4.4-2-6.7-2.9c-2.3-0.8-4.7-1.3-7.1-1.5
		c-4.9-0.4-9.9,0-14.9-0.4c-9.8-0.7-19.4-2.8-28.6-6.1c-2.3-0.8-4.8-1.7-6.5-3.6s-2.2-4.3-3-6.5c-1.7-4.6-4.4-8.8-7.8-12.3
		c-0.7-0.7-2.3-0.4-3.1-0.2c-0.4,0.1-2.2,0.7-1.6,1.4c3.4,3.3,6,7.4,7.6,11.8c0.6,2.1,1.5,4.1,2.5,6c1.3,1.9,3.2,3.3,5.4,4.1
		c9.6,3.9,19.8,6.3,30.1,7.2c5.3,0.5,10.5,0.4,15.8,0.5c2.6,0,5.1,0.4,7.5,1.3c2.4,0.9,4.6,2,6.9,3c7.8,2.9,16.2,3.4,24.3,1.3
		c8.8-2,16.6-7.1,22.1-14.2c0.6-0.8-1.6-0.9-1.9-0.9C447.8,407.6,446.8,408,446,408.7L446,408.7z"></path><path class="st2" d="M449.6,433.4c-1.4-1.4-23.9-31.3-51.3-33.1s-45.1,29.9-40.7,33.2s15.1-9.7,18.4-11.9c0,0-8.6,23.3,1.7,19.6
		c0,0,3.2,7.7,9.3,2.1c0,0,1.1,5.1,6.9,2.4c6.7-3.1,5.7-10.3,10.4-11.7"></path><path class="st1" d="M451.6,431.9l-0.2-0.2c0-0.1-0.1-0.1-0.1-0.2c-0.2-0.3,0.2,0.2,0,0l-1-1.2c-1.1-1.3-2.2-2.6-3.4-3.9
		c-3.4-3.8-7-7.3-10.8-10.6c-9.9-8.5-21.7-15.7-34.9-17.2c-12.7-1.4-24.7,4-33.9,12.6c-3.7,3.5-6.8,7.5-9.4,11.8
		c-1.6,2.7-3.4,6.1-3.4,9.4c0.1,4.5,5.8,3.2,8.4,1.9c4.9-2.6,8.7-6.8,12.6-10.5l0.5-0.5c0.2-0.1,0.5-0.4,0.1-0.1
		c0.3-0.2,0.6-0.5,0.9-0.7l-3.5-0.6c-1,2.7-1.8,5.4-2.4,8.2c-0.5,2.2-0.9,4.4-1,6.6c-0.2,1.7,0.1,3.4,1,4.9c1.5,2.1,4.3,1.8,6.4,1
		l-2.3-0.4c0.6,1.5,1.7,2.9,3.1,3.8c3.5,2.1,7.4,0.1,10.1-2.3l-4,0.2c0.3,1.3,1,2.4,2,3.2c2.6,1.9,6.2,0.8,8.7-0.6
		c2.7-1.6,4.9-3.9,6.2-6.7c0.5-1,1-2.1,1.6-3.1c0.2-0.4,0.5-0.7,0.8-1c0.1-0.1,0.1-0.1,0,0c0.2-0.2,0.2-0.2,0,0
		c0.1-0.1,0.3-0.1,0.4-0.2c-0.2,0.1-0.2,0.1,0.1,0c0.9-0.3,2.4-1.2,2.3-2.3s-1.6-1-2.4-0.8c-2.4,0.8-4.4,2.4-5.5,4.7
		c-1.1,1.9-1.8,4.1-3.3,5.7c-1.1,1.2-3.3,2.5-4.7,1.7c-0.5-0.3-1-0.8-1.2-1.3c-0.1-0.2-0.2-0.4-0.3-0.6s-0.2-0.7,0,0
		c-0.4-1.9-3.1-0.6-4,0.2c-0.3,0.3-0.7,0.5-1.1,0.7c-0.4,0.2-0.3,0.1-0.5,0.1c0.3,0-0.4,0-0.4,0c-0.7-0.2-1.3-0.6-1.8-1.1
		c-0.7-0.7-1.3-1.5-1.6-2.5c-0.3-0.8-1.7-0.6-2.3-0.4c-0.1,0-0.7,0.2-0.5,0.2s-0.3,0-0.4,0.1c-0.4,0.1,0.4,0-0.1,0s0.2,0-0.1,0
		c-0.4-0.1-0.8-0.3-0.9-0.7c-0.6-1.4-0.8-2.9-0.6-4.3c0.3-3.7,1.1-7.3,2.4-10.8c0.3-0.9,0.6-1.8,0.9-2.7c0.2-0.5-0.1-1.1-0.6-1.3
		c-0.1,0-0.2-0.1-0.3-0.1c-0.9-0.1-1.8,0.2-2.6,0.7c-1.6,1.2-3.1,2.5-4.5,4c-1.8,1.8-3.6,3.5-5.5,5c-0.5,0.4-1,0.8-1.5,1.1l-0.7,0.5
		l-0.3,0.2c-0.4,0.2,0.5-0.3-0.1,0.1c-0.2,0.1-0.4,0.2-0.6,0.3s-0.8,0.3-0.5,0.2s-0.4,0.1-0.5,0.1s-0.4,0.1-0.1,0s-0.2,0-0.2,0
		c-0.4,0,0.3,0.1-0.2,0c0,0,0.1,0.1-0.2-0.1s0.1,0-0.2-0.1c-0.1-0.1-0.2-0.1-0.3-0.2c0.3,0.2,0.1,0.1,0-0.1c0-0.1-0.1-0.1-0.1-0.2
		c-0.1-0.1,0,0.3,0,0c0-0.5,0-1,0-1.5c0,0,0,0.2,0-0.1c0-0.1,0-0.2,0.1-0.4c0.1-0.3,0.2-0.7,0.3-1c0.5-1.5,1.1-3,1.9-4.3
		c2.1-3.9,4.8-7.4,7.9-10.5c3.5-3.6,7.7-6.6,12.3-8.8c5-2.3,10.5-3.3,16-2.9c12.3,1,23.6,7.7,32.9,15.4c3.9,3.2,7.5,6.7,11,10.4
		c1.2,1.3,2.4,2.6,3.5,4l0.7,0.8l0.3,0.4l0.1,0.2l1,1.2c0.1,0.2,0.3,0.4,0.5,0.5c1.3,1.3,5.5-1.3,3.9-2.9L451.6,431.9z"></path><path class="st1" d="M386.1,415.5c-1.7,2.4-3.2,4.9-4.5,7.5c-2.3,4.4-4.2,9.3-4.3,14.3c0.1,1.3,1.1,2.4,2.4,2.6
		c1.1,0.1,2-0.8,2.1-1.9c0-0.1,0-0.2,0-0.3c0.1-2,0.5-4,1.2-5.9c0.8-2.2,1.7-4.3,2.8-6.3c0.9-1.6,1.8-3.2,2.7-4.8l0.5-0.8l0.2-0.3
		c0.3-0.5-0.2,0.3,0,0l0.3-0.5c0.8-1,0.7-2.5-0.2-3.4C388.5,414.9,386.8,414.4,386.1,415.5L386.1,415.5z"></path><path class="st1" d="M395.4,418.6c-2.2,2.6-4.2,5.4-6,8.4c-3,5-5.4,10.9-4.9,16.8c0.2,2.8,5,1.5,4.8-1.1c-0.5-5.3,2-10.5,4.7-14.9
		c1.5-2.5,3.2-4.9,5.2-7.1c0.7-0.8,0.6-2-0.2-2.7c-0.1-0.1-0.2-0.1-0.3-0.2C397.6,417.2,396.2,417.6,395.4,418.6z"></path><path class="st1" d="M418.9,354.7c0,0,13.5,11.1,19.3,6.2s-4.8-8.6-4.8-8.6s18-6.6,3.8-17.1c0,0,18-2.6,12.6-17
		S421.2,299,421.2,299s7.9-13.4-8.8-20.1s-17.3,3.6-17.3,3.6s-10.6-4.4-13.4,0.2s3.8,10.5,3.8,10.5s-4.4,15,10.4,20.4l4.2,24
		c0,0-8,3.7-6.3,12.7S414.9,363.8,418.9,354.7z"></path><path class="st1" d="M418.4,355.2c4,3.4,8.7,6.1,13.6,7.9c2.6,0.8,5.8,1.3,8.1-0.6c1.2-0.8,1.8-2.2,1.8-3.6
		c-0.4-1.5-1.2-2.9-2.4-3.8c-2-1.9-4.4-3.3-7-4.3l2.7,3.2c4.8-1.8,11.4-6.1,9-12c-1.3-3.2-4.2-5.7-7-7.8l1.8,2.7
		c6.4-1,13.8-5,13.9-12.3c0-6.2-4.2-11.6-8.6-15.5c-4.5-3.8-9.5-6.8-15-8.9c-3.1-1.3-6.2-2.3-9.4-3l3.3,3.3c2.9-4.9,2.5-11.1-1-15.6
		c-3.9-5-10-7.9-16-9.4c-3.4-0.8-7.8-1.3-10.7,1.2c-1.2,1.1-2,2.7-2.2,4.3l1-0.2c-3.2-1.4-6.6-2.1-10.1-2c-2.1,0.2-4,1.1-4.7,3.2
		c-0.8,2.3,0.2,4.7,1.5,6.7c1,1.7,2.3,3.2,3.7,4.5l-1-1.5c-1.7,6.3,0,12.9,4.5,17.6c2.5,2.5,5.5,4.5,8.9,5.7l-3-2.9l3.6,21l0.5,3
		l0.3-0.3c-5.4,2.5-8.5,9.4-6,15c1.6,3.6,5.1,6.4,8.5,8.1c3.4,1.8,7.2,2.6,11,2.5c3.6-0.2,7.3-1.6,8.9-5.1c0.6-1.2-3.5-3.9-3.9-3.2
		c-2.6,5.8-10.6,5.6-15.7,3.7c-1.3-0.4-2.4-1.1-3.5-1.8c0.5,0.4-0.6-0.5-0.3-0.3s-0.3-0.3-0.3-0.3s0.2,0.3-0.1-0.1
		c-0.4-0.4-0.6-0.9-0.9-1.3c-1.4-3-0.8-7,1.1-9.8c0.8-1.2,1.8-2.3,3-3.1c0.4-0.3,0.7-0.5,1.1-0.7l0.4-0.2c0.1-0.1-0.2,0.1,0,0
		c0.1,0,0.3-0.1,0.3-0.3c0,0,0,0,0,0l-3.4-19.6l-0.7-3.8c-0.4-2.5-2.9-3.3-4.9-4.2c-1.8-0.7-3.3-2-4.2-3.7c-1-1.7-1.6-3.5-1.8-5.4
		c-0.4-2.5-0.2-5.1,0.4-7.6c0.1-0.4-0.7-1.3-1-1.5s-0.2-0.2-0.4-0.4l-0.3-0.3c-0.2-0.2-0.2-0.2,0,0l-0.3-0.3
		c-0.7-0.8-1.3-1.6-1.8-2.6c-1.1-2.2-1.2-5.3,1.3-6.6c2.1-1.1,4.9-0.6,7.1-0.1c1.4,0.3,2.7,0.7,4,1.2c0.3,0.1,0.9,0.4,1-0.2
		c0.1-1.1,0.5-2.1,1.2-3c1.7-2.3,4.6-2.8,7.3-2.5c2.7,0.3,5.3,1,7.8,2c1.2,0.5,2.3,1,3.4,1.6c0.7,0.4,1.4,1,2,1.6
		c1.9,2.4,2.8,5.5,2.2,8.6c-0.2,1.8-0.8,3.5-1.7,5.1c-0.6,1.1,2.5,3.1,3.3,3.3c2.2,0.5,4.4,1.1,6.5,1.9c4.4,1.5,8.6,3.6,12.4,6.4
		c0.9,0.7,1.7,1.4,2.5,2.2c0.8,0.8,1.5,1.7,2.2,2.7c1.5,2.2,2.4,4.7,2.6,7.3c0.3,4.3-2.3,7.7-5.9,9.8c-2.3,1.3-4.8,2.2-7.4,2.6
		c-1.1,0.2,1.6,2.5,1.8,2.7c1.8,1.4,3.5,3.2,3.5,5.6c-0.1,1.8-1,3.5-2.4,4.7c-1.9,1.8-4.2,3.2-6.6,4.1c-1.2,0.5,2.3,3.1,2.7,3.2
		s0.9,0.3,1.3,0.5l0.3,0.1c0.3,0.1-0.3-0.1,0,0l0.6,0.3l0.7,0.4c-0.4-0.2,0.2,0.2,0.4,0.3c-0.1-0.1-0.2-0.2-0.1,0s0,0,0,0
		c0.1,0.3,0.2,0.7,0.3,1c-0.2,1.2-0.9,2.3-1.9,2.9c-1.9,1.4-4.5,1-6.6,0.3c-1.2-0.4-2.4-0.9-3.5-1.5c-0.6-0.3-1.1-0.6-1.7-1
		s-1.1-0.6-1.4-0.8c-1-0.6-1.9-1.3-2.8-2c-0.4-0.3-0.4-0.3,0,0l-0.3-0.3l-0.3-0.2c-0.4-0.3-1.9-1.6-2.4-1S418.1,355,418.4,355.2z"></path><path class="st2" d="M358.5,336.4c-1.9-16.4,27-40.3,27-40.3c9.4,8.3,32.7,7.5,32.7,7.5c-10.9,7-12.2,30.7-12.2,30.7
		c9.5-6.4,19-0.4,12.9,7.9s-15,4-15,4s-1.6,23.3-3.9,26.4c-2.6,3.4-30.8,5.7-25.9-14.6C374.1,358,360.1,350.8,358.5,336.4z"></path><path class="st1" d="M360.7,337.4c-0.8-7.5,4-14.8,8.2-20.5c4.4-5.8,9.4-11.3,14.9-16.2c1.1-1,2.3-2.1,3.5-3.1l-3.1-0.8
		c4.5,3.9,10.6,5.8,16.4,6.9c5.1,1,10.2,1.5,15.4,1.5c1.1,0,2.1,0,3.2,0l-3-3.2c-4.7,3.1-7.4,8.4-9.1,13.6
		c-1.5,4.7-2.6,9.6-3.1,14.6c-0.1,1-0.2,2.1-0.3,3.1c-0.1,1.5,2.9,3.3,4.1,2.5c2.5-1.6,5.6-3,8.7-2.4c0.2,0,0.4,0.1,0.5,0.1
		c0.1,0,0.3,0.1,0.4,0.2c0,0-0.3-0.1,0,0c0.4,0.2,0.1,0,0.4,0.3c-0.2-0.2,0.1,0.1,0.1,0.1c0.5,0.8,0.7,1.8,0.6,2.8
		c-0.3,3-2.8,5.8-5.2,7.3c-1.9,1.2-4.2,1.7-6.5,1.4c-0.4,0-0.8-0.1-1.2-0.2c-0.4-0.1-0.8-0.2-1.2-0.3c0.7,0.2-0.3-0.1-0.6-0.2
		c-0.6-0.3-2.2-0.6-2.3,0.5c-0.2,3.6-0.6,7.2-1,10.9c-0.3,2.9-0.6,5.7-1.1,8.5c-0.2,2-0.7,4-1.4,5.9c-0.1,0.3-0.2,0.5-0.4,0.7
		c-0.1,0.1-0.3,0.3,0,0c-0.1,0.1-0.2,0.2-0.3,0.2c-0.2,0.1-0.4,0.2-0.6,0.3l-0.4,0.2c-0.4,0.2,0.1,0-0.3,0.1c-1.6,0.5-3.3,0.8-5,0.9
		c-0.7,0.1-1.7,0.1-2.7,0.1c-1.1,0-2.2-0.1-3.3-0.3h0l-0.4-0.1l-0.7-0.1c-0.5-0.1-1.1-0.3-1.6-0.4c-0.1,0-0.8-0.3-0.4-0.1l-0.7-0.3
		l-0.7-0.3l-0.4-0.2c-0.6-0.3,0.5,0.3-0.1,0l-0.7-0.4l-0.3-0.2c-0.5-0.3,0.4,0.3-0.1,0l-0.7-0.5c-0.1,0-0.4-0.3-0.1-0.1
		s-0.1-0.1-0.2-0.2c-0.2-0.2-0.4-0.5-0.6-0.7c0,0-0.2-0.3,0,0c-0.1-0.1-0.2-0.2-0.3-0.4c-0.3-0.4-0.5-0.8-0.7-1.3
		c-1-2.8-1.1-5.8-0.2-8.7c0.2-0.8-1-1.8-1.6-2c-0.7-0.4-1.4-0.8-2.1-1.2s0.3,0.2-0.1-0.1l-0.4-0.3c-0.4-0.3-0.9-0.6-1.3-1
		c-0.8-0.6-1.7-1.4-2.2-1.9C364.3,348.5,361.5,343.2,360.7,337.4c-0.3-1-1.1-1.9-2.2-2.2c-0.5-0.2-2.5-0.6-2.3,0.5
		c0.9,6.6,4.1,12.7,8.9,17.3c2.4,2.5,5.2,4.6,8.3,6.3l-1.6-2c-1.3,5.7-0.1,11.3,4.6,15c4.1,3.2,9.4,4.5,14.4,4.5
		c2.2,0.1,4.4-0.1,6.5-0.5c1.5-0.2,2.9-0.7,4.1-1.5c1.3-1,1.5-3,1.9-4.4c0.6-2.8,1-5.6,1.3-8.5c0.6-4.8,1-9.6,1.4-14.4l-2.3,0.5
		c4.2,2,9.7,1.9,13.6-0.6c2.9-1.9,5.8-5.5,5.7-9.1c-0.1-3.5-2.9-6.1-6-7.3c-4.4-1.6-9.1-0.4-13,2.1l4.1,2.5c0.2-2.8,0.5-5.5,1-8.2
		c0.8-5.4,2.5-10.6,5.1-15.4c1.4-2.6,3.3-4.8,5.7-6.5c1.7-1.1-2-3.2-3-3.2c-7.8,0.3-16.1-0.4-23.4-2.9c-2.6-0.7-5-2-7-3.7
		c-0.6-0.5-2.3-1.4-3.1-0.8c-3.5,2.9-6.8,6-9.9,9.3c-5.7,5.9-11.2,12.3-14.8,19.8c-1.7,3.6-3.1,7.7-2.6,11.8c0.3,1.1,1.1,2,2.2,2.3
		C358.9,338,360.8,338.5,360.7,337.4z"></path><path class="st2" d="M383.2,337.6c0,0-23.6,7.2-29.8-4.7s10.2-20.5,25.4-12.1"></path><path class="st1" d="M381.9,335.9c-2,0.6-4,1-6,1.4c-4,0.8-8,0.9-12,0.4c-0.5-0.1-1-0.2-1.5-0.3l-0.4-0.1c0,0,0.3,0.1,0,0
		s-0.6-0.1-0.8-0.2c-0.5-0.2-1-0.3-1.5-0.5c-0.3-0.1,0,0,0.1,0c-0.1,0-0.2-0.1-0.3-0.2l-0.7-0.4c-0.7-0.4-1.3-0.9-1.8-1.5
		c-0.7-0.8-1.3-1.7-1.7-2.6c-1.9-4.3-0.1-8.6,3.9-10.9c5.7-3.2,12.9-2,18.4,1c0.9,0.5,2.5,0.8,3.3-0.1s-0.2-2-1-2.5
		c-6.3-3.4-14.3-5.1-21.2-2.7c-5.1,1.8-9.7,6-9,11.8c1.5,12,15.8,13.7,25.4,12.5c3.2-0.3,6.4-1,9.5-1.9c0.7-0.1,1.2-0.8,1.1-1.5
		c0-0.2-0.2-0.5-0.3-0.7C384.5,336.1,383.2,335.6,381.9,335.9L381.9,335.9z"></path><path class="st2" d="M397.5,339.4c0,0-2.7,6.3-10.6,3.3"></path><path class="st1" d="M395.9,338.3c-0.3,0.7-0.8,1.3-1.3,1.9c-0.1,0.1-0.2,0.2-0.3,0.4l-0.1,0.1c0.1-0.1-0.1,0.1-0.1,0.1
		c-0.3,0.3-0.6,0.5-1,0.7c-0.4,0.2-0.8,0.4-1.2,0.5l0,0h-0.1l-0.4,0.1c-0.3,0.1-0.5,0.1-0.8,0.1H390h-0.2c-0.2,0,0.2,0,0,0
		c-0.3,0-0.7,0-1-0.1l-0.6-0.1l-0.2,0c-0.2,0,0.1,0-0.1,0c-0.4-0.1-0.9-0.2-1.3-0.4c-0.6-0.2-1.5-0.1-1.3,0.7c0.3,0.9,1,1.5,1.9,1.8
		c2.5,1.1,5.4,1.2,8,0.2c1.4-0.6,2.6-1.6,3.5-2.9c0.2-0.3,0.3-0.5,0.5-0.8c0.3-0.7-0.4-1.5-1-1.9
		C397.7,338.5,396.3,337.7,395.9,338.3L395.9,338.3z"></path><path class="st1" d="M395.1,321.3c-0.3,0.9-1.2,1.5-2.2,1.2c-0.1,0-0.2-0.1-0.2-0.1c-1.8-0.8-0.9-3,0.9-2.8c0.8,0,1.5,0.6,1.5,1.4
		C395.1,321.2,395.1,321.2,395.1,321.3z"></path><path class="st1" d="M385.5,316.2c-0.3,0.9-1.2,1.5-2.2,1.2c-0.1,0-0.2-0.1-0.2-0.1c-1.8-0.8-0.9-3,0.9-2.8c0.8,0,1.5,0.6,1.5,1.4
		C385.5,316,385.5,316.1,385.5,316.2z"></path></g><g id="speech-bubble"><path class="st1" d="M402,153.4l-43.6-28.2c-2.7-1.8-6.4-1-8.1,1.7c0,0,0,0,0,0l-15.8,24.5c-1.8,2.7-1,6.4,1.8,8.1l32.4,21
		c-0.2,3.2-0.3,7.7-0.4,10.5c0,0.8,0.6,1.5,1.5,1.5c0.3,0,0.6-0.1,0.8-0.2l8.2-5.3l1.2,0.6c2.7,1.8,6.4,1,8.1-1.7c0,0,0,0,0,0
		l15.8-24.5C405.5,158.8,404.8,155.2,402,153.4C402,153.4,402,153.4,402,153.4z"></path><path class="st1" d="M401.7,151.9l-21.4-13.8c-7.4-4.8-14.8-9.6-22.2-14.3c-3.2-2-7.3-2-9.6,1.4c-0.8,1.1-1.5,2.2-2.2,3.4
		l-9.6,14.8l-3.5,5.4c-1.3,2.1-2.1,4.2-1.2,6.7c1.4,4.4,6,6.6,9.6,9l26.5,17.2l0.6,0.4l-2.1-3.1c-0.2,3.5-0.5,7-0.4,10.5
		c0,2.5,3.3,6.2,6,4.6s5.4-3.4,8.1-5.2l-1-0.1c2.1,1.2,4.2,2.3,6.6,1.6c1.6-0.4,2.9-1.4,3.8-2.8c1.4-2.1,2.7-4.1,4-6.2l11.2-17.3
		c0.7-1,1.2-2,1.5-3.2C407,157.4,404.5,153.9,401.7,151.9c-0.5-0.3-1.6-0.8-1.5,0.2s1.3,2.2,2.1,2.7c0.5,0.4,0.2,0.3,0.1,0
		c0.1,0.1,0.2,0.3,0.2,0.4c0.2,0.5,0.3,1,0.3,1.5c0,1-0.3,2.1-0.8,2.9c-0.3,0.4-0.6,0.9-0.9,1.3l-4.6,7.1l-10,15.4
		c-0.5,1-1.3,1.8-2.2,2.4c-1.2,0.8-2.6,1-4,0.7c-0.9-0.3-1.8-0.7-2.6-1.3c-0.3-0.2-0.7-0.2-1-0.1l-7,4.5c-0.4,0.3-0.8,0.5-1.2,0.8
		c-0.2,0.1-0.4,0.1-0.6,0.2c0.5-0.5,1.8,3.5,1.8,1.4c0-0.3,0-0.6,0-0.9c0.1-3,0.2-6,0.4-9c0.1-1.1-1.2-2.5-2.1-3.1l-22.9-14.8
		c-3.1-2-6.3-4-9.4-6.1l-0.4-0.3c-0.1,0,0.1,0.4,0.1,0c-0.1-0.5-0.4-1-0.4-1.6c0-1.2,0.3-2.3,0.9-3.3c0.9-1.4,1.7-2.7,2.6-4
		l9.4-14.6l3.2-5c1.4-2.1,3.3-3.7,6-3.2c0.5,0.1,0.9,0.3,1.3,0.5c-0.2-0.1-0.2-0.1-0.1-0.1l0.2,0.2l1.1,0.7l4.2,2.7l14,8.9
		l23.8,15.4l0.4,0.3c0.5,0.4,1.6,0.9,1.5-0.2S402.4,152.4,401.7,151.9z"></path><path class="st2" d="M345,154.4c4.2,1.1,8.6,1.1,12.7,0c2.3-0.6,4.5-1.5,6.6-2.6c2.1-0.9,4-2.2,5.7-3.7c1.2-1.2,2.2-3.6,0.3-4.7
		c-1.7-1-4.4,0.5-5.9,1.3c-3.8,2.3-6.7,5.9-7.9,10.1c-1.3,4.4,2.4,7.8,6.1,9.3c4.3,1.7,9.1,0.1,12.8-2.4c1.5-0.9,2.6-2.3,3.2-4
		c0.4-1.5,0-3.2-1.7-3.6c-2-0.5-4.8,1.1-6.3,2.2c-1.5,1.2-2.3,3-2.2,4.9c0,4,2,8.8,6.4,9.6c2.1,0.2,4.3-0.2,6.2-1.2
		c1.9-0.9,3.9-2,4.6-4.1c0.2-0.5-1.6,0.2-1.8,0.3c-0.6,0.2-2.4,0.9-2.7,1.6c-0.2,0.5-0.4,1-0.8,1.4c-0.1,0.2-0.4,0.3-0.5,0.5
		c0.6-1,2.1-0.7,0.9-0.6c-1.2,0.1-2.4-0.1-3.4-0.7c-2.1-1.3-3.6-3.5-4.1-6c-0.3-1.3-0.4-2.6-0.3-3.9c0-0.7,0.2-1.4,0.6-2.1
		c0.1-0.3,0.5-0.5,0.5-0.8c-2.3,0.7-2.9,1-1.8,1c0.2,0,0.4,0.1,0.5,0.1c2.5,1,1.1,4.5-0.3,5.8c-0.1,0.1-1.1,0.7-0.2,0.3s0-0.1-0.2,0
		c-0.7,0.1-1.3,0.2-2,0.1c-1.5-0.1-3-0.5-4.3-1.2c-2.3-1.2-5-3.6-5.1-6.4s2-6,3.6-8.2c0.4-0.6,0.9-1.1,1.4-1.6l0.3-0.2
		c0.7-0.6,0.3-0.4-1.4,0.5c0.2,0.1,0.6,0,0.8,0c1.5,0.4,1.7,2.3,1,3.4c-1.4,2.4-4.8,3.4-7.4,3.8c-3.3,0.5-6.6,0.3-9.9-0.6
		c-0.8-0.2-2.2,0.7-2.9,1.1C346.1,153.3,344.5,154.2,345,154.4L345,154.4z"></path><path class="st1" d="M321.2,173.1c5.6,14.8,4.4,31.6-1.5,46.1c-3,7.4-7.2,14.2-12.5,20.2c-2.7,3.1-5.8,5.8-9.3,8
		c-3.9,2.2-8.2,3.6-12.7,4.2c-4.4,0.7-8.9,1.1-13.3,1.5c-4.5,0.4-9,0.6-13.5,0.5c-8-0.3-17.3-2.2-22.9-8.4c-2.5-2.5-3.6-6.1-3-9.6
		c0.3-1.5,1-2.8,2-3.9c1-0.9,2.3-1.5,3.3-0.2c1.1,1.5,1.6,3.8,2.1,5.6c0.8,2.3,1.3,4.7,1.5,7.1c0.3,3.5-0.4,7.5-3,10
		s-6.7,1.9-9.8,0.5c-3.9-1.8-7-4.7-10.5-7c-3.2-2.1-7.1-3.9-11-3.5c-3.5,0.4-7.2,2-9.3,5c-1,1.4-1.5,3.1-1.5,4.9
		c0,1.3,1.7,1.6,2.6,1.4c1.2-0.3,2.1-1.3,2.1-2.6c0-2.9,3.1-4.4,5.6-4.6c4.1-0.3,7.9,2.5,10.9,4.8c3.7,2.8,7.5,5.6,12.1,6.7
		c4.5,1.1,9.3-0.3,12.5-3.7c2.8-3.2,4.3-7.4,4.1-11.7c-0.1-2.7-0.6-5.4-1.4-7.9c-0.5-2.3-1.3-4.5-2.3-6.6c-2.6-5-8.5-3.6-11.8-0.2
		c-2.6,2.9-3.8,6.9-3.2,10.7c1.4,9.1,11.2,14,19.2,15.9c9.5,2.3,19.5,1.4,29.1,0.4c5-0.4,9.9-1.1,14.7-2.3c4.8-1.2,9.2-3.4,13.1-6.4
		c7.1-5.5,12.7-13.1,16.9-20.9c8.1-15.1,11.4-33.3,7-50c-0.6-2.1-1.2-4.2-2-6.2C324.8,168.5,320.3,170.7,321.2,173.1L321.2,173.1z"></path><path class="st0" d="M135.1,344.2l-47.4,25.3c-3,1.6-4.1,5.3-2.5,8.2l14.2,26.6c1.6,3,5.3,4.1,8.2,2.5l19.1-10.2
		c2.8,1.8,6.8,4.2,9.3,5.7c0.7,0.4,1.7,0.2,2.1-0.6c0.2-0.3,0.2-0.6,0.2-0.9l-0.6-10.1l17.4-9.2c3-1.6,4.1-5.3,2.5-8.2l-14.2-26.6
		C141.8,343.8,138.1,342.6,135.1,344.2z"></path><path class="st2" d="M124.6,385.1c-3.9-1-7.8-2.5-11.4-4.4c-1.6-0.7-3-1.9-4.1-3.3c-1.1-1.5-1-3.5,0.2-4.9c1.4-1.4,3.7-1.1,5.5-0.4
		c2.2,0.8,4.2,2,5.9,3.5c-2.1-4.7-0.6-10.2,3.6-13c0.7-0.5,1.4-0.8,2.2-0.9c2.9-0.5,5.4,2.3,5.8,5.2s-0.8,5.7-1.9,8.3l-3.8,9.2"></path><path class="st2" d="M216.2,278.5l-55.1-19.9c-3.5-1.2-7.3,0.6-8.5,4l-11.1,31c-1.2,3.5,0.6,7.3,4,8.5l22.2,8
		c0.6,3.6,1.6,8.5,2.2,11.7c0.2,0.9,1.1,1.5,2,1.3c0.3-0.1,0.6-0.2,0.9-0.5l7.7-7.9l20.2,7.3c3.5,1.2,7.3-0.6,8.5-4l11.1-31
		C221.4,283.5,219.7,279.7,216.2,278.5C216.2,278.5,216.2,278.5,216.2,278.5z"></path><path class="st0" d="M217.4,277l-21.5-7.7l-30.2-10.9l-3.1-1.1c-2.9-1.1-6.2-0.8-8.9,0.7c-3.7,2.2-4.6,7.2-6,10.9l-6,16.5l-2.2,6.2
		c-0.7,1.6-1.1,3.3-1,5c0.4,3.5,2.9,5.9,6.1,7l5.7,2l15,5.4l1,0.4l-1.3-1.4c0.6,3.8,1.4,7.6,2.2,11.4s5.4,4.1,7.8,1.6s5-5.1,7.5-7.7
		l-3.4,0.7l13.4,4.9l6.4,2.3c3.7,1.5,7.8,0.7,10.7-2c1.2-1.4,2.1-3,2.5-4.8l2.4-6.6l6.2-17.2c0.6-1.7,1.2-3.4,1.9-5.1
		C224.1,283,221.7,278.7,217.4,277c-1.2-0.5-2.5-0.2-3.4,0.7c-0.7,1,0,1.9,1,2.3c2.8,1.1,3.6,4.3,2.7,6.9c-0.5,1.4-1,2.9-1.6,4.3
		l-5.8,16c-1.2,3.5-2.4,7-3.7,10.4c-0.9,2.3-2.9,3.6-5.2,2.8l-5.6-2l-14.3-5.1c-1.2-0.4-2.5-0.2-3.4,0.7l-6.5,6.7
		c-0.4,0.3-0.8,0.7-1.1,1.1c0,0-0.1,0-0.1,0.1c0.3-0.5,1.9-0.4,1.8-0.2c0.1-0.4-0.3-1.4-0.4-1.8c-0.7-3.3-1.3-6.6-1.9-9.9
		c-0.1-0.7-0.6-1.2-1.3-1.4l-11.4-4.1l-7.7-2.8c-1.3-0.4-2.6-0.8-3.8-1.5c-2.3-1.4-2.8-4.3-1.9-6.7c0.5-1.5,1.1-3,1.6-4.5l5.7-15.9
		c1.2-3.4,2.4-6.8,3.6-10.1c0.8-2.1,2.7-3.6,5-2.9c0.8,0.3,1.6,0.6,2.3,0.8l28.2,10.1c8,2.9,16,5.9,24.1,8.7l0.4,0.1
		c1.2,0.5,2.5,0.2,3.4-0.7C219.1,278.3,218.4,277.3,217.4,277z"></path><path class="st0" d="M171.3,280.5c-3-0.2-6,0.5-8.6,2c-2.1,1.3-4.2,3.6-4.2,6.3c0,2.5,2.1,4.4,4.2,5.3c2.4,0.9,5,1.2,7.6,0.9
		c2.4-0.2,4.7-1.1,6.5-2.5c1.2-1,3.2-3.6,1.5-5c-1-0.9-3.1-0.6-4.2-0.5c-1.4,0.2-2.7,0.8-3.7,1.8c-1.8,1.6-2.3,4.3-1.1,6.5
		c1.5,2.7,4.9,2.9,7.6,2.9c3.1,0,6.1-0.6,9-1.7c2.7-0.9,5.1-2.4,7.2-4.3c1.6-1.6,2.7-4.6,0.2-5.9c-2.6-1.1-5.5-1-8,0.3
		c-2.2,1.4-3.1,4.1-3.4,6.5c-0.7,5.1,1.7,10.5,6.7,12.4c3,1,6.2,1.1,9.2,0.3c2.1-0.6,5.6-2.4,5-5.1c-0.6-3-5.8-2.9-7.8-1.5
		c-2.4,1.7-0.4,5.9,0.7,7.8c0.4,0.7,1.9,0.6,2.5,0.5c0.2,0,2.7-0.3,2.5-0.8c-0.8-1.3-1.3-2.8-1.6-4.3c-0.1-0.8-0.3-2.8,0.7-3.1
		l-1.8,0.3c-2,0.1-1.1-0.4-0.5,0.6c0.3,0.4,0.4,0.9,0.3,1.4c-0.2,1.1-0.9,2-1.9,2.6c-1,0.8-2.4,0.9-3.5,0.2c-4-1.6-5.9-6-5.8-10.1
		c-0.1-2.3,0.6-4.5,1.9-6.4c0.4-0.4,0.7-0.8,1.1-1.1c0.7-0.7,0.2,1.7-1.3-0.1c0.2,0.1,0.3,0.2,0.5,0.3c0.8,0.7,1,1.7,0.7,2.7
		c-0.6,2.2-3,3.7-4.8,4.7c-1.9,1.1-4.1,1.9-6.3,2.2c-2.2,0.5-4.3-0.9-4.8-3c0,0,0-0.1,0-0.1c-0.3-1.1-0.1-2.2,0.4-3.2
		c0.3-0.5,0.7-1,1.1-1.4c0.2-0.2,0.4-0.3,0.6-0.5c0.9-0.6,1.4-0.1-1-0.2l-1.5-0.2c1.1,0.3,0.6,2.1,0.1,2.8c-0.6,0.9-1.4,1.7-2.3,2.2
		c-1.3,1-3.1,1-4.5,0.1c-2.6-1.4-3.9-4.2-2.4-6.9c0.7-1.3,1.7-2.4,2.9-3.1c0.9-0.6,1.9-1,3-1.1c0.7,0,2.7,0.1,3-0.6
		S171.5,280.5,171.3,280.5L171.3,280.5z"></path></g><g id="emoji"><circle class="st0" cx="403.4" cy="87.9" r="14.5"></circle><path class="st0" d="M415.5,88.4c-0.1,5-3.3,9.5-8,11.2c-5,1.6-10.4-0.1-13.6-4.3c-3.2-4.2-3.5-9.9-0.7-14.4
		c2.7-4.1,7.7-6.1,12.5-5C411.5,77.4,415.5,82.6,415.5,88.4c0,1.4,1.6,1.9,2.7,1.7c1.3-0.2,2.2-1.3,2.2-2.6
		c-0.1-6.9-4.6-13-11.1-15.3c-6.8-2.3-14.4-0.1-19,5.5c-4.5,5.4-5,13.1-1.4,19.1c3.8,6,10.9,9,17.9,7.6c7.9-1.7,13.6-8.7,13.7-16.8
		c0-1.3-1.6-1.8-2.7-1.6C416.4,86.1,415.5,87.2,415.5,88.4z"></path><path class="st1" d="M406.5,84.5c-0.5,0.2-0.8,0.7-0.7,1.2c0,0,0,0,0,0.1c0.4,1,1.6,0.5,1.5-0.4c0-0.4-0.3-0.8-0.8-0.9
		C406.6,84.5,406.5,84.5,406.5,84.5z"></path><path class="st1" d="M398.2,84.4c-0.5,0.1-0.8,0.7-0.7,1.2c0,0,0,0,0,0.1c0.4,1,1.6,0.5,1.5-0.4c0-0.4-0.3-0.8-0.8-0.9
		C398.3,84.4,398.3,84.4,398.2,84.4z"></path><path class="st1" d="M394.7,91.4c0.2,1.5,1.7,2.3,3,2.8c1.6,0.6,3.4,0.9,5.1,0.8c1.8,0,3.5-0.4,5.1-1.1c1.4-0.5,2.5-1.7,2.8-3.2
		c0-0.4-0.5-0.7-0.8-0.8c-0.6-0.2-1.2-0.3-1.8-0.2c-0.8,0-2.3,0.2-2.4,1.2c-0.1,0.7-0.6,1.3-1.4,1.5c0.4-0.2-0.3,0.1-0.4,0.1
		l-0.3,0.1c0.3-0.1,0.3-0.1,0.1,0c-0.2,0.1-0.5,0.1-0.7,0.1c0.4,0,0.4,0,0.1,0h-0.4c-0.3,0-0.2,0,0.1,0h-0.4h-0.4h0.1l-0.7-0.2
		c0.5,0.1-0.2-0.1-0.3-0.1s-0.6-0.3-0.4-0.2c-0.2-0.1-0.4-0.2-0.6-0.4c-0.2-0.2-0.4-0.4-0.5-0.7c-0.1-1-1.8-1-2.5-1
		c-0.6,0-1.2,0.1-1.8,0.4C395.2,90.8,394.7,91.1,394.7,91.4L394.7,91.4z"></path><ellipse class="st0" cx="306.6" cy="295.6" rx="15.6" ry="16.2"></ellipse><path class="st0" d="M320.2,294.4c-0.1,6-3.4,11.7-9,14.1c-5.2,2.2-11.5,1.1-15.2-3.3s-3.9-11.2-1-16.2c2.9-5.3,8.8-8.2,14.7-7.3
		c6.5,1.1,10.4,6.9,10.5,13.2c0,2.1,4,4.3,4,1.3c-0.2-7.8-4.8-14.7-12-17.8c-6.8-2.8-14.5-0.8-19.2,4.8c-4.7,6-5.3,14.4-1.5,21
		c3.7,6.6,11.1,10.7,18.6,9.5c8.2-1.3,13.9-9,14-17c0-1.2-0.7-2.4-1.7-3C321.8,293.3,320.2,293.2,320.2,294.4z"></path><path class="st1" d="M310.8,291.8c-0.6,0.1-0.9,0.7-0.8,1.3c0,0.1,0,0.1,0.1,0.2c0.4,1.1,1.8,0.6,1.7-0.5c0-0.5-0.3-0.9-0.8-1
		C310.9,291.7,310.8,291.7,310.8,291.8z"></path><path class="st1" d="M301.6,291.7c-0.6,0.1-0.9,0.7-0.8,1.3c0,0.1,0,0.1,0.1,0.2c0.4,1.1,1.8,0.6,1.7-0.5c0-0.5-0.4-0.9-0.9-1
		C301.7,291.7,301.6,291.7,301.6,291.7z"></path><path class="st2" d="M298,296.5h16.8c0,0,0.9,7.5-7.4,8.4S298,296.5,298,296.5z"></path><path class="st2" d="M298.2,297.1h16.8l-0.7-0.6c0,0,0-0.1,0,0.1s0,0.4,0,0.6c0,0.6-0.1,1.2-0.3,1.8c-0.4,1.8-1.6,3.4-3.3,4.3
		c-2.4,1.3-5.2,1.4-7.7,0.4c-1.7-0.9-3-2.3-3.7-4.1c-0.4-1-0.7-2-0.9-3.1c-0.1-0.7-1.2-0.8-1.1,0c0.3,3.2,2.1,6.1,4.8,7.9
		c4.3,2.5,10.9,0.6,12.6-4.2c0.4-1.2,0.6-2.5,0.5-3.7c-0.1-0.3-0.3-0.6-0.6-0.6h-16.7C297.2,295.9,297.5,297.1,298.2,297.1z"></path><path class="st1" d="M302.3,305c2.5,0.3,5.1,0.1,7.5-0.5c0.6-0.2,1.2-0.5,1.7-0.9c0.4-0.3,0.8-0.7,1-1.2c0.1-0.3,0.1-0.7-0.2-0.9
		c-0.4-0.2-0.9-0.2-1.3,0l-0.8,0.2h0.2h-0.2l-0.4,0.1c-0.5,0.1-1,0.1-1.5,0.2c-0.3,0-0.5,0-0.8,0H307c-0.5,0-1.1-0.1-1.6-0.1
		c-0.5,0-1.1,0.1-1.5,0.3c-0.6,0.3-1.1,0.6-1.6,1.1c-0.3,0.3-0.7,0.7-0.7,1.1C301.6,304.7,301.9,305,302.3,305L302.3,305z"></path></g></svg>