<svg transform="scale(1)" version="1.1" id="ZD7WC4E3kS" xmlns="http://www.w3.org/2000/svg" xmlns:xlink="http://www.w3.org/1999/xlink" x="0px" y="0px" viewBox="0 0 500 500" xml:space="preserve" class="pbimage_pbimage__wrapper__image__0LEis false"><title>Diversity 3</title><style type="text/css"> .st0{fill:#FFFFFF;} .st1{fill:#222;} .st2{fill:LIGHTBLUE;}
 .st2{fill:LIGHTBLUE;}
 .st1{fill:#333;}
 .st0{fill:#FFFFFF;}</style><g id="hand"><path class="st0" d="M179.9,383c0,0,50.8,25.7,64.9,30.3c14.1,4.6,17.6,5.3,17.6,5.3c8.1-13.1,30.1-11.1,33.4-5.1
		c2.7,5-3.3,7.2-5.3,7s-5,1.6-5,1.6c3.8,2.7,11.3,2.3,14.8,1.1s6.7,1.9,4.5,5.5s-11.3,4-11.3,4c2.5,6.7-4.8,5.8-4.8,5.8
		c0.3,9.6-26.5,2.2-26.5,2.2s-83.4-21.6-105-31.4C157,409.5,153.1,394.8,179.9,383z" fill="#FFFFFF"></path><path class="st1" d="M177.8,382.6c9,4.6,18.1,9.1,27.2,13.5c7.1,3.5,14.3,6.9,21.5,10.2c5.4,2.6,11,4.9,16.7,7
		c4.9,1.6,9.9,3.2,14.9,4.6c1.6,0.5,3.3,1,4.9,1.3c0.3,0,1.6,0.5,1.9,0.2c4.2-6.7,12.3-9.7,20-9.7c0.8,0,1.6,0,2.4,0.1
		c0.6,0.1,1.7,0.2,1.9,0.3s0.4,0.1,0.1,0c0.1,0,0.2,0.1,0.4,0.1c0.6,0.2,1.1,0.5,1.6,0.8c2.5,1.5,3.9,4.9,1.5,7.2
		c-1.2,1.1-2.7,1.7-4.3,1.7c-1.9,0.1-3.8,0.6-5.4,1.7l0.1,0.1c2.8,1.9,6.5,2.7,9.8,3.1c2.9,0.4,5.9,0.2,8.7-0.5
		c0.5-0.1,1.1-0.3,1.6-0.4c0.2,0,0.5,0,0.7-0.1c-0.2,0.1-2.6-0.9-2.3-0.6s0.5,0.4,0.7,0.7c0.9,1.3,0.9,2.9,0,4.2
		c-1.2,2.1-3.8,2.9-6,3.4c-1.2,0.3-2.4,0.5-3.5,0.6c-0.4,0-0.8,0.1-1.2,0.1c-0.2,0-0.8,0-0.3,0c-0.1,0-0.3,0-0.4,0.1
		c0.7,1.9,0.9,4.3-1.3,5.3c-0.7,0.3-1.4,0.4-2.1,0.5c-0.2,0-1.4-0.1-0.6,0c0.1,0-0.8-0.1-0.8,0c0.1,4.5-5.6,4.9-8.9,4.9
		c-2.5,0-5-0.3-7.5-0.7c-0.9-0.1-2.2-0.4-3.2-0.6l-0.4-0.1l-0.7-0.1l-1.4-0.3l-1.1-0.1c0.7,0.2,0,0-0.3-0.1l-0.7-0.2l-1-0.3
		l-7.3-1.9c-9.7-2.6-19.4-5.2-29.1-7.9c-11.9-3.3-23.8-6.7-35.8-10.4c-9.5-2.9-18.9-5.7-27.8-9.4c-0.8-0.3-1.5-0.6-2.3-1l0.6,0.4
		c-0.4-1.9-0.3-3.8,0.3-5.6c1.3-5.1,4.8-9.4,8.8-12.7c4.2-3.3,8.8-6.1,13.7-8.2c0.4-0.2-1.5-0.8-1.6-0.8c-0.7-0.2-2.3-0.9-3-0.6
		c-8.1,3.6-16.8,8.6-21.1,16.8c-1.1,2-1.7,4.2-2,6.4c-0.2,1.1-0.2,2.2,0.1,3.3c0.2,0.6,1,0.8,1.6,1c1,0.5,2.1,0.9,3.1,1.3
		c2.7,1.1,5.5,2.1,8.3,3c7,2.4,14.1,4.6,21.2,6.8c15.4,4.7,31,9,46.6,13.3c8.8,2.4,17.5,4.7,26.3,7c3.6,0.9,7.2,1.7,10.9,2.3
		c3.4,0.6,6.8,0.9,10.3,0.8c2.4-0.1,5.4-0.3,7.1-2.2c0.7-0.8,1.1-1.8,1-2.8h-0.8c1.3,0.2,2.7,0.1,3.9-0.4c2.4-1,2.4-3.3,1.6-5.5
		l-0.4,0.1c2.3-0.1,4.6-0.4,6.8-1c2.8-0.8,7-3.2,5.4-6.8c-0.9-2-3.4-2.6-5.3-3c-1.1-0.3-2.2-0.4-3.3-0.3c-0.9,0.1-1.7,0.5-2.6,0.6
		c-2,0.4-4,0.6-6.1,0.4c-0.4,0-0.9-0.1-1.3-0.1s0.3,0.2,0.1,0s-1-0.4-1-0.5c0.2-0.2,0.5-0.3,0.7-0.4c0.8-0.4,1.7-0.8,2.6-1
		c0.7-0.1,1.4-0.1,2.2-0.1c1.3-0.1,2.5-0.6,3.5-1.4c2.5-1.7,2.4-4.9,0.3-6.9s-4.9-2.8-7.5-3.5c-3.3-0.9-6.7-1.4-10.1-1.3
		c-7.6,0.2-15.5,3.1-19.7,9.8l1.9,0.2c-0.8-0.2,0.6,0.2-0.1,0l-0.9-0.2l-0.6-0.2l-0.4-0.1l0,0c-4.1-1.2-8.2-2.5-12.2-3.8
		c-2.8-0.9-4.4-1.5-7.1-2.6c-3-1.2-6-2.5-8.9-3.9c-13.4-6-26.6-12.5-39.8-19.1c-3.2-1.6-6.5-3.2-9.7-4.9c-1-0.5-2.1-0.8-3.3-1
		C178.5,382.3,176.9,382.1,177.8,382.6z" fill="#222"></path><path class="st1" d="M277.4,421c0.6,0.6,1.3,1.1,2.1,1.4c0.8,0.4,1.6,0.7,2.5,0.9c1.4,0.4,2.9,0.6,4.3,1c1.2,0.3,2.6-0.1,3.3-1.2
		c0.3-0.4,0.4-1,0.3-1.5c-0.2-0.5-0.6-0.8-1.1-1c-1.4-0.4-2.7-0.6-4.1-1c-0.7-0.2-1.3-0.4-2-0.6c0.1,0,0.4,0.2,0.1,0.1l-0.2-0.1
		c-0.1-0.1-0.3-0.2-0.4-0.2c-0.3-0.2-0.6-0.4-0.9-0.6l0.4,0.3l-0.1-0.1c-0.4-0.4-0.9-0.6-1.5-0.6c-0.7,0-1.3,0.1-1.9,0.5
		c-0.5,0.3-0.9,0.7-1.1,1.3C277,420,277,420.6,277.4,421L277.4,421z" fill="#222"></path><path class="st1" d="M282.5,432.4c3.4,1.1,6.8,1.8,10.4,1.9c1.2,0.1,2.4-0.5,3.1-1.6c0.4-0.6,0.3-1.4-0.2-1.8
		c-0.2-0.2-0.5-0.3-0.8-0.3c-3.2-0.1-6.4-0.7-9.4-1.7c-1.2-0.3-2.5,0.1-3.3,1C281.7,430.7,281.3,432,282.5,432.4L282.5,432.4z" fill="#222"></path><path class="st1" d="M284,440.4c1.5,0.7,3.1,1.2,4.8,1.3c0.6,0,1.2-0.2,1.6-0.6c0.4-0.4,0.7-1,0.6-1.6c0-0.7-0.3-1.3-0.7-1.8
		c-0.4-0.5-1-0.8-1.6-0.8c-0.6,0-1.2-0.1-1.8-0.3l0.6,0.1c-0.8-0.2-1.6-0.5-2.4-0.9c-1.1-0.4-2.3,0.1-2.7,1.2c0,0.1-0.1,0.2-0.1,0.3
		c-0.1,0.6-0.1,1.3,0.2,1.9l0.4,0.5C283.2,440,283.6,440.2,284,440.4L284,440.4z" fill="#222"></path></g><g id="character-1"><path class="st0" d="M298.7,382.4c0,0-16.4-18.9-6.8-24.2s19.8,12.1,19.8,12.1L298.7,382.4z"></path><path class="st1" d="M301,381.4c-1.4-1.6-2.8-3.4-4-5.2c-2.2-3.2-4.4-6.7-5.3-10.5c-0.4-1.5-0.4-3,0-4.5c0.1-0.3,0.3-0.6,0.5-0.9
		c0.2-0.3-0.1,0.1,0.1-0.2s0.3-0.4,0.5-0.5c-0.4,0.3,0.8-0.5,0.4-0.3c0.2-0.1,0.5-0.2,0.7-0.3c0.5-0.2,0.2-0.1,0,0
		c0.2,0,0.3-0.1,0.5-0.1c0.1,0,0.7-0.1,0.3-0.1c0.2,0,0.5,0,0.7,0c-0.4,0,0.3,0,0.4,0c0.3,0,0.5,0.1,0.8,0.1
		c-0.2-0.1,0.3,0.1,0.4,0.1c0.3,0.1,0.5,0.2,0.8,0.3c0.4,0.1,0.8,0.3,1.2,0.5c1.9,1.1,3.5,2.4,5,4c2.2,2.2,4.1,4.7,5.7,7.4l0.3-1.6
		l-13.1,12.1c-0.5,0.4-0.6,1.2-0.1,1.7c0.2,0.2,0.4,0.3,0.7,0.4c1.2,0.3,2.5,0,3.4-0.8l13-12.2c0.5-0.4,0.6-1.1,0.3-1.6
		c-1.5-2.5-3.3-4.9-5.3-7.1c-3.4-3.6-7.7-6.9-12.9-6.7c-4.6,0.2-9.4,3.3-9.4,8.2c0,4.4,2.3,8.6,4.6,12.2c1.6,2.6,3.4,5.1,5.4,7.4
		C297.8,384.9,302.4,383.1,301,381.4z"></path><path class="st0" d="M313,370.4c0,0-16.4-18.9-6.8-24.2s19.8,12.1,19.8,12.1L313,370.4z"></path><path class="st1" d="M315,369c-1.4-1.6-2.8-3.4-4-5.2c-2.3-3.1-4.1-6.6-5.2-10.3c-0.1-0.4,0,0.1-0.1-0.3c0-0.2-0.1-0.4-0.1-0.6
		c-0.1-0.5-0.1-0.9-0.1-1.4c0-0.2,0-0.4,0-0.6c0-0.4-0.1,0.2,0-0.3c0.1-0.4,0.2-0.7,0.3-1.1c-0.2,0.6,0.5-0.7,0.3-0.5
		s0.2-0.2,0.2-0.2s0.5-0.5,0.1-0.2c0.2-0.1,0.4-0.3,0.6-0.4l0.3-0.2c0,0-0.4,0.2-0.1,0c0.2-0.1,0.5-0.2,0.7-0.3l0.4-0.1
		c0.7-0.2-0.2,0,0.2,0c0.7-0.2,1.5-0.2,2.2-0.1c0.5,0.1,0.9,0.2,1.3,0.4c0.4,0.1,0.8,0.3,1.2,0.5c1.9,1,3.6,2.3,5,3.9
		c1.5,1.5,2.8,3.2,4.1,4.9c0.4,0.6,0.8,1.2,1.2,1.8c0.2,0.3,0.3,0.7,0.1,0.1c0,0.1,0.1,0.1,0.1,0.2l0.5-2.1l-13,12.1
		c-0.8,0.7-0.8,1.9-0.1,2.6c0.1,0.1,0.2,0.2,0.3,0.3c1.2,0.6,2.6,0.3,3.5-0.6l13-12.1c0.6-0.5,0.8-1.4,0.5-2.1
		c-1.5-2.6-3.4-5.1-5.5-7.3c-3.2-3.5-7.6-7.1-12.7-6.9s-9.5,3.6-9.5,8.9c0,4.4,2.5,8.7,4.7,12.3c1.6,2.6,3.5,5.1,5.5,7.5
		C312.6,373.8,316.9,371.1,315,369z"></path><path class="st0" d="M395.1,298.9c-9.3-16.7,5.5-41.2,13.8-41.7c6.8-0.4,5.8,7.8,4.4,10s-1.2,6.7-1.2,6.7
		c5.1-2.9,8.9-11.9,9.7-16.6s5.9-6.8,8.5-2.1c2.6,4.7-2.3,15.4-2.3,15.4c8.6,0.8,3.5,8.8,3.5,8.8c10.4,5-12.9,32.2-12.9,32.2
		s-28.1,57.5-50,67l-23.3-30.1c0,0,20.9-18.1,34-32S395.1,298.9,395.1,298.9z"></path><path class="st1" d="M397.6,299.5c-5.2-9.6-2.9-21.5,2.1-30.6c2-3.6,4.5-7.2,7.9-9.6c1.3-0.9,2.8-1.4,4.3-1.4
		c-3.5,0.3-2.7-1.1-1.9-0.4c0.2,0.1,0.3,0.3,0.5,0.4c0.3,0.3,0.6,0.7,0.8,1.1c0.4,0.8,0.6,1.8,0.6,2.7c0.1,1.8-0.3,3.6-1.1,5.2
		c-0.9,2-1.3,4.3-1.1,6.5c0,0.7,4.3,1.6,4.8,1.3c3-1.8,5.1-4.9,6.6-7.9c0.8-1.6,1.5-3.2,2.1-4.9c0.5-1.5,0.7-3,1.1-4.5
		c0.4-1.6,1.4-2.9,2.8-3.7c0.3-0.1,0.7-0.2,1-0.3c0.1,0,0.5,0,0.5,0c-0.2,0.1-2.6-0.9-2.3-0.5c0.7,0.7,1.2,1.4,1.7,2.2
		c1.2,2.7,0.4,6.1-0.3,8.8c-0.6,2.1-1.3,4.2-2.2,6.2c-0.2,0.4,3.7,1.3,4.1,1.3c1.6,0.2-1.4-0.9-0.7-0.2c0.2,0.2,0.4,0.3,0.6,0.5
		c0.4,0.4,0.6,0.8,0.8,1.3c0.2,0.9,0.2,1.8,0,2.6c-0.3,1.2-0.7,2.3-1.4,3.3c0.1,0.1,0.2,0.2,0.3,0.2c3.1,1.5,2.6,5.4,1.8,8.1
		c-1.4,4.2-3.4,8.2-6,11.8c-2.2,3.4-4.6,6.6-7.1,9.7c-0.8,0.8-1.5,1.7-2.1,2.7c-2.8,5.6-5.8,11.1-8.9,16.5
		c-5.3,9.5-11.2,18.7-17.6,27.6c-3.1,4.3-6.6,8.5-10.2,12.4c-3,3.3-6.5,6.2-10.3,8.6c-0.8,0.5-1.7,0.9-2.5,1.3l4.7,1.2l-22.2-28.7
		c-0.2-0.2-1.1-1-1.1-1.4c0,0.1,0.8-0.6,1-0.8c2.7-2.4,5.4-4.7,8.1-7.1c8.9-8.1,17.7-16.3,26-25.1c4-4.3,8.1-8.7,12-13.1
		c1-1.1,1.9-2.2,2.8-3.3c0.1-0.2-2.2-0.9-2.3-1c-0.4-0.1-2.2-0.8-2.5-0.3c-0.9,1.1-1.8,2.2-2.7,3.2c-3.7,4.2-7.5,8.3-11.3,12.4
		c-9,9.7-18.7,18.7-28.5,27.5c-2.4,2.1-4.8,4.3-7.3,6.4l0.1,0.1l20.5,26.5l2.9,3.7c0.4,0.5,1.8,0.7,2.3,0.9s1.8,0.6,2.4,0.4
		c3.8-1.8,7.2-4.3,10.1-7.2c3.8-3.6,7.3-7.6,10.5-11.8c6.8-8.9,12.9-18.2,18.4-27.9c3.6-6.2,7-12.5,10.2-18.9
		c0.4-0.8,0.9-1.6,1.5-2.3c2.3-2.8,4.4-5.6,6.5-8.6c2.7-3.7,5-7.8,6.8-12c1.1-2.8,2.4-6.8,0.2-9.4c-0.5-0.6-1.1-1-1.8-1.3l0.3,0.2
		c1-1.5,1.5-3.2,1.5-4.9c-0.1-1.2-0.7-2.3-1.7-3c-2.2-1.3-4.8-2.1-7.4-2.2l4.1,1.3c0.9-2.1,1.7-4.2,2.2-6.4c0.8-3,1.6-6.8-0.3-9.6
		c-1.3-2-3.6-2.6-5.8-3.1c-1.8-0.4-3.5-0.5-5,0.7s-1.9,2.8-2.3,4.5c-0.4,1.8-0.9,3.5-1.7,5.2c-1.6,4-4.1,8.4-7.9,10.7l4.8,1.3
		c-0.1-2.1,0.2-4.3,1-6.2c0.8-1.5,1.2-3.3,1.3-5c0.1-2-0.8-3.8-2.4-5c-1.5-0.9-3.2-1.4-4.9-1.7c-1.2-0.3-2.4-0.3-3.5-0.1
		c-3.7,0.7-6.7,4.4-8.8,7.2c-3.3,4.6-5.5,9.8-6.7,15.3c-1.4,6.5-1,13.3,2.2,19.2c0.3,0.6,1.8,0.8,2.3,1c0.6,0.2,1.1,0.3,1.7,0.4
		C396.9,299.5,397.6,299.6,397.6,299.5z"></path><path class="st1" d="M406.8,281.2c1.2-0.5,2.2-1.2,3.2-2c0.8-0.7,1.6-1.5,2.3-2.4c0.6-0.7,1.2-1.5,1.7-2.2c0.3-0.4,0.6-0.8,0.9-1.1
		l0.4-0.5l0.2-0.3c0.1-0.1,0-0.1-0.2,0.2l0.1-0.2c0.4-0.4,0.7-0.9,0.7-1.4c0-0.5-0.3-1-0.7-1.2c-1.1-0.6-2.5-0.3-3.4,0.5
		c-1.3,1.5-2.5,3.1-3.7,4.6c-0.1,0.2-0.3,0.3-0.4,0.5s-0.4,0.4,0.1-0.1l-0.2,0.2c-0.3,0.3-0.6,0.6-0.9,0.9l-0.5,0.4l-0.3,0.2
		c0.6-0.5,0.3-0.2,0.1-0.1c-0.2,0.1-0.4,0.3-0.6,0.4c-0.2,0.1-1,0.5-0.1,0.1c-0.6,0.2-1.1,0.6-1.5,1.1c-0.3,0.4-0.4,0.9-0.3,1.4
		C404.5,281.4,405.8,281.8,406.8,281.2L406.8,281.2z"></path><path class="st1" d="M422.3,280.9c3.1-3.3,5.8-7,8-11c0.4-0.6,0.3-1.4-0.3-1.8c-0.2-0.1-0.4-0.2-0.7-0.2c-1.3-0.1-2.5,0.5-3.2,1.6
		c-1,1.9-2.2,3.7-3.4,5.4l-0.2,0.3c0,0-0.3,0.4-0.1,0.1l-0.1,0.1c-0.1,0.1-0.2,0.2-0.3,0.4l-1,1.2c-0.7,0.8-1.4,1.6-2.2,2.4
		s-0.9,2,0.2,2.4C420.2,282.2,421.5,281.8,422.3,280.9L422.3,280.9z"></path><path class="st1" d="M430.3,285.6c1.6-1.3,3-2.9,4-4.8c0.3-0.6,0.4-1.2,0.2-1.8c-0.2-0.6-0.6-1.2-1.1-1.6c-0.5-0.4-1.1-0.5-1.7-0.4
		c-0.6,0.1-1.1,0.5-1.4,1c-0.3,0.6-0.7,1.1-1.1,1.6l0.4-0.5c-0.7,1-1.6,1.9-2.6,2.6c-0.4,0.4-0.7,1-0.6,1.6c0,0.7,0.3,1.3,0.7,1.8
		c0.4,0.5,1,0.8,1.6,0.9h0.6C429.7,286.1,430,285.9,430.3,285.6L430.3,285.6z"></path><path class="st0" d="M228.1,409.3c-9.7-16.4-38.4-16-43-9c-3.7,5.7,3.8,8.9,6.5,8.9s6.4,2.3,6.4,2.3c-5,3-14.8,1.8-19.2,0.1
		s-8.8,1.7-6.1,6.3s14.4,5.8,14.4,5.8c-3.7,7.8,5.8,7.5,5.8,7.5c-0.9,11.5,34.3,5,34.3,5s63.9,4.6,83-9.6L296,391.1
		c0,0-26.1,9-44.8,13.3S228.1,409.3,228.1,409.3z"></path><path class="st1" d="M230.5,409.9c-6-10-18.7-13.9-29.6-14.8c-4.5-0.5-9.1,0-13.5,1.4c-3.2,1.2-7.4,4.4-5.1,8.3
		c1.5,2.5,4.8,3.7,7.5,4.4c0.9,0.2,1.8,0.4,2.7,0.6c0.3,0,0.6,0.1,0.9,0.1h0.3c0.7,0-0.2,0.1-0.6-0.2c0.6,0.3,1.2,0.6,1.9,0.9
		c0.3,0.2,0.7,0.4,1,0.6l-0.3-0.2c-3.5,2-8.1,2-12,1.5c-0.8-0.1-1.5-0.2-2.3-0.4c-0.2,0-0.3-0.1-0.5-0.1l-0.9-0.3
		c-2.2-0.8-4.9-1.5-7.2-1c-3.9,1-4.1,5.4-1.4,7.9c2.5,2.4,6.3,3.4,9.5,4.3c2.6,0.7,5.3,1.2,7.9,1.5l-4.1-1.3
		c-0.7,1.5-1.2,3.3-0.4,4.9c0.7,1.1,1.8,1.9,3,2.3c2.5,1.1,5.1,1.6,7.8,1.6l-4.5-1.4c-0.1,2,1,3.9,2.9,4.8c2.9,1.7,6.5,2.4,9.8,2.9
		c6.2,0.9,12.6,0.4,18.8-0.3c2.1-0.2,4.2-0.5,6.3-0.9c0.4-0.1,0.8-0.1,1.2-0.2c-0.4,0.1-0.1,0,0.2,0c3.5,0.3,7.1,0.4,10.6,0.5
		c14.7,0.6,29.3,0.1,43.9-1.5c7.1-0.9,14.3-2.1,21-4.7c1.4-0.5,2.7-1.1,4-1.8c0.6-0.3,1.1-0.6,1.7-0.9c0.4-0.2,1.4-0.7,1.6-1.1
		s-0.8-2.5-1.1-3.1l-12.8-31.5l-0.3-0.8c-0.2-0.5-1.6-0.8-2-0.9c-0.7-0.2-2-0.7-2.7-0.5c-8.1,2.8-16.2,5.4-24.5,7.8
		c-12.5,3.7-25.2,6.8-38,9.3c-1.8,0.4-3.6,0.8-5.4,1c-0.4,0,1.5,0.8,1.6,0.8c1,0.4,2,0.6,3,0.6c1.4-0.2,2.8-0.5,4.1-0.7
		c5.5-1.1,11-2.3,16.4-3.5c12.9-2.9,25.6-6.7,38.2-10.8c3.1-1,6.1-2,9.2-3l-4.7-1.3l11.5,28.2l2.4,5.9c0.1,0.2,0.5,0.9,0.5,1.2
		c-0.1,0.5-1.9,1.3-2.4,1.6c-5.5,3.1-12,4.7-18.2,5.8c-14.6,2.7-29.7,3-44.5,2.8c-4.8-0.1-9.7-0.2-14.5-0.5
		c-1.6-0.1-3.3-0.1-4.9,0.1c-5.2,0.9-10.4,1.4-15.7,1.5c-1.5,0-3.1,0-4.6-0.1c-1.3-0.1-2.5-0.2-3.8-0.4c-0.6-0.1,0.5,0.1-0.2,0
		l-0.4-0.1c0.9,0.2-0.5-0.1,0.4,0.1l-0.3-0.1c0.3,0.1,0.2,0.1-0.1,0c-0.1-0.1-0.4-0.2-0.7-0.3c-0.8-0.4-1.5-1.1-2-1.8
		c-0.5-0.8-0.7-1.7-0.6-2.7c0.1-0.7-3.9-1.4-4.5-1.4c-0.4,0-0.7,0-1.1,0h-0.3c-0.2,0-0.2,0,0,0c-0.2,0-0.2,0,0.1,0
		c0.1,0,1,0.3,1.1,0.3c-0.1,0-0.3-0.1-0.4-0.2c-2.3-1.4-1.8-4.1-0.8-6.1c0.2-0.4-3.7-1.3-4.1-1.3l-1.4-0.2c-0.7-0.1-1.9-0.3-2.9-0.6
		c0.5,0.1-0.7-0.2-0.3-0.1l-0.7-0.2c-0.6-0.2-1.2-0.4-1.8-0.7c-1.2-0.5-2.3-1.4-3.1-2.4c-1.1-1.4-1.3-3.3-0.5-4.9
		c0.4-0.6,0.9-1.1,1.6-1.5c0.4-0.2,0.7-0.3,1.1-0.4c0.2,0,0.4-0.1,0.6-0.1c1-0.1,0.9,0.4-0.6-0.3c1.7,0.7,3.5,1.2,5.3,1.5
		c2,0.4,4,0.7,6.1,0.9c3.9,0.3,8.1,0.2,11.6-1.8c0-0.1-0.2-0.2-0.3-0.2c-2.2-1.3-4.5-2.2-6.9-2.8c-0.9-0.3-1.9-0.4-2.9-0.5
		c-0.3,0-0.6,0-0.9,0c-0.3,0-0.1,0,0.1,0c0.4,0.1,1.4,0.5,0.6,0.1c-0.5-0.2-1-0.5-1.4-0.9c-1.9-1.2-2.7-3.7-1.7-5.8
		c0.6-1.4,1.7-2.5,3.1-3.2c3.2-1.8,7.2-2.3,10.9-2.4c2.3,0,4.5,0.1,6.8,0.5c1.8,0.2,3.6,0.7,5.4,1.4c5.2,2,9.7,5.6,12.7,10.3
		c0.4,0.6,1.7,0.8,2.3,1c0.6,0.2,1.2,0.3,1.7,0.4C229.8,409.9,230.6,410,230.5,409.9z"></path><path class="st1" d="M204.6,407.7c-0.1,0.1-1.1,0.7-1.1,0.7c0.4-0.2,0.4-0.2,0.1-0.1l-0.3,0.1c-0.2,0.1-0.4,0.2-0.6,0.2
		c-0.2,0.1-0.4,0.1-0.6,0.2c0.4-0.1,0.4-0.1,0.1,0l-0.3,0.1c-0.4,0.1-0.8,0.2-1.2,0.2c-1.8,0.3-3.6,0.4-5.4,0.8
		c-0.7,0.1-1.3,0.4-1.8,0.8c-0.4,0.4-0.7,0.9-0.7,1.4c0.2,1,1.1,1.7,2.1,1.6c0.1,0,0.2,0,0.3-0.1c4-0.8,8.4-0.6,11.9-3.1
		c0.8-0.5,1.8-1.8,0.9-2.7C207,407.1,205.6,407,204.6,407.7L204.6,407.7z"></path><path class="st1" d="M199.1,420.1c-1.9,0.4-3.9,0.8-5.8,1c-1,0.1-2,0.2-3,0.2s-1.9,0-2.9,0c-1.3-0.1-2.5,0.5-3.2,1.6
		c-0.4,0.6-0.3,1.4,0.3,1.8c0.2,0.1,0.5,0.2,0.7,0.2c4.7,0.1,9.5-0.3,14.1-1.4c1-0.2,2.3-1.2,2.2-2.4S200,419.9,199.1,420.1
		L199.1,420.1z"></path><path class="st1" d="M197,428.4l-0.5,0.2L197,428.4c-1.3,0.4-2.7,0.7-4.1,0.8h0.6h-0.8c-0.6,0-1.2,0.2-1.6,0.6
		c-0.4,0.4-0.6,1-0.6,1.6c0,0.7,0.3,1.3,0.7,1.8c0.4,0.5,1,0.8,1.6,0.9c1.1,0,2.3-0.1,3.4-0.3c1.1-0.2,2.2-0.6,3.3-1
		c0.5-0.3,0.9-0.8,1.1-1.4c0.1-0.6,0.1-1.3-0.2-1.9c-0.3-0.6-0.8-1-1.4-1.3l-0.6-0.1C197.8,428.1,197.4,428.2,197,428.4L197,428.4z"></path><path class="st1" d="M250.4,399c0,0,3.1,38,9.2,38s46,7.4,87.7-25.8s46-51.6,46.1-55.3c0.3-8.5-20.4-31.2-25.3-31.2
		s-27.6,26.4-27.6,26.4s-25.8,3.1-52.8,35L250.4,399z"></path><path class="st1" d="M248,399.3c0.6,7.3,1.5,14.6,2.7,21.8c0.6,4.5,1.7,8.9,3.3,13.1c0.5,1.6,1.4,3,2.6,4.1
		c0.9,0.6,2.1,0.9,3.2,0.9c2.9,0.2,5.9,0.5,8.8,0.6c5.1,0.2,10.2,0.1,15.2-0.4c14.7-1.3,29-5.5,42.1-12.2c8.7-4.5,16.9-9.8,24.5-16
		c6.9-5.6,13.6-11.4,20-17.6c7.8-7.6,15.3-15.9,20.7-25.4c2.1-3.7,4.4-8.1,4.6-12.5c0.2-4.2-2.6-8.5-4.8-11.8
		c-3.3-5-7.1-9.6-11.4-13.8c-1.7-1.8-3.5-3.4-5.5-4.9c-1.3-1.1-2.8-1.9-4.4-2.5c-3.7-0.9-7.3,2.8-9.8,5
		c-7.1,6.3-13.5,13.5-19.8,20.6c-0.4,0.5-0.9,1-1.3,1.5l1.7-0.9c-3.8,0.6-7.4,1.6-10.9,3.1c-9.3,3.7-18,8.9-25.7,15.2
		c-6.5,5.3-12.4,11.1-17.8,17.5l1.1-0.8l-32.8,11.3l-4.6,1.6c-1.2,0.4-1.9,1.6-1.8,2.9c0.4,1.3,1.8,1.4,2.8,1.1l30-10.3l6.2-2.1
		c0.4-0.1,0.8-0.2,1.2-0.4c0.9-0.5,1.7-1.2,2.3-2.1c1.2-1.3,2.3-2.6,3.5-3.9c7.3-8,15.7-14.8,24.9-20.4c5.4-3.2,11.2-5.8,17.3-7.6
		c0.7-0.2-0.5,0.1,0.2,0l0.6-0.2l1.2-0.3c0.5-0.1,1-0.2,1.6-0.3c1.1-0.2,2.1-0.7,2.8-1.5c3.6-4.1,7.3-8.2,11-12.2
		c2.5-2.6,5.1-5.3,7.7-7.8l1.7-1.5l0.8-0.7c0.5-0.4-0.3,0.2,0,0l0.5-0.4c0.9-0.7,1.8-1.4,2.8-2l0.3-0.2c0,0-0.6,0.2-0.3,0.1
		c0.2-0.1,0.3-0.1,0.5-0.2c0.5-0.3-0.6,0.1-0.1,0s-0.7,0,0,0c0.1,0-0.5-0.2,0,0c0.2,0.1,0.4,0.2,0.6,0.2c0.6,0.2-0.1-0.1,0.2,0.1
		s0.5,0.3,0.8,0.5c2.6,1.8,5,3.9,7.2,6.3c2.7,2.8,5.2,5.7,7.5,8.8c2.2,2.8,4.1,5.8,5.7,9c0.6,1.2,1,2.4,1.2,3.7c0.1,0.4,0,0,0-0.1
		c0,0.1,0,0.3,0,0.4s0,0.3,0,0.4s0,0.3,0,0.5s0,0.3-0.1,0.5c0,0.4,0.1-0.6,0-0.2c0,0.1,0,0.3-0.1,0.4c-0.1,0.5-0.2,1.1-0.4,1.6
		c-0.2,0.7-0.4,1.4-0.7,2c-0.1,0.4-0.3,0.8-0.5,1.1l-0.2,0.6c0.3-0.7-0.1,0.1-0.1,0.3c-1,2-2,4-3.2,5.9c-3.7,5.8-8,11.3-12.9,16.3
		c-7.7,8.1-15.9,15.6-24.6,22.6c-9.7,8-20.4,14.5-32,19.4c-8.9,3.7-18.3,6.1-27.9,7.4c-6.6,0.9-13.3,1.1-20,0.7c-2-0.1-4-0.3-6-0.4
		c-0.6,0-1.2-0.1-1.8-0.1h-0.3c-0.5,0,0.3,0.1,0.1,0c-0.5-0.2,0.2,0.3,0,0c-0.1-0.1-0.3-0.2-0.4-0.3c-0.3-0.2,0.3,0.4,0.1,0.1
		c-0.1-0.1-0.1-0.2-0.2-0.2l-0.4-0.5c-0.1-0.2-0.2-0.4-0.4-0.6s-0.4-0.8-0.3-0.6s-0.2-0.5-0.3-0.7s-0.2-0.5-0.3-0.8
		c-0.2-0.7-0.5-1.3-0.7-2c-0.9-3.1-1.6-6.2-2.1-9.4c-1.1-6.2-1.8-12.1-2.4-18c-0.1-1-0.2-2.1-0.3-3.1
		C252.5,395.6,247.8,396.8,248,399.3z"></path><path class="st0" d="M323.2,424.5c0,0,9.8,25.8,32.8,19.2s34-38.2,16.6-61.3s-46.6-3.2-46.6-3.2L323.2,424.5z"></path><path class="st1" d="M320.8,424.9c1.5,3.9,3.7,7.5,6.4,10.6c5.3,6.4,12.7,10.6,21.1,10.7c9.9,0.2,19.6-4.9,25.9-12.4
		c6.3-7.6,9.7-17.2,9.5-27c-0.2-10.7-4.6-21.8-12.3-29.2c-7.3-7-17.2-9.1-27-7.5c-6.7,1.1-13.1,3.5-18.9,7c-1,0.6-2,1.1-2.1,2.3
		c-0.1,1.9-0.2,3.7-0.3,5.5l-2.3,38.4l0,0.9c-0.1,2,4.9,2.1,5,0l0.9-15.3l1.5-24.4l0.3-5.6l-0.7,1.1c0.5-0.4,1.1-0.7,1.7-1
		s1.2-0.7,1.9-1c0.4-0.2,0.8-0.4,1.1-0.6l0.6-0.3l0.4-0.2c4.5-2.2,9.3-3.6,14.3-4.2c2.6-0.3,5.3-0.2,7.9,0.3
		c2.9,0.6,5.6,1.7,8.1,3.4c6,4,10.2,10.7,12.6,17.4c4.5,12.4,2.5,27-5.7,37.4c-3.8,4.8-8.9,8.5-14.6,10.5
		c-5.5,1.8-10.9,1.7-15.8-0.8c-6.8-3.5-11.3-9.9-14.4-16.7c-0.1-0.1-0.1-0.3-0.2-0.4C325,422.2,320,422.7,320.8,424.9z"></path><path class="st0" d="M308.6,406c0.2,12.9,29.1,35.5,29.1,35.5c10.4,3.3,29.9-20.8,29.9-20.8c-9.2-4.3-17.9-16.7-17.9-16.7
		c8.1,4,13.1-5,7.5-10.8s-14.4-1.5-14.4-1.5s-9.1-14.8-11.7-16.8s-17.1,4.2-17.3,16.3C313.8,391.2,308.4,394.7,308.6,406z"></path><path class="st1" d="M306.3,406.9c0.2,2.9,1.1,5.7,2.7,8.1c1.8,3,3.9,5.9,6.2,8.6c4.7,5.4,9.8,10.4,15.3,15c1.5,1.3,3,2.6,4.6,3.8
		c1.4,1.1,3.3,1,4.9,0.8c3.5-0.7,6.9-2.1,9.8-4.2c3.1-2.1,6.1-4.4,8.8-7c3.9-3.6,7.5-7.4,10.8-11.5c0.2-0.3,0.6-1,0.1-1.2
		c-4.8-2.3-8.8-6-12.3-9.9c-1.9-2.1-3.7-4.3-5.4-6.6l-4.2,2.6c3,1.5,6.5,1.4,9.4-0.2c2.6-1.3,4.4-3.9,4.7-6.9c0.1-3.1-1.5-5.9-4-7.6
		c-2.7-1.7-5.9-2.4-9-1.9c-2.3,0.3-4.5,1-6.5,1.9l2.7-0.2c-3.1-5.3-6.5-10.4-10.2-15.2c-0.6-0.8-1.3-1.5-2.2-2
		c-1.4-0.4-2.8-0.3-4.1,0.1c-3.8,1-7.4,3-10.3,5.6c-3.9,3.3-6.3,8-6.6,13.1l1.2-1.5C307.6,394,306.2,401.3,306.3,406.9
		c0,1.6,4.5-0.2,4.5-1.7c-0.1-3.2,0.4-6.4,1.5-9.4c0.3-0.8,0.8-1.6,1.3-2.4c0.2-0.3,0.4-0.6,0.7-0.9c0,0,0.4-0.5,0.2-0.2l0.2-0.2
		c0.1-0.1,0.4-0.2,0.4-0.4c-0.1,0.2-0.5,0.4-0.2,0.2c0.6-0.3,1-0.9,1.2-1.5c0.1-0.7,0.1-1.5,0.2-2.2c0.4-2.6,1.6-5,3.3-7
		c0.7-0.8,1.5-1.6,2.3-2.2c0.3-0.2,0.8-0.6,1.2-0.9l0.6-0.4l0.7-0.4c0.7-0.4,1.4-0.7,2.2-1c0.6-0.2,1.1-0.3,1.7-0.3
		c0.3,0,0.2,0,0.1,0c0.1,0,0.3,0,0.4,0c0.3,0.1-0.2-0.1,0,0c0.1,0.1,0.2,0.1,0.3,0.2c0.5,0.4,0.9,0.8,1.3,1.3
		c1.4,1.7,2.6,3.5,3.9,5.3c2.2,3.3,4.3,6.6,6.4,9.9c0.5,0.8,2.2,0,2.7-0.2c-0.8,0.4-0.5,0.2-0.1,0.1s0.6-0.2,1-0.4s0.2-0.1,0,0
		l0.4-0.1l0.9-0.2c0.5-0.1,1-0.2,1.5-0.2c3.2-0.4,6.3,0.7,8.5,3.1c1.7,2,2.5,5,1.3,7.4c-0.2,0.4-0.4,0.7-0.7,1
		c-0.1,0.1-0.4,0.3-0.1,0.1s0,0-0.2,0.1c-1.4,0.2-2.8-0.1-4-0.8c-0.9-0.4-2.1,0.1-2.8,0.6c-0.4,0.3-1.9,1.3-1.4,2
		c1.7,2.4,3.6,4.7,5.6,6.9c3.6,3.9,7.7,7.8,12.5,10.1l0.1-1.2c-2.5,3-5.1,5.9-7.9,8.6c-2.4,2.3-4.9,4.5-7.5,6.5
		c-0.6,0.5-1.3,0.9-1.9,1.4c-0.6,0.4-1.2,0.8-1.8,1.1c-0.4,0.2-0.7,0.4-1.1,0.6l-0.4,0.2c-0.7,0.3,0.5-0.2-0.2,0.1l-0.8,0.3
		l-0.5,0.2c-0.2,0-0.1,0,0.1,0l-0.4,0.1c-1,0.3-2,0.4-3,0.2c-0.1,0-0.7-0.2-0.6-0.1s0.1,0,0,0c-0.1-0.1-0.2-0.2-0.3-0.3
		c-1.3-1.1-2.7-2.2-4-3.3c-5-4.2-9.8-8.8-14.2-13.6c-2.6-2.8-5-5.9-7.1-9.2c-1.6-2.6-3.1-5.5-3.2-8.6
		C310.8,403.5,306.3,405.4,306.3,406.9z"></path><path class="st0" d="M326,412.1c0,0-15.9,11-11.6,20.6s17.5,3.7,19.8-9.6"></path><path class="st1" d="M323.6,412.4c-1.9,1.4-3.7,2.9-5.4,4.6c-2.9,2.9-5.8,6.3-6.7,10.3c-0.9,3.7,0.5,8.1,4,9.9
		c1.9,0.8,3.9,1,5.9,0.7c2.5-0.3,4.8-1,7-2.2c4.6-2.7,7.2-7.9,8.1-13c0.1-0.3-2.3,0-2.5,0c-0.4,0.1-2.3,0.2-2.4,0.8
		c-0.6,4.5-2.8,8.6-6.2,11.6c-0.7,0.6-1.4,1.1-2.2,1.5c-0.3,0.1-0.6,0.3-0.9,0.4c-0.1,0-0.5,0.2-0.2,0.1c0,0-0.4,0.1-0.1,0l0.7-0.1
		c0.4-0.1-0.1,0,0.2,0c-0.2,0-0.1,0-0.3,0c-0.4,0-0.7-0.1-1.1-0.2c-0.7-0.2-1.3-0.5-2-0.9c-3.1-2.1-4-6.2-3.1-9.6
		c1-3.7,3.6-6.9,6.3-9.6c1.7-1.8,3.6-3.4,5.6-4.8c0.4-0.3-1.7-0.2-1.8-0.2C325.5,411.7,324.5,412,323.6,412.4L323.6,412.4z"></path><path class="st1" d="M338,399.5c-1-1-2.1-1.7-3.3-2.3c-2.3-1.1-4.9-1.3-7.3-0.6c-0.6,0.2-1,0.7-1.2,1.2c-0.2,0.6-0.1,1.2,0.2,1.7
		c0.6,1.2,2,1.7,3.2,1.4l0.4-0.1l-0.6,0.1c0.5-0.1,1.1-0.2,1.6-0.2c0.4,0-0.6,0-0.2,0h0.4c0.2,0,0.5,0.1,0.7,0.1l0.3,0.1
		c0.4,0.1-0.6-0.2-0.2-0.1l0.6,0.2c0.4,0.1,0.7,0.3,1.1,0.5l-0.6-0.3c0.6,0.3,1.2,0.7,1.7,1.2l-0.5-0.5l0.1,0.1c0.4,0.5,1,0.8,1.7,1
		c0.6,0.1,1.2,0,1.7-0.4C338.8,401.9,338.9,400.5,338,399.5C338.1,399.5,338.1,399.5,338,399.5L338,399.5z"></path><path class="st1" d="M338.6,427c0.5-0.7,0.3-1.7-0.4-2.2c-0.1,0-0.1-0.1-0.2-0.1c-1.6-0.8-2.5,1.2-1.4,2.3c0.5,0.6,1.3,0.7,1.9,0.2
		C338.5,427.1,338.6,427.1,338.6,427z"></path><path class="st1" d="M347,418.7c0.5-0.7,0.3-1.7-0.4-2.2c-0.1,0-0.1-0.1-0.2-0.1c-1.6-0.8-2.5,1.2-1.4,2.3c0.5,0.6,1.3,0.7,1.9,0.2
		C346.9,418.8,347,418.8,347,418.7z"></path></g><g id="character-2"><path class="st1" d="M395.9,243.3c0,0-22.4,11.2-25.1,0.5s16.7-16.1,16.7-16.1L395.9,243.3z"></path><path class="st1" d="M393.6,242.6c-2.1,1-4.3,1.9-6.5,2.7c-3.7,1.3-7.9,2.7-11.8,2.3c0.3,0-0.3,0-0.3,0c0.2,0,0.3,0.1,0.5,0.1
		c-0.1,0-0.4-0.1-0.1,0c0.1,0,0.2,0.1,0.4,0.1c-0.1,0-0.2-0.1-0.1,0s-0.2-0.1-0.3-0.2c-0.6-0.4-1.2-1-1.5-1.6
		c-0.9-1.8-1.1-3.8-0.5-5.7c1.2-4,5-6.6,8.5-8.5c2.5-1.4,5.2-2.5,8-3.3l-4.7-1.2l8.4,15.7c0.4,0.7,2.2,1,2.9,1.1
		c0.2,0,2.1,0.4,1.8-0.1l-8.4-15.7c-0.3-0.5-1.8-0.8-2.2-0.9c-0.8-0.3-1.6-0.4-2.4-0.3c-2.6,0.8-5.2,1.8-7.6,3.1
		c-3.7,1.9-7.9,4.8-9.1,9c-0.6,2-0.3,4.2,0.8,6.1c1.2,2,3.6,2.8,5.7,3.4c4.8,1.3,9.6,0.6,14.3-0.9c3.1-0.9,6.2-2.1,9.1-3.6
		c0.6-0.3-1.4-1-1.5-1C395.9,242.8,394.3,242.2,393.6,242.6z"></path><path class="st1" d="M387.8,226.5c0,0-22.4,11.2-25.1,0.5s16.7-16.1,16.7-16.1L387.8,226.5z"></path><path class="st1" d="M385.9,225.2c-3.9,1.9-8,3.4-12.3,4.3c-0.9,0.2-1.8,0.3-2.7,0.4c-0.5,0-1,0.1-1.5,0.1s0.2,0-0.2,0l-0.7-0.1
		c-0.2,0-0.5,0-0.7-0.1c0.4,0.1,0.1,0-0.1,0l-0.6-0.2c0.5,0.2,0,0-0.2-0.1c-0.4-0.2,0.3,0.2-0.1-0.1c-0.1-0.1-0.3-0.2-0.4-0.3
		c0.4,0.3-0.1-0.1-0.2-0.2c-0.3-0.3,0,0-0.2-0.2c-1-1.5-1.2-3.4-0.8-5.2c1-3.9,4.8-6.4,8.1-8.2c2.4-1.4,5-2.4,7.7-3.2l-3.7-1.3
		l8.4,15.7c0.9,1.6,5.7,1.9,4.5-0.4l-8.4-15.7c-0.6-1.2-2.6-1.6-3.7-1.2c-2.7,0.8-5.4,1.9-7.9,3.2c-3.9,2-8.2,4.9-9.6,9.3
		c-1.5,4.2,0.7,8.9,4.9,10.4c0.3,0.1,0.7,0.2,1,0.3c4.5,1.4,9.6,0.2,14-1.1c3.2-1,6.4-2.2,9.4-3.7c1-0.5,0.3-1.7-0.4-2.2
		C388.4,224.9,387.1,224.7,385.9,225.2z"></path><path class="st0" d="M401,241c0,0-22.4,11.2-25.1,0.5s16.7-16.1,16.7-16.1L401,241z"></path><path class="st1" d="M400.6,239.2c-2.1,1-4.2,1.9-6.5,2.7c-3.5,1.3-7.5,2.4-11.2,2.1c-0.8,0-1.6-0.2-2.3-0.5
		c-0.3-0.1-0.5-0.2-0.7-0.4c-0.2-0.1-0.3-0.2-0.5-0.4c-0.1-0.1-0.4-0.4-0.2-0.2c-1.1-1.3-1.5-3.1-1.2-4.8c0.3-1.6,1.2-3,2.4-4.1
		c0.3-0.3,0.7-0.6,1-0.9l0.4-0.3c0,0-0.3,0.2-0.1,0.1l0.7-0.5c0.9-0.6,1.8-1.2,2.7-1.7l0.7-0.4c-0.4,0.2,0.2-0.1,0.3-0.1l1.5-0.7
		c0.9-0.4,1.7-0.7,2.6-1.1c0.6-0.2,1.2-0.4,1.8-0.6c0.4-0.1,1.3-0.4,0.2-0.1l-1.9-0.6l8.4,15.7c1.1,2,5.3-0.6,4.2-2.7l-8.4-15.7
		c-0.4-0.6-1.2-0.8-1.9-0.6c-2.8,0.8-5.4,1.9-8,3.2c-4.3,2.2-9,5.3-10.8,10c-1.6,4.3-0.2,9.4,4.3,11c4.4,1.5,9.5,0.2,13.8-1.1
		c3.2-0.9,6.2-2.1,9.2-3.6c1-0.5,2.2-1.4,1.9-2.7S401.5,238.8,400.6,239.2z"></path><path class="st0" d="M392.9,224.2c0,0-22.4,11.2-25.1,0.5s16.7-16.1,16.7-16.1L392.9,224.2z"></path><path class="st1" d="M390.6,223.7c-2.1,1-4.2,1.9-6.5,2.7c-2,0.7-4,1.3-6,1.7c-1,0.2-1.9,0.4-2.9,0.4c-0.4,0-0.9,0.1-1.2,0.1
		s-0.6,0-0.3,0h-0.3c-0.4,0,0.4,0.1,0,0c0.1,0,0-0.1,0.1,0c-0.1,0-0.5-0.2-0.2-0.1c-0.4-0.1-0.7-0.3-1-0.5c-0.6-0.4-1.2-1-1.5-1.6
		c-0.9-1.7-1.2-3.8-0.6-5.7c1.1-4,5-6.6,8.4-8.5c2.5-1.4,5.1-2.5,7.9-3.3l-4.5-0.7l8.5,15.7c0.4,0.7,2.4,0.7,3,0.8
		c0.3,0,2.1,0.1,1.8-0.4l-8.4-15.7c-0.2-0.5-1.6-0.6-2-0.7c-0.8-0.2-1.7-0.2-2.5-0.1c-2.7,0.8-5.2,1.8-7.7,3.1c-3.8,1.9-8,4.8-9.3,9
		c-1.3,3.6,0.5,7.5,4.1,8.8c0.5,0.2,1,0.3,1.5,0.4c5,1.3,10.2,0.5,15-1c3.2-1,6.3-2.2,9.2-3.6c0.6-0.3-1.5-0.9-1.6-0.9
		C392.7,223.4,391.6,223.4,390.6,223.7z"></path><path class="st0" d="M328.3,125.3c-15.7,4.5-33.3-12.7-32-19.7c1-5.8,7.6-3.3,9.2-1.7s5.4,2.3,5.4,2.3c-1.4-4.8-8.1-9.8-11.9-11.3
		s-4.5-6.2-0.1-7.5s12.4,4.9,12.4,4.9c2.3-7,8-1.2,8-1.2c6.2-7.7,24.3,17.1,24.3,17.1s42.4,34.8,45.9,54.8l-29.7,13.5
		c0,0-10.9-21-20-34.6S328.3,125.3,328.3,125.3z"></path><path class="st1" d="M326,124.6c-3.8,1.1-7.8,0.9-11.4-0.6c-3.9-1.8-7.5-4.3-10.5-7.4c-2.2-2.3-4.5-5.1-5.3-8.2
		c-0.3-1.4-0.1-2.8,0.6-4c0.4-0.7,1-1.2,1.8-1.4c0.3-0.1,0.7-0.2,1.1-0.2c0.4,0,1.2,0.1,0.1-0.1c-0.6-0.2-0.9-0.3-0.3,0
		c0.3,0.1,0.6,0.3,0.8,0.5c0.7,0.6,1.6,1.2,2.4,1.6c2.2,1,4.4,1.7,6.8,2.1c0,0,1.3,0.2,1.3,0c-1.8-5.7-7.7-9.2-12.6-11.8
		c-2.1-1.1-3.3-4-1.4-5.9c0.5-0.5,1.1-0.8,1.8-1c0.4-0.1,1.3,0,1.6-0.2c0,0-0.9-0.3-0.2,0s1.2,0.5,1.8,0.8c1.6,0.9,3.2,1.9,4.7,3
		c0.4,0.3,4.5,1.8,4.8,1.2c0.3-1.1,0.9-2,1.7-2.8c0.4-0.3,0.8-0.4,1.2-0.5c1.3-0.4-2.3-0.9-1.9-0.6c0.8,0.4,1.5,1,2.2,1.6
		c0.8,0.5,1.7,0.8,2.6,0.9c0.4,0.1,1.9,0.6,2.2,0.2c0.5-0.6,1.2-1.1,2-1.3l1-0.1c-0.4,0-0.7-0.1-1.1-0.2c-0.4-0.1-0.8-0.3-0.2,0
		c2.1,1.1,4,2.4,5.7,4c3.7,3.4,7.1,7,10.1,11c0.9,1.2,1.9,2.4,3,3.4c2.8,2.3,5.5,4.8,8.2,7.2c9.2,8.3,18.2,17.2,25.9,27
		c3.6,4.5,7,9.4,9.2,14.7c0.4,1.1,0.8,2.2,1.1,3.3c0.2,0.5,0.3,1,0.4,1.5c0,0.1,0,0-0.1,0.1c-0.4,0.3-0.8,0.5-1.3,0.6l-2.2,1
		l-25.3,11.5l-0.6,0.3l4.7,1.3c-8.5-16.5-18.2-32.4-28.8-47.5c-0.9-1.2-1.8-2.5-2.8-3.7c-0.5-0.6-2.1-0.8-2.9-1
		c-0.2,0-2-0.3-1.8-0.1c3.8,4.6,6.9,9.7,10.2,14.6c6.3,9.4,11.9,19.2,17.4,29.2c1.3,2.4,2.6,4.8,3.9,7.3c0.3,0.5,1.5,0.7,2,0.9
		c0.6,0.2,2.1,0.8,2.7,0.5l26-11.8l3.7-1.7l0.1-0.1c-0.8-3.6-2.2-7.1-4.1-10.2c-2.3-3.9-5-7.7-7.9-11.2c-6.2-7.5-12.9-14.6-20-21.3
		c-4.3-4-8.8-8-13.3-11.8c-0.7-0.6-1.2-1.3-1.8-2c-2.1-2.7-4.3-5.3-6.6-7.8c-2.6-3-5.6-5.6-8.9-7.7c-1.9-1.1-3.9-1.9-6.1-2.3
		c-1.5-0.3-3.3-0.7-4.8,0c-0.6,0.3-1.1,0.7-1.5,1.2l4.8,1.2c-1.4-1.3-3.1-2.3-5-2.8c-1.5-0.4-3.4-1.1-5-0.6s-2.3,2-2.8,3.4l4.8,1.2
		c-4.2-3.3-9.7-6.1-15.1-6.3c-2.6-0.1-5.7,1.6-4.9,4.6s4.4,3.7,6.6,5.2c3.3,2.2,7,5.3,8.2,9.2h1.3l0.3,0.1c0.8,0.2,0.1,0,0,0
		c0.4,0.1-0.5-0.2-0.6-0.3c-0.8-0.5-1.5-1-2.2-1.6c-2-1.2-4.3-2-6.6-2.3c-1.8-0.3-4-0.5-5.4,0.8c-1.1,1.2-1.6,2.9-1.2,4.5
		c0.7,3.6,3.4,6.8,6,9.2c3.5,3.5,7.8,6.2,12.4,8c5.7,2.2,12.3,3.6,18.3,2c0.4-0.1-1.5-0.8-1.6-0.8
		C328.2,124.9,326.8,124.3,326,124.6z"></path><path class="st1" d="M316.7,111.4c-0.7-3.3-3.4-5.6-5.3-8.3c-0.4-0.4-0.9-0.6-1.4-0.6c-0.7,0-1.3,0.1-1.9,0.5
		c-0.9,0.6-1.6,1.6-0.9,2.7c1.3,1.8,2.9,3.4,4,5.4l-0.2-0.4c0.5,0.8,0.8,1.6,1,2.5c0.1,0.5,0.7,0.8,1.1,1c1.2,0.3,2.6-0.2,3.3-1.2
		C316.7,112.5,316.8,111.9,316.7,111.4L316.7,111.4z"></path><path class="st1" d="M320,99.4c-2.1-3.2-4.7-6.2-7.6-8.8c-0.9-0.8-2.5-0.3-3.3,0.4s-1.6,1.8-0.7,2.6c1.9,1.6,3.6,3.5,5.1,5.4
		l-0.3-0.3c0.8,1,1.5,2,2.2,3s2,0.8,3,0.3c0.6-0.3,1-0.7,1.4-1.2C320.2,100.3,320.2,99.8,320,99.4L320,99.4z"></path><path class="st1" d="M324.3,93.3c-0.5-0.9-1-1.8-1.6-2.6c-0.5-0.7-1.1-1.3-1.7-1.8c-0.2-0.2-0.5-0.4-0.8-0.6
		c-0.3-0.2-0.5-0.3-0.9-0.3c-0.6-0.1-1.2,0.2-1.6,0.6c-0.4,0.4-0.7,1-0.6,1.6c0,0.7,0.2,1.3,0.7,1.8c0.7,0.6,1.3,1.3,1.8,2.1
		l-0.4-0.6c0.4,0.6,0.7,1.2,1,1.8c0.3,0.6,0.8,1,1.4,1.3c1,0.5,2.2,0,2.6-1c0.1-0.1,0.1-0.3,0.1-0.5
		C324.6,94.6,324.5,93.9,324.3,93.3L324.3,93.3z"></path><path class="st0" d="M394.6,323.4c-16.1,2.9-24.4,26-20.1,31.8c3.5,4.7,8.3-0.4,9-2.5s3.8-4.5,3.8-4.5c0.9,4.9-3,12.4-5.7,15.4
		s-1.3,7.6,3.2,6.8s9-9.8,9-9.8c5.1,5.3,7.7-2.5,7.7-2.5c8.9,4.2,14.3-26,14.3-26s22.9-49.8,17.3-69.3l-32.6,0.9
		c0,0-0.6,23.6-2.8,39.8S394.6,323.4,394.6,323.4z"></path><path class="st1" d="M392.3,322.6c-9.1,1.7-15.7,9.5-19.1,17.6c-1.5,3.3-2.2,6.9-2.2,10.6c0,1.2,0.4,2.4,1,3.5
		c1.5,2.4,5.2,3.4,7.9,3.4c2.3,0,4.5-1.8,5.6-3.7c0.6-1.2,1.2-2.3,2-3.3c0.7-0.7,1.4-1.4,2.2-2l-4.8-1.3c0.5,3.6-0.9,7.4-2.5,10.5
		c-0.8,1.5-1.7,3-2.7,4.3c-1,1-1.7,2.3-1.9,3.7c-0.2,3.8,4.5,4.8,7.4,5c3.1,0.3,5.3-1.8,7.1-4.1c1.5-1.8,2.7-3.8,3.8-5.9l-4.8-1.2
		c1.5,1.4,3.3,2.3,5.3,2.7c1.5,0.4,3,0.7,4.4-0.1c1.3-0.9,2.3-2.3,2.8-3.9l-4.2-0.9c1.8,0.8,4.4,1.7,6.5,1.3c1.2-0.3,2.4-1,3.2-2
		c2.4-2.7,3.8-6.3,5-9.6c1.2-3.5,2.2-7.1,3-10.7c0.2-1.4,0.5-2.7,0.9-4.1c0.5-1.5,1.3-2.9,1.9-4.3c1.3-3.1,2.6-6.3,3.9-9.5
		c3.6-8.9,6.6-18,9.1-27.3c1.2-4.6,2.2-9.3,2.8-14.1c0.6-3.9,0.6-7.9,0.1-11.8c-0.1-0.8-0.3-1.6-0.5-2.5c-0.1-0.4-1.4-0.7-1.7-0.8
		c-0.9-0.3-1.8-0.5-2.7-0.5l-28.6,0.8l-4,0.1c-0.1,0-0.3,0-0.4,0.1c-0.4,18.5-2.1,37-5,55.2c-0.2,1.5-0.5,3.1-0.8,4.6
		c-0.1,0.5,4.7,1.7,4.8,1.3c1.4-5.9,2-12.1,2.8-18.1c1.5-11.1,2.2-22.4,2.8-33.6c0.1-2.7,0.2-5.4,0.3-8.2l-0.4,0.1l28.6-0.8l4-0.1
		l-4.5-1.4c0.9,3.5,1.1,7.1,0.8,10.7c-0.4,4.5-1.1,8.9-2.1,13.2c-2.2,9.2-5,18.2-8.4,27c-2.2,5.8-4.5,11.5-7,17.1
		c-0.3,0.7-0.6,1.4-0.7,2.1c-0.5,2.7-1.1,5.3-1.9,7.9c-1,4.2-2.5,8.2-4.4,12c-0.8,1.6-1.8,3-3.1,4.2c-0.5,0.5-1.1,0.9-1.7,1.1
		c-0.3,0.1-0.6,0.2-0.9,0.2c0.1,0-0.4,0-0.3,0c0.8,0.1,1.5,0.3,2.2,0.5c0.2,0.1,0.3,0.1,0,0c-0.4-0.2-4-1.4-4.2-0.9
		c-0.3,0.9-0.8,1.8-1.4,2.5c-0.4,0.6-1,1.1-1.7,1.5c-0.2,0.1-0.4,0.1-0.5,0.2c-1.1,0.4-1.2-2.1,2.3,0.7c-0.6-0.4-1.1-0.8-1.6-1.3
		c-0.4-0.4-4.5-1.8-4.8-1.2c-0.7,1.4-1.5,2.7-2.3,3.9c-1.4,2.1-3.2,4.5-5.5,5.5c-0.6,0.2-1.1,0.3-1.7,0.4c-0.5,0.1-1.8-0.4,1,0.4
		l1.3,0.3l-0.2-0.1c-0.2-0.2-0.5-0.4-0.7-0.7c-0.6-1-0.8-2.3-0.4-3.4c0.5-1.2,1.3-2.3,2.1-3.2c0.9-1.2,1.6-2.5,2.3-3.8
		c1.6-3.1,3-6.8,2.4-10.4c-0.1-0.5-1.9-0.8-2.3-1c-0.5-0.1-2-0.7-2.5-0.3c-1.5,1.1-2.8,2.5-3.7,4.2c-0.7,1.7-2,3.2-3.6,4.1
		c-0.4,0.2-0.8,0.4-1.3,0.5c-1.5,0.3,0.6-0.7,1.8,0.7c-0.2-0.2-0.3-0.3-0.5-0.4c-0.6-0.5-1-1.2-1.3-1.9c-0.4-1.2-0.5-2.4-0.5-3.6
		c0.2-7.3,4.2-14.9,9.1-20.1c3.2-3.5,7.4-5.9,12-6.8c0.4-0.1-1.5-0.8-1.6-0.8C394.3,322.8,393.3,322.6,392.3,322.6z"></path><path class="st1" d="M385.4,342c0,0.1,0.1,0.8,0.1,0.3c0,0.2,0,0.3,0,0.5c0,0.4,0,0.8,0,1.2c0,0.4-0.1,0.8-0.1,1.2
		c0,0.2,0,0.3-0.1,0.5c0.1-0.4,0,0.2,0,0.3c-0.4,1.6-0.8,3.2-1.1,4.9c0,0.5,0.3,1,0.7,1.2c0.5,0.3,1.1,0.4,1.7,0.3
		c1.2-0.1,2.2-1,2.5-2.2c0-0.1,0.1-0.8,0-0.4c0-0.2,0.1-0.3,0.1-0.5c0.1-0.4,0.2-0.8,0.3-1.2c0.2-0.8,0.4-1.6,0.5-2.4
		c0.4-1.8,0.4-3.6,0-5.4c-0.2-0.5-0.6-0.8-1.1-1c-0.6-0.2-1.3-0.1-1.8,0.1C386.1,339.9,385,340.8,385.4,342L385.4,342z"></path><path class="st1" d="M393.7,350.5c-0.5,3.7-1.4,7.3-2.9,10.8c-0.5,1.1,0.9,1.7,1.8,1.6c1.2-0.1,2.3-0.9,2.8-2
		c1.4-3.5,2.4-7.1,2.8-10.8c0.1-0.4,0-0.9-0.3-1.2c-0.4-0.3-1-0.4-1.5-0.4C395.5,348.5,393.8,349.3,393.7,350.5L393.7,350.5z"></path><path class="st1" d="M400.4,353.5c0,0.5,0,1.1-0.1,1.6l0.1-0.6c-0.1,1.1-0.4,2.1-0.8,3.1c-0.3,1.3,0.4,2.6,1.6,3.1
		c0.6,0.2,1.2,0.2,1.7-0.1l0.5-0.4c0.3-0.3,0.5-0.6,0.6-1c0.6-1.7,0.9-3.5,0.9-5.3c0-0.7-0.3-1.3-0.7-1.8c-0.4-0.5-1-0.8-1.6-0.9
		c-0.6-0.1-1.2,0.1-1.6,0.6C400.7,352.4,400.4,353,400.4,353.5L400.4,353.5z"></path><path class="st0" d="M328.2,131.4c0,0,13-22.3,21.6-22.3s37.3,48.3,54.8,71.4s36.8,57.7,33.9,90.9s-15.1,56.2-18,56.2
		s-27.4-2.9-27.4-10.8s8.6-54.1,5.8-66.4c0,0-22.4-18.8-22.4-44.7C376.5,205.7,328.1,137.6,328.2,131.4z"></path><path class="st1" d="M330.3,130.8c3.2-5.6,7-10.9,11.4-15.6c1.3-1.4,2.8-2.7,4.4-3.8c-0.4,0.2,0,0,0.2-0.1l0.5-0.3
		c-0.6,0.3,0.8-0.3,0.4-0.2c0.2-0.1,0.4-0.1,0.5-0.2h0.2c0.2,0,0.4,0,0.6,0c0.1,0,0.2,0,0.2,0c0.1,0-0.2-0.1,0,0
		c0.2,0.1,0.4,0.1,0.6,0.2c0.4,0.2,0.9,0.4,1.2,0.7c1,0.7,2,1.5,2.8,2.4c6.2,6,11.2,13.3,16.1,20.3c6.5,9.2,12.8,18.6,19.1,27.9
		c3,4.4,6,8.8,9.1,13.1s6.4,8.6,9.5,13c8.1,11.3,14.9,23.5,20.3,36.3c5.5,13.2,9.2,27.5,9,41.9c-0.2,7.4-1,14.8-2.5,22
		c-1.2,6.3-2.8,12.5-4.7,18.6c-1.5,4.6-3.2,9-5.3,13.3c-0.7,1.5-1.5,2.9-2.4,4.3c-0.2,0.3-0.5,0.7-0.9,1.3c-0.1,0.2-0.3,0.4-0.5,0.6
		l-0.2,0.2c-0.3,0.3,0.1-0.1,0.1-0.1s-0.6,0.4-0.2,0.2c0.4-0.3,0.7-0.5,1.1-0.6c0.2-0.1,0.5-0.1,0.8-0.2s0.2,0,0,0s-0.4,0-0.5,0
		c-1.3-0.1-2.6-0.2-3.8-0.4c-4-0.5-8-1.3-11.9-2.5c-3.2-1-7.4-2.2-9.5-5.1c-1.4-1.9-0.8-4.5-0.5-6.6c0.9-8.5,2.3-16.9,3.4-25.3
		c1.2-9.3,2.5-18.7,2.6-28.1c0-1.8,0-3.5-0.1-5.2c-0.1-1.1,0-3-0.7-3.8c-0.1-0.1-0.2-0.2-0.3-0.2l-0.1-0.1l-0.5-0.4
		c-0.9-0.8-1.7-1.7-2.5-2.5c-6.5-6.6-11.6-14.5-15.1-23.1c-2.1-5.6-3.3-11.5-3.5-17.4c0-1-0.8-1.7-1.3-2.4c-3-4.3-6-8.6-9-12.9
		c-4.7-6.7-9.3-13.3-13.8-20c-4.7-6.9-9.3-13.7-13.8-20.7c-3.3-4.9-6.4-10-9.1-15.3c-0.4-0.7-0.7-1.4-1-2.2
		c-0.1-0.3-0.2-0.5-0.2-0.8S330.4,130.9,330.3,130.8c0.1-0.1,0.1-0.2,0.1-0.3c0-1.4-4.5,0.5-4.5,1.9c0.2,1.4,0.7,2.7,1.4,3.9
		c1.1,2.3,2.5,4.5,3.8,6.7c4,6.6,8.2,13,12.4,19.4c4.8,7.3,9.8,14.5,14.7,21.7c3.9,5.7,7.9,11.4,11.9,17l3.3,4.7
		c0.3,0.3,0.5,0.6,0.7,1c0,0.1,0.1,0.1,0.1,0.2c0.1,0.8,0.1,1.5,0,2.3c0,0.8,0.1,1.6,0.2,2.4c1.2,11.1,6.2,21.4,13,30.1
		c2.2,2.8,4.5,5.5,7,7.9c0.7,0.6,1.4,1.2,2,1.9c0.1,0.1,0.2,0.2,0.3,0.2c-0.2-0.3-0.1,0.4-0.1,0.5c0.1,0.3,0.1,0.7,0.1,1
		c0.3,3.7,0.4,7.4,0.1,11.1c-0.3,4.8-0.8,9.7-1.3,14.5c-1.1,9.6-2.5,19.1-3.8,28.7c-0.4,3-0.8,6-1,9c-0.1,1.1,0.1,2.3,0.6,3.3
		c0.9,1.4,2.1,2.5,3.6,3.2c3.6,2.1,8,3.2,12,4.1c3.5,0.8,7,1.3,10.5,1.6c2.6,0.2,5.1-1,6.5-3.1c1.9-2.6,3.5-5.3,4.8-8.3
		c4.9-10.9,8.3-22.3,10.1-34.1c1.4-7.4,2-14.9,1.9-22.4c-0.3-7.2-1.3-14.4-3.2-21.4c-3.6-14.2-9.9-27.6-17.3-40.2
		c-3.5-5.9-7.3-11.6-11.3-17.1c-3.1-4.2-6.2-8.3-9.2-12.6c-6.5-9.3-12.8-18.8-19.3-28.3c-5.8-8.5-11.6-17-18.2-24.9
		c-2.1-2.6-4.4-5.1-7-7.2c-2.1-1.7-4-2.3-6.6-1.6c-4.4,1.2-8.1,4.6-11.1,7.9c-3,3.3-5.8,6.9-8.2,10.7c-1.2,1.8-2.4,3.7-3.5,5.6
		c-0.6,1,1,0.9,1.5,0.7C328.7,132.5,329.7,131.8,330.3,130.8z"></path><path class="st1" d="M403.8,200.4c0,0,11-18.9,33.9-20.3s30.3,8.6,36.8,25.8s-19.9,40.8-43.3,39.6s-21.8-12.8-21.8-12.8
		s4.2,12.5-1.6,10.5s-20-38.3-16.6-45.3S403.8,200.4,403.8,200.4z"></path><path class="st1" d="M406.1,201.1c0.1-0.2,0.2-0.3,0.3-0.5l0.2-0.2c0.3-0.4-0.3,0.4,0,0.1s0.4-0.5,0.5-0.8c1.1-1.6,2.4-3.1,3.7-4.5
		c1.8-2,3.8-3.7,6-5.3c2.6-2,5.5-3.6,8.6-4.8c7.3-2.9,15.2-3.7,23-2.5c5.7,0.7,11,3.4,14.9,7.6c4.1,4.6,6.8,10.6,9,16.4
		c2.1,5.6,0.3,11.6-2.8,16.6c-3.8,6.1-9.7,11-15.9,14.6s-13.8,6-21.1,5.7c-4-0.1-7.9-0.7-11.7-1.9c-1.2-0.4-2.5-0.9-3.6-1.5
		c-0.5-0.3-1-0.6-1.5-0.9s0.1,0.1-0.3-0.2l-0.6-0.5c-0.3-0.3-0.6-0.6-1-1l-0.4-0.5c-0.2-0.2,0.2,0.3,0.1,0.1l-0.2-0.3
		c-0.4-0.6-0.7-1.2-0.9-1.8c-0.1-0.3,0.1,0.5,0,0c0-0.1-0.1-0.3-0.1-0.4s-0.1-0.5-0.1-0.7s0-0.4-0.1-0.6c0-0.4,0-0.5,0,0.1
		c0-0.1,0-0.2,0-0.4l-4.8,0.8c-0.4-1-0.1-0.3,0,0c0.1,0.4,0.2,0.8,0.4,1.2c0.3,1.2,0.6,2.4,0.8,3.6c0.1,0.6,0.2,1.2,0.2,1.8
		c0,0.5,0,0,0,0.5c0,0.3-0.1,0.6-0.1,0.9c-0.1,0.6-0.1-0.1-0.1,0.2s-0.2,0.1,0,0.1l0.1-0.1c-0.2,0.2-0.1,0.1,0.2-0.1
		c-0.4,0.2,0.9-0.3,0.5-0.2c0.6-0.1,0.4-0.1,0.2,0s-0.2,0,0.1,0l-0.2-0.1c-0.1,0-0.2-0.1-0.3-0.1c0.7,0.1,0.4,0.3,0.3,0.1
		c-0.1-0.1-0.2-0.2-0.4-0.2c-0.3-0.1,0.4,0.4,0,0c-0.1-0.1-0.3-0.3-0.4-0.4c-0.3-0.3-0.6-0.6-0.8-0.9c-0.1-0.1-0.5-0.6-0.3-0.4
		l-0.4-0.6c-1.5-2.2-2.8-4.5-3.9-6.9c-2.9-5.9-5.2-11.9-7.1-18.2c-0.9-2.8-1.6-5.7-2.1-8.6c-0.2-1.1-0.3-2.3-0.4-3.5
		c0-0.2,0-0.5,0-0.8s0,0,0,0.1c0-0.1,0-0.2,0-0.4c0-0.4,0.1-0.9,0.1-1.3c0-0.2,0.1-0.4,0.1-0.6c-0.1,0.6,0,0.1,0-0.1
		c0.1-0.3,0.3-0.6,0.5-0.8c0,0,0.5-0.4,0.2-0.2c0,0,0.6-0.2,0.2-0.1s0.2,0,0.3,0c-0.7,0.1,0.7,0.1,0.5,0c0.6,0.1,1.1,0.3,1.6,0.6
		c1.9,0.9,3.6,2.2,5,3.8c1.8,1.9,6-0.6,3.9-2.7c-3.6-3.8-11.4-8.9-15.8-3.4c-1.7,2.1-1.8,4.6-1.6,7.2c0.3,3,0.9,6,1.7,8.9
		c1.9,7.3,4.6,14.3,7.8,21.1c1.2,2.7,2.7,5.4,4.4,7.9c1.2,1.7,2.6,3.7,4.7,4.4c1.9,0.8,4.1,0.2,5.5-1.3c1.1-1.4,1.1-3.2,1-4.9
		c-0.2-2.5-0.8-4.9-1.6-7.2c-0.3-0.9-1.8-1.2-2.6-1.1c-1,0.1-1.9,0.9-2.1,1.9c-0.2,2.2,0.4,4.3,1.6,6.1c3.2,4.9,9.3,7,14.9,8
		c8.8,1.7,17.9,0.8,26.2-2.6c7.7-3.1,14.6-8,20.2-14.2c4.7-5.4,8.4-12.1,8.1-19.4c-0.1-3.5-1.6-6.7-2.9-9.9c-1.3-3.1-2.9-6.1-4.7-9
		c-3.5-5.6-8.8-9.7-15.1-11.9c-3.7-1.1-7.5-1.7-11.4-1.8c-4.6-0.2-9.1,0.2-13.6,1.1c-11.7,2.8-22,10-28.6,20.1l-0.3,0.5
		c-0.4,1,0,2.1,1,2.5c0.1,0,0.2,0.1,0.3,0.1C404,202.7,405.4,202.2,406.1,201.1z"></path><path class="st0" d="M417.8,209.7c0,0-9.3,7.6-4.4,22.1c0,0,5.4,8.4,13.4,11.7c11.9,4.9,33.7-16.7,33.7-16.7
		c5.5-7.1-0.5-14.6-0.5-14.6c-9.6-10.3-23.5-9.8-23.5-9.8S424.8,204.9,417.8,209.7z"></path><path class="st1" d="M416.4,209.7c-2.4,2.1-4.3,4.8-5.3,7.8c-1.1,2.9-1.5,6-1.2,9c0.2,2.4,0.5,5.2,1.9,7.2
		c3.3,4.6,8.1,9.4,13.7,11.3c4.8,1.6,10.4-0.4,14.7-2.5c5.2-2.6,10.1-5.8,14.6-9.5c2.6-2,5.2-4.2,7.5-6.6c3.9-4.2,3.4-10.6,0.4-15.1
		c-1.6-2.3-4.2-4.1-6.6-5.6c-2.8-1.7-5.8-3-9-3.8c-2.2-0.6-4.5-0.9-6.7-1.1c-0.9-0.1-1.7-0.1-2.6,0c-5.5,1.1-10.8,2.9-15.8,5.4
		c-1.7,0.9-3.4,1.8-5,2.9c-0.4,0.3-1.7,1.2-1,1.7s2.5-0.7,3-1c4.4-3,10-4.7,15-6c0.5-0.1,1-0.2,1.5-0.4c0.1-0.1-0.5,0-0.3,0
		c0.1,0,0.3,0,0.4,0c1.5,0,3,0.2,4.5,0.4c6.1,0.9,11.8,3.6,16.4,7.7c3.6,3.3,5.7,8.9,3.4,13.6c-0.3,0.7-0.7,1.3-1.2,1.9
		c-0.1,0.1-0.2,0.2-0.3,0.3c-0.5,0.5,0.2-0.1-0.2,0.2c-1.1,1-2.3,2.1-3.5,3.1c-3.4,3-7.1,5.7-11,8c-1.9,1.2-4,2.2-6.1,2.9
		c-1.9,0.7-4,1-6.1,0.9c-2.7-0.2-5.2-1.8-7.3-3.3c-2.4-1.7-4.5-3.8-6.4-6.1c-1-1-1.8-2.3-2.4-3.6c-1-3.2-1.4-6.6-1-10
		c0.3-2.3,1.1-4.6,2.3-6.7c0.7-1.2,1.5-2.2,2.5-3.2c0.3-0.3-0.4,0.4,0,0l0.1-0.1c0.5-0.4,1.2-1.3,0.2-1.4S417.1,209.1,416.4,209.7z"></path><path class="st0" d="M427.4,212.8c0,0-6.7,0.9-3.9,6.6"></path><path class="st1" d="M425.8,210.9c-2,0.3-4.3,1.5-4.6,3.7c-0.1,1.3,0.2,2.6,0.9,3.7c0.3,0.5,0.6,1,1,1.5c0.3,0.5,0.7,0.9,1.2,1.3
		c0.1,0.1,0.5,0.5,0.7,0.4s-0.1-0.7-0.2-0.8l-0.1-0.3c-0.1-0.4,0.1,0.3,0,0s-0.1-0.3-0.2-0.5s-0.1-0.2-0.1-0.3v-0.1
		c0-0.1,0-0.1,0,0.1c-0.1-0.1-0.1-0.4-0.1-0.4c-0.1-0.5,0-1,0.2-1.5l0,0.2c0.6-1.6,2.4-2.5,4-2.8l0.5-0.1c0.2,0-0.2-0.9-0.1-0.8
		c-0.3-0.5-0.6-1-1-1.5c-0.4-0.5-0.7-0.9-1.2-1.3C426.4,211,426.2,210.8,425.8,210.9L425.8,210.9z"></path><path class="st0" d="M444,228.6c-1,3.4-1.5,7-1.5,10.6c-0.2,12.1-4,14-6.9,10.8s-3.5-19.6-3.5-19.6"></path><path class="st1" d="M441.9,227.4c-1.1,3.6-1.6,7.3-1.5,11c0,2.4-0.3,4.8-0.8,7.2c-0.2,1.4-0.9,2.6-1.8,3.6
		c0.2-0.2-0.3,0.2-0.4,0.2c-0.1,0-0.2,0.1-0.2,0.1l0,0c-0.1,0-0.2,0-0.3,0c0.6,0.1,0.2,0,0.1,0c-0.4-0.1,0.5,0.1,0.1,0s0.6,0.3,0,0
		c0.6,0.3,0.4,0.2,0.2,0.1s-0.3-0.3,0.2,0.1c-0.1-0.1-0.2-0.2-0.3-0.3c-0.3-0.4,0.4,0.4,0.1,0.1c-0.1-0.1-0.2-0.2-0.2-0.3
		c0.3,0.5,0.1,0.1,0,0c-0.1-0.3-0.3-0.6-0.4-0.9c-0.1-0.2-0.2-0.5-0.2-0.8c-0.1-0.4-0.2-0.8-0.3-1.1c-0.2-0.9-0.4-1.7-0.5-2.6
		c-0.3-1.8-0.6-3.7-0.8-5.5c-0.2-2.4-0.5-4.9-0.6-7.3c-0.1-1.7-4.4-3.9-4.3-1.5s0.3,4.7,0.5,7c0.4,3.8,0.8,7.7,2.2,11.3
		c1,2.7,4.1,5.9,7.3,5.2c3.5-0.7,4.2-5.9,4.5-8.6c0.5-4.9,0.1-9.9,1.7-14.7c0.5-1.6-3.6-4.3-4.3-2.3L441.9,227.4z"></path><path class="st1" d="M442.5,216.3c0.3,0.9-0.2,1.8-1,2.1c-0.1,0-0.2,0-0.2,0.1c-1.8,0.4-2.2-1.9-0.8-2.6c0.6-0.5,1.5-0.3,1.9,0.3
		C442.4,216.2,442.5,216.2,442.5,216.3z"></path><path class="st1" d="M448.4,227.8c0.3,0.9-0.2,1.8-1,2.1c-0.1,0-0.2,0.1-0.3,0.1c-1.8,0.4-2.2-1.9-0.8-2.6c0.6-0.5,1.5-0.3,1.9,0.3
		C448.3,227.7,448.3,227.8,448.4,227.8z"></path></g><g id="character-3"><path class="st1" d="M267.5,135.3c0,0,1.1,25-9.8,23.1s-8-21.8-8-21.8L267.5,135.3z"></path><path class="st1" d="M265.2,136.1c0.1,2.3,0,4.5-0.1,6.8c-0.3,3.9-0.8,8.1-2.5,11.6c-0.2,0.3-0.3,0.6-0.5,0.9
		c-0.1,0.2-0.2,0.3-0.3,0.5s-0.5,0.6-0.3,0.4s-0.2,0.2-0.3,0.2s-0.2,0.1-0.2,0.2s0.4-0.3,0.1-0.1c-0.1,0.1-0.6,0.4-0.2,0.2
		s-0.6,0.2-0.1,0c0.2-0.1-0.4,0,0.1,0c-0.2,0-0.4,0.1-0.5,0.1c0.4-0.1,0,0-0.2,0c-0.2,0-0.3,0-0.5,0c-1-0.1-1.9-0.5-2.7-1
		c-3.5-2.3-4.5-7-4.8-10.9c-0.3-3-0.2-6.1,0.2-9.1l-3.5,2.3l17.7-1.3c1.2,0,2.4-0.6,3.2-1.6c0.5-0.8,0.3-1.7-0.8-1.6l-17.7,1.3
		c-1.3,0.1-3.3,0.8-3.5,2.3c-0.4,2.8-0.5,5.7-0.2,8.5c0.3,4.4,1.3,9.6,5.1,12.4c4.1,3.1,9.9,1.8,13-2c2.8-3.4,3.6-8.2,4.1-12.5
		c0.4-3.1,0.5-6.2,0.4-9.3C269.7,132.6,265.1,134.4,265.2,136.1z"></path><path class="st1" d="M246.4,141.2c0,0,1.1,25-9.8,23.1s-8-21.8-8-21.8L246.4,141.2z"></path><path class="st1" d="M244.1,140.5c0.1,2.3,0,4.5-0.1,6.8c-0.3,4.1-0.7,7.9-2.5,11.5l-0.3,0.6c-0.2,0.3,0.1-0.1-0.1,0.2
		c-0.2,0.4-0.5,0.7-0.8,1.1l-0.4,0.4c-0.1,0.1-0.6,0.5-0.2,0.2c-0.3,0.2-0.7,0.4-1,0.6l-0.3,0.1c-0.3,0.1,0.3-0.1,0,0l-0.5,0.1
		l-0.6,0.1c-0.3,0,0.4,0,0,0h-0.4c-0.7,0-1.5-0.2-2.1-0.6c-0.2-0.1-0.4-0.3-0.7-0.4c0.4,0.3,0,0-0.1-0.2s-0.3-0.3-0.5-0.5
		c0.5,0.4-0.1-0.2-0.2-0.3s-0.3-0.4-0.4-0.6s-0.1-0.2-0.2-0.3c0,0.1,0.2,0.4,0,0s-0.5-0.9-0.6-1.4c-0.1-0.2-0.2-0.5-0.3-0.8v0.1
		c0-0.1-0.1-0.3-0.1-0.4c-0.2-0.6-0.3-1.1-0.4-1.7c-0.2-1-0.4-2.1-0.5-3.2c-0.1-0.8-0.1-1.9-0.1-3.1c0-1,0-2,0.1-3s0.1-1.9,0.3-2.8
		l-1.3,1.4l17.7-1.3c1.2-0.1,1.5-1.6,1.1-2.5c-0.5-1.2-1.7-1.9-3-1.8l-17.7,1.3c-0.7,0.1-1.2,0.7-1.3,1.4c-0.4,2.8-0.5,5.7-0.2,8.5
		c0.3,4.9,1.5,10.4,5.4,13.7c3.6,3,9.2,3.7,12.5-0.2c2.9-3.4,3.7-8.4,4.2-12.6c0.4-3.1,0.5-6.2,0.4-9.3c0-1.3-0.9-2.4-2.1-2.8
		C245.6,138.9,244.1,139.3,244.1,140.5z"></path><path class="st0" d="M140.8,161.8c-0.4,19.1-25.6,32.9-33,29c-6.1-3.1-1.1-9.6,1.3-10.9s4.4-5.2,4.4-5.2
		c-5.8-0.1-13.7,5.8-16.8,9.4s-8.5,2.9-8.4-2.4s9.7-12.1,9.7-12.1c-7-5,1.4-9.3,1.4-9.3c-6.5-9.6,27.4-21.3,27.4-21.3
		s53.3-35.5,76.9-32.6l5.5,29.7c0,0-27.7,13.2-46,18.6S140.8,161.8,140.8,161.8z"></path><path class="st1" d="M138.3,161.2c-0.3,10.1-7.2,18.7-15.3,24.2c-3.5,2.4-7.4,4.2-11.5,5.1c-0.8,0.2-1.6,0.3-2.3,0.3
		c-0.3,0-0.7-0.1-1.1,0c0.1,0-0.2-0.1,0.1,0c0.5,0.1,1,0.3,1.6,0.4c0.3,0.1,0.2,0.1-0.1-0.1c-0.3-0.2-0.6-0.4-0.9-0.6
		c-0.5-0.4-0.9-0.9-1.2-1.5c-0.4-1-0.4-2-0.2-3c0.6-2.2,2-4,3.8-5.3c1.9-1.3,3.5-3.2,4.6-5.3c0.2-0.4-4-1.4-4.5-1.4
		c-3.7,0-7.2,1.7-10.3,3.7c-1.6,1-3.1,2.1-4.5,3.4c-1.2,1.1-2.1,2.4-3.3,3.4c-0.6,0.5-1.3,0.9-2,1.1c-0.3,0.1-0.6,0.1-0.9,0.2
		c-0.1,0-0.3,0-0.4,0c3.8-0.6,3.2,1.3,2.2,0.5c-1.1-1-1.6-2.5-1.5-4c0.2-2.9,2.6-5.6,4.6-7.5c1.6-1.6,3.3-3.1,5.1-4.4l-0.1-0.1
		c-2.2-1.6-3.6-3.9-1.8-6.4c0.9-1.1,2-2.1,3.2-2.8c0.1,0,0.2-0.1,0.1-0.2c-1.9-2.9,0.2-5.9,2.3-8c3.2-3.1,7.3-5.3,11.3-7.3
		c3.6-1.8,7.2-3.4,10.9-4.8c1.1-0.3,2.2-0.8,3.3-1.4c5.2-3.3,10.4-6.6,15.7-9.7c9.4-5.6,19.1-10.5,29.1-14.9c5-2.2,10-4.1,15.2-5.6
		c4.3-1.4,8.7-2.1,13.2-2.3c0.9,0,1.7,0,2.6,0.1l-4.1-1.3l2.9,15.7l1.9,10.3l0.6,3c0.1,0.2,0.1,0.4,0.1,0.6c0,0.2,0.2-0.1,0,0.1
		c-0.6,0.4-1.3,0.7-2,0.9l-4,1.8c-4.2,1.9-8.4,3.7-12.6,5.5c-10.4,4.4-21,8.3-31.8,11.6c-6,1.8-12.2,3.4-18,5.9
		c-0.4,0.2,1.5,0.8,1.6,0.8c0.7,0.2,2.3,0.9,3,0.6c1.5-0.6,3-1.1,4.6-1.6c6.1-2,12.3-3.9,18.5-5.8c12.5-3.8,24.6-9,36.5-14.4
		c3-1.3,6-2.7,8.9-4.1l0.1-0.1l-4.8-25.9l-0.7-3.7c-0.1-0.4-1.2-0.6-1.4-0.7c-0.9-0.3-1.8-0.5-2.7-0.6c-6.3-0.8-12.7,0.7-18.7,2.6
		c-7.5,2.4-14.8,5.4-21.9,8.9c-11.7,5.7-23,12.1-34,19.2c-1,0.6-1.9,1.3-2.9,1.9c-0.3,0.2-0.1,0.1-0.2,0.1c-0.5,0.2-0.9,0.3-1.4,0.5
		c-5.2,1.9-10.3,4.2-15.1,6.8c-2.8,1.5-5.4,3.2-7.9,5.2c-1.7,1.4-3.5,3.3-3.8,5.6c-0.1,1,0.1,2,0.6,2.9c0.2,0.4,0.3,0.1-0.2,0.4
		s-0.9,0.6-1.3,0.9c-1.2,0.8-2.1,1.9-2.5,3.3c-0.2,0.7-0.1,1.5,0.2,2.2c0.2,0.4,0.4,0.7,0.6,1.1c0.4,0.5,1.2,1,1.5,1.5
		s0.3-0.1,0.1,0.2c0,0.1-0.3,0.2-0.4,0.3c-0.5,0.4-1,0.8-1.5,1.2c-1.4,1.1-2.7,2.3-3.9,3.6c-2.4,2.5-5.3,6.6-3,10.1
		c1.3,1.9,4.2,2.4,6.2,2.8c1.8,0.4,3.6-0.1,5.1-1.2c0.7-0.6,1.3-1.3,1.9-2c0.8-0.8,1.6-1.6,2.5-2.3c2-1.7,4.2-3.1,6.6-4.3
		c2-1.1,4.2-1.7,6.4-1.8l-4.5-1.4c-1,2.1-2.6,3.9-4.4,5.2c-1.8,1.2-3.1,2.9-3.8,4.9c-1.9,5.7,5.4,7.8,9.7,8c4,0.2,8.1-1.5,11.6-3.3
		c4.6-2.5,8.8-5.8,12.2-9.7c4-4.7,6.7-10.4,6.9-16.7C143.2,161.6,138.4,161,138.3,161.2z"></path><path class="st1" d="M122.1,171c-4.3-0.4-7.9,1.9-11.8,3.1c-0.9,0.3-2.2,1.4-1.8,2.5s1.9,1.2,3,0.9c1.7-0.6,3.4-1.3,5.1-2
		c0.4-0.2,0.8-0.3,1.3-0.4l0.5-0.1h-0.1l0.3-0.1c0.4-0.1,0.8-0.1,1.2-0.2c0.3,0,0.2,0-0.1,0h0.3c0.2,0,0.5,0,0.7,0.1
		c1.3,0.1,2.5-0.6,3-1.8C124.2,171.8,123.2,171.1,122.1,171L122.1,171z"></path><path class="st1" d="M109.3,163.4c-4.4,1.3-8.6,3.1-12.5,5.5c-0.8,0.5-2,1.5-1.5,2.6s2.2,0.8,3,0.3c1.8-1.1,3.7-2.1,5.7-3l1.5-0.6
		c0.7-0.3-0.5,0.2,0.2-0.1l0.8-0.3c1-0.4,2.1-0.7,3.1-1s2.3-1.2,2.2-2.4S110.2,163.1,109.3,163.4L109.3,163.4z"></path><path class="st1" d="M103.6,155.5c-2.1,0.3-4.1,1-5.9,2.1c-1.1,0.7-1.5,2.1-0.8,3.2c0.3,0.6,0.8,1,1.4,1.3c0.6,0.2,1.2,0.2,1.7-0.1
		c0.8-0.5,1.7-0.9,2.6-1.2L102,161c0.9-0.3,1.8-0.5,2.7-0.7c0.6-0.1,1.1-0.5,1.4-1c0.3-0.6,0.4-1.2,0.2-1.8
		C106.1,156.3,104.9,155.4,103.6,155.5L103.6,155.5z"></path><path class="st0" d="M340.7,150.8c0.1,19.1,25.1,33.2,32.6,29.5c6.1-3,1.2-9.6-1.1-10.9s-4.4-5.3-4.4-5.3c5.8,0,13.6,5.9,16.6,9.6
		s8.5,3,8.4-2.3s-9.6-12.2-9.6-12.2c7.1-4.9-1.3-9.4-1.3-9.4c6.6-9.5-27.1-21.6-27.1-21.6S302,91.9,278.4,94.5l-5.4,37.7
		c0,0,27.1,5.4,45.4,11.1S340.7,150.8,340.7,150.8z"></path><path class="st1" d="M338.3,150.1c0.1,11,8.1,20.2,17.1,25.8c4.4,2.7,9.2,4.5,14.2,5.4c3.5,0.6,9.1,0.1,9.1-4.7
		c-0.2-2.5-1.5-4.8-3.5-6.3c-1.2-0.8-2.2-1.7-3.1-2.8c-0.7-0.9-1.3-1.8-1.8-2.8l-0.4,0.1c0.2,0,1.3,0.2,0.7,0c0.5,0.2,1,0.4,1.5,0.6
		c1.4,0.7,2.6,1.4,3.9,2.3c2.1,1.4,4,3.1,5.7,4.9c0.6,0.8,1.4,1.5,2.2,2.1c1.4,0.8,2.8,1.3,4.4,1.6c2,0.4,4.2,0.8,5.8-0.7
		c3.5-3.4-0.4-8.5-2.9-11.1c-1.3-1.4-2.7-2.7-4.2-3.9c-0.2-0.2-1-0.6-1.1-0.9s0.2-0.2,0.6-0.5c0.5-0.4,1-0.9,1.4-1.5
		c2.2-3.1-1-6.2-3.7-7.6l0.3,0.2c3.1-4.6-3.1-9.4-6.5-11.6c-5.4-3.5-11.2-6.5-17.2-8.8c-1.5-0.6-3-1.2-4.5-1.8l1.1,0.5
		c-6.5-4.5-13.3-8.6-20.1-12.6c-12.7-7.4-25.9-14.4-40-18.9c-6.6-2.1-14-4.1-21.1-3.4l-0.1,0.1l-4.8,33.1l-0.7,4.6
		c-0.1,0.6,3.2,1.2,3.6,1.2l0.5,0.1l0.6,0.1c0.2,0,1.1,0.2,0.4,0.1l5.4,1.1c5.7,1.2,11.4,2.5,17.1,3.9c12.2,3,24.2,6.6,36,10.7
		l2.4,0.9l0.9,0.3l0.4,0.1c0.4,0.1-0.4-0.1-0.1,0s0.7,0.3,1.1,0.4c1.1,0.5,2.2,0.8,3.4,0.9c0.8,0.1,1-0.1,0.1-0.4
		c-1.4-0.6-2.9-1.1-4.4-1.6c-5.5-1.9-11.1-3.7-16.7-5.5c-13-4.1-26.2-7.3-39.6-10.2c-3.3-0.7-6.6-1.4-10-2.1l3.6,1.2l4.2-29.5
		l0.9-6.5c0-0.5,0.1-1,0.2-1.5c0.2-0.4,1.5-0.2,2-0.2c1.3,0,2.6,0.1,3.9,0.2c1.3,0.2,2.6,0.4,3.9,0.7c1.3,0.3,2.5,0.6,4.1,1.1
		s3.2,1.1,4.8,1.7c13.8,5.1,26.8,12.4,39.3,20c4,2.4,7.9,4.9,11.8,7.4c0.7,0.4,1.3,0.9,2,1.3c0.4,0.2,0.9,0.4,1.4,0.6l0.2,0.1
		l1.1,0.4c5.1,2,10.1,4.3,14.9,7.1c2.6,1.4,5,3.2,7.1,5.1c1.5,1.4,3.1,3.3,3.1,5.5c0,1-0.3,1.9-0.9,2.7c0.1,0.1,0.2,0.2,0.3,0.2
		c1.2,0.7,2.3,1.6,3.1,2.7c1.7,2.5,0.1,4.9-2.1,6.4l0.1,0.1c1.6,1.2,3.1,2.4,4.5,3.8c2.1,2.1,4.7,4.8,5,7.9c0.2,1.5-0.3,3.1-1.4,4.2
		c-0.5,0.4-1.1,0.7-1.8,0.8c-1.4,0.2-0.4-0.8,1.5,0.6c-0.4-0.2-0.8-0.5-1.2-0.8c-1.2-1-2.1-2.4-3.3-3.4c-1.5-1.3-3.1-2.6-4.8-3.6
		c-4-2.6-9-4.6-13.8-4.7c-0.1,0-0.3,0-0.4,0.1c0.9,1.8,2,3.3,3.5,4.7c0.7,0.6,1.6,1.1,2.3,1.8c0.8,0.7,1.4,1.6,1.9,2.5
		c1,1.9,1.2,4.3-0.4,5.9c-1.2,1.2-2.8,1.8-4.5,1.8c-0.3,0-0.7,0-0.9,0l-0.6-0.1c0.4,0.1-0.5-0.1-0.2,0h-0.2l0,0
		c-0.4-0.1-0.7-0.2-1.1-0.4c-1.9-0.7-3.7-1.7-5.5-2.8c-4.2-2.6-7.8-5.9-10.8-9.8c-3.6-4.5-5.6-10-5.9-15.7
		C343.1,150.5,338.3,150.1,338.3,150.1z"></path><path class="st1" d="M359.8,164C360.1,164,360.1,164,359.8,164c0,0,0.1,0,0.3,0h0.7c0.1,0,0.7,0.1,0.4,0s0.3,0.1,0.4,0.1
		c0.9,0.2,1.7,0.5,2.5,0.8l1.2,0.5c0.2,0.1,0.2,0.1,0,0l0.3,0.1l1,0.4c0.8,0.4,1.7,0.7,2.5,1c1.2,0.3,2.6-0.1,3.3-1.2
		c0.5-0.7,0.4-1.6-0.3-2.1c-0.2-0.1-0.4-0.2-0.6-0.3c-0.9-0.3-1.8-0.7-2.7-1l-0.4-0.1l-1-0.4c-0.4-0.2-0.9-0.4-1.3-0.5
		c-2-0.8-4.2-1.2-6.4-1c-1,0.1-2.5,1.1-2.5,2.2S358.8,164.1,359.8,164L359.8,164z"></path><path class="st1" d="M370.4,156.2c4,1.2,7.9,3,11.4,5.2c1.1,0.6,2.4,0.4,3.3-0.4c0.6-0.5,1.7-1.9,0.7-2.6
		c-3.8-2.4-7.9-4.3-12.2-5.6c-1.2-0.3-2.5,0.1-3.3,1C369.6,154.4,369.2,155.8,370.4,156.2L370.4,156.2z"></path><path class="st1" d="M377.3,149.8c0.3,0.1,0.7,0.1,1,0.2l-0.6-0.1c1.2,0.3,2.4,0.7,3.5,1.3l-0.5-0.3l0.7,0.4
		c0.5,0.3,1.1,0.5,1.7,0.4c0.6-0.1,1.1-0.5,1.4-1c0.6-1.2,0.2-2.6-0.9-3.4c-2-1.2-4.1-2-6.4-2.4c-0.6-0.1-1.2,0.1-1.6,0.6
		c-0.4,0.4-0.7,1-0.6,1.6C375,148.5,376,149.6,377.3,149.8L377.3,149.8z"></path><path class="st2" d="M316.3,148.4c0,0,16.5-34.4,11.2-37.5s-36-29.6-88.7-22s-65.8,21.3-67.7,24.5c-4.5,7.2,1.9,37.2,6.1,39.7
		s37.1-14.6,37.1-14.6s23.1,9,62.5-5L316.3,148.4z"></path><path class="st2" d="M318,150.1c3.4-7,6.4-14.2,9-21.5c1.5-4.1,3.2-8.6,3.2-13c0.1-1.8-0.6-3.6-1.9-5c-0.9-0.9-2-1.7-3.1-2.4
		c-6.4-4.5-13.1-8.5-20.2-11.9c-12.4-5.8-25.8-9.3-39.4-10.4c-18.1-1.5-36.4,1.6-54,5.8c-11,2.6-22.2,6-32,11.6
		c-3.6,2-7.8,4.5-10.1,8.1c-0.9,1.5-1.4,3.1-1.5,4.8c-0.3,2.7-0.3,5.4-0.1,8.1c0.4,6,1.4,12,3,17.9c1.2,4.2,2.7,10.1,6.7,12.6
		c1.1,0.6,2.5,0.8,3.7,0.4c2-0.4,3.9-1,5.8-1.7c9.2-3.3,18.1-7.7,26.8-12.1l1.9-1h-0.5c3.4,1.2,6.9,1.9,10.5,2.3
		c9.6,1.1,19.3,0.7,28.9-1c8.1-1.4,16-3.5,23.7-6.3h-0.5l34.6,13.1l4.9,1.9c1,0.4,0.5-1,0.3-1.4c-0.5-1-1.4-1.9-2.5-2.4L284.5,135
		l-7-2.6c-0.5-0.2-1.1-0.4-1.7-0.6c-0.1,0-0.2-0.1-0.2-0.1c-0.5,0-1,0.1-1.5,0.3l-3,1c-10.9,3.6-22.3,5.8-33.8,6.3
		c-6.6,0.3-13.2-0.2-19.7-1.4c-1.4-0.3-2.7-0.6-4.1-1.1c-0.6-0.2-1.3-0.1-1.8,0.3c-5.1,2.6-10.3,5.1-15.5,7.6
		c-3.4,1.5-6.7,3-10.2,4.3c-2.5,1.1-5.2,1.9-7.9,2.4c-0.4,0.1-0.8,0.1-1.2,0.1c-0.5,0-0.6,0.1-0.7-0.1c0.3,0.3,0.4,0.2,0.7,0.5
		c-0.2-0.2,0.7,0.8,0.3,0.4c-0.1-0.1-0.3-0.4,0.1,0.1c-0.1-0.1-0.1-0.2-0.2-0.4l-0.1-0.3c-0.3-0.5,0,0.1-0.1-0.2
		c-1.3-3-2.4-6.1-3.1-9.3c-1-4-1.7-8.2-2.1-12.3c-0.5-3.6-0.5-7.2,0-10.8c0.4-2.6,1.8-5,3.8-6.6c3.1-2.7,6.6-4.9,10.3-6.7
		c6.7-3.3,13.8-5.9,21-7.9c11.5-3.2,23.1-5.5,34.9-7c20.6-2.8,41.8-0.6,61.1,7.4c6,2.5,11.8,5.5,17.3,9c1.8,1.1,3.5,2.3,5.3,3.5
		l1.8,1.2c0.2,0.2,0.5,0.3,0.7,0.5s0.7,0.6,0.2,0.1c-0.5-0.4-0.9-0.9-1.3-1.5c0.2,0.3-0.3-0.4-0.1-0.1c0.1,0.1,0-0.3,0,0.2
		c0.1,0.4,0.1,0.8,0.1,1.2c0,1.2-0.2,2.4-0.4,3.6c-0.7,3.2-1.6,6.4-2.8,9.5c-2.2,6.2-4.8,12.3-7.6,18.3c-0.5,1.1-1,2.1-1.5,3.2
		S317.5,151.2,318,150.1z"></path><path class="st1" d="M272.1,110.9c0,0,14.9,4.4,18-1.5s-6.9-5.4-6.9-5.4s12.5-11.6-2.8-15.3c0,0,13.8-8.3,4.5-18.2s-30.1-6-30.1-6
		s1.8-13.7-14.1-13.4s-12.9,8.9-12.9,8.9s-10.2,0.1-10.9,4.8s6.7,7.3,6.7,7.3s1.6,13.8,15.5,13.1l11.6,18.2c0,0-5.3,5.8-0.8,12.6
		S271.9,119.7,272.1,110.9z"></path><path class="st1" d="M273.3,113c4.1,1.2,8.9,2.1,13.2,1.4c2.6-0.4,5-1.7,5.5-4.4c0.4-1.7-0.8-3.4-1.8-4.8c-0.7-1.1-1.8-2-3-2.5
		c-1.7-0.6-3.6-0.9-5.4-0.7l2.8,4.2c2.2-1.9,3.8-4.4,4.6-7.2c0.6-2.5-0.4-4.7-1.8-6.8c-2-2.8-4.9-4.8-8.3-5.5l2.6,4.1
		c2.2-1.3,4-3.1,5.5-5.1c1.2-1.6,1.9-3.4,2.2-5.4c0.1-2.6-0.7-5.1-2.1-7.2c-2.8-4.7-7.3-8.2-12.5-9.8c-4.4-1.3-9-1.8-13.6-1.6
		c-2.6,0-5.3,0.3-7.9,0.7l2.9,4c0.7-5.3-2.4-11.1-6.4-14.4s-9.1-3.4-13.8-2.9c-3.3,0.3-7.6,1.3-9.3,4.5c-0.7,1.4-0.9,3.1-0.4,4.6
		v-0.4c-3,0-6.5,0.4-9,2.1c-4.7,3.1,0.1,9.4,3.2,11.8c1.3,1,2.7,1.7,4.2,2.3l-2.7-4c0.3,1.9,0.8,3.8,1.7,5.6c1.8,3.9,4.7,8,8.6,10
		c2.5,1.2,5.2,1.7,8,1.5l-2.1-2.4l10.2,15.9l1.5,2.4l-0.7-1.8c-4.9,5.4-2.1,13.8,2.9,18.1c4.3,3.6,11.6,3,16.3,0.5
		c2.6-1.4,4.8-3.8,4.9-6.9c0-0.9-1-2-1.5-2.7c-0.1-0.2-1.4-1.6-1.4-1.1c-0.2,5.1-5.8,7.7-10.1,8.4c-2.6,0.5-5.2,0.3-7.7-0.5
		c-0.5-0.2-1-0.4-1.4-0.6c-0.1-0.1-1.4-1-1.4-1s0.3,0.4,0.3,0.4c0.4,0.4,0-0.1-0.1-0.2s-0.2-0.5-0.3-0.8c-0.3-0.9-0.4-1.8-0.4-2.7
		c0.1-2.4,1-4.8,2.6-6.6c0.3-0.3-0.6-1.6-0.7-1.8l-9.6-15l-1.9-2.9l-0.4-0.7c-0.4-0.6-1-1.8-1.8-2.1c-0.7-0.1-1.5-0.1-2.2,0
		c-2.3-0.1-4.5-0.8-6.4-1.9c-0.7-0.4-1.3-0.9-1.9-1.4c-0.2-0.2-0.5-0.5-0.7-0.8c0.4,0.5-0.4-0.4,0.1,0.2c-0.1-0.1-0.4-0.7-0.1-0.1
		c0-0.1-0.4-0.6-0.1-0.2l-0.2-0.4c-0.2-0.4-0.4-0.8-0.5-1.2s-0.4-1.1-0.5-1.6c-0.2-0.6-0.3-1.1-0.4-1.7c-0.2-0.8-0.6-1.5-1.1-2.2
		c-0.4-0.6-0.9-1.6-1.6-1.8c-1.4-0.5-2.7-1.2-3.9-2.1c-0.4-0.3-1.3-1.4-0.4-0.1s0.2,0.1,0.2-0.6c0-1,0.5-2,1.3-2.6
		c2.4-2.1,6.5-2.5,9.6-2.5c0.1-0.1,0.1-0.3,0-0.4c0-0.1-0.1-0.2-0.1-0.2c-0.1-0.3,0,0.1,0,0s0-0.3-0.1-0.4c-0.1-0.7,0-1.5,0.2-2.2
		c0.8-2.6,3.4-4,5.9-4.7c4.4-1.3,9.9-1.5,14.2,0.3c0.7,0.3,1.5,0.7,2.1,1.2c0.3,0.2,0.6,0.4,0.8,0.7c0.3,0.2,0.4,0.5,0.2,0.2
		c0.2,0.4-0.2-0.4,0,0c-0.4-0.6,0.1,0.3-0.1-0.2c0.1,0.2,0.1,0.3,0.2,0.5c0.2,0.5,0.3,1,0.5,1.5c0.4,1.4,0.5,2.9,0.3,4.4
		c-0.1,0.7,0.9,1.9,1.3,2.4s1,1.7,1.6,1.6c5.8-1.1,11.6-1.1,17.4-0.1c4.2,0.8,8.6,2.3,11.7,5.3c0.2,0.2,0.3,0.3,0.5,0.5
		s0.4,0.7,0.1,0.2c0.1,0.3,0.3,0.6,0.4,0.9c0.3,1,0.4,2.1,0.3,3.1c-0.2,1.8-0.9,3.5-2,5c-1.5,2.1-3.4,3.8-5.6,5.1
		c-0.5,0.3,2.1,4,2.7,4.1c1.4,0.3,2.8,0.8,4.1,1.5c0.5,0.3,0.9,0.7,1.4,1c0.1,0-0.9-1.3-0.7-0.9c-0.5-0.9-0.2-0.5-0.2-0.3
		c0.1,0.7,0.1,1.5,0.1,2.2c-0.1,0.8-0.4,1.6-0.8,2.4c-1,2-2.3,3.8-4,5.3c-0.5,0.5,2.1,4.2,2.8,4.2c1.2-0.1,2.5,0,3.7,0.3
		c0.5,0.1,0.9,0.2,1.3,0.4c0.3,0.1,0.9,0.5,1,0.5c0,0-1.6-2.4-1.6-2.4s0.1,0.2,0,0.2s0,0.4,0,0.7c-0.1,0.6-0.3,1.3-0.7,1.8
		c-1.2,1.9-3.6,2.5-5.7,2.8c-2.6,0.2-5.1,0-7.7-0.5c-1.5-0.3-2.9-0.6-4.4-1c-0.5-0.2,0.5,1.6,0.5,1.7
		C271.8,111.2,272.5,112.7,273.3,113z"></path><path class="st0" d="M229.9,128.2c0,0-7.4-0.3-13.6-11.5c-7.2-12.8,8.2-42.3,8.2-42.3c10.6,3.6,29.4-5.1,29.4-5.1
		c-6.6,9.5,0.6,29.4,0.6,29.4c5.6-8.6,14.9-6.3,12.7,2.6s-10.4,7.9-10.4,7.9s1.5,9.4,0.1,12.9C256.9,122.1,246.8,132.8,229.9,128.2z
		"></path><path class="st1" d="M229.6,126.4c-0.1,0-0.4,0,0.2,0S229.8,126.4,229.6,126.4l-0.6-0.2c-0.1,0-0.3-0.1-0.4-0.1
		c0.5,0.1,0.3,0.1,0,0s-0.7-0.3-1.1-0.4l-0.6-0.3c-0.4-0.2-0.1-0.1,0,0l-0.4-0.2c-0.9-0.6-1.8-1.2-2.6-1.9c-4-3.4-6.6-8.3-7-13.6
		c-0.3-4.8,0.8-9.7,2.1-14.4c1.3-4.5,2.8-8.9,4.7-13.2c1-2.3,2-4.5,3.1-6.7l-3.3,0.6c5.1,1.7,10.7,1.3,15.9,0.2
		c4.6-1,9-2.4,13.4-4.1c0.9-0.3,1.8-0.7,2.6-1.1l-3.7-2.6c-2.9,4.2-3.2,9.7-2.9,14.7c0.3,4.4,1.1,8.8,2.4,13.1c0.3,1,0.6,2,1,3.1
		c0.6,1.6,3.6,1.9,4.6,0.5c1.4-2.1,3.4-4,5.7-4.5c0.4-0.1-0.1,0,0.3,0c0.2,0,0.7,0,0.2,0c0.2,0,0.4,0.1,0.6,0.2
		c-0.6-0.2,0.5,0.3,0,0c0.6,0.3,1,0.9,1.1,1.5c0.8,2.3-0.1,5.3-1.4,7.2c-0.6,0.9-1.3,1.6-2.2,2.2c-0.1,0.1-0.6,0.4-1,0.5
		c-0.2,0.1-0.4,0.2-0.6,0.2c-0.4,0.1,0.2,0-0.3,0.1s-0.9,0.2-1.3,0.3s-0.1,0,0,0h-0.5c-0.4,0-1.8-0.1-0.4,0
		c-1.1-0.1-3.1,0.2-2.9,1.8s0.4,3.3,0.6,5c0.2,2.4,0.4,5.1-0.5,7.4l0.5-0.8c-1.8,1.9-4,3.4-6.4,4.4c-5.7,2.6-12.2,3-18.2,1.3
		c-1-0.3-2.6,0.1-2.8,1.3s1.1,2.1,2.1,2.3c7.9,2.2,16.3,1.3,23.6-2.5c1.9-1,3.6-2.2,5.2-3.6c1.7-1.5,1.6-3.9,1.7-6
		c0-2.9-0.2-5.8-0.7-8.7l-2.9,1.8c4.4,0.6,8.8-1.3,11.4-4.9c1.9-2.8,2.8-6.8,1.6-10.1c-1.2-2.9-4.1-4.7-7.2-4.6
		c-4.2,0-7.8,2.9-10,6.3l4.6,0.5c-0.1-0.3-0.2-0.6-0.3-0.9c0.2,0.6-0.2-0.5-0.2-0.7c-0.1-0.4-0.2-0.8-0.4-1.2
		c-0.7-2.5-1.3-5.1-1.7-7.7c-0.9-5.6-1.4-12.4,2-17.4c1.4-2-2.3-3.3-3.7-2.6c-3.2,1.4-6.5,2.7-9.9,3.6c-3,0.9-6.1,1.5-9.2,1.9
		c-1.4,0.2-2.9,0.2-4.3,0.1c-0.6,0-1.2-0.1-1.8-0.2l-1.1-0.2c-0.1,0-1-0.3-0.7-0.2c-1-0.3-2.7-0.5-3.3,0.6c-3.3,6.4-6,13.2-8,20.1
		c-1.6,5.1-2.4,10.4-2.3,15.7c0.3,5.9,3.2,11.1,7.4,15.2c2.8,2.8,6.7,5.5,10.9,5.7c1.1,0,2.3-0.7,2.2-1.9S230.7,126.4,229.6,126.4z"></path><path class="st0" d="M228.1,108.1c0,0-21.4,4.7-26.1-6.2s10.4-17.5,23.3-9"></path><path class="st1" d="M226.9,105.9c-5.5,1.3-11.3,1.4-16.9,0.3c-1.9-0.4-3.6-1.1-5.2-2.1c-0.6-0.4-1.1-0.9-1.6-1.4
		c-0.1-0.1-0.2-0.3-0.3-0.4c0.2,0.4,0,0,0-0.1c-0.1-0.3-0.2-0.6-0.3-0.9c-1-4.1,2.1-7.6,5.8-9C214.2,90,221,91.7,226,95
		c0.9,0.6,0.6-0.8,0.4-1.2c-0.3-1.1-1-2.1-1.9-2.9c-5-3.3-11.3-5.1-17.3-3.4c-4.4,1.2-8,4.8-7.5,9.7c0.6,5.3,3.8,9.9,8.5,12.3
		c3.9,1.8,8.4,2.1,12.7,1.9c2.8-0.1,5.6-0.4,8.3-1C229.9,110.2,228.2,105.6,226.9,105.9L226.9,105.9z"></path><path class="st0" d="M245.6,107.4c0,0-1.5,4.1-5.6,3.3"></path><path class="st1" d="M243.2,107.5c-0.3,0.7-0.7,1.3-1.2,1.9l0.2-0.2c-0.2,0.2-0.4,0.4-0.7,0.6l-0.2,0.2l-0.1,0.1l0.2-0.1l-0.5,0.2
		c-0.2,0.1,0.6-0.2,0.2-0.1c-0.1,0-0.5,0.2,0,0s0.1,0,0,0c-0.3,0.1,0.7-0.1,0.4-0.1h-0.1c-0.4,0.1,0.8,0,0.3,0h-0.2
		c-0.2,0,0.6,0,0.4,0h-0.3c-0.3,0,0.3,0,0.3,0h-0.2c-0.6-0.1-1.2-0.1-1.8,0c-0.6,0.1-1.2,0.2-1.7,0.5c-0.2,0.1-0.7,0.4-0.6,0.7
		s0.5,0.5,0.8,0.5c2.5,0.5,5.2,0,7.4-1.4c0.9-0.6,1.6-1.4,2.1-2.3c0.1-0.2,0.2-0.4,0.3-0.6c0.3-0.8-1.4-0.8-1.9-0.8
		c-0.6,0-1.3,0.1-1.9,0.3l-0.5,0.2C243.6,107.2,243.4,107.3,243.2,107.5L243.2,107.5z"></path><path class="st1" d="M234.3,88.9c0,0,0.1,1.8-1.6,1.8s-1.7-2.1-0.2-2.6c0.7-0.3,1.4,0,1.7,0.6C234.3,88.8,234.3,88.9,234.3,88.9z"></path><path class="st1" d="M226.2,88.7c0,0,0.1,1.8-1.6,1.8s-1.7-2.1-0.2-2.6c0.7-0.3,1.4,0,1.8,0.6C226.1,88.5,226.2,88.6,226.2,88.7z"></path></g><g id="character-4"><path class="st1" d="M121,214.7c0,0,25-0.6,22.9,10.3s-22,7.5-22,7.5L121,214.7z"></path><path class="st1" d="M122.5,216.4c2.3,0,4.5,0.1,6.7,0.3c1.9,0.2,3.9,0.5,5.8,0.9c0.5,0.1,1,0.2,1.5,0.4l0.7,0.2
		c0.2,0,0.4,0.1,0.5,0.2c0.4,0.2,0.9,0.3,1.4,0.5l0.4,0.2c-0.3-0.1,0.1,0,0.1,0.1l0.4,0.2c0.1,0.1,0.6,0.4,0.3,0.2s0.2,0.2,0.3,0.2
		c0.3,0.2-0.4-0.3,0.1,0.1l0.2,0.2c-0.1-0.1-0.3-0.3-0.1-0.1s0.4,0.6,0.2,0.2l0.3,0.4c0.1,0.2-0.1-0.2,0,0c0.1,0.1,0.1,0.2,0.1,0.3
		c0.1,0.2,0.2,0.4,0.2,0.6c0.4,1.8,0,3.7-1.1,5.2c-2.3,3.5-7.1,4.5-11,4.7c-2.1,0.1-4.2,0.1-6.3-0.1c-0.7-0.1-1.4-0.1-2.1-0.2h-0.1
		c0.4,0.1,0,0-0.1,0c-0.1,0-0.1,0-0.2,0l3.2,2.7l-0.9-17.8c0-1-1.3-1.9-2.1-2.3c-0.3-0.2-2.2-1-2.1,0l0.9,17.8
		c0.1,1.3,2.1,2.5,3.2,2.7c2.9,0.5,5.8,0.6,8.8,0.5c4.4-0.2,9.7-1,12.6-4.6c1.4-1.7,2-3.9,1.7-6c-0.5-2.1-1.7-4-3.5-5.2
		c-3.9-3.1-8.9-4.3-13.8-5c-3.1-0.4-6.2-0.6-9.3-0.6c-1.1,0-0.4,1.1,0,1.6C120.2,215.7,121.3,216.2,122.5,216.4z"></path><path class="st1" d="M121.1,233.4c0,0,25-0.6,22.9,10.3s-22,7.5-22,7.5L121.1,233.4z"></path><path class="st1" d="M120.5,234.3c0.7,0,1.3,0,2,0s1.4,0,2.1,0.1l1.2,0.1h0.2l0.8,0.1c3.9,0.4,7.6,0.9,11.1,2.8
		c1.4,0.7,2.6,1.8,3.3,3.2c0.6,1.8,0.5,3.7-0.5,5.3c-0.9,1.7-2.4,2.9-4.1,3.6c-0.2,0.1-0.5,0.2-0.8,0.3c0.2-0.1-0.3,0.1-0.4,0.1
		c-0.2,0.1-0.5,0.1-0.7,0.2l-0.4,0.1h-0.1c-0.5,0.1-1.1,0.2-1.6,0.3h-0.3c-0.4,0,0.4,0,0,0l-1,0.1c-0.6,0.1-1.2,0.1-1.8,0.1h-1.2
		c-0.5,0-1,0-1.5-0.1h-0.8H126c-0.9-0.1-1.9-0.2-2.8-0.3l1.3,0.7l-0.9-17.8c-0.1-1.2-5-0.9-5,0.3l0.9,17.8c0,0.5,1,0.6,1.3,0.7
		c3.1,0.5,6.2,0.6,9.4,0.5c4.8-0.2,10.6-1.1,14.1-4.7c2.9-3,3.1-7.7-0.2-10.4c-3.5-2.8-8.4-3.7-12.7-4.3c-3.2-0.5-6.5-0.7-9.7-0.6
		c-0.7,0-2.7,0-3,0.8S120.1,234.3,120.5,234.3z"></path><path class="st0" d="M115.4,214.6c0,0,25-0.6,22.9,10.3s-22,7.5-22,7.5L115.4,214.6z"></path><path class="st1" d="M114.6,216.6c2.3,0,4.6,0.1,6.8,0.3c1.9,0.2,3.8,0.4,5.7,0.9c1,0.2,2,0.5,3,0.8c0.8,0.3,1.6,0.6,2.4,1
		c0.8,0.4,1.5,0.9,2.2,1.5l0.2,0.2c0.2,0.2-0.2-0.2,0,0c0.1,0.1,0.2,0.3,0.3,0.4c0.2,0.3,0.5,0.6,0.6,1c0.1,0.3,0,0,0,0
		c0,0.1,0.1,0.2,0.1,0.3s0.1,0.4,0.1,0.5c0,0.2,0.1,0.4,0.1,0.6c0,0.4,0,0.1,0,0c0,0.1,0,0.3,0,0.4s0,0.4-0.1,0.6
		c0,0.2-0.1,0.3-0.1,0.5c-0.1,0.2-0.1,0.5-0.2,0.7c-0.1,0.1-0.4,0.9-0.2,0.5c-0.1,0.2-0.2,0.4-0.4,0.6s-0.4,0.6-0.1,0.2
		c-0.2,0.2-0.4,0.4-0.5,0.6l-0.3,0.3c-0.4,0.3,0.2-0.2,0,0s-0.8,0.5-1.2,0.8c0.4-0.3,0,0-0.2,0.1l-0.9,0.4c-0.2,0.1-0.4,0.2-0.7,0.2
		s-0.8,0.2-0.3,0.1c-0.6,0.1-1.1,0.3-1.7,0.4s-1.1,0.2-1.6,0.2s-1.3,0.1-1.5,0.1c-2.1,0.1-4.1,0.1-6.2-0.1c-0.9-0.1-1.9-0.2-2.8-0.3
		l1.5,1.1l-0.9-17.8c-0.1-1.2-1.8-1.2-2.6-0.9c-1.2,0.4-1.9,1.5-1.9,2.7l0.9,17.8c0,0.8,0.9,1,1.5,1.1c2.8,0.4,5.7,0.6,8.5,0.4
		c5-0.2,10.6-1.3,14-5.2c3.2-3.6,3.8-8.8,0-12.1c-3.3-2.9-8.2-3.7-12.5-4.3c-3.1-0.4-6.2-0.6-9.3-0.6c-1.3,0-2.5,0.7-3,1.9
		c-0.4,0.7-0.1,1.6,0.6,2C114.1,216.6,114.3,216.7,114.6,216.6z"></path><path class="st0" d="M115.5,233.3c0,0,25-0.5,22.9,10.3s-22,7.5-22,7.5L115.5,233.3z"></path><path class="st1" d="M116.7,233.9c0.6,0,1.3,0,1.9,0h1c0.4,0-0.5,0,0,0h0.7c0.9,0,1.7,0.1,2.6,0.2c0.7,0.1-0.1,0,0.3,0l0.7,0.1
		c0.5,0.1,1.1,0.1,1.6,0.2h0.2l0.8,0.1l0.7,0.1l0.3,0.1c0.6,0.1-0.3-0.1,0.1,0c1.8,0.3,3.4,1,5,1.9c3,1.4,4.3,5,2.9,8
		c-0.1,0.3-0.3,0.6-0.5,0.8c-2,3.7-6.6,4.9-10.5,5.2c-1,0.1-2.1,0.1-3.1,0.1h-0.8h-0.4c-0.3,0,0.6,0,0,0l-1.4-0.1
		c-0.3,0-1.6-0.2-0.6,0l-0.9-0.1c-0.4,0-1.3-0.2-0.2,0l1.8,0.8l-0.9-17.7c0-1-5-1.2-4.9-0.7l0.9,17.8c0,0.5,1.5,0.7,1.8,0.8
		c3.3,0.5,6.6,0.8,9.9,0.7c4.5-0.1,10.1-0.8,13.3-4.3c2.8-3.1,2.8-7.6-0.7-10.2c-3.8-2.8-9-3.7-13.6-4.4c-3.4-0.5-6.9-0.7-10.3-0.6
		c-0.5,0-1.6,0-1,0.6S115.9,233.9,116.7,233.9z"></path><path class="st0" d="M125.7,351.4c16.1,2.6,24.8,25.6,20.6,31.4c-3.4,4.8-8.3-0.3-9.1-2.4s-3.9-4.4-3.9-4.4
		c-0.8,4.9,3.2,12.3,6,15.3s1.4,7.5-3.1,6.8s-9.1-9.7-9.1-9.7c-5.1,5.3-7.7-2.3-7.7-2.3c-8.9,4.3-14.7-25.8-14.7-25.8
		S81,311,86.3,291.4l32.6,0.4c0,0,1,23.6,3.4,39.8S125.7,351.4,125.7,351.4z"></path><path class="st1" d="M126.9,352c0.3,0,0.5,0.1,0.7,0.1c-0.3-0.1,0.5,0.2,0.6,0.2c0.9,0.4,1.8,0.8,2.6,1.4c1.7,1.1,3.2,2.3,4.6,3.7
		c2.8,2.9,5.1,6.2,6.8,9.9c1.5,3,2.4,6.2,2.7,9.6c0.2,2.6-0.2,6.1-3.1,7.1c-0.3,0.1-0.6,0.1-0.8,0.2c1.4-0.5,2.9,1.1,1.6,0.3
		c-0.5-0.3-0.9-0.7-1.3-1c-0.7-0.6-1.2-1.4-1.6-2.3c-0.9-1.8-2.3-3.3-3.9-4.5c-0.4-0.3-4.7-1.7-4.8-1.2c-0.4,3.1,0.7,6.3,2,9
		c0.6,1.3,1.4,2.6,2.2,3.9c0.7,1.1,1.6,2,2.4,3.1c1.4,1.9,1.2,5.2-1.4,6c-0.3,0.1-0.6,0.1-0.8,0.1c-0.4,0.1-1.5-0.3,0.7,0.3
		c2,0.5,1.1,0.4,0.8,0.1c-0.5-0.3-1-0.7-1.5-1.1c-1-0.9-1.8-1.9-2.6-2.9c-1.1-1.5-2.1-3.1-3-4.8c-0.3-0.6-1.8-0.8-2.3-1
		s-2.1-0.7-2.5-0.3c-0.8,0.9-1.8,1.5-2.9,1.8c-1.4,0.4,3.1,1.2,2.6,0.7c-0.1-0.1-0.2-0.2-0.4-0.3c-0.3-0.2-0.6-0.5-0.8-0.8
		c-0.6-0.7-1.1-1.6-1.4-2.5c-0.2-0.5-1.6-0.8-2-0.9c-0.6-0.2-2.1-0.8-2.7-0.5c-0.5,0.2-1,0.3-1.5,0.4h-0.1c0.8,0.1,1.6,0.3,2.3,0.5
		c0.1,0,0.5,0.3,0.2,0.1s-0.5-0.3-0.8-0.5c-1.2-1-2.1-2.2-2.9-3.6c-1.8-3.3-3.3-6.7-4.3-10.3c-1-3-1.8-6.1-2.5-9.2
		c-0.1-0.8-0.4-1.6-0.7-2.4c-6.4-13.3-11.7-27.2-15.7-41.5c-1.4-4.8-2.4-9.8-3-14.8c-0.6-4.1-0.4-8.2,0.5-12.2l-0.4,0.1l28.6,0.3
		l4,0l-4.5-1.4c0.7,18.5,2.7,36.9,5.9,55.1c0.3,1.5,0.5,3.1,0.9,4.5c0.1,0.5,1.9,0.8,2.3,1c0.8,0.2,1.7,0.3,2.5,0.3
		c-1.5-5.9-2.2-12-3.1-18c-1.7-11.1-2.6-22.3-3.3-33.5c-0.2-2.7-0.3-5.4-0.4-8.1c0-0.4-1.5-0.7-1.7-0.8c-0.9-0.3-1.8-0.5-2.8-0.6
		l-28.6-0.3h-4c-0.1,0-0.3,0-0.4,0.1c-0.8,3.6-1,7.4-0.6,11.1c0.5,4.6,1.3,9.2,2.5,13.7c2.5,9.5,5.6,18.8,9.3,27.8
		c2.2,5.4,4.4,10.7,6.9,16c0.3,0.9,0.6,1.9,0.7,2.9c0.8,3.3,1.7,6.6,2.7,9.8c1.1,3.7,2.7,7.2,4.7,10.4c2.2,3.2,5.8,5.1,9.6,5
		c0.7,0,1.3-0.1,1.9-0.4l-4.7-1.5c0.5,1.6,1.5,2.9,2.8,3.9c1.8,1,3.7,1.6,5.8,1.7c1.6,0,3-0.7,4-2l-4.8-1.3
		c2.2,4.4,5.4,8.9,10.2,10.3c2.6,0.8,7.3,1.8,8.1-1.9c0.2-1.4-0.1-2.8-1-3.9c-1-1.3-2.1-2.5-2.9-4c-2-3.4-3.9-7.7-3.4-11.7l-4.8-1.2
		c1.7,1.3,3.1,2.9,4,4.8c1.1,2,3,3.4,5.1,4.2c2.6,0.9,6,2,8.1-0.4c0.9-1,1.4-2.3,1.5-3.7c0.3-3.7-0.8-7.5-2.2-10.8
		c-1.7-4.2-4.2-7.9-7.4-11.1c-4.2-4.1-9.7-6.8-15.5-7.6c-0.4-0.1-1.6-0.4-1,0.2S126,351.9,126.9,352z"></path><path class="st1" d="M130.5,369c-0.4,1.8-0.4,3.6,0.1,5.4c0.3,1.6,0.9,3.2,1.1,4.8c0.1,0.5,0.7,0.8,1.1,1c0.6,0.2,1.3,0.1,1.8-0.1
		c0.6-0.2,1.1-0.6,1.5-1.1c0.3-0.4,0.4-0.9,0.3-1.4c-0.3-1.5-0.7-3-1.1-4.5c0-0.2-0.1-0.3-0.1-0.5s0-0.2-0.1-0.3s0-0.2,0-0.1
		s0,0.1,0-0.1s0-0.2,0-0.3s0-0.3,0-0.5c0-0.4,0-0.8,0-1.2c0-0.2,0-0.3,0-0.5s0-0.2,0,0c0-0.1,0-0.2,0.1-0.3c0.2-0.5,0.1-1-0.2-1.4
		c-0.4-0.4-0.9-0.6-1.4-0.6C132.5,367.3,130.8,367.9,130.5,369L130.5,369z"></path><path class="st1" d="M122.4,379c0.6,3.8,1.6,7.6,3.1,11.1c0.4,1.1,2.2,0.8,3,0.3s2-1.5,1.5-2.6c-1.4-3.3-2.4-6.7-2.9-10.3
		c-0.2-1.1-1.5-1.3-2.5-1S122.3,377.8,122.4,379L122.4,379z"></path><path class="st1" d="M115.8,381.7c0,1,0.1,2,0.3,3c0.2,1,0.5,2,0.9,2.9c0.3,0.6,0.8,1,1.4,1.3c1.1,0.4,2.3-0.1,2.7-1.2
		c0-0.1,0.1-0.2,0.1-0.3l0.1-0.6c0-0.4-0.1-0.9-0.3-1.3c0-0.1-0.1-0.2-0.1-0.2l0.2,0.6c-0.4-1-0.6-2-0.7-3l0.1,0.6
		c-0.1-0.5-0.1-1-0.1-1.5c0-0.7-0.3-1.3-0.7-1.8c-0.4-0.5-1-0.8-1.6-0.8c-0.6-0.1-1.2,0.1-1.6,0.6
		C116,380.5,115.8,381.1,115.8,381.7L115.8,381.7z"></path><path class="st0" d="M149.8,143.9c15.8,4.2,33.1-13.2,31.7-20.2c-1.1-5.7-7.7-3.2-9.3-1.6s-5.3,2.4-5.3,2.4
		c1.3-4.8,8-9.9,11.7-11.5s4.4-6.3,0-7.5s-12.3,5.1-12.3,5.1c-2.4-6.9-8-1-8-1c-6.3-7.6-24,17.4-24,17.4s-41.9,35.4-45.1,55.5
		l29.9,13c0,0,10.6-21.1,19.5-34.9S149.8,143.9,149.8,143.9z"></path><path class="st1" d="M149.7,144.2c5.3,1.5,10.9,1.3,16-0.6c4.6-1.8,8.7-4.5,12.2-7.9c2.5-2.5,5.3-5.8,6-9.4
		c0.3-1.7-0.2-3.4-1.4-4.6c-0.9-0.7-1.9-1.2-2.9-1.4c-1.4-0.5-3-0.8-4.5-0.8c-1.8,0.1-3.6,0.7-5,1.8c-1.6,1.3-3.5,2.2-5.6,2.6
		l4.7,1.3c1-3.5,4-6.3,6.8-8.5c1.4-1.1,2.8-2,4.4-2.8c1.3-0.5,2.4-1.4,3.1-2.5c0.6-1.1,0.6-2.5-0.1-3.6c-0.9-1.4-2.7-2-4.2-2.4
		c-1.7-0.6-3.6-0.8-5.4-0.6c-1.5,0.3-2.9,0.8-4.2,1.5c-2,1-4,2.3-5.7,3.7l4.8,1.3c-0.4-1.5-1.5-2.8-2.8-3.5
		c-1.8-0.9-3.8-1.3-5.8-1.2c-1.6,0.3-3.1,1.1-4.2,2.4l4.8,1.2c-1.4-1.6-3.8-2.1-5.7-2.5c-1.5-0.3-3.1-0.2-4.5,0.4
		c-3.4,1.4-6.2,4.1-8.7,6.6c-2.6,2.7-5.1,5.6-7.4,8.6c-0.8,1.1-1.6,2.2-2.5,3.2c-1.1,1.1-2.4,2.1-3.6,3.2c-2.6,2.3-5.1,4.6-7.6,7
		c-7,6.5-13.5,13.4-19.7,20.8c-3.1,3.6-5.9,7.4-8.4,11.4c-2.2,3.3-3.9,6.9-5.1,10.6c-0.2,0.8-0.4,1.6-0.6,2.4c0,0.2,0.6,0.4,0.7,0.4
		l26.2,11.4l3.7,1.6c0.5,0.2,3.9,1.5,4.2,0.9c8.2-16.6,17.6-32.6,28-47.9c0.9-1.3,1.7-2.6,2.7-3.8c0.1-0.2-2.2-0.9-2.3-1
		c-0.4-0.1-2.2-0.8-2.5-0.3c-3.7,4.6-6.8,9.8-9.9,14.8c-6.2,9.5-11.7,19.5-17,29.5c-1.3,2.4-2.6,4.9-3.8,7.4l4.2,0.9l-26.1-11.4
		l-3.7-1.6l0.7,0.4c0.7-3.5,2-6.8,3.8-9.8c2.1-3.8,4.6-7.4,7.3-10.9c5.8-7.3,12.1-14.3,18.8-20.8c4.5-4.4,9.1-8.7,13.9-12.9
		c2.5-2.2,4.2-5.1,6.4-7.6c2.7-3.4,5.8-6.4,9.1-9.2c1.4-1.2,2.9-2.1,4.6-2.7c0.7-0.2,1.3-0.3,2-0.4c0.5-0.1-1.8,0-2.5-0.7
		c-0.2-0.2,0.1,0.1,0.1,0.1c0.3,0.2,0.5,0.5,0.8,0.7c0.5,0.6,1.9,0.8,2.6,0.9c0.4,0.1,1.8,0.6,2.2,0.2c0.7-0.7,1.4-1.3,2.3-1.7
		c0.3-0.2,0.6-0.3,0.9-0.4c0.2-0.1,0.4-0.1,0.6-0.1c1.2-0.4,0.5,2.1-2.5-0.8c0.8,0.8,1.5,1.7,1.9,2.8c0.2,0.6,1.8,0.8,2.3,1
		s2,0.7,2.5,0.3c1.2-0.9,2.4-1.8,3.8-2.6c1.2-0.7,2.4-1.3,3.6-1.8c0.6-0.2,1.1-0.4,1.7-0.6c0.6-0.1,1.2-0.1,1.8-0.2
		c0.4-0.1-1.9-0.4-1.9-0.5c0.1,0.1,0.3,0.2,0.5,0.3c0.2,0.2,0.4,0.4,0.5,0.6c0.3,0.5,0.5,1,0.6,1.6c0,1.2-0.5,2.3-1.4,3.1
		c-1,0.8-2.1,1.4-3.2,1.9c-1.3,0.7-2.5,1.6-3.7,2.5c-2.7,2.1-5.5,4.9-6.5,8.2c-0.2,0.5,4.2,1.4,4.7,1.3c1.5-0.3,2.9-0.9,4.3-1.6
		c1.3-0.8,2.1-1.8,3.6-2.3c0.7-0.3,1.4-0.4,2.2-0.5c0.2,0,0.3,0,0.5,0c1.1-0.1-3.1-1.4-2.3-0.6c0.4,0.3,0.7,0.7,1,1.1
		c0.6,1.2,0.8,2.6,0.5,3.9c-0.7,3.1-2.9,5.9-5.1,8.2c-3,3.2-6.5,5.8-10.4,7.6c-3.9,1.9-9.3,3.6-13.6,2.4c-0.2-0.1-2.4-0.7-2.5-0.3
		S149.6,144.2,149.7,144.2z"></path><path class="st1" d="M166,130.3v-0.1l-0.1,0.5c0.1-0.4,0.2-0.7,0.3-1.1c0.1-0.2,0.1-0.3,0.2-0.5l0.1-0.3c0-0.1,0.2-0.3,0,0
		s0,0,0-0.1l0.1-0.3l0.3-0.5c0.2-0.3,0.4-0.6,0.7-1c0.9-1.2,2-2.4,2.8-3.7c0.3-0.4,0.4-1,0.3-1.4c-0.2-0.5-0.6-0.8-1.1-0.9
		c-1.2-0.3-2.6,0.2-3.3,1.2c-0.9,1.4-2,2.6-3,3.9c-0.5,0.8-1,1.5-1.4,2.4c-0.4,0.8-0.7,1.7-0.8,2.6c0,0.5,0.3,1,0.7,1.2
		c0.5,0.3,1.1,0.4,1.7,0.3c0.7-0.1,1.3-0.4,1.8-0.8C165.6,131.4,165.8,130.9,166,130.3L166,130.3z"></path><path class="st1" d="M162.1,119.2c0.5-0.8,1-1.5,1.5-2.2c0,0,0.3-0.4,0.1-0.1l0.1-0.1c0.1-0.2,0.3-0.4,0.4-0.5
		c0.3-0.4,0.6-0.8,0.9-1.1c1.2-1.4,2.5-2.7,3.8-4c0.7-0.7,0.9-2-0.2-2.4c-1.2-0.3-2.5,0.1-3.3,1c-2.9,2.7-5.4,5.7-7.5,9
		c-0.4,0.5-0.3,1.3,0.2,1.8c0.2,0.2,0.5,0.3,0.8,0.3C160.1,120.9,161.3,120.3,162.1,119.2L162.1,119.2z"></path><path class="st1" d="M157.3,114.3c0.4-0.8,0.9-1.6,1.4-2.4l-0.4,0.5c0.4-0.6,0.9-1.1,1.4-1.6c0.4-0.4,0.7-1,0.6-1.6
		c0-0.7-0.3-1.3-0.7-1.8c-0.4-0.5-1-0.8-1.6-0.8c-0.6-0.1-1.2,0.2-1.6,0.6c-0.7,0.7-1.4,1.5-1.9,2.3c-0.5,0.7-0.9,1.4-1.2,2.1
		c-0.3,0.6-0.4,1.2-0.2,1.8c0.2,0.6,0.5,1.2,1.1,1.6c0.5,0.4,1.1,0.5,1.7,0.4C156.5,115.3,157,114.9,157.3,114.3L157.3,114.3z"></path><path class="st0" d="M128.4,345.9c0,0-21.2,14.7-29.1,11S86.1,297.4,80,269s-8.8-67.9,7.9-96.7s37.6-44.5,40.2-43.3
		s23.6,14.2,20.2,21.4s-30.8,45.3-33.4,57.6c0,0,12.3,26.5,1.3,50C116.2,258.1,131.1,340.3,128.4,345.9z"></path><path class="st2" d="M127,344.1c-5.3,3.8-11,6.9-17,9.4c-3.2,1.3-7.6,3-11.1,1.9c-0.2-0.1-0.4-0.2-0.6-0.3c0.1,0.1-0.1-0.1,0.1,0.1
		l0.2,0.3c-0.2-0.3,0.3,0.4,0.1,0.1c0-0.1-0.3-0.5-0.1-0.2s-0.2-0.4-0.3-0.5c-0.2-0.3,0,0,0-0.1l-0.2-0.5c-0.3-0.6-0.6-1.2-0.8-1.9
		c-1.2-3.3-2.2-6.8-3-10.3c-1.1-4.6-2-9.4-2.8-14.1c-2-10.9-3.6-21.9-5.4-32.8c-0.8-5.3-1.7-10.6-2.7-15.8c-0.9-4.9-2-9.8-2.9-14.7
		c-2.4-12.4-3.6-25.1-3.6-37.8c0.1-13.1,1.7-26.4,6-38.8c4.5-13.1,12.4-24.9,21.1-35.5c6-7.3,12.7-14.6,20.5-19.9
		c1.2-0.8,3.3-2.4,4.8-2.2c-0.2,0-0.1,0,0.1,0.1l0.6,0.3c0.5,0.3,1.1,0.6,1.6,0.9c1.5,0.9,2.9,1.9,4.4,2.9c1.8,1.3,3.5,2.6,5.2,4
		c0.9,0.7,1.7,1.5,2.5,2.2c0.3,0.3,0.6,0.6,0.9,0.9s0.7,0.8,0.8,0.9c0.5,0.5,0.9,1.1,1.2,1.7c0.3,0.6,0.5,1.1,0.6,1.8
		c0.2,1.1-0.1,2.2-0.7,3.1c-3.4,6.3-7.7,12.3-11.6,18.3c-5.3,8.2-10.6,16.4-15.3,24.9c-1.9,3.3-3.6,6.8-5,10.3
		c-0.4,1.1-1.3,2.9-0.9,4c0.2,0.5,0.4,1,0.7,1.6c3.6,9,5.3,18.6,5,28.3c-0.1,3.4-0.6,6.7-1.4,10c-0.4,1.7-0.9,3.4-1.4,5.1
		c-0.3,0.8-0.6,1.6-0.9,2.4c-0.4,0.7-0.7,1.5-0.8,2.3c0.1,0.8,0.2,1.6,0.4,2.3c0.9,5.2,1.8,10.4,2.7,15.7c1.4,7.9,2.7,15.9,4,23.8
		c1.3,8.1,2.6,16.3,3.6,24.4c0.9,5.8,1.5,11.7,1.8,17.5c0,0.8,0,1.5,0,2.3c0,0.3,0,0.5-0.1,0.8c0,0.2-0.2,0.5-0.1,0.5
		c-0.5,1.1,2.7,3.7,2.8,3.5c0.4-1.2,0.5-2.5,0.4-3.8c0-2.4-0.3-4.8-0.5-7.2c-0.8-7.1-1.8-14.2-2.8-21.3c-2.2-15.2-4.8-30.4-7.5-45.6
		c-0.6-3.4-1.2-6.9-1.8-10.3v0.4c7.2-15.5,5.5-34-0.8-49.5c-0.1-0.4-0.3-0.9-0.5-1.3c0.3,0.4,0,0.6,0.2,0.2c0.1-0.2,0.1-0.4,0.2-0.6
		c0.2-0.5,0.3-1,0.5-1.5c1-2.6,2.1-5.2,3.5-7.6c3.4-6.5,7.3-12.8,11.2-19.1s7.9-12.3,11.9-18.4c1.4-2.2,2.9-4.4,4.2-6.7
		c0.8-1.4,2-3,2.2-4.6c0.3-2.9-1.8-5.7-3.4-7.8c-2.3-2.8-4.9-5.4-7.8-7.6c-2.5-2-5.1-3.9-7.8-5.6c-1-0.6-2-1.2-3-1.8
		c-0.5-0.3-1-0.6-1.6-0.7c-1.2-0.1-2.6,0.8-3.6,1.4c-2.2,1.4-4.3,2.9-6.3,4.7c-6.4,5.5-12.2,11.7-17.4,18.4
		c-6.6,8.4-12.8,17.5-17.1,27.4c-3.9,9.4-6.5,19.4-7.5,29.5c-2.2,19.6-0.3,39.6,3.8,58.8c3.4,16.2,5.6,32.6,8.3,48.9
		c1.3,7.7,2.6,15.4,4.4,23c1.2,5,2.4,10.5,5.1,14.9c1.1,1.8,2.6,3.8,4.6,4.6c2.6,1,5.5,0.4,8-0.4c6.3-1.8,12.2-5.2,17.7-8.7
		c1.1-0.7,2.2-1.4,3.3-2.1C130.5,347.2,127.8,343.6,127,344.1z"></path><path class="st1" d="M68.6,261.5c-31.9,5.8-41.8-14-43.7-28.3s3-24.1,8.8-27.1c4.3-2.3,31.3,6.9,31.3,6.9l23.6,23.4
		C88.6,236.3,92.9,257.1,68.6,261.5z"></path><path class="st0" d="M77.6,198.3c-10.8-8.1-38.6,8.2-38.6,8.2c-0.4,5.3-4.2,14.5-4.2,14.5c15.5-4.6,22.1,13.5,22.1,13.5
		c-8.1,4.8-3.8,14.4,4.4,12.8s8.2-9.7,8.2-9.7s21.1,1.7,24.3,0.5c0,0,7.8-14.6-5.2-21.8C88.8,216.3,84.9,203.8,77.6,198.3z"></path><path class="st1" d="M76.8,196.3c-3.1-2.3-7.1-2.7-10.8-2.3c-4.5,0.5-8.9,1.6-13.1,3.3c-3.8,1.4-7.4,3-11,4.9
		c-1,0.5-2.1,1.1-3.1,1.7s-0.9,0.5-1.1,1.6c-0.8,4.7-2.1,9.2-4.1,13.5c-0.3,0.7,1.6,4.5,2.5,4.3c4.6-1.5,9.6-0.6,13.5,2.2
		c1.5,1.1,2.8,2.4,3.9,3.9c0.2,0.3,0.5,0.7,0.7,1s-0.2-0.2,0.2,0.2c0.1,0.2,0.2,0.4,0.3,0.6l0.3,0.5c-0.2-0.3-0.2-0.3,0,0l0.5,0.9
		c-0.4-0.7,0,0.1,0.2,0.4l0.2,0.3c0.2,0.5-0.2-0.4-0.1-0.1s0.2,0.4,0.2,0.6l-0.2-1.3c-3.4,2.1-5.2,5.6-3.9,9.5s4,7.6,8.3,7.9
		c3.9,0.3,7.6-1.7,9.4-5.1c0.6-1.1,1-2.3,1.2-3.5c0.1-0.3,0.1-0.7,0.1-1.1c-0.1-0.4,0.2-0.2-0.2-0.2c0.7,0,1.3,0,2,0.1l3.9,0.3
		c3.5,0.2,7,0.4,10.5,0.5c1.6,0,3.2,0.1,4.8,0c1,0.1,2,0,3-0.3c0.4-0.2,0.5-0.6,0.7-1c0.4-0.9,0.8-1.9,1.1-2.9
		c1.1-3.3,1.2-6.9,0.4-10.3c-1.3-5.1-4.7-9.4-9.2-12l2.2,3.6c-0.9-2.9-2.1-5.7-3.4-8.4C84.2,204.6,81.2,199.6,76.8,196.3
		c-0.8-0.6-0.3,0.9-0.1,1.2c0.3,1.1,1,2.1,1.8,2.9c2.4,1.9,4.4,4.3,5.9,7c1.2,2.1,2.1,4.3,2.9,6.5c0,0.1,0.2,0.6,0.1,0.3
		s0.1,0.2,0.1,0.3s0.1,0.3,0.2,0.5c0.3,1,0.8,1.9,1.4,2.7c0.7,0.7,1.5,1.3,2.4,1.8c0.7,0.5,1.4,1.1,2,1.7c0.2,0.2,0.4,0.5,0.6,0.7
		c0.1,0.1,0.4,0.6,0.2,0.3c0.1,0.1,0.1,0.2,0.2,0.3c0.1,0.2,0.2,0.4,0.2,0.6c0.2,0.6,0.3,1.2,0.4,1.8c0.2,2.4,0,4.7-0.7,7
		c-0.2,1.4-0.7,2.8-1.5,4c0,0.1,0,0.2-0.1,0.2c0.1-0.1-0.6,0-0.7,0.1c-0.9,0.1-1.8,0.2-2.7,0.2c-2.5,0.1-5.1,0-7.6-0.1
		c-3-0.1-6-0.3-8.9-0.5l-3-0.2l-0.9-0.1h-0.2c-0.1-0.1-0.2,0-0.2,0.1c0,2.9-1.3,5.6-3.5,7.4c-2.1,1.7-4.8,2.5-7.5,2.2
		c-1.2-0.2-2.2-0.6-3.2-1.3c-0.3-0.2-0.8-1-0.5-0.4c0.1,0.1,0.2,0.3,0.2,0.4s0.1,0.5,0.1,0.3c0-0.3-0.1-0.5-0.1-0.8
		c-0.3-2.9,1.9-5.3,4.2-6.8c0.3-0.2-0.1-1.1-0.2-1.3c-1.1-2.8-2.5-5.5-4.3-7.9c-2.6-3.8-6.1-7.3-10.6-8.7c-3.1-0.9-6.3-0.9-9.4,0.1
		l2.4,4.2c1.6-3.6,2.8-7.4,3.7-11.2c0.1-0.6,0.2-1.2,0.3-1.8c0-0.4,0-0.8,0.1-1.3c0.1-0.1,0.4-0.2,0.5-0.3c0.8-0.5,1.7-0.9,2.5-1.4
		c7.1-3.7,14.8-7.1,22.8-8.4c4-0.6,8.9-0.9,12.4,1.7c0.8,0.6,0.3-0.8,0.2-1.1C78.3,198.1,77.7,197.1,76.8,196.3z"></path><path class="st1" d="M67.4,228.6c1.2,0.2,2.4,0.2,3.6,0.1c1.1-0.1,2.2-0.3,3.3-0.7c0.9-0.4,1.7-1,2.2-1.9c0.2-0.5,0.3-1.1,0.3-1.7
		c-0.1-0.8-0.2-1.5-0.6-2.2c-0.4-1-1.9-1.4-2.9-1.4c-0.6,0-1.1,0.1-1.6,0.4c-0.3,0.2-0.5,0.6-0.4,1c0.3,0.6,0.4,1.1,0.5,1.8v-0.4
		c0.1,0.5,0,0.9-0.2,1.3l0.1-0.4c-0.1,0.3-0.3,0.6-0.5,0.8l0.3-0.3c-0.2,0.2-0.4,0.4-0.7,0.5l0.4-0.2c-0.2,0.1-0.4,0.2-0.6,0.3
		l-0.3,0.1c0.1,0,0.3-0.1,0.4-0.1h-0.1h-0.2c-0.2,0.1-0.4,0.1-0.7,0.1h-0.2h-0.1h0.5h-0.3c-0.4,0-0.8,0-1.2,0h-0.3
		c-0.5,0,0.8,0,0.4,0h-0.4h-0.4c-0.6-0.1-1.2,0-1.8,0.2c-0.3,0.1-0.8,0.5-0.8,0.9C65.1,228,66.6,228.5,67.4,228.6L67.4,228.6z"></path><path class="st0" d="M55.8,209.9c1.9-3.2,3.4-6.7,4.3-10.3c3.3-12.2,7.8-13.2,9.8-9.1s-1.5,20.8-1.5,20.8"></path><path class="st1" d="M57.9,211.3c1.9-3.1,3.3-6.4,4.2-9.9c0.7-2.6,1.6-5.2,2.8-7.6c0.6-1.4,1.6-2.7,2.9-3.6
		c0.4-0.2,0.8-0.4,1.3-0.4h0.1c0.3,0,0,0,0,0s-0.8-0.4-1-0.6c-0.2-0.2-0.5-0.3-0.7-0.5c0.2,0.2-0.1-0.1-0.1-0.1c0,0,0.1,0.1,0.1,0.1
		c0,0.2-0.1-0.2,0,0c0.1,0.1,0.2,0.2,0.2,0.3c0.1,0.2,0.2,0.4,0.3,0.6c0.2,0.6,0.3,1.2,0.4,1.8c0.2,3.6,0,7.2-0.7,10.8
		c-0.4,2.6-0.8,5.1-1.4,7.6c-0.2,0.7,1.2,1.6,1.7,1.9c0.2,0.1,2.3,1.4,2.4,0.9c0.5-2.4,0.9-4.9,1.3-7.3c0.6-3.8,1.2-7.8,0.8-11.6
		c-0.1-1.4-0.7-2.7-1.6-3.8c-1.3-1.4-3.4-3.1-5.4-3.2c-3.4-0.2-5.3,5-6.2,7.5c-1.8,4.8-2.7,9.9-5.5,14.2
		C53.3,209.2,57.4,212.1,57.9,211.3L57.9,211.3z"></path><path class="st1" d="M53.5,217.2c0-1,0.7-1.7,1.7-1.8c0.1,0,0.2,0,0.3,0c1.9,0.2,1.6,2.6-0.1,2.9c-0.8,0.3-1.6-0.1-1.9-0.9
		C53.6,217.4,53.5,217.3,53.5,217.2z"></path><path class="st1" d="M50.9,204.8c0,0,0.1-2,2-1.7s1.6,2.6-0.1,2.9c-0.8,0.3-1.6-0.1-1.9-0.9C51,204.9,50.9,204.8,50.9,204.8z"></path><path class="st1" d="M43.2,261.9c0.7,0.2,1.4,0.4,2,0.6s1.1,0.4,1.9,0.7l0.6,0.2l0.2,0.1l0.6,0.3c-0.4-0.2,0.3,0.1,0.4,0.2
		c-0.5-0.2,0.2,0.1-0.3-0.1c0.1,0,0.2,0.1,0.3,0.2c0.3,0.2-0.3-0.2,0,0c0.3,0.2,0.5,0.3,0.8,0.5c0.7,0.5,1.3,1.1,1.8,1.7
		c1.1,1.2,1.5,2.9,1.1,4.4c-0.6,2.2-2.5,4-4.3,5.2c-1.5,1.2-3.5,1.8-5.5,1.6c-0.2,0-0.3-0.1-0.5-0.1c0,0,2.1,0.9,2.1,1.1
		c0,0.1,0,0-0.1-0.1s-0.3-0.3-0.4-0.5c-0.5-0.5-0.8-1.1-1-1.8c-0.4-1.3-0.3-2.7,0.4-3.8c2.4-3.6,8.7-2.1,11.8-0.5
		c2.1,1.2,3.9,2.7,5.5,4.5c1.7,1.7,2.9,3.8,3.7,6c0.6,1.5,0.4,3.3-0.6,4.6c-1.3,1.2-3,1.8-4.8,1.6c-0.3,0-0.6-0.1-0.9-0.1
		c-0.1,0-0.4,0-0.2,0c-0.1,0-0.6-0.3,0.2,0.1c0.5,0.2,0.9,0.5,1.4,0.7s0,0-0.2-0.2c-0.2-0.2-0.5-0.5-0.7-0.7c-0.9-1.1-1.6-2.3-2-3.6
		c-0.7-2.2-0.9-5.2,0.7-7.1c0.8-0.9,1.9-1.5,3.1-1.5c0.8,0,1.5,0,2.2,0.2c0.4,0.1,0.8,0.2,1.1,0.3c0.2,0.1,0.4,0.1,0.5,0.2l0.3,0.1
		c1,0.6,2,1.3,2.9,2c0.9,0.7,1.9,1.3,3,1.7c0.2,0.1,1.7,0.7,1,0.1c-3.1-2.4-6.5-4.4-10.2-6c-1.9-0.8-4-1.4-6-1
		c-3.1,0.7-3.8,4.1-3.4,6.8c0.6,4.1,3.2,6.8,6.7,8.7c1.9,1,4,2,6.2,1.7c2-0.3,4-1.3,4.3-3.6s-1-4.6-2.2-6.4
		c-1.9-2.6-4.2-4.9-6.9-6.8c-3.3-2.4-7-4.2-10.9-5.5c-2.5-0.8-5.5-1.4-8-0.3c-3.5,1.5-3.2,5.9-0.7,8.2c1.3,1.1,2.8,1.9,4.3,2.6
		c1,0.5,2.2,0.8,3.3,0.8c2.6,0,5-1.7,6.8-3.5c1.5-1.6,2.8-3.7,2.1-5.9c-0.6-2-2.3-3.4-3.9-4.6c-3.9-2.7-8.2-4.8-12.8-6.2l-0.8-0.2
		c-0.9-0.2,0.5,0.7,0.6,0.8C41.1,261,42.1,261.5,43.2,261.9L43.2,261.9z"></path></g><g id="character-5"><path class="st1" d="M149.1,356.1c0,0,13-21.4,21-13.8s-5.5,22.5-5.5,22.5L149.1,356.1z"></path><path class="st1" d="M151.6,356.2c1.2-1.9,2.4-3.7,3.8-5.4c2.3-3,5.1-6.2,8.2-8c0.6-0.4,1.3-0.7,2-0.9c-0.4,0.1-0.1,0.1,0.1,0
		s-0.4,0,0.1,0s-0.4,0,0.1,0c0.1,0,0.4,0,0,0s0.1,0,0.2,0c0.3,0.1-0.3-0.1,0.2,0.1l0.3,0.1c0.4,0.2,0.7,0.4,1,0.7
		c0.8,0.6,1.4,1.4,1.8,2.3c1.9,3.8,0.1,8.5-1.8,12c-1,1.9-2.2,3.7-3.5,5.5c-0.7,0.9-1,1.2-1.7,2.1l4.3-0.4l-15.5-8.8
		c-1.1-0.5-2.3-0.5-3.4-0.1c-0.6,0.2-1.8,1-0.8,1.6l15.5,8.8c1.1,0.6,3.4,0.6,4.3-0.4c2-2.3,3.8-4.7,5.3-7.3c2.2-3.9,4.3-9,2.4-13.4
		c-2-4.8-7.4-5.9-11.9-4.3c-4.2,1.5-7.5,4.9-10.3,8.2c-2,2.4-3.8,4.9-5.5,7.5c-0.6,0.9,1.4,1.2,1.9,1.2
		C149.5,357.3,151,357.1,151.6,356.2z"></path><path class="st1" d="M164.9,366.1c0,0,13-21.4,21-13.8s-5.5,22.5-5.5,22.5L164.9,366.1z"></path><path class="st1" d="M166.9,367.5c1.2-1.9,2.4-3.7,3.8-5.4c2.3-3.2,5.1-5.9,8.3-8.1c0.6-0.4,1.3-0.8,2.1-1c0.4-0.1,0.8-0.2,1.2-0.3
		c-0.4,0.1,0.1,0,0.2,0h0.6c0.2,0-0.1,0-0.2,0l0.3,0.1l0.5,0.1c-0.6-0.2,0,0,0.1,0.1c0.5,0.3-0.3-0.3,0.2,0.1
		c0.2,0.1,0.5,0.4,0.1,0.1l0.6,0.6c0.1,0.1,0.2,0.2,0.2,0.3c0,0-0.2-0.2,0,0s0.3,0.5,0.5,0.8s-0.1-0.3,0,0.1c0,0.1,0.1,0.2,0.1,0.3
		c0.1,0.2,0.2,0.5,0.2,0.7c0.1,0.4,0.2,0.8,0.2,1.3c0.1,0.9,0,1.9-0.2,2.8c-0.4,2-1.2,4-2.2,5.9c-1.5,2.8-3.3,5.4-5.4,7.7l2.5-0.3
		l-15.5-8.8c-0.9-0.5-2.4-0.4-2.7,0.7s0.9,2.2,1.8,2.8l15.5,8.8c0.8,0.5,1.8,0.4,2.5-0.3c2-2.2,3.7-4.6,5.1-7.2
		c2.3-4.1,4.3-9.3,2.5-13.9s-6.7-7.7-11.6-6.1c-4.1,1.4-7.4,4.9-10.2,8.1c-2,2.3-3.8,4.8-5.4,7.4
		C161.6,366.7,165.7,369.5,166.9,367.5z"></path><path class="st0" d="M146,360.8c0,0,13-21.4,21-13.8s-5.5,22.5-5.5,22.5L146,360.8z"></path><path class="st1" d="M147.9,361.4c1.2-1.9,2.4-3.7,3.8-5.4c1.1-1.5,2.3-2.9,3.6-4.2c0.7-0.7,1.4-1.4,2.2-2.1
		c0.1-0.1,0.6-0.5,0.2-0.2l0.6-0.4c0.4-0.3,0.8-0.6,1.3-0.8l0.5-0.3c-0.4,0.3-0.1,0,0.2-0.1l0.6-0.2c0.1,0,0.8-0.3,0.2-0.1
		c0.4-0.1,0.7-0.1,1.1-0.2s-0.1,0-0.2,0c0.1,0,0.2,0,0.3,0h0.6c0.4,0-0.3-0.1,0.2,0l0.5,0.1c0.1,0,0.6,0.3,0.3,0.1
		c0.2,0.1,0.4,0.2,0.6,0.4c0.8,0.5,1.4,1.2,1.8,2.1c2,3.5,0.3,7.9-1.5,11.3c-0.3,0.6-1,1.8-1.6,2.7s-1.1,1.7-1.8,2.5
		c-0.4,0.6-0.9,1.1-1.3,1.7c-0.3,0.4-0.4,0.4,0,0c-0.1,0-0.1,0.1-0.1,0.2l3.2-0.6l-15.5-8.8c-1.1-0.5-2.4-0.3-3.2,0.6
		c-0.6,0.6-1.4,2.1-0.3,2.8l15.5,8.8c1.1,0.5,2.4,0.3,3.2-0.6c2.1-2.3,3.9-4.8,5.4-7.5c2.3-4.1,4.6-9.4,2.9-14.1
		c-0.8-2.3-2.5-4.1-4.7-5.1c-2-0.8-4.3-0.7-6.2,0.1c-4.4,1.6-7.9,5.3-10.9,8.8c-2,2.3-3.8,4.8-5.4,7.4c-0.5,0.9-0.6,2.1,0.5,2.5
		C145.9,362.9,147.2,362.4,147.9,361.4z"></path><path class="st0" d="M161.8,370.8c0,0,13-21.4,21-13.8s-5.5,22.5-5.5,22.5L161.8,370.8z"></path><path class="st1" d="M164.3,371.1c1.1-1.9,2.4-3.7,3.7-5.4c2.4-3.1,5.2-6.3,8.6-8.3c0.7-0.5,1.5-0.8,2.3-1.1c0.3-0.1,0.7-0.2,1-0.2
		c0.2,0,0.3,0,0.5,0c-0.4-0.1-0.8-0.1-1.1-0.1c0,0-0.4-0.1-0.2,0s-0.3-0.1,0,0l0.2,0.1c0.4,0.2,0.7,0.4,1,0.7
		c0.8,0.7,1.4,1.6,1.9,2.5c1.8,3.9,0,8.7-1.9,12.2c-1.5,2.8-3.3,5.3-5.3,7.7l4.5,0.5l-15.4-8.8c-1.1-0.5-2.2-0.7-3.4-0.6
		c-0.4,0-1.9,0.1-1,0.6l15.5,8.8c0.8,0.3,1.6,0.5,2.4,0.6c0.4,0,1.8,0.3,2.1-0.1c2-2.2,3.7-4.6,5.1-7.1c2.2-3.8,4.2-8.8,2.3-13.1
		c-2-4.5-8-6-12.4-4.6c-4,1.3-7.2,4.7-9.9,7.9c-2,2.3-3.8,4.8-5.4,7.4c-0.2,0.4,2.2,0.8,2.4,0.9
		C162.3,371.4,163.9,371.7,164.3,371.1z"></path><path class="st0" d="M101.4,307.9c9.3-12.1,1.4-34.6-4.9-36.3c-5.1-1.4-5.4,5.4-4.7,7.5s0,5.7,0,5.7c-3.4-3.2-5.2-11.1-5.1-15.1
		s-3.5-6.5-6.1-3.1s-0.3,12.9-0.3,12.9c-6.6-0.8-3.8,6.6-3.8,6.6c-8.6,2.4,5.4,28.4,5.4,28.4s33,66.9,48.3,78.1l17.8-29.3
		c0,0-28.9-25-36.9-38.5S101.4,307.9,101.4,307.9z"></path><path class="st1" d="M103.8,308.6c5.7-7.6,5.1-18.7,1.9-27.2c-1.1-3-2.7-6.5-5.4-8.5c-2-1.3-4.3-2-6.7-2.1
		c-1.7-0.2-3.3,0.7-3.9,2.2c-0.6,1.6-0.8,3.3-0.4,5c0.5,2,0.5,4.1,0.1,6.1l4.8,1.2c-2.4-2.3-3.5-5.7-4.3-8.8
		c-0.4-1.6-0.6-3.1-0.8-4.7c-0.1-1.5,0-3-0.7-4.3c-0.8-1.5-2.4-2.1-4-2.6s-3.5-1-5.1-0.1c-2.5,1.5-2.6,4.9-2.5,7.5
		c0.1,2.2,0.4,4.4,0.9,6.6h0.8c-2.5-0.2-5,0.3-5.2,3.2c0,0.9,0.1,1.7,0.3,2.6c0.2,0.8,0.4,0.7-0.4,1c-3.6,1.9-1.9,8-1.1,11
		c1.8,6.3,4.7,12.1,7.6,18c3.3,6.7,6.8,13.3,10.3,19.9c5.8,10.8,11.7,21.5,18.1,31.9c3,4.9,6.1,9.6,9.4,14.2
		c2.5,3.6,5.3,6.9,8.4,9.9c0.6,0.5,1.1,1,1.8,1.5c0.8,0.5,1.7,0.8,2.6,0.9c0.3,0.1,2,0.6,2.2,0.2l15.6-25.7l2.2-3.6l-0.1-0.1
		c-6.2-5.3-12.1-10.9-18-16.6c-4.5-4.5-9-9-13.1-13.9c-4.2-5-7.5-10.6-10.8-16.3C106.8,314.2,105.1,311.4,103.8,308.6
		c-0.3-0.6-1.8-0.8-2.4-1c-0.2-0.1-2.5-0.4-2.5-0.3c0.7,1.4,1.4,2.8,2.2,4.1c2.7,4.8,5.3,9.6,8.3,14.2c2.6,3.8,5.5,7.4,8.7,10.8
		c3.6,3.9,7.3,7.6,11.1,11.3c5.2,5,10.4,10.1,16,14.7c0.4,0.3,0.4,0.1,0.1,0.5c-0.5,0.7-0.9,1.5-1.4,2.3l-5.6,9.2l-6.5,10.7
		c-1.3,2.1-2.7,4.3-3.9,6.5c-0.1,0.1-0.1,0.2-0.2,0.3l4.8,1.2c-2.7-2.1-5.1-4.6-7.1-7.4c-3-3.7-5.7-7.7-8.3-11.7
		c-6.1-9.4-11.7-19.2-17.2-29c-4.4-7.9-8.6-15.9-12.7-24c-1.6-3.1-3.2-6.2-4.7-9.3c-2-4.1-3.8-8.3-5.1-12.7
		c-0.7-2.1-1.1-4.3-1.3-6.5c-0.2-1.6,0.1-3.3,1-4.6c0.4-0.5,1-0.9,1.7-1.1l0.1-0.1c-1-2.7-0.9-7,3-6.6c-0.1,0,0.8,0.1,0.8,0
		c-0.3-1.4-0.6-2.9-0.7-4.4c-0.3-2.4-0.5-5.1,0.4-7.4c0.5-1.2,1.4-2.2,2.7-2.6c0.6-0.2,1.8,0.3-1.1-0.5l-1.5-0.4l0.2,0.1
		c0.2,0.2,0.4,0.3,0.6,0.5c0.5,0.6,0.8,1.3,1,2.1c0.2,1.3,0.2,2.6,0.3,3.8c0.2,1.4,0.4,2.8,0.8,4.2c0.8,3,2,6.3,4.3,8.5
		c0.4,0.4,4.7,1.7,4.8,1.2c0.4-1.7,0.4-3.4,0.1-5.1c-0.4-1.3-0.5-2.6-0.4-3.9c0.2-1.4,0.7-3.1,1.9-3.9c0.3-0.2,0.6-0.3,1-0.4
		c1.6-0.3-0.8,0.1-1.9-0.7c0.5,0.3,0.9,0.6,1.3,1c2.4,2.3,3.8,5.6,4.9,8.7c1.4,4,2.1,8.3,2,12.5c0,4.9-1.5,9.6-4.3,13.5
		c-0.2,0.2,2.2,0.9,2.3,1C101.7,308.4,103.5,309,103.8,308.6z"></path><path class="st1" d="M97.3,288.8c-0.1-0.1-0.2-0.1-0.3-0.2l0.4,0.3c-0.8-0.7-1.5-1.5-2-2.4l0.2,0.4c-0.9-1.6-1.6-3.4-2.5-5
		c-0.2-0.5-0.6-0.8-1.1-1c-0.6-0.2-1.3-0.1-1.8,0.1c-0.6,0.2-1.1,0.6-1.5,1.1c-0.3,0.4-0.4,0.9-0.3,1.4c0.8,1.4,1.4,2.9,2.1,4.2
		c0.8,1.6,1.9,3,3.2,4.1c0.5,0.3,1.1,0.4,1.7,0.3c0.7-0.1,1.3-0.4,1.8-0.8c0.4-0.3,0.7-0.8,0.8-1.3C98,289.5,97.7,289,97.3,288.8
		L97.3,288.8z"></path><path class="st1" d="M86.9,287.5c-1.8-3.1-3.3-6.4-4.4-9.8c-0.1-0.4-0.8-0.7-1.2-0.7c-0.6,0-1.2,0.1-1.8,0.4
		c-1,0.5-1.9,1.4-1.5,2.6c1.1,3.4,2.5,6.7,4.4,9.8c0.6,1,2.1,0.8,3,0.3S87.6,288.5,86.9,287.5L86.9,287.5z"></path><path class="st1" d="M79.6,288.6c-0.2-0.2-0.3-0.5-0.5-0.7l0.4,0.5c-0.6-0.8-1.1-1.8-1.4-2.7l0.2,0.6c-0.1-0.2-0.2-0.5-0.2-0.7
		c-0.2-0.6-0.6-1.2-1.1-1.6c-0.5-0.4-1.1-0.5-1.7-0.4c-0.6,0.1-1.1,0.5-1.4,1c-0.3,0.6-0.4,1.2-0.2,1.8c0.3,1,0.7,1.9,1.2,2.8
		c0.5,0.9,1,1.7,1.6,2.5c0.4,0.5,1,0.8,1.6,0.9c0.6,0.1,1.2-0.1,1.6-0.6c0.4-0.4,0.7-1,0.7-1.6C80.3,289.7,80.1,289.1,79.6,288.6
		L79.6,288.6z"></path><path class="st2" d="M183.2,383.4c0,0-38.1-27.2-42.2-27.6s-20.8,27.8-17.5,33.1s29.5,28.9,31.6,16.2
		C158.4,385.6,183.2,383.4,183.2,383.4z"></path><path class="st2" d="M184.4,383.7c-9-6.5-18.1-12.8-27.4-19c-5-3.3-10-6.9-15.4-9.4c-1.5-0.7-2.7-1.4-4.2-0.3
		c-2.1,1.5-3.7,3.9-5.2,6c-4.4,6-7.8,12.6-10.3,19.6c-0.6,2-1.6,4.8-0.8,6.8c0.4,0.8,0.9,1.5,1.6,2.2c0.8,1,1.7,1.9,2.7,2.9
		c5.2,5.3,11,9.9,17.4,13.7c3,1.8,11.9,7.2,14.1,1.5c0.7-1.7,0.8-3.6,1.4-5.3c0.7-1.9,1.6-3.7,2.8-5.3c2.2-3,5-5.4,8.2-7.3
		c4.6-2.6,9.7-4.3,14.9-5l0.9-0.1c0.5,0-1.2-1.2-1.3-1.3c-0.6-0.4-1.9-1.4-2.8-1.4c-3.6,0.4-7.1,1.3-10.4,2.6
		c-6.4,2.4-12.5,6.6-15.7,12.9c-0.9,1.8-1.5,3.8-1.9,5.8c-0.1,1.2-0.5,2.3-1.2,3.2c-1.4,1.5-3.8,1.1-5.5,0.6
		c-1.1-0.4-2.1-0.8-3.1-1.5c0.4,0.2-0.5-0.3-0.6-0.4c-0.7-0.4,0.4,0.3-0.2-0.1l-0.5-0.3c-0.8-0.5-1.1-0.7-1.9-1.3
		c-2.7-2-5.3-4.1-7.8-6.4c-2-1.8-3.9-3.7-5.6-5.7c-1.2-1.3-1.6-3.1-1.2-4.9c0.6-3,1.6-5.9,3-8.6c1.5-3.4,3.3-6.6,5.2-9.8
		c1.6-2.8,3.5-5.5,5.6-8c0.9-1.1,2.4-3.1,3.9-3.1c-0.1,0,0.3,0.1,0.1,0l0.2,0.1l0.3,0.2c0.5,0.2-0.4-0.2,0.1,0.1l0.7,0.4
		c0.4,0.2,0.5,0.3,0.2,0.1l0.8,0.5c0.5,0.3,1.1,0.6,1.6,1l0.8,0.5c0.4,0.2-0.5-0.3,0,0l0.5,0.3c1.3,0.8,2.6,1.7,4,2.5
		c9.8,6.4,19.2,13,28.8,19.9l0.6,0.4c0.8,0.5,2,1.6,3,1.6S184.8,384,184.4,383.7z"></path><path class="st0" d="M147.8,430.9c-23.3,22.9-42.9,11.9-52.6,1.1s-11.2-21.8-8-27.7c2.3-4.4,30-12,30-12l33,6.2
		C150.2,398.5,165.6,413.4,147.8,430.9z"></path><path class="st1" d="M146.2,428.9c-7.5,7.3-17,13.5-27.8,13.1c-7.5-0.3-14-3.9-19.3-8.8l-0.8-0.8c0,0-0.6-0.6-0.2-0.2l-0.3-0.3
		c-0.9-0.9-1.7-1.9-2.5-2.8c-1.9-2.3-3.6-4.9-4.9-7.6c-1.9-3.9-3.1-8.6-2.2-13c0.1-0.7,0.4-1.4,0.7-2.1c0.1-0.3,0.3-0.5,0.4-0.8
		c0.2-0.5-0.2,0.1,0.2-0.2s0.8-0.6,1.2-0.9c0.2-0.1,0.5-0.3,0.7-0.4l0.4-0.2c0.1-0.1,0.1-0.1,0,0l0.3-0.2c3.1-1.5,6.2-2.8,9.4-3.9
		c5.6-2,11.3-3.8,17-5.4h-1l28.9,5.4l4.1,0.8l-1.1-0.6c0.2,0.2-0.6-0.6-0.4-0.4c0.1,0.1,0.2,0.2,0.3,0.3c0.3,0.4,0.6,0.8,1,1.1
		l0.6,0.8l0.3,0.5c0.2,0.3-0.3-0.4,0.1,0.2c0.5,0.8,0.9,1.5,1.3,2.3c0.4,0.8,0.8,1.7,1,2.6c0.3,1,0.5,2.1,0.7,3.1
		c0.3,2.7,0,5.4-0.9,7.9C151.7,422.5,149.4,426,146.2,428.9c-0.7,0.9-0.6,2.2,0.2,3.1c0.6,0.7,2.1,1.6,3,0.8
		c3.9-3.8,7.2-8.4,8.5-13.7c0.9-3.9,0.8-7.9-0.4-11.7c-0.9-2.8-2.3-5.5-4.1-7.9c-0.8-1.1-1.9-2.8-3.4-3.2s-2.8-0.5-4.1-0.8l-8.6-1.6
		l-17.7-3.3c-1.1-0.2-2.6-0.7-3.7-0.5c-1.5,0.4-3,0.9-4.5,1.3c-6.5,1.8-12.8,4-19,6.6c-2.2,1-4.8,2-6.5,3.7
		c-2.3,2.3-2.7,6.5-2.5,9.6c0.5,9.8,6.7,19,13.7,25.4c5.3,4.9,12.1,8.6,19.3,9.6c9.3,1.3,18.3-2.1,25.8-7.5c2.5-1.8,4.8-3.8,7-6
		c0.8-0.9,0.7-2.3-0.1-3.1C148.6,428.9,147.1,428,146.2,428.9z"></path><path class="st0" d="M119.5,372.9c-13.6-0.7-27.6,28.7-27.6,28.7c2.7,4.6,4.7,14.5,4.7,14.5c10.3-12.6,26.1-1.2,26.1-1.2
		c-4,8.6,4.9,14.2,11,8.2s1.4-12.8,1.4-12.8s18.6-10.5,20.6-13.3c0,0-1.7-16.7-16.6-15.2C139,381.7,128.7,373.4,119.5,372.9z"></path><path class="st1" d="M117.8,371.1c-3.9-0.1-7.4,2-10.3,4.4c-3.4,3-6.5,6.5-9,10.3c-2.3,3.2-4.4,6.6-6.2,10.1c-0.5,1-1.1,2-1.6,3
		c-0.5,1-0.3,1,0.2,2.1c1.9,4.2,3.2,8.7,4,13.2c0.1,0.5,3.1,3.9,3.3,3.6c4.1-4.9,10.6-7,16.8-5.3c3.2,0.8,6.3,2.1,9,4l-3-3.5
		c-1.3,2.5-1.3,5.4-0.1,7.9c1,1.6,2.2,3.1,3.6,4.3c0.9,0.9,1.9,1.5,3.1,1.9c6,1.8,11.2-4.7,10.7-10.3c-0.2-1.9-0.9-3.8-2-5.4
		l0.3,0.7c6.4-3.4,12.5-7.2,18.4-11.4c0.6-0.5,2.1-1.3,2.2-2.1c0-0.8-0.2-1.5-0.4-2.2c-0.9-3.6-2.6-6.9-4.9-9.7
		c-1.8-2.3-4-4.2-6.5-5.6c-2.5-1.2-5.3-1.6-8.1-1.3l0.3,0.1c-2.1-1.6-4.2-3.1-6.5-4.4C127.1,373.3,122.6,371.4,117.8,371.1
		c0,0,1.3,1.9,1.4,2.1c0.4,0.5,1.2,1.6,1.9,1.7c6.7,0.4,13.1,4.1,18.4,8c0.5,0.4,0.8,0.7,1.4,0.7c1.6-0.1,3.2,0,4.8,0.3
		c1.3,0.3,2.6,0.8,3.7,1.6c0.4,0.3,0.8,0.6,1.2,0.9s-0.1-0.1-0.1-0.2c-0.4-0.4-0.1,0,0,0c-0.2-0.1,0,0,0,0c1.1,1.6,1.9,3.4,2.5,5.3
		c0.5,1.1,0.8,2.3,0.9,3.6c0,0.8-1.8,1.8-2.5,2.3c-2.1,1.5-4.4,3-6.6,4.3c-3.8,2.3-7.6,4.6-11.5,6.8c-0.1,0.1,0.4,0.7,0.3,0.7
		c-0.4-0.6,0,0,0.1,0.1c0.2,0.3,0.3,0.7,0.5,1c0.4,1.1,0.7,2.2,0.8,3.4c0.1,3.5-1.6,6.8-4.4,8.7c-2.1,1.6-4.9,1.8-7.2,0.6
		c-0.5-0.3-1.2-1.1,0.1,0.4s0.6,0.7,0.4,0.1c-0.2-0.6-0.4-1.2-0.5-1.8c-0.1-1.7,0.2-3.4,1-4.9c0.2-0.3-0.9-1.4-1-1.6
		c-0.6-0.7-1.3-1.4-2-2c-2.8-2-6-3.4-9.4-4.2c-2.7-0.7-5.6-0.8-8.4-0.2c-3.4,0.8-6.5,2.8-8.7,5.5l3.3,3.6c-1-5-2.3-10.3-4.8-14.7
		l0.1,0.4c1.7-3.4,3.5-6.7,5.6-9.9c3.6-5.7,7.7-11.5,13.2-15.5c2.6-1.9,5.6-3.4,8.9-3.3c0,0-1.3-1.9-1.4-2.1
		C119.3,372.3,118.5,371.1,117.8,371.1z"></path><path class="st1" d="M128.5,403.4c1.2-0.6,2.3-1.4,3.4-2.2c1.3-1.1,2.7-2.7,2.4-4.5c-0.4-1.1-1.2-2.1-2.2-2.6
		c-0.4-0.2-0.9-0.2-1.3-0.1c-0.6,0.1-1.3,0.3-1.8,0.6c-0.4,0.2-2,1.2-1.2,1.7c0.5,0.3,0.9,0.7,1.3,1.1l-0.2-0.2
		c0.5,0.5,0.7,1.1,0.8,1.7v-0.3c0,0.3,0,0.7-0.1,1l-0.1,0.2c-0.1,0.2,0.2-0.3,0,0l-0.3,0.4c-0.1,0.1-0.2,0.3-0.3,0.4
		s0.3-0.4,0.1-0.1l-0.2,0.2l-0.4,0.4c-0.2,0.1-0.7,0.5,0,0c-0.3,0.2-0.5,0.4-0.8,0.6l-0.4,0.2c-0.3,0.2,0.6-0.3,0.3-0.2l-0.2,0.1
		c-0.2,0.1-0.4,0.2-0.7,0.4c-0.5,0.2-0.9,0.6-1.2,1c-0.2,0.2-0.3,0.6,0,0.8c0.4,0.2,0.9,0.2,1.3,0.1c0.6-0.1,1.2-0.3,1.8-0.6
		L128.5,403.4z"></path><path class="st0" d="M107.8,395c-0.2-3.8-1-7.5-2.3-11.1c-4.1-12.1-1-15.5,3-13.2s10.6,18.3,10.6,18.3"></path><path class="st1" d="M110.2,395.8c-0.2-3.7-0.9-7.4-2.1-10.8c-1-2.6-1.6-5.3-2-8.1c-0.2-1.5-0.1-3.1,0.5-4.5c0.2-0.4,0.5-0.7,0.8-1
		c0.2-0.1,0.4-0.2,0.6-0.3c0.1,0,0.2,0,0.2,0c-0.2-0.1-0.5-0.2-0.8-0.2c-0.1,0-0.7-0.2-0.2-0.1c-0.3-0.1-0.2-0.2,0,0
		c0.4,0.4,0.8,0.8,1.2,1.3c2.1,2.9,3.9,6,5.3,9.2c1.1,2.3,2.2,4.6,3.1,7c0.3,0.8,1.9,1.3,2.7,1.5c0.2,0.1,2.2,0.5,1.9-0.2
		c-0.9-2.3-1.9-4.5-3-6.7c-1.7-3.5-3.5-7.2-6-10.2c-1.2-1.3-2.7-2.4-4.3-2.9c-1.4-0.5-3.4-1.1-4.9-0.4c-3.1,1.5-1.9,7-1.3,9.4
		c1.2,5.1,3.5,10,3.6,15.4C105.5,395.5,110.2,396.4,110.2,395.8L110.2,395.8z"></path><path class="st1" d="M111.7,404.1c-0.3-0.8,0.1-1.6,0.8-1.9c0.1,0,0.1,0,0.2-0.1c1.6-0.4,2.2,1.5,0.9,2.4c-0.5,0.4-1.3,0.4-1.8-0.2
		C111.7,404.2,111.7,404.1,111.7,404.1z"></path><path class="st1" d="M102.3,395.5c-0.3-0.8,0-1.7,0.8-2c0.1,0,0.1-0.1,0.2-0.1c1.6-0.4,2.1,1.5,0.9,2.4c-0.5,0.5-1.3,0.4-1.8-0.1
		C102.4,395.6,102.3,395.6,102.3,395.5z"></path><path class="st1" d="M135.3,450.6c0.9-2.5,2.8-4.6,5.1-5.8c1.4-0.7,2.8-1.1,4.3-1.3c0.8-0.1,1.6-0.2,2.4-0.1c0.4,0,0.7,0,1.1,0
		s1.1,0.3,0.5,0l-1.9-1.6c-0.3-0.4,0.1,0.6,0.1,0.8c0.1,0.4,0.1,0.8,0,1.2c-0.1,0.9-0.7,1.7-1.6,2.1c-0.9,0.4-1.4-0.2-0.1,0.9
		s0.7,0.7,0.6-0.1c-0.1-0.7,0.1-1.5,0.5-2.1c1.6-2.8,5.5-4.6,8.6-5.2c0.4,0,0.7-0.1,1.1-0.1c-1.2-1.3-1.6-1.6-1.1-1
		c0.1,0.2,0.2,0.4,0.3,0.5c0.4,0.7,0.8,1.5,1.1,2.3c0.2,0.4,0.2,0.9-0.1,1.3c-0.3,0.3-0.5,0.1-0.8,0.3c1.5,1.6,2,2,1.5,1.2l-0.1-0.3
		c-0.1-0.3-0.1-0.7-0.1-1c-0.1-3.5,3.2-5.5,5.9-7c0.4-0.2-2.7-3.9-3.9-3.2c-2.4,1.4-5,2.9-5.8,5.8c-0.8,3,1.2,5.6,3.7,7.1
		c0.8,0.5,2,1.1,3,0.6c1.5-0.7,0.3-2.8-0.1-3.7c-1.3-2.6-3.6-6.1-6.9-6.2c-2.7-0.1-6,1.6-8.1,3.2s-3.6,3.9-2.1,6.4
		c1.2,2.1,4.8,5.2,7.3,3.1c0.9-0.9,1.4-2.1,1.1-3.4c-0.3-1.9-1.6-3.6-3.3-4.4c-2.7-1.6-6.9-0.9-9.6,0.2c-3,1.1-5.3,3.4-6.5,6.4
		C131,448.6,135.1,451,135.3,450.6L135.3,450.6z"></path></g></svg>