<svg transform="scale(1)" version="1.1" id="J6KQ4FGbCx" xmlns="http://www.w3.org/2000/svg" xmlns:xlink="http://www.w3.org/1999/xlink" x="0px" y="0px" viewBox="0 0 500 500" xml:space="preserve" class="pbimage_pbimage__wrapper__image__0LEis false"><title>Bull Market</title><style type="text/css"> .st0{fill:#FFFFFF;} .st1{fill:#222;} .st2{fill:#377E39;}
 .st2{fill:#377E39;}
 .st1{fill:#222222;}
 .st0{fill:#FFFFFF;}</style><g id="bull"><path class="st0" d="M229.4,261c0,0-22.1,21.1-22.8,26.7s-3.4,16.9-2.1,19s10.3,12.8,6.2,13.3s-14.4,4.4-19.2-2.2
		s-11.8-45.2-9.9-51.9s22.9-21.7,22.9-21.7L229.4,261z" fill="#FFFFFF"></path><path class="st1" d="M227.4,260.7c-2.9,2.8-5.8,5.7-8.7,8.6c-4.4,4.5-9,9.2-12.5,14.5c-0.6,0.9-1.2,1.9-1.7,2.9
		c-0.3,1-0.6,2.1-0.6,3.1c-0.6,4.1-1.5,8.2-2,12.4c-0.3,1.4-0.3,2.9-0.1,4.4c0.3,0.9,0.7,1.7,1.3,2.4c1.9,2.4,3.7,5,5.2,7.7
		c0.3,0.5,0.5,1.1,0.7,1.6c0.1,0.4,0.1,1,0.2,1.2c0,0,0,0.3,0,0.1v-0.1c0.4-0.4,0.9-0.6,1.4-0.7c0.7-0.3,0.1,0-0.2,0
		c-0.9,0.1-1.7,0.4-2.6,0.5c-0.1,0-0.6,0.1-0.2,0l-0.5,0.1l-1.3,0.3c-1,0.2-1.9,0.3-2.9,0.4c-1.6,0.2-3.3,0.1-4.9-0.3
		c-5.4-1.6-6.6-8.1-8-12.9c-1.9-7-3.4-14.1-4.5-21.3c-0.9-5.8-2-11.9-1.8-17.8c0-1.7,0.6-3.4,1.6-4.9c1.9-2.5,4.1-4.8,6.5-6.9
		c4.4-3.9,9-7.6,13.8-11l0.9-0.6l-4.1,0.6l21.8,14.7l3.1,2.1c1,0.5,2.2,0.4,3.2-0.1c0.4-0.1,2.2-1.2,1.3-1.7l-21.7-14.6l-3.1-2.1
		c-1.2-0.8-3.1-0.1-4.1,0.6c-3.9,2.8-7.7,5.7-11.3,8.7c-2.8,2.3-5.5,4.8-8,7.4c-1.6,1.8-3.6,3.9-4.2,6.3c-0.4,2-0.4,4.1-0.2,6.2
		c0.2,3.2,0.6,6.4,1,9.6c1,7.4,2.4,14.8,4.2,22.1c0.8,3.1,1.6,6.2,2.6,9.2c0.6,2.2,1.6,4.2,3.1,6c2.9,3.1,7.4,3.6,11.4,3.2
		c1.9-0.2,3.9-0.5,5.8-0.9l1.5-0.3l0.7-0.1c0.7-0.1,1.4-0.2,2.1-0.4c1.5-0.4,2.9-1.3,2.8-3c-0.2-1.3-0.8-2.5-1.5-3.6
		c-1.6-2.7-3.6-5.2-5.4-7.8c-1.4-2-0.5-5.7-0.1-8.2c0.3-2.1,0.7-4.3,1.1-6.4c0.3-1.6,0.4-3.4,0.8-5c0.4-2,2-3.9,3.3-5.6
		c2.1-2.7,4.3-5.2,6.6-7.7c3.8-4.1,7.8-8.1,11.6-11.8l0.7-0.7c0.7-0.7,0.6-1.3-0.4-1.5C229.7,259.6,228.4,260,227.4,260.7z" fill="#222222"></path><path class="st0" d="M340,215.3c0,0,37.6,32.8,39.3,39.6c1.6,6.8-9.5,17.5-12.3,16.5s-9-7.3-8.2-8.7s7.2-2.3,6.4-5.1
		s-22.1-15.4-22.1-15.4L340,215.3z" fill="#FFFFFF"></path><path class="st1" d="M337.8,216.6c6.7,5.9,13.3,11.9,19.8,18c4.6,4.4,9.2,8.8,13.5,13.5c1.6,1.7,3.1,3.5,4.5,5.4
		c1.1,1.3,1.7,2.9,1.6,4.6c-0.2,3.6-2.6,7-4.9,9.5c-0.5,0.6-1.1,1.2-1.7,1.7l-0.8,0.7l-0.4,0.3c-0.4,0.3,0.2,0-0.2,0.2
		c0.1-0.1,0.3-0.2,0.4-0.3c-0.4,0.2,0,0,0.1,0s0,0-0.3,0.1c-0.4,0-0.8-0.1-1.2-0.3c-1.5-0.9-2.9-1.9-4.1-3.2
		c-1.2-1.1-2.3-2.4-3.2-3.9c-0.1-0.3-0.2-1-0.3-1.2c0,0-1.5,0.8-1.6,1.1s-0.2,0.1,0.1,0l1-0.4c2.1-0.8,4-1.9,5.8-3.3
		c0.8-0.7,1.7-1.7,1.1-2.8c-0.4-0.7-1-1.2-1.6-1.7c-2.2-1.8-4.5-3.5-6.9-5c-2.7-1.8-5.4-3.5-8.1-5.2l-3.2-2
		c-0.6-0.3-1.3-0.7-1.8-1.1c-0.6-0.5-0.4-1.6-0.5-2.4l-0.9-7.8l-1.9-16l-0.1-1c0-0.3-2.2,0.9-2.4,1
		C339.3,215.2,337.7,216,337.8,216.6l1.5,13.1l1.1,9l0.4,3.2c0,0.5,0,1,0.2,1.5c0.1,0.2,0.5,0.3,0.7,0.4l2.4,1.4
		c2.6,1.6,5.2,3.2,7.8,4.9c2.7,1.8,5.4,3.5,8,5.5c0.9,0.6,1.7,1.4,2.5,2.1c0.6,0.5,0.8,1.3,0.6,2c0,0.1-0.2,0.3-0.2,0.3l0.7-0.5
		c0.4-0.3,0,0-0.2,0.1c-0.8,0.4-1.6,0.7-2.4,1.1c-1.1,0.5-2.1,1.2-3.1,1.9c-0.5,0.4-1.2,0.8-1.2,1.5c-0.1,1.2,1.3,2.6,2,3.4
		c1.2,1.4,2.6,2.7,4.2,3.9c1,0.7,2,1.5,3.2,1.2c1.7-0.5,3.3-1.3,4.8-2.3c3.2-2.1,5.9-4.8,8-7.9c1.7-2.5,3.5-6,2.6-9.1
		c-0.6-1.5-1.5-2.9-2.6-4.1c-3.8-4.6-7.9-8.9-12.2-13c-7.8-7.5-15.8-14.8-23.9-22l-0.5-0.4C341.3,213.3,337.7,216.5,337.8,216.6z" fill="#222222"></path><path class="st0" d="M376.9,166.2c0,0,8.8-13.3,22.2-11.8s27.3,2.3,32.1-5.3s4.7-9.2,4.2-5.4s3.6,13.9-16.3,20.7
		s-27.9,16.4-32.7,16.1S375.6,168,376.9,166.2z" fill="#FFFFFF"></path><path class="st1" d="M378.9,167.7c3.6-5.4,9.6-10,15.9-11.4c2.9-0.5,5.8-0.5,8.7,0c3.3,0.3,6.7,0.6,10,0.7c5.2,0.1,11.1,0,15.8-2.7
		c2.7-1.5,4.2-4,5.7-6.6c0.6-1.1,1.2-2.1,1.8-3.2c0.2-0.4,0.4-0.8,0.6-1.2l-2.6-1.6l0,0l-1.2-1.3c0,0.7,0,1.3-0.2,1.9
		c0,0.6,0,1.2,0,1.8c0.1,1.6,0.1,3.3-0.2,4.9c-1.1,5.9-6.2,9.6-11.3,11.9c-4.6,2.1-9.5,3.5-14,5.6c-3.6,1.7-7,3.5-10.4,5.6
		c-2.5,1.5-4.9,3.1-7.4,4.6c-1.4,1-3.1,1.8-4.8,2.1c-0.5,0.1-0.9,0-1.4-0.1c-0.3-0.1-0.8-0.5-0.1,0.1c0.3,0.2,0.8,0.7,0.4,0.2
		c-1.2-1.3-2.2-2.7-3-4.2c-0.8-1.4-1.5-2.8-2-4.4C378.9,169.8,378.4,168.5,378.9,167.7c0.3-0.5-3.8-3.4-4-3c-0.8,1.3,0.5,4,1.1,5.1
		c1.2,2.6,2.7,5,4.7,7.1c1.2,1.3,2.5,2.4,4,3.4c1,0.8,2.3,1.4,3.6,1.6c1.4,0,2.8-0.4,4-1.1c4.7-2.4,8.9-5.6,13.5-8.2
		c3.5-1.9,7.2-3.6,10.9-5.1c4.1-1.6,8.3-2.8,12.2-5.1c4.1-2.4,7.7-5.9,8.5-10.7c0.2-1.5,0.2-3,0.1-4.4c-0.1-1.3,0.2-2.5,0.2-3.7
		s-2.1-2.4-3.1-3s-1-0.4-1.5,0.4c-1.5,2.7-2.9,5.9-5.1,8.2c-4.9,5.2-13.7,4.9-20.2,4.6c-2.2-0.1-4.5-0.3-6.7-0.5
		c-2-0.2-4-0.5-6.1-0.5c-3.2,0.1-6.4,0.8-9.2,2.3c-4.1,2.1-7.6,5.2-10.3,8.9c-0.2,0.2-0.3,0.4-0.5,0.7
		C374.6,165.2,378.7,168.1,378.9,167.7z" fill="#222222"></path><path class="st1" d="M221,174.7c45-11.6,95.8-65.2,142.4-15.7c0,0,4.6-6.7,7.2-6.9s10.2,16.4,12.1,18.5s12.5,14.3,11.8,20.8
		s-7.2,13-2.3,20.2s4.7,14.3,2.3,16.4s-9.6,6.5-16.7,4.3s-4.4-11.9-12.5-14.7c-6-2-12.1-3.6-18.3-4.9c0,0,9.6,45.3,6.1,53
		s-35.1,27.5-39.2,26.5s-9.9-24-4.1-23.8c0,0,7.9,1.3,8,3.3s15.7-10.8,11.9-14.7s-14-5.1-14-5.1s-9,15.1-42.3,18.9
		s-70.8-11.7-70.8-11.7s-13,14.3-30.8,22.2s-20.1,8.5-20.7,13.8s-1,26.6,1.2,30.8s11.8,9.4,6.2,9.4s-20,4.3-23.5-2.6s-12-34-11.1-39
		s21.4-17.8,14.3-33.1C138.2,260.6,112.6,202.6,221,174.7z" fill="#222222"></path><path class="st1" d="M222.4,176.8c19.2-5,36.5-15.6,54.4-24c17.4-8.1,37-15.4,56.4-11.1c12.1,2.8,22.6,9.9,31,18.9
		c0-0.1,0.5,0.6,0.6,0.4c0.9-1.3,1.9-2.6,3-3.8c0.9-1,3-3.5,4.5-3c0.2,0.1,0.3,0.2,0.4,0.3c0.1,0.1,0.2,0.2,0.2,0.3l0.1,0.2
		c-0.4-0.5,0.1,0.1,0.1,0.2c0.5,0.6-0.3-0.4,0.2,0.3l0.6,0.9c1.1,1.8,2.3,3.9,3.3,5.9c2,3.6,3.7,7.3,6.4,10.4
		c-0.4-0.4,0.3,0.4,0.4,0.5c0.3,0.3,0.5,0.6,0.8,1c0.6,0.7,1.3,1.5,1.8,2.2c1.5,1.9,2.9,3.8,4,5.9c1.2,1.9,2,4.2,2.2,6.4
		c0.1,2.9-1.4,5.8-2.5,8.4c-1.1,2.9-2.2,6-1.4,9.1c0.8,3.6,3.6,6.3,4.7,9.9c0.9,2.6,1.4,6,0.2,8.6c-0.8,1.9-3,3-4.8,4
		c-3,1.7-6.4,2.5-9.8,2.3c-1.6-0.1-3.2-0.5-4.6-1.3c-0.2-0.1-0.4-0.3-0.7-0.5s-0.4-0.5-0.1,0c0.6,1,0.2,0.2,0-0.1
		c-1.3-2.7-2.2-5.5-4-8c-1.7-2.7-4.4-4.8-7.5-5.8c-5.6-1.8-11.3-3.3-17.1-4.5c-0.1-0.1-0.2,0-0.2,0.1c1.5,7.2,2.8,14.4,4,21.6
		c0.9,5.7,1.8,11.4,2.3,17.1c0.4,4.1,1,8.6,0.2,12.7c-0.7,3.5-4.1,6.1-6.6,8.3c-4.5,3.8-9.2,7.3-14.2,10.4c-4.5,3-9.1,5.6-14,7.9
		c-1.3,0.7-2.7,1.2-4.1,1.4c-0.5,0-0.8-0.3-1.1-0.3c-0.1,0,0.1,0.1,0.3,0.4s0.2,0.4,0.4,0.5c-0.1-0.1,0-0.2,0,0s-0.2-0.4-0.1-0.2
		c-0.1-0.3-0.3-0.6-0.4-0.9c-2.2-4.6-3.3-9.7-3.3-14.8c0-1.4,0.1-3.6,1.6-4.3c0.5-0.2,1-0.2,1.5,0c1.3,0.2,2.5,0.6,3.7,0.9
		c0.6,0.2,1.2,0.4,1.7,0.6c0.2,0.1,0.5,0.3,0.7,0.4c0.5,0.2,1.4,1.9-0.8-1.3c-0.7-1.1-1.2-2.1-0.9-1.2c0.4,0.9,0.9,1.7,1.5,2.5
		c0.3,0.4,0.8,1.2,1.4,1.4c1.1,0.3,3-1.5,3.8-2.1c2-1.6,3.9-3.3,5.5-5.3c1.3-1.5,2.8-3.4,3.1-5.5c0.1-1-0.1-2-0.7-2.8
		c-0.9-1.6-2.1-3-3.5-4.2c-2.6-1.8-5.6-3-8.7-3.5c-1.1-0.2-2.2-0.5-3.4-0.6c-0.2,0-0.8-0.2-1-0.1s-0.6,0.9-0.8,1.1
		c-5.3,6.7-13.8,10.9-21.8,13.5c-16.8,5.7-35,5.7-52.4,2.9c-12.4-2-24.5-5.2-36.2-9.7c-0.6-0.2-1.2-0.5-1.9-0.7h-0.1
		c-3.4,3.6-7.1,7-11.1,10c-3.9,3-7.9,5.8-12.2,8.2c-4.9,2.6-9.8,5-14.9,7.2c-3.2,1.3-6.3,2.8-9.3,4.5c-1.5,0.8-2.8,2-3.5,3.6
		c-0.6,1.8-0.8,3.6-0.8,5.5c-0.2,3.5-0.2,7-0.2,10.5c0,3.8,0.1,7.5,0.4,11.3c0.2,2.6,0.6,5.3,1.9,7.6c2.1,3.6,5.2,6,8.1,8.9l0.5,0.5
		c-0.6-0.6-1-1.4-1.4-2.2c0,0,0,0.1,0,0.1c-0.3,0.2-0.8,0.4-1.2,0.5c-1.4,0.1-2.8,0.1-4.3,0.3c-3.7,0.6-7.4,1-11.1,1
		c-1.8,0-3.5-0.3-5.2-1c-0.3-0.1-0.7-0.3-1-0.5c-0.1-0.1-0.6-0.5-0.8-0.6c0.2,0,1.3,2.3,0.8,1c-0.1-0.3-0.2-0.4-0.3-0.6
		c-2.7-6.3-4.9-12.8-6.8-19.4c-1-3.5-2-7-2.8-10.5c-0.5-2.2-1.2-4.7-0.9-6.9c0.2-1.9,2-3.6,3.2-5c2.2-2.5,4.5-4.9,6.6-7.5
		c4.5-5.8,7.8-13,4.9-20.3c-0.3-0.9-0.7-1.7-1-2.6s-0.3-1-0.6-1.9s-0.4-1.9-0.6-2.9c-0.5-2.5-0.7-5.1-0.7-7.6
		c-0.1-7.2,1.5-14.3,4.6-20.8c4.5-9.6,11.9-17.5,20.3-23.9c13.3-10.2,29-16.9,44.9-22.1C212,179.6,217.2,178.1,222.4,176.8
		c0.3-0.1-0.9-2.1-1.1-2.3c-0.2-0.3-1.2-2-1.7-1.9c-13.8,3.4-27.2,8.1-40,14.2c-9.2,4.3-17.8,9.9-25.5,16.5
		c-5.5,4.8-10.2,10.5-13.8,16.9c-2.7,4.9-4.6,10.2-5.6,15.8c-0.7,4.2-0.8,8.5-0.4,12.7c0.3,2.8,0.9,5.6,1.7,8.2
		c0.2,0.6,0.4,1.2,0.6,1.7c1.3,2.8,1.7,5.9,1.3,9c-0.8,5.2-4,9.7-7.3,13.6c-1.5,1.8-3.1,3.5-4.7,5.2c-1.2,1.2-2.2,2.6-3.1,4
		c-1.3,2.4-0.2,6,0.4,8.5c1.1,5.1,2.6,10.1,4.1,15.1c1.5,4.7,3,9.4,4.9,14c1.7,4.3,4.1,9,9,10.2s10.2,0,15.2-0.6
		c1-0.1,2.1-0.2,3.1-0.3c0.6,0,1.7,0.1,2-0.4s-0.5-1.8-0.8-2.4c-0.8-1.2-1.6-2.4-2.6-3.4c-0.5-0.5-5.2-5.1-5.3-5
		c0.2-0.1,0.7,1.4,0.6,0.9c-0.1-0.3-0.2-0.6-0.3-1c-0.2-0.9-0.4-1.9-0.5-2.8c-0.5-5.2-0.7-10.5-0.6-15.8c0-3.8-0.1-7.8,0.6-11.5
		c0.5-2.6,2.5-4.1,4.7-5.3c5.4-3,11.3-5.2,16.9-7.8c6.5-3.1,12.6-6.9,18.3-11.4c3.6-2.8,7-5.8,10.2-9.1c0.3-0.3,0.7-0.7,1-1
		c0.1-0.1,0.3-0.3,0.1-0.3c0.4-0.1,1.4,0.5,1.8,0.7c9.1,3.4,18.4,6.1,27.9,8.1c14.5,3.1,29.6,4.6,44.3,2.5
		c11.1-1.5,22.5-4.7,31.7-11.2c2.2-1.5,4.3-3.3,6.1-5.4c0.4-0.5,0.8-1,1.2-1.5s0.1-0.3,0.6-0.3c2,0.1,4,0.6,5.9,1.2
		c1.3,0.4,2.6,0.8,3.8,1.4c1.1,0.6,2.2,1.3,3.2,2c-0.1-0.1-1.6-3-1.7-2.4c0,0.1,0,0.3,0,0.4c0,0.4-0.1,0.7-0.2,1.1
		c-0.3,0.8-0.6,1.5-1.1,2.2c-1.2,1.8-2.5,3.4-4.1,4.9c-1.4,1.4-2.8,2.6-4.4,3.7c-0.5,0.4-1.1,0.8-1.7,1.1c-0.2,0.1-0.4,0.1-0.6,0.2
		s-0.3-0.1-0.1,0.1l1.8,2.2c0.1,0.2,1.1,2.2,0.6,1c-0.1-0.3-0.3-0.7-0.5-1c-0.6-1-1.2-1.9-2-2.8c-0.8-0.8-1.9-1.4-3-1.8
		c-1.2-0.4-2.5-0.7-3.7-1c-0.6-0.2-1.1-0.3-1.7-0.3c-1.5,0.1-1.9,1.8-2.1,3c-0.3,2.3-0.2,4.5,0.3,6.8c0.7,5,2.4,9.8,5.1,14.1
		c0.9,1.3,2.3,3.9,4.1,4.1c1.2-0.1,2.5-0.4,3.5-1c4.4-2,8.7-4.3,12.8-6.9c5-3.1,9.8-6.4,14.4-10c1.9-1.5,3.7-3.1,5.4-4.7
		c1.2-1.1,2.2-2.4,3-3.9c1.3-2.9,0.8-6.9,0.6-10c-0.6-10.7-2.5-21.3-4.5-31.9c-0.6-3.4-1.3-6.8-2-10.1c-0.1-0.3-0.1-0.6-0.2-1
		s-0.2-0.1,0.1,0c2.5,0.8,5.3,1.2,7.9,1.9c2,0.5,4,1.1,6.1,1.7c1.9,0.5,3.8,1.1,5.6,2c0.3,0.2,0.6,0.4,0.9,0.6
		c0.1,0.1,0.5,0.6,0.7,0.6s-0.5-0.9-0.4-0.5c0.1,0.3,0.2,0.5,0.4,0.8c0.6,1.2,1,2.5,1.5,3.7c1.3,2.9,3.2,6.2,6,8
		c3.2,2,7.6,1.7,11.1,0.6c1.7-0.5,3.4-1.3,4.9-2.2c1.1-0.6,2.1-1.4,3-2.3c1.8-2.3,1.4-5.9,0.8-8.5c-0.5-2-1.3-4-2.3-5.9
		c-1.1-2-2.6-3.8-3-6.1c-0.6-3.9,1.4-7.5,2.7-11c1.1-2.9,1.7-5.6,0.8-8.7c-1.1-3.1-2.5-6-4.4-8.7c-1.8-2.8-3.8-5.5-5.9-8.1
		c-0.7-0.9-1.4-1.7-2.1-2.5c-0.3-0.4-0.6-0.7-0.9-1.1s0.3,0.3,0.3,0.4c0.2,0.2,0.5,1,0.3,0.4c-0.1-0.3,0.2,0.4-0.1-0.1l-0.3-0.6
		c-0.3-0.5-0.6-1-0.8-1.5c-0.6-1.1-1.2-2.2-1.8-3.3c-1.4-2.6-2.9-5.2-4.5-7.8c-1.3-2.1-2.8-4.6-4.8-6.2c-1.7-1.3-3.5,0.6-4.7,1.8
		c-1.3,1.4-2.6,2.9-3.6,4.6l0.6,0.5c-7.8-8.2-17-15.2-27.8-18.6c-9.1-2.7-18.7-3.2-28-1.4c-20.2,3.5-38.4,14.1-56.5,23
		c-9.9,4.9-20,9.6-30.7,12.3c-0.3,0.1,1,2.1,1.1,2.2C220.9,175.3,221.9,176.9,222.4,176.8z" fill="#222222"></path><path class="st0" d="M377.1,163.9c0,0,2.9-16.1,16.3-14.6s27.3,2.3,32.1-5.3s4.7-9.2,4.2-5.4s3.6,13.9-16.2,20.7
		s-27.9,16.4-32.7,16.1S375.7,165.7,377.1,163.9z" fill="#FFFFFF"></path><path class="st1" d="M379.5,164.6c0.4-1.9,1-3.8,1.8-5.5c0.3-0.6-0.2,0.4,0.1-0.2c0.1-0.2,0.2-0.4,0.3-0.6c0.2-0.4,0.4-0.7,0.6-1.1
		c0.5-0.8,1-1.5,1.6-2.1c1.1-1.3,2.6-2.4,4.2-3.1c2.1-0.7,4.4-0.9,6.7-0.5c3.4,0.4,6.7,0.7,10.1,0.8c5.8,0.2,12.3,0.2,17.5-2.5
		c2.8-1.5,5-3.7,6.5-6.5c0.8-1.3,1.5-2.6,2.2-3.9c0.2-0.4,0.4-0.7,0.6-1.1c0.4-0.6,0.5-0.4-0.5,0.1l-1.2,0.2l0,0l-1.8-0.7l0,0
		l-0.6-0.9c-0.2-0.4-0.1-0.4-0.1,0.1s-0.1,0.9-0.2,1.4c0,0.5,0,1.1,0,1.6c0,0.7,0.1,1.4,0.1,2.1c0,0.4,0,0.7,0,1.1s0,0.4,0,0.6v0.3
		c0,0.2,0.1-0.4,0,0c-0.2,1.9-1,3.7-2.1,5.2c-1.8,2.3-4.1,4.1-6.8,5.4c-4.2,2.1-8.7,3.4-13,5.2c-3.7,1.6-7.4,3.4-10.9,5.5
		c-2.6,1.5-5.1,3.1-7.7,4.7c-0.9,0.6-1.9,1.2-2.9,1.8c-0.1,0.1-0.2,0.1-0.3,0.2l-0.6,0.3c-0.4,0.2-0.8,0.4-1.2,0.5l-0.6,0.2
		c-0.5,0.2,0.5,0-0.1,0c-0.2,0-0.3,0-0.5,0.1c1-0.3-0.1,0.1-0.1,0s0.6,0.2,0,0c0.3,0.1,0.1,0.1,0,0c0.3,0.2-0.3-0.3-0.1-0.1
		c-0.4-0.4-0.7-0.9-0.8-1.5c-0.5-1.3-0.7-2.7-0.7-4.1c0-0.3,0-0.7,0-1c0-0.1,0-0.4,0-0.1c0-0.2,0-0.3,0.1-0.5s0.1-0.5,0.2-0.7
		c0.1-0.5-0.1,0.1,0.1-0.2c1.6-2.3-2.9-4.5-4.3-2.4c-1.2,1.8-1.1,4.5-0.9,6.6c0.4,2.8,1.4,5.6,3.9,7.2c3.9,2.4,8.2-0.4,11.5-2.5
		c5.3-3.5,10.7-6.6,16.4-9.3c7.1-3.2,15.4-4.8,21.3-10.3c3.2-2.9,5.1-6.9,5.1-11.2c0-1.3-0.1-2.6-0.1-3.8c0-0.7,0.2-1.3,0.2-2
		c0-1.5-1.2-2.7-2.6-2.7c-1.1,0-2.1,0.6-2.5,1.6c-0.6,1.1-1.2,2.2-1.9,3.4c-1.7,2.9-3.2,5.5-6.4,6.9c-3.2,1.2-6.5,1.9-9.9,1.8
		c-4.2,0.1-8.4-0.2-12.5-0.6c-3.6-0.4-6.9-0.8-10.4,0.4c-2.5,0.9-4.7,2.5-6.4,4.5c-2.4,2.9-4.1,6.3-4.9,10c0,0.2-0.1,0.4-0.1,0.6
		c-0.2,1.2,0.6,2.4,1.8,2.6C377.5,166.1,379.2,165.9,379.5,164.6z" fill="#222222"></path><path class="st2" d="M383.2,215.4c-4.5,3.2-5.7,9.4-2.6,13.9c1.5,2.3,3.9,3.9,6.5,4.6c1.5,0.4,3.1,0.3,4.5-0.2
		c1.3-0.9,2.4-2.1,3-3.5c1.5-2.8,2.1-5.9,1.7-9c-0.2-1.3-1.3-2.3-2.6-2.4c-1.1-0.1-2,0.7-2,1.8c0,0.1,0,0.2,0,0.3
		c0.2,1.8,0,3.7-0.7,5.4c-0.2,0.5-0.4,0.9-0.6,1.4c-0.2,0.4-0.4,0.8-0.7,1.1c-0.1,0.2-0.3,0.4-0.5,0.6c-0.1,0.1-0.2,0.2-0.2,0.2
		c0.1,0-0.5,0.1-0.3,0.1s-0.2,0-0.2,0h-0.5h-0.3c0,0,0.3,0.1,0.1,0l-0.7-0.2l-0.6-0.2c0.4,0.2-0.1-0.1-0.2-0.1
		c-0.2-0.1-0.4-0.2-0.6-0.4c-0.4-0.3,0.2,0.2-0.1-0.1l-0.5-0.4c-0.1-0.1-0.6-0.7-0.3-0.2c-0.3-0.4-0.5-0.7-0.7-1.1
		c-0.1-0.2,0,0.1,0,0.1l-0.1-0.3c-0.1-0.2-0.2-0.5-0.3-0.8s0,0,0,0.1c0-0.1,0-0.2-0.1-0.3c0-0.2-0.1-0.4-0.1-0.6c0-0.2,0-0.5,0-0.7
		c0,0.4,0-0.2,0-0.3c0-0.3,0.1-0.5,0.1-0.8c0-0.1,0.2-0.7,0.1-0.4c0.2-0.5,0.4-1,0.6-1.4l0.2-0.3c0.2-0.3-0.1,0.1,0.1-0.1
		s0.3-0.4,0.5-0.6c0.2-0.2,0.4-0.4,0.6-0.6l0.2-0.2c0.3-0.2-0.4,0.3,0.1-0.1c1-0.7,1.2-2,0.6-3c0,0,0-0.1-0.1-0.1
		c-0.6-0.9-2.2-1.8-3.2-1L383.2,215.4z" fill="#377E39"></path><path class="st0" d="M280,218.6c3.5,15.6,14.3,28.5,29,34.7c4.3,1.8,8.8,3,13.4,3.7c0.8,0.1,2.6,0.2,3.1-0.7s-1.2-1.3-1.7-1.4
		c-14.8-2.1-27.6-11.2-34.5-24.4c-2-3.7-3.4-7.7-4.3-11.8C284.6,217.1,279.7,217.4,280,218.6z" fill="#FFFFFF"></path><path class="st0" d="M336.5,198.6c1.4,9.2,8.2,16.6,17.2,18.8c1.3,0.4,2.7-0.2,3.3-1.4c0.5-1,0.2-2.2-0.8-2.7
		c-0.1-0.1-0.2-0.1-0.4-0.2c-7.4-1.8-13.1-7.8-14.4-15.4c-0.2-1.2-1.3-2-2.6-1.8c0,0-0.1,0-0.1,0
		C337.5,196.1,336.5,197.2,336.5,198.6L336.5,198.6z" fill="#FFFFFF"></path><path class="st0" d="M359.3,172.3c0.2-7.2,3.9-13.9,9.9-17.9c1.7-1.1-1.2-5.2-3-4c-6.7,4.6-10.7,12.2-10.8,20.4
		c0.1,1.3,0.9,2.3,2.1,2.9C358.6,174.1,359.2,173.4,359.3,172.3L359.3,172.3z" fill="#FFFFFF"></path><path class="st0" d="M380.1,190.7c0,0,3-1,3.7,1.9s-2.9,3.8-4.3,1.5c-0.8-1-0.7-2.4,0.3-3.2C379.9,190.8,380,190.8,380.1,190.7z" fill="#FFFFFF"></path><path class="st1" d="M170.3,208.8c-8-0.4-16.2-0.7-24.1,0.7c-9,1.5-17.6,4.9-25.2,10c-5.7,3.9-9.9,9.5-12,16.1c-2,6-3,12.5-6.3,18
		c-0.7,1.3-1.7,2.5-2.7,3.6c-0.2,0.3-0.5,0.5-0.8,0.7c0.5-0.4,0.5-0.5,0.1-0.1c-0.2,0.1-0.4,0.3-0.6,0.4c-1,0.8,1.2-0.7,0.1-0.1
		c1.1-0.6,1.3-0.7,0.7-0.4l1.2-0.5c-1.3,0.6,1.6-0.5,1.7-0.5c-0.7,0.1-0.6,0.1,0.2,0l-0.9,0.1c-1.4,0.2,0.8,0-0.6,0
		c-0.6,0-1.2,0-1.8,0c-2-0.1-4-0.4-5.9-0.7c-3-0.5-6.4,1-9,2.3c-1.4,0.6-2.7,1.4-3.8,2.5c-0.3,0.3-1.2,1.4-0.2,1.6
		c4.1,0.9,8.3,1.1,12.5,0.8c5.9-0.8,11.5-3,16.4-6.4c5.4-3.7,8.6-9.4,10.5-15.6c2-6.4,3.1-13.4,7.2-18.8c0.8-1,1.8-2,2.8-2.9
		c0.1-0.1,1.1-0.9,0.2-0.2c0.3-0.2,0.6-0.5,0.9-0.7l0.9-0.7c0.5-0.4,0.4-0.3-0.3,0.2l0.7-0.4c0.3-0.2,0.7-0.4,1-0.6
		c-1.6,1.1-0.8,0.4-0.2,0.1l0.7-0.3c1.3-0.7-1.8,0.7-0.4,0.2c0.4-0.1,0.7-0.3,1.1-0.4c-2.1,1-1,0.4-0.4,0.2c0.4-0.1,0.8-0.2,1.1-0.4
		c0.7-0.2,0.5-0.2-0.6,0.2l0.8-0.2l1.1-0.3l0.8-0.2c-0.7,0.1-0.8,0.2-0.1,0c1.1-0.2,2.2-0.4,3.3-0.5l1.4-0.2c0,0,1.5-0.1,0.7-0.1
		c1.1-0.1,2.2-0.1,3.3-0.2c4.5-0.1,9,0.1,13.4,0.3c1.5-0.1,3-0.4,4.5-0.9c1.8-0.6,3.6-1.4,5.3-2.4
		C169.8,211.5,173.5,208.9,170.3,208.8L170.3,208.8z" fill="#222222"></path><path class="st1" d="M86.6,262.3c0,0,2.2-12.1-8.1-12.4s-14.1,0.9-14.1,0.9s7,2.5,8.1,8.3S86.5,266.6,86.6,262.3z" fill="#222222"></path><path class="st1" d="M88.1,263.9c0.7-3.7,0-7.6-1.8-10.9c-1.5-2.7-4.1-4.6-7.1-5.2c-2.1-0.3-4.3-0.3-6.4-0.2
		c-1.7,0-3.4,0.1-5.1,0.3c-1.6,0.1-3.1,0.4-4.6,0.8c-0.7,0.2-0.2,1.8,0,2.1c0.3,0.9,1,1.7,1.8,2.2c1.3,0.5,2.5,1.2,3.5,2
		c0.4,0.3,0.9,0.7,1.2,1.1c0.3,0.3,0.6,0.6,0.8,1c0.2,0.3,0.3,0.7,0.4,1.1c0.2,0.8,0.4,1.5,0.8,2.2c2.2,4.4,7.4,6.9,12.2,6.5
		C85.8,266.7,88,266,88.1,263.9c0-1.2-0.5-2.3-1.4-3.2c-0.4-0.4-1.7-1.2-1.8,0c0,0.5-0.3,1-0.8,1.2c-0.7,0.3-1.4,0.5-2.2,0.5
		c-2,0.1-4.1-0.3-5.9-1.1c-0.4-0.2-0.8-0.4-1.2-0.6c-0.2-0.1-0.4-0.3-0.6-0.4c0,0-0.3-0.2-0.1-0.1s-0.2-0.2-0.2-0.2s-0.3-0.3,0,0
		c-0.1-0.1-0.1-0.2-0.2-0.2c-0.3-0.2,0.3,0.4,0.1,0.1s0.1,0.2,0.1,0.2c-0.2-0.4,0,0.3-0.1-0.2c-0.1-0.4-0.2-0.8-0.3-1.2
		c-1-3-3-5.6-5.5-7.4c-1.3-1-2.8-1.9-4.4-2.5l1.9,4.4c0,0,0.1,0,0.1,0h0.2c0.3-0.1-0.2,0,0.1,0c0.7-0.2,1.4-0.3,2.2-0.4
		c3.2-0.4,6.3-0.5,9.5-0.4c1.6-0.1,3.1,0.1,4.7,0.6c0.4,0.1,0.8,0.3,1.2,0.6c0.1,0.1,0.6,0.5,0.3,0.3c0.1,0.1,0.2,0.2,0.3,0.3
		c0.4,0.5-0.3-0.4,0.1,0.1l0.2,0.3c-0.1-0.1-0.2-0.5-0.1-0.1c0.1,0.1,0.1,0.2,0.2,0.3c0-0.1-0.2-0.5-0.1-0.1
		c0.1,0.2,0.2,0.4,0.2,0.6s-0.1-0.4,0-0.1c0,0.1,0.1,0.3,0.1,0.4s0.1,0.4,0.2,0.7c-0.1-0.4,0,0.2,0,0.3c0.1,0.5,0.1,1,0.1,1.5
		c0,0.2,0,0.4,0,0.6c0-0.4,0,0.3,0,0.4c0,0.4,0,0.7-0.1,1s-0.1,0.7-0.1,1c0,1.2,0.5,2.4,1.4,3.2C86.9,264.4,87.9,265,88.1,263.9z" fill="#222222"></path></g><g id="up"><path class="st2" d="M136.9,167.2c12.8,1.3,25.5-2.1,37.2-7.1c11.2-5,22-10.7,32.4-17.2c19.8-12,38.5-26.3,52.6-44.8
		c1.8-2.3,3.4-4.7,5-7.1c1.6-2.4,3.2-5,3.7-7.9c0.9-5.3-3.1-11.8-8.9-11.7c-5.4,0.1-8.6,5.3-8.7,10.2c-0.1,5.4,3,10.2,7.1,13.6
		c4.6,3.7,10.3,5.6,16,6.7c5.9,1.1,12,1.4,18,0.9c12.2-1,24-5,34.9-10.4c21.6-10.8,40.8-27,56.1-45.6c1.9-2.3,3.8-4.7,5.6-7.2
		c0.6-0.8-0.5-2.1-1-2.6c-2.9-3-7.5-3.5-11.1-1.2c-3.9,2.4-5.3,6.7-4.6,11.1c0.5,2.7,1.5,5.2,2.8,7.6c1.3,2.4,3,5.1,5.3,6.8
		c2.7,2.2,6.7,1.7,8.9-1c0.5-0.6,0.9-1.4,1.1-2.2c1-3.7,0.7-7.6,1.1-11.4c0.1-1.1-0.9-2.1-1.7-2.7c-0.4-0.3-2.2-1.2-2.3-0.1
		c-0.3,2.7-0.3,5.4-0.6,8.1c-0.1,1.3-0.3,2.6-0.7,3.9c-0.6,1.3-1.8,2.3-3.2,2.8c-0.4,0.1-0.8,0.2-1.2,0.2c-0.2,0-0.8-0.2-0.6-0.1
		c-0.6-0.6-1.2-1.3-1.5-2.1c-1.2-1.8-2.2-3.7-2.8-5.8c-1.1-3.5-0.9-7.5,1.8-10.2c1.2-1.2,2.7-2.1,4.4-2.5c0.7-0.2,1.4-0.2,2.2-0.1
		c0.5,0.1,0.9,0.3,1.2,0.6l-1-2.6c-13.6,18.4-30.6,34-50,46.2c-19,11.8-42.6,20.6-65.2,15.1c-4.5-1.1-9.7-2.8-12.6-6.8
		c-2.5-3.3-2.9-8.6-0.6-12.2c1.3-2,3.8-3.8,6.3-3.4c1.6,0.3,1.9,2.6,1.9,4c-0.1,2.8-1.6,5.5-3.1,7.8s-3.1,4.6-4.7,6.8
		c-13.1,17.5-30.4,31.5-48.9,43c-9.6,6-19.4,11.6-29.6,16.5c-10.7,5.2-22.3,9.7-34.3,10.3c-3,0.2-5.9,0.1-8.9-0.2
		c-1.1-0.1-0.8,1.2-0.4,1.8C134.7,166.3,135.7,167.1,136.9,167.2L136.9,167.2z"></path></g><g id="graph"><rect class="st2" x="360.6" y="278" width="67" height="185.7"></rect><path class="st2" d="M361.2,278.6h67l-3.1-0.8v182.9c0,0.8,0,1.7,0,2.5c0,0.1,0,0.2,0,0.3l1.9-0.5h-67l3.1,0.8V280.9
		c0.1-0.8,0.1-1.7,0-2.5c0-0.1,0-0.2,0-0.3c0-1-5-1.1-5-0.3v182.9c-0.1,0.8-0.1,1.7,0,2.5c0,0.1,0,0.2,0,0.3c0,0.8,2.8,0.8,3.1,0.8
		h67c0.2,0,1.9,0,1.9-0.5V280.9c0.1-0.8,0.1-1.7,0-2.5c0-0.1,0-0.2,0-0.3c0-0.8-2.8-0.8-3.1-0.8h-67c-0.4,0-2,0-1.8,0.6
		S360.8,278.6,361.2,278.6z"></path><rect class="st0" x="272.4" y="303.1" width="67" height="160.7"></rect><path class="st2" d="M273.1,305.3h67l-3-2.6V457c0,2-0.2,4.2,0,6.2c0,0.1,0,0.2,0,0.3l1.5-1.9h-67l3,2.6V309.9c0-2.1,0.1-4.2,0-6.2
		v-0.3c0-2.6-4.5-3.8-4.5-0.7V457c0,2.1-0.1,4.2,0,6.2v0.3c0.1,1.5,1.5,2.7,3,2.6h67c1,0,1.5-1.1,1.5-1.9V309.9c0-2.1,0.1-4.2,0-6.2
		v-0.3c-0.1-1.5-1.5-2.7-3-2.6h-67c-1.3,0-1.7,1.5-1.4,2.5C270.6,304.6,271.8,305.4,273.1,305.3z"></path><rect class="st0" x="184" y="320.3" width="67" height="143"></rect><path class="st2" d="M183.1,322.1h67l-1.3-0.8v137.2c0,1.8-0.1,3.7,0,5.5c0,0.1,0,0.2,0,0.2l3.1-2.8h-67l1.3,0.8V325
		c0-1.8,0.2-3.7,0-5.5v-0.2c0-1.2-1.8-0.8-2.4-0.5c-1.1,0.4-1.9,1.4-2,2.5v137.2c0,1.8-0.2,3.7,0,5.5c0,0.1,0,0.2,0,0.2
		c0,0.7,0.8,0.8,1.3,0.8h67c1.4,0,3.1-1.4,3.1-2.8V325c0-1.8,0.2-3.7,0-5.5v-0.2c0-0.7-0.8-0.8-1.3-0.8h-67c-1.3,0.1-2.4,0.9-2.9,2
		C181.5,321.4,182.1,322.1,183.1,322.1z"></path><rect class="st0" x="97.1" y="337.1" width="67" height="126"></rect><path class="st2" d="M98.2,338.2h67l-3.4-1.8v124.1c-0.1,0.6-0.1,1.1,0,1.7c0,0.1,0,0.1,0,0.2l1.4-0.5h-67l3.4,1.8V342.9
		c0-1.6,0.1-3.3,0-4.9c0-0.1,0-0.1,0-0.2c0-1.6-4.8-2.4-4.8-1.3v120.8c0,1.6-0.2,3.3,0,4.9c0,0.1,0,0.1,0,0.2c0,1.2,2.5,1.8,3.4,1.8
		h67c0.2,0,1.4,0,1.4-0.5V342.9c0-1.6,0.1-3.3,0-4.9c0-0.1,0-0.1,0-0.2c0-1.2-2.5-1.8-3.4-1.8h-67c-0.7,0-1.8,0.1-1.2,1
		S97.2,338.2,98.2,338.2z"></path><path class="st2" d="M338.4,327.4c-10.1-8.2-20.6-15.8-31.2-23.4c-0.6-0.4-1.1-0.8-1.7-1.2c-0.4-0.3,0.3,0.2,0,0l-0.3-0.2l-0.2-0.2
		c-0.4-0.3,0.5,0.5,0.2,0.2s-1.4-1.5-1.7-0.8s1.3,2.3,1.7,2.6c2.2,1.9,4.5,3.7,6.9,5.2c4.9,3.5,9.8,7,14.6,10.6
		c4.2,3.2,8.4,6.5,12.5,9.8c0.5,0.4,1.3,1,1.2,0.1S339,327.8,338.4,327.4L338.4,327.4z"></path><path class="st2" d="M340.5,358.5c-2.2-1-4.2-2.4-5.9-4.1c-2-1.7-4-3.4-6-5.1c-4.2-3.5-8.5-7-12.8-10.4
		c-8.6-6.8-17.4-13.3-26.4-19.6c-5.1-3.6-10.3-7.1-15.6-10.5c-0.8-0.5-2.2-1.3-3.3-1s-0.2,1.1,0.4,1.5
		c18.8,12.2,36.9,25.6,54.2,39.9c4.7,3.9,9.2,8.5,14.9,10.9c0.5,0.2,2.3,0.9,2.6,0.2S340.9,358.7,340.5,358.5L340.5,358.5z"></path><path class="st2" d="M340.8,381.1c-17.6-12-34.7-24.6-51.5-37.7c-4.8-3.7-9.6-7.5-14.3-11.4c-0.9-0.8-2.2-1-3.4-0.6
		c-1,0.5-0.4,1.5,0.2,2c16.5,13.4,33.5,26.3,50.8,38.6c5,3.5,10,7,15,10.4c0.9,0.6,2.4,1.2,3.4,0.7S341.6,381.5,340.8,381.1
		L340.8,381.1z"></path><path class="st2" d="M340.4,403.4l-51.6-39.8l-14.6-11.3c-1.8-1.4-5.8,1.6-3.8,3.2l51.6,39.8l14.6,11.2
		C338.4,408,342.3,405,340.4,403.4L340.4,403.4z"></path><path class="st2" d="M340.2,431.6c-17.7-10.1-34.6-21.4-50.7-34c-4.6-3.6-9.1-7.3-13.5-11.1c-1.1-1-5.3,1.7-4,2.8
		c15.5,13.3,31.9,25.3,49.2,36.1c4.9,3.1,9.9,6.1,15,8.9C337.6,435.2,341.6,432.4,340.2,431.6L340.2,431.6z"></path><path class="st2" d="M339.5,454.7c-17.3-12-34.8-23.7-52.6-35.1c-5-3.2-10-6.4-15-9.5c-0.8-0.6-1.8-0.4-2.4,0.4
		c-0.1,0.1-0.2,0.3-0.2,0.4c-0.2,1.3,0.4,2.5,1.5,3.1c17.9,11.2,35.5,22.7,52.9,34.6c4.9,3.3,9.8,6.7,14.7,10.1
		c0.8,0.6,1.8,0.4,2.4-0.4c0.1-0.1,0.2-0.3,0.2-0.4C341.3,456.6,340.7,455.3,339.5,454.7L339.5,454.7z"></path><path class="st2" d="M312.5,460c-12.8-6.9-25.2-14.4-37.4-22.4c-1.1-0.7-2.5-0.6-3.4,0.4c-0.8,0.8-1.1,2.5,0,3.2
		c12.5,8.2,25.2,15.9,38.4,23C312.6,465.6,315.2,461.5,312.5,460L312.5,460z"></path><path class="st2" d="M250.4,353.5c-2.3-1-4.1-3-5.9-4.6c-1-0.8-1.9-1.7-2.9-2.5c-2.5-2.2-5-4.5-7.4-6.7
		c-5.3-4.9-10.6-9.8-15.8-14.8c-1.6-1.5-3.2-3-4.8-4.6c-0.9-0.8-2-1.3-3.2-1.4c-0.9,0-1.2,0.5-0.5,1.2c3.8,3.8,7.7,7.4,11.6,11.1
		c5.4,5.1,10.8,10.1,16.4,15c3.7,3.3,7.3,6.9,11.9,8.9c0.5,0.2,2.3,0.9,2.6,0.2S250.8,353.7,250.4,353.5L250.4,353.5z"></path><path class="st2" d="M250.3,400.2l-49.5-41.4l-14-11.7c-1.8-1.5-5.7,1.5-3.8,3.2l49.5,41.5l14,11.7
		C248.3,404.9,252.3,401.9,250.3,400.2z"></path><path class="st2" d="M250,453.9c-16.7-12.6-33.6-24.9-50.7-36.8c-4.8-3.4-9.7-6.7-14.6-10c-0.8-0.6-1.8-0.4-2.4,0.4
		c-0.1,0.1-0.2,0.3-0.2,0.4c-0.2,1.3,0.4,2.5,1.5,3.2c17,11.5,33.7,23.4,50.3,35.6c4.7,3.5,9.4,7,14.1,10.5c0.9,0.6,2.2,1.1,2.9,0
		C251.3,456,251,454.7,250,453.9L250,453.9z"></path></g></svg>