<svg transform="scale(1)" version="1.1" id="w86om1MtId" xmlns="http://www.w3.org/2000/svg" xmlns:xlink="http://www.w3.org/1999/xlink" x="0px" y="0px" viewBox="0 0 500 500" xml:space="preserve" class="pbimage_pbimage__wrapper__image__0LEis false"><title>Break even</title><style type="text/css"> .st0{fill:LIGHTBLUE;} .st1{fill:#333;} .st2{fill:#FFFFFF;}
 .st2{fill:#FFFFFF;}
 .st1{fill:#333;}
 .st0{fill:LIGHTBLUE;}</style><g id="hourglass"><path class="st0" d="M384,217.9c0,0-4.8-12.4-6.1-15.4s65.3-20.7,65.3-20.7s3.7,6.5,2.6,11.2S405.4,222.6,384,217.9z" fill="LIGHTBLUE"></path><path class="st1" d="M386.5,217.8c-1.1-2.9-2.2-5.7-3.4-8.6c-0.7-1.9-1.5-3.7-2.2-5.6c-0.2-0.4-0.4-0.9-0.6-1.4
		c0-0.2-0.1,0.1,0.1-0.2s0.5-0.4,0.3-0.3c0.3-0.2,0.5-0.3,0.8-0.5c0.8-0.4,1.6-0.8,2.4-1.1c1.9-0.8,4.9-1.8,7.3-2.6
		c14-4.7,28.3-8.6,42.5-12.5c3.7-1,7.5-2,11.2-3l-4.3-0.2c1.1,2,2,4.3,2.5,6.5c0.4,1.9,0.7,4.2-0.4,5.6c-2.1,2.7-5.3,4.7-8.2,6.6
		c-9.9,6.7-20.8,11.8-32.3,15.2c-3,0.9-6.1,1.5-9.2,1.8c0.1,0,0.4,0-0.1,0l-0.7,0.1l-1.1,0.1h-1.8c-1.3-0.1-2.5-0.2-3.7-0.5
		c-1.2-0.2-2.4-0.2-3.5,0.2c-0.8,0.3-0.9,0.7,0.1,0.9c6.1,1.3,12.6,0.6,18.7-0.7c6.6-1.5,13-3.7,19.2-6.5c5.7-2.5,11.2-5.5,16.5-8.8
		c3.7-2.1,7.1-4.7,10.2-7.6c1.3-1.2,1.9-3,1.6-4.7c-0.3-3-1.3-5.9-2.8-8.6c-0.6-1-3.4-0.4-4.3-0.2c-10.1,2.7-20.2,5.5-30.3,8.4
		c-7.3,2.1-14.7,4.3-21.9,6.7c-2.7,0.9-5.4,1.8-8.1,2.8c-1.8,0.6-3.5,1.4-5.1,2.4c-0.3,0.2-0.7,0.5-0.7,0.9c0.2,0.7,0.5,1.5,0.9,2.1
		c0.4,1,0.8,2,1.2,3c1.4,3.4,2.7,6.9,4.1,10.4C382,219.3,386.7,218.2,386.5,217.8z" fill="#333"></path><path class="st2" d="M335.4,105.6c0,0,21.7,40.8,26.8,43.8s14.7,2.5,13.5,6.5s-10.1,15.7-7.7,22.3s9.9,24.3,9.9,24.3
		s42.9-3.6,65.3-20.7c0,0-10.5-29.7-14.8-31.7s-25.6,0.2-22.6-6.2s12.4-14.3,11.1-24.9s-11.7-41.2-14.3-41.2S347.5,93.9,335.4,105.6
		z" fill="#FFFFFF"></path><path class="st1" d="M333.2,106.8c2.4,4.5,4.9,9.1,7.4,13.5c4.3,7.8,8.7,15.5,13.6,23c1.4,2.4,3.1,4.7,5.1,6.7
		c1.4,1.1,3,1.9,4.8,2.3c2.5,0.7,5,1.1,7.4,2c0.8,0.2,1.5,0.7,1.9,1.4c0.2,0.7,0,1.4-0.3,1.9c-0.9,2.1-2.1,4-3.2,6.1
		c-2.3,4.2-5.4,9.7-4.3,14.7c0.6,2,1.3,4,2.2,5.9c1,2.4,2,4.9,2.9,7.3c1.6,3.8,3.1,7.6,4.7,11.4l0.3,0.7c0.1,0.3,0.7,0.2,0.9,0.2
		c5.5-0.5,11-1.3,16.4-2.3c11.5-2,22.7-5.1,33.5-9.5c6.5-2.6,12.6-6.1,18.2-10.2c0.3-0.3,0.9-0.8,0.7-1.3c-1.7-4.8-3.6-9.6-5.5-14.4
		c-1.5-3.6-3-7.2-4.7-10.6c-1.1-2.2-2.3-5-4.3-6.5c-0.9-0.5-1.8-0.8-2.8-0.9c-1.6-0.2-3.2-0.3-4.8-0.4c-3.7-0.1-7.5-0.4-11.1-1
		c-1.8-0.4-5.1-1.2-4.3-3.5c0.9-2,2.1-3.8,3.4-5.5c1.5-2,3-4.1,4.2-6.3c2.6-4.4,4.2-9.2,3.5-14.4c-0.6-3.6-1.4-7.1-2.4-10.6
		c-2.2-8.2-5-16.3-8.3-24.2c-0.5-1.3-1.2-2.5-1.8-3.8c-0.3-0.8-0.9-1.5-1.5-2c-1-0.6-3,0.2-4,0.5c-6,1.6-11.8,3.5-17.6,5.5
		c-8.4,2.8-16.8,5.9-25,9.4c-7.2,3-14.6,6.3-21,10.8c-1.2,0.8-2.3,1.8-3.4,2.8c-0.5,0.4-1.2,1.3-0.2,1.5s2.5-0.7,3.2-1.3
		c0.4-0.4,0.9-0.8,1.3-1.2c0.1-0.1,1-0.8,0.5-0.4l0.9-0.7c0.6-0.4,1.2-0.8,1.9-1.2l0.5-0.3c-0.1,0.1-0.4,0.3,0,0l1.4-0.8
		c3.2-1.8,6.5-3.5,9.9-5c7.8-3.5,15.9-6.6,23.9-9.4c6.5-2.3,13.1-4.5,19.8-6.4c0.9-0.3,1.9-0.5,2.8-0.8l1-0.2c-0.5,0.1-0.1,0,0.3,0
		c0.1,0,0.1,0,0.2,0c-0.2,0.1-0.5-0.1-0.5,0c0-0.1,0.4,0.3,0.1,0c0.1,0.2,0.3,0.3,0.4,0.5c0.6,0.8,1.1,1.7,1.5,2.7
		c3.5,7.2,6,15,8.3,22.7c1.1,3.8,2.2,7.6,3,11.5c0.9,4.3,0.9,8.5-0.9,12.6c-2,4.5-5.2,8.3-7.8,12.4c-1.4,2.2-3.5,5.1-0.5,6.9
		c2.7,1.6,6.5,1.6,9.5,1.9c3.4,0.2,6.9,0.2,10.3,0.8c2.1,0.3,3,1.5,4.1,3.4c1.7,2.9,3.2,6,4.5,9.2c2.6,6,5,12.2,7.3,18.3l0.4,1.1
		l0.7-1.3c-8.7,6.6-19.7,10.5-30.2,13.4c-8.9,2.4-17.9,4.2-27,5.4c-1.8,0.2-3.6,0.4-5.4,0.6l1,0.2c-3.1-7.5-6.3-14.9-9.2-22.5
		c-0.9-1.9-1.2-4-0.9-6.1c0.6-2.7,1.5-5.3,2.8-7.7c1.1-2.3,2.5-4.5,3.6-6.8c0.7-1.3,2-3.3,1.4-4.8c-0.8-1.8-3.6-2.3-5.2-2.7
		c-2.7-0.5-5.3-1.3-7.8-2.4c-2-1-3.4-3.3-4.7-5.2c-4.9-7.1-9.2-14.7-13.5-22.2c-2-3.5-3.9-7-5.9-10.6c-1-1.9-1.9-3.8-3.1-5.7
		l-0.1-0.3C337,103.2,332.6,105.6,333.2,106.8z" fill="#333"></path><path class="st0" d="M335.4,105.6c0,0-5.4-8.6-4-10.9s43.7-17.5,56.6-20.9s14.9-3.4,14.7-1.7s1.7,7.9,1.7,7.9
		S338.6,102.2,335.4,105.6z" fill="LIGHTBLUE"></path><path class="st1" d="M337.7,104.5c-1.5-2.3-2.8-4.8-3.7-7.5c-0.3-0.7-0.5-1.5-0.5-2.3c0-0.2,0.1-0.5,0.1-0.7s0.1-0.1-0.2,0.1
		c0.3-0.3-0.4,0.3-0.1,0.1l0.3-0.2c-0.8,0.5,0.3-0.1,0.5-0.3c0.6-0.3-0.6,0.3,0.1-0.1l0.7-0.3l1.6-0.7c1.3-0.6,2.5-1.1,3.8-1.6
		l0.6-0.2h0.1l1.2-0.5l2.5-1c1.8-0.7,3.5-1.3,5.3-2c7.8-2.9,15.6-5.7,23.4-8.3c6.9-2.4,13.9-4.4,21-6.1c0.9-0.2,1.9-0.4,2.8-0.6
		l1.1-0.2h0.5c0.4,0-0.2,0,0.1,0h0.7c0.3,0,0-0.1,0.3,0.1s0.2,0,0.4,0.3s0,0.4,0,0.9c0.1,1,0.2,2,0.5,3c0.4,1.6,0.8,3.1,1.3,4.7
		l2.6-1.9c-7.6,2.5-15.3,5-22.9,7.7c-12.4,4.3-24.8,8.6-37,13.4c-2.3,0.9-4.6,1.8-6.9,2.9c-1.7,0.6-3.3,1.6-4.6,2.8
		c-0.8,0.8,0.9,0.6,1.2,0.5c1.1-0.3,2.2-0.8,3-1.6c-0.5,0.5-0.2,0.2-0.1,0.1s-0.5,0.4-0.2,0.1c0.2-0.1,0.6-0.2-0.2,0.1
		c0.1,0,0.2-0.1,0.4-0.2s1.2-0.5,0.2-0.1c0.4-0.1,0.7-0.3,1-0.5c0.8-0.4,1.7-0.8,2.5-1.1l1.3-0.5l0.8-0.3l0.5-0.2
		c5.5-2.2,11-4.2,16.6-6.2c11.8-4.3,23.7-8.4,35.6-12.5c2.7-0.9,5.3-1.8,8-2.7c0.4-0.2,2.9-1.1,2.6-1.9c-0.4-1.4-0.8-2.8-1.2-4.2
		c-0.2-0.9-0.4-1.8-0.5-2.8c0-0.4,0-0.9,0-1.3c-0.4-1.7-3.8-0.8-4.9-0.6c-7.9,1.4-15.6,3.8-23.2,6.3c-8.2,2.7-16.3,5.6-24.3,8.6
		c-6.4,2.4-13,4.7-19.2,7.7c-1.1,0.5-2.1,1-3.1,1.7c-1.1,0.6-1.7,1.9-1.4,3.1c0.5,3.2,2.5,6.4,4.2,9.2
		C333.8,107.6,338.2,105.3,337.7,104.5z" fill="#333"></path><path class="st0" d="M355.1,130.4c0,0,10.5,12.7,21.9,15.4s13.5,4.7,18.7,1s17-25.9,12.6-36S355.1,130.4,355.1,130.4z" fill="LIGHTBLUE"></path><path class="st0" d="M353.7,132c3.2,3.8,6.9,7.2,10.9,10.1c3.2,2.5,6.8,4.4,10.7,5.6c2.1,0.6,4.3,1.1,6.5,1.7
		c1.7,0.5,3.5,1,5.2,1.4c2.5,0.7,5.2,0.6,7.6-0.4c2-0.9,3.8-2.3,5.2-4.1c3.9-5,7-10.6,9-16.6c2.1-5.8,4.1-12.9,1.8-18.9
		c-1.5-3.8-5-4.7-8.7-4.4c-4.4,0.4-8.8,2.1-12.9,3.7c-5,2-9.9,4.4-14.8,6.8c-6.8,3.4-13.5,7-20,11.1l-0.3,0.2
		c-2.4,1.4,0.1,5.8,2.5,4.4c5-3.1,10.2-6,15.4-8.8c4.5-2.4,9.1-4.8,13.8-6.9c4.2-2,8.5-3.7,13-4.9c0.9-0.2,1.8-0.5,2.8-0.6l1.2-0.2
		l0.6-0.1c0.2,0,0.9-0.1,0.2,0c0.7,0,1.4,0,2,0.1c0.1,0,0.6,0.1,0.2,0s0.1,0,0.2,0.1s0.2,0.1,0.3,0.1c0.5,0.1-0.4-0.3,0,0
		c0.1,0.1,0.2,0.2,0.3,0.2c0.4,0.2-0.5-0.4-0.1-0.1c0.1,0.1,0.1,0.2,0.2,0.2c-0.6-0.9-0.2-0.2-0.1-0.1s0.2,0.3,0,0s0,0,0,0.2
		s0.2,0.5,0.2,0.7c0.2,0.5,0.3,1,0.3,1.6c0.2,2.8,0,5.6-0.8,8.4c-1.6,6.1-4.1,11.9-7.5,17.1c-1.1,1.8-2.5,3.5-4,5
		c-0.4,0.4,0.1,0-0.1,0.1s-0.4,0.3-0.6,0.4c-0.5,0.3-1.1,0.7-1.7,0.9l-0.4,0.2c0.1,0,0.4-0.1,0,0c-0.2,0.1-0.4,0.1-0.6,0.2
		c-0.2,0.1-0.5,0.1-0.7,0.1c-0.5,0.1,0.1,0.1-0.5,0c-2.8-0.1-5.3-1-8.1-1.8c-3.8-1-7.6-1.8-11.1-3.8c-5.1-3-9.6-6.7-13.5-11.2
		c-0.2-0.3-0.5-0.6-0.7-0.8c-0.7-0.9-2.1-1.1-3-0.4c0,0-0.1,0.1-0.1,0.1C352.7,129.7,352.8,131.1,353.7,132z" fill="LIGHTBLUE"></path><path class="st0" d="M392.7,153.8c0,0-15.6,21.1-10.4,42.8c0,0,17-3.6,32-8.6s21-9.6,21-9.6s-8.9-21.2-19-22.3
		S392.7,153.8,392.7,153.8z" fill="LIGHTBLUE"></path><path class="st0" d="M390.5,153.2c-1.9,2.7-3.6,5.6-5,8.6c-3.3,6.5-5.5,13.5-6.3,20.8c-0.5,4.8-0.3,9.6,0.8,14.4
		c0.4,1.5,2.1,1.5,3.3,1.3c6.9-1.5,13.8-3.2,20.5-5.1c9.9-2.8,19.9-5.9,29-10.8c1.6-0.8,3.1-1.8,4.5-2.8c0.5-0.4,0.7-1.1,0.4-1.7
		c-2.2-5.4-5.1-10.4-8.7-15c-2.4-3-5.2-6-8.9-7.5c-2.3-0.7-4.7-1.1-7.2-1.2l-8.6-0.9c-3.8-0.3-7.5-0.7-11.3-1
		c-1-0.1-2.6,0.4-2.9,1.5s1,1.8,2,1.9c2.9,0.2,5.8,0.5,8.8,0.8c2.7,0.2,5.3,0.5,8,0.8l4.1,0.4l2.1,0.2l0.8,0.1
		c0.4,0-0.2-0.1,0.3,0.1c3,0.8,5.7,3.4,7.8,6c2.4,3,4.4,6.1,6.1,9.5c1,1.9,2,3.8,2.8,5.8l0.5-1.7c-0.1,0-0.1,0.1-0.2,0.1
		c0,0-0.2,0.1-0.2,0.1s0.5-0.3,0,0c-0.8,0.5-1.6,1-2.4,1.5c-3.4,1.9-6.9,3.5-10.5,4.9c-10.1,4-20.8,6.8-31.3,9.3
		c-2.4,0.6-4.9,1.2-7.3,1.7l3.3,1.3c-3.1-13.4,1.2-27.6,8.3-39.1c0.6-1,1.2-1.9,1.8-2.8s-0.2-2-1.2-2.2
		C392.6,151.8,391.3,152.2,390.5,153.2z" fill="LIGHTBLUE"></path><path class="st0" d="M388.3,142c-0.2,2.1,5.9,21.6,8.1,21.9l2.2,0.2l-8.4-22.8L388.3,142z" fill="LIGHTBLUE"></path><path class="st0" d="M386.7,140.2c0.1,1.3,0.3,2.6,0.7,3.8c0.6,2.3,1.3,4.5,2,6.7c1.4,4.1,2.8,8.7,5.4,12.2
		c0.7,0.9,1.7,2.4,2.8,2.9c0.8,0.2,1.6,0.3,2.4,0.3c0.1,0.1,0.2,0,0.1-0.1l-7.3-19.9l-1.1-2.9c-0.4-0.8-0.9-1.6-1.6-2.3
		c-0.2-0.3-1.2-1.6-1.6-1.4L386.7,140.2c-0.3,0,1.2,1.9,1.3,2.1c0.2,0.3,1.4,1.9,1.9,1.7l1.9-0.7l-3.2-3.7l6.9,18.6l1.4,3.6
		c0.1,0.3,0.1,0.5,0.3,0.4c-0.6,0.2-1.6-0.3-2.2-0.2c-0.1,0-0.1,0-0.1,0c0.3-0.1,1.2,1.2,1.5,1.6c0,0,0.4,0.4,0.2,0.2
		s0.2,0.4,0.1,0.1l-0.1-0.2c-0.2-0.4,0.1,0.1-0.1-0.1c-0.4-0.8-0.8-1.5-1.1-2.3c-0.9-2-1.6-4.1-2.3-6.2c-0.8-2.4-1.5-4.8-2.2-7.2
		c-0.5-1.3-0.8-2.7-0.8-4.1c0-0.3-0.5-0.9-0.6-1c-0.4-0.5-0.8-1-1.2-1.5C388,141.1,386.7,139.8,386.7,140.2z" fill="LIGHTBLUE"></path></g><g id="coin"><circle class="st0" cx="109.8" cy="181.5" r="56.3"></circle><path class="st1" d="M121.6,128.5c11.1,2.2,21.2,7.8,29,16c7.3,7.8,12,17.7,13.5,28.2c2.9,23-8.7,45.3-29.1,56.2
		c-20.2,10.7-46.1,7.8-63.1-7.7C64,214,58.6,204.5,56.3,194c-2.4-11.1-1.2-22.7,3.4-33.2c9.3-21,30.5-34.2,53.5-33.3
		C116,127.6,118.8,128,121.6,128.5c1,0.2,0.6-1.8,0.4-2.2c-0.4-0.9-1.1-2.1-2.2-2.3c-23.7-4.7-47.8,6.2-60,27.1
		c-6.1,10.6-8.8,22.8-7.5,34.9c1.3,12.1,6.1,23.5,13.8,32.9c7.6,9.2,17.8,15.9,29.4,19.1c30.3,8.4,61.7-9.4,70.1-39.7
		c1.5-5.5,2.2-11.1,2-16.8c-0.3-12.1-4.3-23.8-11.3-33.7c-6.9-9.8-16.6-17.2-27.8-21.4c-2.8-1-5.8-1.8-8.7-2.4
		c-1-0.2-0.6,1.8-0.4,2.2C119.8,127.2,120.5,128.3,121.6,128.5z"></path><circle class="st0" cx="100.3" cy="177.7" r="56.3"></circle><path class="st1" d="M112.5,124.4c11,2.1,21.1,7.7,28.8,15.9c7.2,8,11.8,18,13.1,28.7c2.9,23.1-8.8,45.6-29.4,56.4
		c-20.1,10.7-46.2,8-63-7.6c-16.6-15.4-20.5-40.6-11.6-61c9.4-21,30.6-34.2,53.7-33.4C106.9,123.6,109.7,123.9,112.5,124.4
		c0.8,0.2-0.3-1.8-0.4-2c-0.5-0.9-1.4-1.6-2.4-2c-30.7-6-60.4,14-66.4,44.7c-1.1,5.6-1.3,11.4-0.7,17.1c3,24.4,20.3,44.7,43.9,51.6
		c30.1,8.4,61.3-9.2,69.7-39.3c1.5-5.5,2.2-11.3,2-17.1c-0.5-11.9-4.4-23.3-11.5-32.9c-7.1-9.9-17-17.5-28.3-21.7
		c-2.8-1-5.7-1.8-8.7-2.4c-0.9-0.2,0.3,1.8,0.4,2C110.7,123.4,111.5,124.1,112.5,124.4z"></path><path class="st1" d="M133.4,234.3c-1.2-1.9-2.6-3.7-4.1-5.3c-0.4-0.3-0.8-0.6-1.2-0.9c-0.6-0.3-1.1-0.6-1.7-0.8l-0.5-0.2
		c-0.2-0.1-0.4-0.1-0.7-0.1c-0.3,0.1-0.1,0.3,0,0.5c0.8,0.8,1.5,1.6,2.2,2.5l-0.2-0.2c0.6,0.8,1.2,1.7,1.7,2.5
		c0.2,0.3,0.5,0.6,0.9,0.8c0.5,0.4,1.1,0.7,1.7,0.9c0.5,0.2,0.9,0.4,1.4,0.5C133.1,234.5,133.5,234.6,133.4,234.3L133.4,234.3z"></path><path class="st1" d="M144.6,223.7c-0.6-0.4-1.2-0.9-1.8-1.4l0.5,0.4c-0.9-0.8-1.6-1.6-2.3-2.6l0.3,0.5c-0.2-0.3-0.4-0.6-0.6-0.9
		c-0.3-0.5-0.8-1-1.4-1.2c-0.6-0.3-1.2-0.3-1.9-0.1c-0.5,0.1-1,0.5-1.2,1c-0.2,0.5-0.1,1.1,0.1,1.6c1.4,2.3,3.3,4.2,5.6,5.7
		c0.5,0.4,1.2,0.6,1.9,0.6c0.6,0,1.1-0.2,1.5-0.6c0.4-0.4,0.5-1,0.4-1.5C145.5,224.6,145.2,224.1,144.6,223.7L144.6,223.7z"></path><path class="st1" d="M146.8,213.5c2.7,1,5.4,2,8.1,3.2c0.8,0.4,1.8,0.2,2.3-0.6c0.1-0.2,0.1-0.3,0.2-0.5c0-1.3-0.7-2.4-1.9-2.9
		c-2.6-1.2-5.3-2.3-8.1-3.2c-0.5-0.2-1.1-0.2-1.6,0c-0.5,0.2-0.8,0.7-0.8,1.2C144.8,211.9,145.6,213.1,146.8,213.5L146.8,213.5z"></path><path class="st1" d="M151.6,197.5c2.9,0.5,5.8,1.2,8.6,2c0.4,0.1,0.8,0.1,1.2,0.1c0.6,0,1.3-0.1,1.9-0.3c0.5-0.1,1-0.2,1.4-0.4
		c0.1,0,0.5-0.3,0.2-0.4c-3-0.9-6-1.6-9.1-2.1c-0.5-0.1-1-0.1-1.5,0c-0.6,0.1-1.3,0.2-1.9,0.4C152.2,196.8,150.7,197.3,151.6,197.5
		L151.6,197.5z"></path><path class="st1" d="M155.6,184.8c2.9,0.5,5.8,0.8,8.8,1c1.3,0,2.4-0.7,3-1.8c0.2-0.4,0.3-0.9,0.1-1.3c-0.3-0.4-0.7-0.6-1.2-0.6
		c-1.4-0.1-2.7-0.2-4.1-0.4c-0.6-0.1-1.3-0.1-2-0.2H160l-0.5-0.1l-1.1-0.2c-1.2-0.2-2.5,0.3-3.2,1.3c-0.3,0.4-0.5,0.9-0.5,1.4
		C154.7,184.3,155.1,184.6,155.6,184.8L155.6,184.8z"></path><path class="st1" d="M157.6,169.7c1.5-0.5,3-0.8,4.6-1h-0.3c0.8-0.1,1.6-0.1,2.3-0.2c0.9,0,0.4-1.6,0.3-2.1
		c-0.2-0.6-0.5-1.2-0.9-1.7c-0.2-0.3-0.6-0.8-1-0.8c-2.4,0-4.8,0.5-7.2,1.2c-0.3,0.1-0.3,0.8-0.3,1c0.1,0.6,0.3,1.2,0.5,1.7
		c0.2,0.5,0.6,1,1,1.5C156.9,169.6,157.2,169.9,157.6,169.7L157.6,169.7z"></path><path class="st1" d="M153.4,156c1.7,0,3.4-0.3,5-0.9c0.2-0.1,0-0.8,0-0.8c-0.2-0.6-0.4-1.1-0.7-1.6c-0.3-0.5-0.6-1-0.9-1.5
		c-0.1-0.1-0.4-0.6-0.6-0.5c-1.6,0.6-3.3,0.9-5,0.9c-0.2,0,0,0.9,0,0.8c0.2,0.6,0.4,1.1,0.7,1.6c0.3,0.5,0.6,1,0.9,1.5
		C152.9,155.7,153.1,156,153.4,156z"></path><path class="st1" d="M112.7,161.8c-3.7-5.9-11.4-7.8-17.4-4.3c-6.2,3.7-9.3,12.4-3.5,17.9c5,4.7,12.3,6.8,16.2,12.7
		c1.6,2.4,2.4,5.3,2.1,8.2c-0.3,2.7-2.3,4.9-5,5.4c-8.1,2.1-15.4-4.4-19.4-10.7c-1.4-2.3-5.8,0.1-4.4,2.4c3.9,6.2,9.6,11.5,17,12.8
		c7.2,1.2,15.3-2.1,16.5-9.9c1-6.8-3.2-12.7-8.4-16.6c-2.9-2.1-6-3.9-8.9-5.9c-2.8-1.9-4.8-4.4-3.8-7.9c0.8-3,3.3-5.2,6.4-5.6
		c3.3-0.3,6.5,1.3,8.2,4.1C109.7,166.5,114.1,164.1,112.7,161.8L112.7,161.8z"></path><path class="st1" d="M104.3,149.5c-0.2,1.8-0.8,3.6-1.7,5.2c-0.2,0.3,0.1,1,0.2,1.2c0.2,0.6,0.6,1.2,1,1.7c0.3,0.4,0.7,0.8,1.2,1
		c0.3,0.1,0.5,0.1,0.7-0.2c0.9-1.6,1.5-3.4,1.7-5.2c0-0.4,0-0.9-0.2-1.2c-0.2-0.6-0.6-1.2-1-1.7c-0.3-0.4-0.7-0.8-1.2-1
		C104.8,149.3,104.3,149.1,104.3,149.5z"></path><path class="st1" d="M94,202.2l-2.6,6.8c0,0.4,0,0.8,0.2,1.2c0.2,0.6,0.5,1.2,0.8,1.7c0.1,0.2,1.2,1.9,1.5,1.2l2.5-6.8
		c0-0.4,0-0.8-0.2-1.2c-0.2-0.6-0.5-1.2-0.8-1.7C95.3,203.2,94.2,201.5,94,202.2L94,202.2z"></path></g><g id="scale"><path class="st1" d="M175.8,122.5c1.6-7.8,6.6-14.5,13.7-18.1c7.1-3.5,15.4-3.4,22.4,0.4c7.7,4.3,10.5,12.8,11.9,21
		c0.5,2.9,1.3,7.7-1.6,9.7c-0.7,0.4-1.5,0.6-2.2,0.5c-0.4,0,0,0.1,0,0c-0.3-0.4-0.5-0.8-0.6-1.2c-0.7-2.3,0.4-4.8,1.6-6.8
		c2.1-3.7,4.6-7.2,7.5-10.4c2.6-3,5.9-5.4,9.6-6.9c3.9-1.4,8.2-1.2,11.9,0.6c3.7,1.9,6.7,4.9,8.8,8.6c2.5,4,4.3,8.4,5.5,13
		c0.7,2.2,0.4,4.6-0.7,6.6c-1.1,1.6-3,2.8-4.9,2c-2.9-1.2-4.2-5.2-4.7-8c-0.6-3.8,0-7.6,1.6-11.1c3.6-7.6,11.3-12.8,18.8-16
		c6.3-2.7,14.8-4.8,21.3-1.6c1.2,0.6,2.2,1.4,2.9,2.4c0.6,0.8,1.8,1.9,2.9,1.9s0.6-1.1,0.1-1.6c-2.8-3.7-6.9-6.2-11.4-7.2
		c-4.3-0.8-8.8-0.7-13,0.5c-4.5,1.2-8.7,3-12.6,5.4c-4.3,2.5-8.1,5.8-11,9.8c-5.1,7.5-5.3,17.9,1.2,24.7c3.1,3.3,9,6.8,12.5,2.1
		c3.3-4.5,0.4-10.7-1.5-15.2c-4.1-9.7-11.6-19.5-22.7-21.2c-10.1-1.6-17.8,6.3-23,13.9c-2.7,3.9-6.4,9.1-3.8,13.9
		c1.9,3.5,8.2,7.9,11.1,3.1c0.9-1.8,1.3-3.8,1.1-5.7c-0.2-2.6-0.6-5.1-1.2-7.7c-1-5.3-3.3-10.2-6.6-14.5c-6.1-7.4-15.7-12-25.4-11.3
		c-9.1,0.7-17.3,6.9-21.2,15.1c-1,2-1.6,4.1-2.1,6.3C171.5,121.2,175.5,123.9,175.8,122.5L175.8,122.5z"></path><path class="st1" d="M400.2,262.7v23.2l12.6-2.3H114.3c-4,0-8.1-0.1-12.1,0c-0.2,0-0.4,0-0.5,0l2.3,0.4v-23.2c0-0.9-6.9,0-7.6,0
		c-1.8,0.2-3.5,0.6-5.2,1c-0.4,0.1-2.1,0.4-2.1,0.9v23.2c0,0.4,2.4,0.4,2.3,0.4h298.5c4,0,8.1,0,12.1,0h0.5c2.7,0,5.5-0.3,8.1-0.9
		c0.5-0.1,4.5-0.6,4.5-1.4v-23.2c0-0.9-6.9,0-7.5,0c-1.8,0.2-3.5,0.6-5.2,1C401.9,261.8,400.2,262.1,400.2,262.7L400.2,262.7z"></path><polygon class="st1" points="207.7,429.1 300.3,427.8 252.7,280.3 	"></polygon><path class="st1" d="M208.4,431.2l9.2-0.1l22.1-0.3l26.7-0.4l23.1-0.3c3.8-0.1,7.5,0,11.3-0.2h0.1c1.2,0,1.4-1.1,1.1-2.1l-4.8-14.7
		L286,377.9l-13.7-42.5l-11.9-36.9c-1.9-6-3.7-12-5.8-17.9c0-0.1,0-0.2-0.1-0.2c-0.4-1.4-3.1-3.6-3.8-1.3l-4.5,14.9l-10.7,35.5
		l-13,43.1l-11.2,37.1l-3.7,12.2c-0.6,1.9-1.3,3.8-1.7,5.8l-0.1,0.2c-0.6,1.9,3.2,4.9,3.9,2.3l4.5-14.9l10.7-35.5l13-43.1l11.2-37.1
		l3.7-12.2c0.6-1.9,1.3-3.8,1.7-5.8c0-0.1,0-0.2,0.1-0.2l-3.8-1.3l4.7,14.7l11.4,35.3l13.7,42.5l11.9,36.9l3.9,12.1
		c0.5,1.9,1.1,3.9,1.9,5.8c0,0.1,0.1,0.2,0.1,0.2l1.1-2.1l-9.2,0.1l-22.1,0.3l-26.8,0.4l-23.1,0.3c-3.8,0.1-7.5,0-11.3,0.2H207
		C204.3,426.9,206.5,431.3,208.4,431.2z"></path><ellipse class="st0" transform="matrix(0.1602 -0.9871 0.9871 0.1602 -71.526 489.2513)" cx="251.8" cy="286.7" rx="17.9" ry="17.9"></ellipse><path class="st0" d="M267.2,286.6c0.1,6.6-3.9,12.6-10,15.1c-6.2,2.2-13.1,0.2-17.2-4.9c-4.2-5.3-4.8-12.7-1.4-18.6
		c3.2-5.6,9.7-8.5,16-7.2c7.6,1.6,12.5,8.5,12.6,16.1c0,1.2,1.9,1.6,2.8,1.4c1.2-0.1,2.1-1.1,2.1-2.3c-0.2-8.3-5.6-15.6-13.4-18.2
		c-8.1-2.8-17.2-0.3-22.8,6.2c-5.4,6.4-6.1,15.5-1.9,22.7c4.5,7.2,13,10.8,21.3,9.2c9.2-1.8,16.5-9.8,16.6-19.3c0-1.1-0.9-2-2-2
		c0,0-0.1,0-0.1,0C269,284.7,267.2,285.3,267.2,286.6z"></path><circle class="st2" cx="251.7" cy="287.8" r="5.3"></circle><path class="st1" d="M255.1,286.4c0,2.8-2.2,5-5,5c-0.2,0-0.4,0-0.7,0c-0.2,0-0.5-0.1-0.7-0.2c-0.1,0-0.5-0.2-0.1,0l-0.3-0.1
		c-0.4-0.2,0.3,0.2,0,0s-0.4-0.3,0.1,0.1c-0.4-0.3,0.4,0.3,0.1,0.1l0.2,0.2c-0.2-0.2-0.1-0.1,0.1,0.1c-0.2-0.3,0,0.1,0.1,0.1
		c-0.1-0.1-0.2-0.2-0.2-0.4c-0.2-0.2,0,0,0,0c-0.1-0.1-0.1-0.2-0.2-0.4c-0.2-0.4-0.3-0.9-0.3-1.3c-0.1-1,0.1-1.9,0.6-2.8
		c0.9-1.7,2.8-2.7,4.7-2.6c0.2,0,0.5,0,0.7,0.1c0.1,0,0.2,0.1,0.3,0.1l0.2,0.1c-0.2-0.1-0.2-0.1,0,0c0.1,0,0.2,0.1,0.2,0.1
		c-0.2-0.1-0.3-0.2-0.1,0s0.2,0.1-0.1-0.1c0.1,0.1,0.4,0.3-0.2-0.2c0.4,0.3-0.4-0.4-0.1-0.1l-0.2-0.2c0.1,0.2,0.1,0.1,0-0.1
		c0.1,0.1,0.2,0.2,0.2,0.4c0.2,0.4-0.1-0.3,0.1,0.1c0.1,0.1,0.1,0.2,0.2,0.4C255,285.4,255.1,285.9,255.1,286.4
		c0.1,0.5,0.3,0.8,0.6,1.1c0.4,0.5,0.9,1,1.4,1.3c0.2,0.1,1.9,1.3,1.9,0.5c0-1.4-0.5-2.7-1.3-3.8c-1.2-1.7-2.8-3.1-4.6-4
		c-2.7-1.6-6.2-0.6-7.8,2.1c-1.1,1.9-1,4.3,0.3,6.2c1.1,1.7,2.6,3.1,4.4,4.1c1.2,0.7,2.6,1.1,4,1c2.8-0.3,5-2.7,5-5.5
		c-0.1-0.4-0.3-0.8-0.6-1.1c-0.4-0.5-0.9-0.9-1.4-1.3C256.8,286.7,255.1,285.6,255.1,286.4z"></path><polygon class="st0" points="142.2,271.6 52.7,271.6 48.7,256.5 146.2,256.5 	"></polygon><path class="st0" d="M142.9,271.2H64.4c-3.6,0-7.3-0.1-10.9,0h-0.2l1.8,0.3l-4-15l-3.2,0.5h85.4c3.9,0,7.9,0.1,11.9,0h0.2l-1.8-0.3
		l-4,15c0,0.1,4.7,0.8,5-0.2l4-15c0.1-0.3-1.8-0.3-1.8-0.3H61.4c-4,0-7.9,0-11.9,0h-0.2c-0.1,0-3.2,0.1-3.2,0.5l4,15
		c0.1,0.4,1.7,0.3,1.8,0.3h78.4c3.6,0,7.3,0,10.9,0h0.1c0.4,0,2.9,0.1,3.1-0.4S143.1,271.2,142.9,271.2z"></path><polygon class="st0" points="452,271.8 362.5,271.8 358.5,256.7 456,256.7 	"></polygon><path class="st0" d="M450.9,270.7h-78.4c-3.6,0-7.3-0.1-10.9,0h-0.2l3.5,1.3l-4-15l-1.3,0.8H445c3.9,0,7.9,0.2,11.9,0h0.2l-3.5-1.6
		l-4,15c-0.3,1.2,4.5,2.4,4.9,1l4-15c0.3-1.2-2.9-1.6-3.5-1.6h-85.4c-4,0-7.9-0.1-11.9,0h-0.2c-0.5,0-1.5,0.1-1.3,0.8l4,15
		c0.3,1,2.7,1.3,3.5,1.3H442c3.6,0,7.3,0.1,10.9,0h0.1c0.7,0,1.8-0.3,1.1-1.1S451.9,270.7,450.9,270.7z"></path></g></svg>