<svg transform="scale(1)" version="1.1" id="Q1VdSWXrBI" xmlns="http://www.w3.org/2000/svg" xmlns:xlink="http://www.w3.org/1999/xlink" x="0px" y="0px" viewBox="0 0 500 500" xml:space="preserve" class="pbimage_pbimage__wrapper__image__0LEis false"><title>Brain 1</title><style type="text/css"> .st0{fill:#377E39;} .st1{fill:#FFFFFF;} .st2{fill:#222;}
 .st2{fill:#222;}
 .st1{fill:#FFFFFF;}
 .st0{fill:#377E39;}</style><g id="brain"><g id="brain-2"><path class="st0" d="M151.6,314.3c0,0,2.8,27.8,31.2,31s70.3-7.1,70.3-7.1s36.3,37.5,34.9,76.3l28-2.8l4.9-45.2
			c0,0,39.9,3.9,57.4-40c0,0,46.1-18.9,35.3-65.3c0,0,48.8-31.4-1.5-65c0,0,29.8-37.6-12-68s-94.2-5.7-94.2-5.7s-35.5-29-72-17.2
			S191.8,132,191.8,132s-79.2-17.4-76.9,25.1c0,0-62.2,19.5-47.5,74s54.2,42.3,54.2,42.3S105.9,310.9,151.6,314.3z"></path><path class="st0" d="M150,312.9c0.5,3.7,1.5,7.4,3.1,10.8c3.3,7.8,8.9,14.3,16,18.7c9.5,5.6,21,5.8,31.8,5.5
			c11.7-0.4,23.3-1.7,34.8-3.8c6.3-1.1,12.7-2.3,18.9-3.9l-1.5-1l0.9,1l0.4,0.5l0.3,0.4c0.4,0.4-0.4-0.5,0,0s1,1.1,1.5,1.7
			c2.8,3.3,5.5,6.8,8.1,10.4c7.7,10.8,14.4,22.5,18.4,35.2c2.6,7.9,3.9,16.2,3.7,24.5c0,1.1,1.8,3.9,3,3.7l28-2.8
			c0.2,0,0.3-0.1,0.3-0.3c0,0,0,0,0,0l2.5-22.6l1.7-15.4l0.6-5.2c0.1-0.5,0.1-0.9,0.2-1.4c0-0.7,0.3-0.3-0.3-0.3
			c4.8,0.1,9.5-0.3,14.2-1.2c10.7-2.3,20.5-7.6,28.2-15.2c5.2-5.3,9.4-11.3,12.6-18c0.5-0.9,0.9-1.9,1.3-2.8
			c0.3-0.7,0.6-2.3,1.1-2.8c0.1-0.1,0.2-0.1,0.3-0.1c0.6-0.4,1.3-0.7,2-1c6.7-3.4,12.9-7.8,18.3-13c8.1-8,14-18.3,15.8-29.7
			c0.5-3.4,0.7-6.9,0.5-10.3c-0.1-1.7-0.2-3.3-0.4-5c-0.1-0.9-0.2-1.9-0.4-2.8c-0.1-0.5-0.2-1-0.3-1.4c-0.2-0.6-0.4-1.3-0.4-1.9
			c0-0.1-0.2,0.2,0.1-0.2c0.3-0.2,0.6-0.5,0.9-0.6c1.1-0.8,2.1-1.6,3.1-2.4c6.8-5.6,13-12.9,15.8-21.5c4.2-13.2-2.9-25.8-12.3-34.8
			c-3.6-3.4-7.4-6.4-11.5-9.1l2.2,3.7c3.7-4.9,6.5-10.4,8.2-16.2c3.9-11.9,2.4-24.9-3.9-35.7c-9.3-15.7-26.1-26.9-43.5-31.8
			c-14.9-4.2-30.8-4.2-46-1.2c-5.4,1-10.8,2.4-16,4.2c-1.7,0.6-3.5,1.2-5.2,1.9c-1,0.3-1.9,0.7-2.8,1.2c-0.1,0.1-0.2,0.1-0.4,0.2
			l1.3,0.5c-3.6-2.9-7.4-5.4-11.5-7.7c-8.7-5.1-18.1-8.8-27.9-11.1c-12.1-2.8-24.8-2.1-36.5,2c-10.4,3.5-20.8,8-29.5,14.8
			c-3.6,2.8-7.2,6-9.5,10c-0.2,0.3-0.4,0.7-0.6,1.1c-0.1,0.4,0.2-0.1,0.2-0.1c-0.8-0.3-1.7-0.4-2.5-0.5c-10.8-2.1-21.8-3.1-32.8-3
			c-6.9,0-13.8,0.8-20.4,2.5c-5.8,1.6-11.6,4.2-15.7,8.7c-2,2.2-3.5,4.7-4.4,7.5c-0.5,1.5-0.9,3.1-1.1,4.7c-0.1,0.8-0.2,1.7-0.2,2.5
			c0,0.6,0.3,2.4,0,2.8c0.2-0.3-0.1-0.1-0.3-0.1c-0.4,0.2-0.8,0.3-1.2,0.4c-1.5,0.5-3,1.1-4.4,1.8c-11.1,4.8-21.7,11.6-29.8,20.7
			c-5.2,5.7-9.1,12.4-11.5,19.7c-2.7,8.7-3.1,17.9-1.3,26.8c3.5,18.3,13,38.3,30.1,47.4c8.2,4.4,17.7,5.7,26.8,3.8
			c0.6-0.1,1.1-0.2,1.6-0.4l-3.3-3.7c-1.7,4.4-2.6,9-2.6,13.7c-0.1,9.7,4.7,18.8,12.8,24.2c6.7,4.5,14.9,6.2,22.9,6.8
			c0.9,0.1-0.2-1.8-0.3-2c-0.5-0.7-1.4-2-2.4-2c-6.8-0.5-13.8-1.8-19.7-5.1c-2-1.1-3.8-2.5-5.4-4.2c-1-1.2-1.9-2.5-2.5-4
			c-2.7-6.1-2.3-13.2-0.7-19.5c0.3-1.5,0.8-2.9,1.4-4.3c0.4-1.1-2.2-4-3.3-3.7c0.3-0.1,0,0-0.2,0l-0.9,0.2c-1.2,0.3-2.4,0.5-3.6,0.6
			c-4,0.4-8,0.3-12-0.4c-5.4-1-10.4-3.2-14.9-6.4c-6-4.4-10.3-10.5-13.6-17.1c-7.7-15.7-11.1-34.5-4.1-51.1
			c5.1-12,14.8-21.5,25.6-28.4c4.1-2.6,8.3-4.9,12.7-6.9c1.5-0.7,3-1.3,4.6-1.9c0.9-0.2,1.7-0.5,2.5-0.9c0.1-0.1,0.2-0.1,0.3-0.1
			c0.1-0.1,0.2-0.3,0.1-0.5c-0.3-6.9,1.8-13.7,7-18.4c5-4.5,11.7-6.8,18.2-8.1c13.7-2.7,28.1-1.7,41.8,0.3c3.2,0.5,6.4,1,9.6,1.7
			c0.2,0,0.3-0.1,0.3-0.2c0,0,0,0,0,0c0.9-2.2,3.1-4.7,4.9-6.5c6.3-6.3,14.4-10.8,22.5-14.4c6.4-3,13.1-5.4,20-7
			c6.2-1.3,12.6-1.6,18.9-1c11,1,21.7,4.7,31.5,9.8c3.8,1.9,7.4,4.1,10.9,6.5c0.6,0.4,1.2,0.8,1.8,1.3l1.1,0.8l0.6,0.5l0.3,0.2
			c0.3,0.3,0.9,0.7,1.3,0.5c5.9-2.6,12.1-4.7,18.4-6.1c13.6-3.3,27.9-4.4,41.7-2.1c17,2.8,34.6,11.2,45.2,25.1
			c7.5,9.9,9.5,22.4,6.5,34.3c-1.6,6.7-4.6,13.1-8.8,18.6c-0.8,1,1.5,3.2,2.2,3.7c7,4.7,14.2,10.5,17.9,18.3
			c2.4,5.1,3,10.8,1.8,16.3c-2,9.1-8.3,16.8-15.2,22.7c-1.7,1.5-3.4,2.8-5.2,4c-0.1,0.1-0.2,0.3-0.1,0.5c3.2,14,1.5,28.5-6.4,40.7
			c-5.5,8.3-12.8,15.2-21.4,20.3c-2.1,1.3-4.4,2.4-6.6,3.5c-1.2,0.6-1.3,2-1.9,3.2c-1.8,4.1-3.9,8-6.4,11.7
			c-7.2,10.7-17.9,18.7-30.2,22.7c-4.1,1.3-8.3,2.1-12.5,2.5c-1.4,0.1-2.8,0.2-4.1,0.2c-0.8-0.1-1.5-0.1-2.3-0.1c-0.1,0-0.2,0-0.3,0
			c-0.2,0-0.3,0.1-0.3,0.2c0,0,0,0,0,0l-3.4,31.2l-0.9,8.7c-0.2,1.5-0.7,3.4-0.5,4.9c0,0.1,0,0.3,0,0.4s0.5-0.2,0.2-0.2
			c-0.7,0-1.4,0.1-2.1,0.2l-8.7,0.9l-17,1.7l3,3.7c0.6-18.9-7.1-37.2-16.8-53.1c-3.9-6.3-8.1-12.4-12.8-18.1
			c-2.1-2.7-4.4-5.3-6.8-7.8c-1.2-1.2-1.6-1-3-0.7c-2.1,0.5-4.1,0.9-6.2,1.4c-7.5,1.6-15.1,2.9-22.7,3.9c-9.6,1.4-19.2,2.1-28.9,2.1
			c-8.6-0.1-17.6-0.6-25.1-5.1c-8.2-4.9-12.6-13.4-14.2-22.6c0-0.2-0.1-0.4-0.1-0.6c-0.3-1.1-1-2.1-1.9-2.8
			C151,312.6,149.9,311.8,150,312.9z"></path></g><path class="st1" d="M293.9,268.4c18.3,1.1,36.5-2.9,52.5-11.7c7.2-3.9,14.5-9,18.5-16.3c3.9-6.9,3.8-15.9-2.2-21.6
		c-3.1-3-7.6-4.9-11.9-3.7c-3.7,1-7,3.9-7.4,7.9c-0.1,1.4,1.2,2.5,2.4,2.9c3.9,1.2,8.1,0.6,11.5-1.6c3.4-2.2,6.1-5.3,7.9-8.9
		c3.9-7,6.6-16.6-0.2-22.8c-3.1-2.9-7.4-4.5-11.5-2.8c-1.1,0.4-0.2,2.1,0.3,2.6c0.8,0.9,2,1.3,3.1,0.9c2.8-1.1,5.7,0.7,7,3.2
		c1.9,3.7,0.7,8.5-0.8,12.1c-2.8,6.6-9.2,16.2-17.7,13.5l2.4,2.9c0.4-2.8,2.4-5.2,5.1-6c2.6-1,5.6-0.2,7.5,1.9
		c4.8,5.2,2.9,13.2-0.7,18.4c-4.2,6.2-10.6,10.5-17.1,14c-15.4,8.3-32.8,12.2-50.3,11.1c-0.7-0.1-1.3,0.4-1.4,1.1
		c0,0.3,0,0.5,0.1,0.7C291.5,267.5,292.6,268.3,293.9,268.4L293.9,268.4z" fill="#FFFFFF"></path><path class="st1" d="M312.1,321.8c-2.1,7.1,3.3,13.3,9.2,16.5c5.8,3.1,12.5,4.2,19,3c5-0.9,13.9-3.9,13.6-10.4
		c-0.2-3-2.7-6.6-6-6.4c-3.8,0.2-2.4,5.9-1.2,7.9c2,3.3,5.4,5.1,9.1,5.7c1.8,0.3,3.7,0.5,5.5,0.5c1.9,0.2,3.8-0.2,5.5-1.2
		c0.8-0.6,1-1.8,0.4-2.6c0-0.1-0.1-0.1-0.1-0.2c-0.5-0.7-2.1-1.9-3.1-1.2c-1.9,1.3-4.2,0.9-6.4,0.8s-4.5-0.4-6.2-1.6
		c-0.7-0.5-1.2-1.2-1.5-2c-0.1-0.3-0.2-0.7-0.2-1c0-0.2,0-0.4,0-0.6c0-0.7,0.2-0.1-0.3-0.2c0.2,0-0.4-0.1-0.3-0.2
		c0.5-0.7,0.2,0.5,0.1,0.2c0.1,0.2,0.1,0.5,0.2,0.7c0.1,0.9-0.2,1.7-0.8,2.4c-1.3,1.8-3.5,2.8-5.4,3.6c-6.4,2.7-13.6,2.6-19.9-0.2
		c-4.1-1.9-8.7-5.7-7.2-10.8c0.2-1.2-0.3-2.4-1.4-3C314.2,320.9,312.5,320.6,312.1,321.8L312.1,321.8z" fill="#FFFFFF"></path><path class="st1" d="M165.4,294.5c-0.4-8,1.7-16.6,7.4-22.5c4.9-5,12.7-7.1,19.4-4.6c1.5,0.6,2.9,1.4,4.1,2.4c0.5,0.5,1,1,1.5,1.6
		c0.4,0.5,0.5,0.5,0.5,1.2c0,0.1-0.1,0.5-0.1,0.5c0.1,0.3,0-0.2,0.2,0c0.3,0.3,0.6,0.7,0.9,1.1c0,0,0.2-0.8,0.2-0.9
		c0.8-1.8,1.9-3.5,3.3-5c5.3-6.4,13-10.3,21.3-10.8c9.5-0.3,18.6,4.2,24.1,12c0.5,0.9,1.7,1.2,2.6,0.6c0.1,0,0.2-0.1,0.2-0.2
		c0.9-0.9,0.2-2.4-0.4-3.3c-6.2-8.6-16.1-13.7-26.7-13.9c-10.2,0.1-19.7,5.1-25.6,13.4c-1.3,1.9-2.8,4-2.9,6.4s1.6,5.6,4.5,5.2
		c2.2-0.4,2.6-3.1,2.4-4.9c-0.3-2.4-1.8-4.4-3.5-6.1c-6.3-6.2-16.8-6.7-24.2-2.4c-10,5.8-13.5,18.4-12.9,29.2c0.1,1.3,1,2.4,2.2,2.7
		C165,296.7,165.5,295.6,165.4,294.5L165.4,294.5z" fill="#FFFFFF"></path><path class="st1" d="M116,167.2c-3.1,3.8-3.7,9.2-1.4,13.6c2.5,4.4,7.3,6.9,12.3,6.4c1.2,0,2.3-0.9,2.3-2.2s-0.9-2.3-2.2-2.3
		c-0.2,0-0.4,0-0.6,0.1h-0.7c-0.7,0,0.4,0.1-0.3,0c-0.4,0-0.9-0.1-1.3-0.2c-0.1,0-0.5-0.1-0.2,0l-0.7-0.2c-0.4-0.2-0.8-0.3-1.2-0.5
		c-0.2-0.1-0.1-0.1,0,0l-0.2-0.1c-0.2-0.1-0.4-0.3-0.6-0.4s-0.4-0.3-0.6-0.4s-0.5-0.5-0.3-0.2c-0.3-0.3-0.5-0.6-0.8-0.9
		c-0.2-0.3-0.4-0.6-0.6-0.9c-0.2-0.4-0.4-0.8-0.6-1.2c-0.1-0.2-0.1-0.4-0.2-0.6c-0.2-0.7,0,0.3-0.1-0.4c-0.1-0.4-0.1-0.9-0.2-1.3
		c0-0.3,0-0.7,0-1c0-0.5,0.1-1,0.2-1.4c0-0.2,0.1-0.4,0.2-0.6s0.2-0.5,0.1-0.2c0.2-0.5,0.4-0.9,0.6-1.3c0.2-0.3,0.4-0.6,0.6-0.9
		c0.8-0.9,0.7-2.2-0.2-3c-0.1,0-0.1-0.1-0.2-0.1C118.4,166.1,116.9,166.2,116,167.2L116,167.2z" fill="#FFFFFF"></path><path class="st2" d="M194.7,252.9c-5.1,1.3-10.3,2.2-15.5,2.8c-10.3,1.3-20.7,1.7-30.7-0.5c-1.3-0.3-2.6-0.6-3.8-1l-1.8-0.6
		c-0.6-0.2,0.2,0.1-0.3-0.1l-1.1-0.4c-1.1-0.5-2.3-1-3.4-1.6l-0.4-0.2c-0.4-0.2,0.6,0.4,0.2,0.1l-0.8-0.5c-0.5-0.3-1-0.7-1.6-1
		c-0.1-0.1-0.2-0.2-0.4-0.3c-0.4-0.3,0.7,0.5,0.3,0.2c-0.2-0.2-0.5-0.4-0.7-0.6l-0.6-0.5c-0.9-0.8,0.6,0.6-0.1-0.1
		c-0.4-0.4-0.8-0.8-1.2-1.3s0.3,0.3,0.3,0.3c-0.1-0.1-0.2-0.2-0.3-0.4c-0.2-0.3-0.4-0.6-0.7-0.8l-0.3-0.4c-0.3-0.4,0.5,0.7,0.2,0.3
		c-0.1-0.2-0.3-0.5-0.5-0.7s-0.3-0.6-0.5-0.8l-0.2-0.4c-0.3-0.6,0.2,0.4,0,0.1c-0.3-0.7-0.6-1.3-0.9-2c-0.2-0.4-0.3-0.8-0.4-1.1
		l-0.2-0.6c-0.2-0.4,0,0-0.1-0.3c-1.8-5.1-1.4-10.7,1.1-15.5c2.7-4.8,6.9-8.6,12-10.8c12.9-6,28.6-4,41.1,1.9
		c1.9,0.9,3.7,1.9,5.3,2.8c0.9,0.5,3,1.4,2.7-0.4s-2.2-3.8-3.7-4.7c-13.7-8.2-30.9-12.7-46.6-7.7c-5.7,1.8-11.2,4.9-15,9.6
		c-3.6,4.6-5.2,10.4-4.4,16.2c1.6,13.3,12.4,23.8,24.6,28.1c10.5,3.7,22.2,3.9,33.2,2.9c4.4-0.4,8.8-1,13.2-1.8
		c2.3-0.4,4.6-0.8,6.8-1.5l0.3-0.1C202.1,258.9,197,252.3,194.7,252.9L194.7,252.9z" fill="#222"></path><path class="st2" d="M172.3,193.8c0,0,5.4,0.9,4.1,6s-7.7,3.5-7.9-1.2S172.3,193.8,172.3,193.8z" fill="#222"></path><path class="st2" d="M207.6,191c0,0,5.4,0.9,4.1,6s-7.6,3.5-7.9-1.2S207.6,191,207.6,191z" fill="#222"></path><path class="st2" d="M311,99.6c0.4-4,1.6-8,3.5-11.6c0.5-1-0.4-1.5-1.3-1.5s-2.7,0.3-3.2,1.3c-2,3.8-3.3,8-3.8,12.3
		c-0.1,1.1,1.3,1.2,2.1,1.2c0.6,0,1.3-0.2,1.8-0.6C310.5,100.5,311,100.1,311,99.6L311,99.6z" fill="#222"></path><path class="st2" d="M322.2,100.9l12.9-15.5c0.5-0.5-1.6-0.6-1.8-0.6c-0.6,0-1.3,0.1-1.9,0.2c-0.4,0-0.8,0.2-1.1,0.4l-12.9,15.5
		c-0.5,0.5,1.6,0.6,1.8,0.6c0.6,0,1.3-0.1,1.9-0.2C321.4,101.2,322,101.2,322.2,100.9z" fill="#222"></path><path class="st2" d="M229.7,270.8c0,0.3,0.1,0.6,0.1,0.9c0,0.4,0-0.3,0,0s0,0.2-0.1,0.4s-0.1,0.8-0.2,0.9l0.1-0.2l-0.1,0.2
		l-0.1,0.3c-0.3,0.5-0.6,1-0.9,1.4c0.3-0.4,0,0-0.1,0.1l-0.3,0.3c-0.2,0.2-0.4,0.4-0.6,0.6c-0.2,0.2-0.5,0.4-0.7,0.5l-0.4,0.2
		l-0.2,0.1c0.2-0.1,0.2-0.1,0.1,0c-0.6,0.3-1.1,0.5-1.7,0.8c-1.2,0.5-2.4,0.8-3.6,1.2s-1.1,1.9-0.6,2.8c0.5,1.1,1.8,1.8,3,1.5
		c2.7-0.8,5.5-1.7,7.7-3.5c2.2-1.8,3.4-4.6,3.1-7.5c-0.1-1.3-1-2.3-2.3-2.7c-0.8-0.3-1.6,0.1-1.9,0.9
		C229.7,270.4,229.7,270.6,229.7,270.8L229.7,270.8z" fill="#222"></path></g></svg>