<svg transform="scale(1)" version="1.1" id="pJSd9RojPx" xmlns="http://www.w3.org/2000/svg" xmlns:xlink="http://www.w3.org/1999/xlink" x="0px" y="0px" viewBox="0 0 500 500" xml:space="preserve" class="pbimage_pbimage__wrapper__image__0LEis false"><title>Quality Check</title><style type="text/css"> .st0{fill:#333;} .st1{fill:#FFFFFF;} .st2{fill:none;} .st3{fill:LIGHTBLUE;}
 .st3{fill:LIGHTBLUE;}
 .st1{fill:#FFFFFF;}
 .st0{fill:#333;}</style><g id="character"><path class="st0" d="M313.3,191.6c0,0,72.4,101.3,108.4,104.3s59.6,33.3,31.8,79.4c-22,36.5-80.5,13.5-80.5,13.5
		s-78.7-182.9-72.6-190.4S313.3,191.6,313.3,191.6z" fill="#333"></path><path class="st0" d="M311.5,190.5c2.5,3.5,5,6.9,7.6,10.3c6.3,8.4,12.8,16.6,19.5,24.7c8.5,10.3,17.2,20.4,26.5,30.1
		c9,9.7,18.7,18.6,29,26.9c4.5,3.5,9.2,6.8,14.2,9.6c3.8,2.3,8,3.9,12.3,5c2.6,0.6,5.4,0.6,8.1,1.1c3.5,0.6,7,1.4,10.4,2.6
		c3.1,1.1,6.1,2.5,8.9,4.2c0.7,0.4,1,0.6,1.6,1.1c0,0,0.4,0.2,0.6,0.5s0.3,0.3,0.7,0.6c1.1,0.9,2.1,1.8,3,2.8
		c10,10.8,11.5,26,8.1,39.8c-1.1,4.5-2.7,8.9-4.6,13.1c-2,4.6-4.4,9-7.2,13.1c-3.9,5.6-9.1,10.1-15.2,13.1
		c-11.5,5.8-25.1,6.2-37.7,4.6c-5.3-0.7-10.5-1.7-15.6-3c-1.9-0.5-3.8-1-5.6-1.6c-1.2-0.4-2.6-0.9-3.6-1.2l-1.3-0.5l3.6,2.8
		c-0.8-1.8-1.5-3.6-2.3-5.4c-2.1-4.9-4.1-9.7-6.2-14.6c-3-7.2-6.1-14.3-9.1-21.5c-3.6-8.7-7.3-17.4-10.9-26.1
		c-3.9-9.4-7.7-18.9-11.6-28.4s-7.6-18.9-11.2-28.3c-3.4-8.6-6.7-17.3-9.9-26c-2.6-7-5.1-14.1-7.5-21.3c-1.6-4.7-2.9-9.4-4-14.3
		c-0.3-1.2-0.4-2.5-0.3-3.7c0-0.4,0.2-0.8,0.5-1.1c2.2-2.8,5.2-4.9,8.6-6c1.3-0.4,2.7-0.6,4.1-0.5c0.4,0-1-1.3-1.1-1.4
		c-0.6-0.5-1.7-1.6-2.6-1.7c-1.6-0.1-3.3,0.2-4.8,0.7c-1.7,0.6-3.3,1.4-4.7,2.5c-1.4,1-2.7,2.2-3.7,3.6c-0.3,1-0.4,2.1-0.1,3.1
		c0.6,5,2.3,10,3.9,14.8c2.5,7.9,5.4,15.8,8.2,23.6c3.6,9.8,7.4,19.5,11.2,29.2c4.2,10.6,8.4,21.1,12.7,31.6
		c4.2,10.3,8.4,20.6,12.7,30.9c3.8,9,7.5,18,11.3,27c2.8,6.7,5.6,13.3,8.5,20c1.4,3.2,2.8,6.5,4.2,9.7c0.1,0.2,0.1,0.3,0.2,0.5
		c0.9,1.3,2.2,2.2,3.6,2.8l0.5,0.2c2.4,0.9,4.7,1.6,7.1,2.3c9.6,2.9,19.6,4.5,29.6,4.7c11.8,0.1,24.2-2.2,33.7-9.5
		c6-4.6,9.9-10.7,13.3-17.3c4-7.5,6.8-15.6,8.2-24c1-6.6,0.6-13.3-1.2-19.7c-1.8-5.7-4.8-11-9-15.4c-9.1-9.8-21.8-15.5-35-17
		c-2.1-0.2-4.1-0.5-6.1-0.9c-1.8-0.5-3.6-1.1-5.3-1.9c-1.9-0.8-3.8-1.8-5.6-2.9c-1.9-1.1-3.8-2.3-5.5-3.5l-1.5-1.1l-0.4-0.3
		l-0.8-0.6l-1.6-1.2l-0.8-0.6l0,0l-0.5-0.4c-2.2-1.8-4.2-3.4-6.2-5.2c-4.5-3.9-8.7-8-12.9-12.2c-8.8-8.8-17.1-18-25.1-27.5
		c-7.1-8.3-13.9-16.8-20.6-25.4c-4.1-5.3-8.1-10.6-12.1-16c-0.5-0.7-1.1-1.5-1.6-2.2c-0.7-0.9-1.6-1.6-2.7-2.2
		C312.2,190.5,310.9,189.7,311.5,190.5z" fill="#333"></path><path class="st1" d="M306.4,206.9l66.5,185.7L216.2,385c0,0-3-150.8,32.9-178.5S306.4,206.9,306.4,206.9z" fill="#FFFFFF"></path><path class="st1" d="M455.3,310.4c0,0,1.7-78,1.6-93.2s13.1-27.4,9.7-38.5s-28.2-2.2-33.3,28.4c0,0-13-20.7-28.4-15.3
		s-7.8,18.8-7.8,18.8s-14.4,5.4-9,22.3c0,0-9.4,5.3-7.5,18.8s21.8,12.6,21.8,12.6s-2.4,8.1,4.7,12.9c8.5,5.8,12,3.6,12,3.6l-8,30.5
		C411.1,311.2,455.1,323.1,455.3,310.4z" fill="#FFFFFF"></path><path class="st0" d="M457.4,311.5c0.2-7.6,0.3-15.1,0.5-22.7c0.3-14.5,0.6-29,0.8-43.5c0.1-6.2,0.2-12.3,0.3-18.5
		c0.1-5.6-0.3-11.2,1.2-16.6c1.3-4.7,3.4-9.1,5.4-13.5c1.7-3.8,3.4-7.8,3.7-12.1c0.3-2.9-0.6-5.7-2.4-7.9c-2-2.1-4.6-3.4-7.4-3.8
		c-5.2-0.7-10.4,2.2-14.1,5.4c-6.2,5.2-10.3,12.6-12.6,20.3c-0.7,2.4-1.3,4.8-1.7,7.3l4.2,2.1c-4.3-6.9-10.3-12.4-17.6-16.1
		c-5.4-2.6-11.2-3.2-16.8-0.7c-4.5,2-7.8,5.6-8,10.7c-0.1,2.8,0.6,5.5,2,7.9l0.1-0.6c-5.5,2.2-9.4,7.1-10.2,12.9
		c-0.4,3.3,0,6.6,1,9.7l0.2-0.3c-6.4,3.6-8.6,11.9-7.7,18.7c1.2,9.1,10.8,13.7,18.9,15c2.2,0.4,4.5,0.5,6.7,0.5l-3.8-2.7
		c-0.9,3.5-0.3,7.2,1.6,10.2c2.1,3.1,5.4,5.2,8.7,6.9c2.4,1.4,5,2.2,7.7,2.5c1,0.1,1.9,0,2.8-0.4l-4.1-2.7l-7,26.7l-1,3.8
		c-0.3,1.2,2.6,2.4,3.4,2.6c5.1,1.4,10.2,2.5,15.4,3.4c4.3,0.8,8.6,1.4,13,1.7c3.7,0.4,7.5,0.2,11.2-0.6
		C454.7,316.2,457.3,314.6,457.4,311.5c0-1.2-4.3-3.2-4.3-2.2c-0.1,2.5-2.2,4-4.4,4.6c-3.4,0.9-6.9,1.1-10.4,0.8
		c-7.8-0.5-15.6-1.7-23.2-3.6c-1.8-0.4-3.6-0.8-5.3-1.3l3.4,2.6l7-26.7l1-3.8c0.3-1-3.2-3.2-4.1-2.7c-0.7,0.3-1.5,0.5-2.3,0.4
		c-2.7-0.4-5.2-1.4-7.2-3.1c-3.1-2.4-4.1-7.4-3.1-11.1c0.3-1.1-2.9-2.8-3.8-2.7c-1.6,0.1-3.2,0-4.8-0.2c-1.4-0.1-2.8-0.4-4.2-0.7
		c-1.5-0.3-2.9-0.9-4.3-1.6c0.5,0.3-0.8-0.5-0.5-0.3s-0.3-0.2-0.3-0.2c-0.6-0.5,0.3,0.3-0.3-0.2c-0.6-0.5-1.1-1.1-1.6-1.7
		c-1.1-1.5-1.8-3.3-2-5.1c-0.8-4.8,0.1-9.7,2.7-13.8c1.2-1.9,2.8-3.5,4.6-4.7c0.1,0,0.2-0.1,0.2-0.3c0,0,0,0,0-0.1
		c-1.5-4.9-1.8-10.1,0.7-14.7c1.5-2.7,3.7-4.9,6.4-6.4c0.5-0.3,1.1-0.6,1.7-0.8c0.3-0.1,0.2-0.4,0.1-0.6c-0.3-0.5-0.5-0.9-0.6-1.4
		c-0.5-1.3-0.8-2.6-1-4c-0.5-3.9,1.2-7.8,4.3-10.1c4.2-3.3,9.8-4.3,14.9-2.7c1.9,0.6,3.6,1.6,5.2,2.9c1.6,1.2,3.1,2.6,4.5,4.1
		c1.8,1.9,3.5,4,4.9,6.2c0.6,0.8,1.4,1.4,2.2,1.7c0.2,0.1,1.8,0.9,1.9,0.4c1.5-8.5,4.7-16.9,10.3-23.6c3.6-4.2,8.5-8.2,14.1-9.1
		c1-0.2,2-0.2,2.9-0.1c0.4,0.1,0,0,0.4,0.1c0.1,0,0.9,0.2,0.3,0.1c0.4,0.1,0.3,0.1,0.1,0c0.2,0.1,0.5,0.3-0.2-0.1
		c0.2,0.1,0.5,0.4-0.1-0.1h0.1c-0.4-0.3,0.1,0.1,0.1,0.1s-0.3-0.3-0.1-0.1s0.2,0.2,0.3,0.3c-0.2-0.3,0.1,0.1,0.1,0.2
		c0.1,0.2,0.3,0.5,0.4,0.7c0.6,1.4,0.9,2.9,0.9,4.4c0.1,4.1-1.6,8-3.2,11.7c-2,4.2-3.8,8.5-5.4,12.9c-1.2,3.7-1.8,7.6-1.7,11.5
		c0,1.9,0,3.9,0,5.9c-0.1,5.7-0.1,11.4-0.2,17.2c-0.2,14.2-0.5,28.4-0.8,42.6l-0.4,17.2c-0.1,2.9-0.3,5.9-0.2,8.7c0,0.1,0,0.3,0,0.4
		C453.1,310.5,457.4,312.4,457.4,311.5z" fill="#333"></path><path class="st0" d="M443.1,215.1l-7.3-10.1l-1-1.5c-0.6-0.9-2.2-0.1-2.8,0.3s-2,1.6-1.3,2.5l7.3,10.2l1,1.5
		c0.6,0.9,2.2,0.1,2.8-0.3S443.7,216.1,443.1,215.1L443.1,215.1z" fill="#333"></path><path class="st0" d="M412.2,212.1c-2.3-1.7-4.9-2.8-7.7-3.3c-5.1-0.9-10,0.8-14.3,3.6c-0.6,0.4,1,1.3,1.3,1.4
		c0.6,0.3,1.2,0.6,1.8,0.7c0.3,0.1,0.9,0.3,1.2,0.1c3.6-2.3,8.1-4.2,12.2-3.7l1,0.2c0.4,0.1-0.3-0.1,0.2,0l0.5,0.1
		c0.5,0.1-0.5-0.2-0.1,0l0.4,0.1c0.4,0.2-0.6-0.3-0.1,0c0.2,0.1,0.5,0.4-0.2-0.1c0.1,0.1,0.3,0.2,0.5,0.2c-0.1,0.1-0.6-0.4-0.3-0.1
		l0.2,0.1c0.4,0.2-0.5-0.4-0.1-0.1c0.9,0.7,2.1,1.2,3.2,1.4C412.7,213.1,413,212.7,412.2,212.1L412.2,212.1z" fill="#333"></path><path class="st0" d="M401,227.5c-5.7-0.5-11.4,1.2-15.9,4.6c-2.1,1.7-3.8,3.8-5.1,6.2c-0.5,1,0.9,2.4,1.6,2.8
		c0.9,0.5,2,0.8,2.6-0.2c2-3.5,5.1-6.3,8.8-7.8c2.5-1,5.2-1.6,8-1.6h1.3c0.5,0-0.5,0,0,0c1,0.1,1.8-0.5,1.4-1.6
		C403.2,228.6,402.2,227.7,401,227.5L401,227.5z" fill="#333"></path><line class="st2" x1="398.2" y1="252.7" x2="402.3" y2="264.2"></line><path class="st0" d="M395.9,253.5l3.6,10l0.5,1.5c0.3,0.5,0.8,0.9,1.3,1c0.6,0.2,1.3,0.2,1.9-0.1c1.1-0.3,1.7-1.4,1.4-2.5
		c0-0.1,0-0.1-0.1-0.2l-3.6-10l-0.5-1.4c-0.3-0.5-0.8-0.9-1.3-1c-0.6-0.2-1.3-0.2-1.9,0.1c-1.1,0.3-1.7,1.4-1.4,2.5
		C395.8,253.4,395.9,253.5,395.9,253.5L395.9,253.5z" fill="#333"></path><path class="st0" d="M212.8,256.5c0,0-64.3,47.6-15.4-104.3c21.3-66,61-90.5,91.8-88.4s49.3,16.6,53.1,30.2
		c2.9,10.1-27.9,62.6-27.9,62.6l-59.3,39.5L212.8,256.5z" fill="#333"></path><path class="st0" d="M211.2,254.8c-2,1.4-4,2.6-6.2,3.7c-1,0.5-1.9,0.9-2.9,1.3l-0.7,0.3c-0.4,0.2,0.6-0.2,0,0l-0.5,0.2
		c-0.6,0.2-1.1,0.4-1.7,0.5c-1.1,0.3-2.2,0.6-3.3,0.7l-0.4,0c-0.5,0.1,0.7,0,0.1,0c-0.3,0-0.6,0.1-0.9,0.1c-0.6,0-1.1,0-1.7,0
		c-0.3,0-1.3-0.2-0.3,0c-0.3-0.1-0.6-0.1-0.9-0.1l-0.8-0.2l-0.4-0.1l-0.2,0c-0.5-0.1,0.2,0.1,0.3,0.1c-0.3,0.1-1.3-0.5-1.6-0.6
		c-0.1,0-0.2-0.1-0.3-0.2s0.7,0.4,0.1,0.1c-0.3-0.2-0.5-0.3-0.8-0.5s-0.5-0.4-0.7-0.5s0.5,0.5,0.1,0l-0.3-0.3
		c-0.2-0.2-0.5-0.4-0.7-0.7c-0.2-0.2-0.9-1.2-0.4-0.4c-0.4-0.6-0.8-1.2-1.2-1.8c-0.2-0.3-0.4-0.7-0.5-1l-0.3-0.5
		c-0.3-0.6,0.1,0.4-0.1-0.3c-0.7-1.8-1.3-3.6-1.6-5.5c-0.2-1.1-0.4-2.2-0.5-3.3c-0.1-0.5,0,0.4,0-0.1c0-0.1,0-0.3,0-0.4
		c0-0.3-0.1-0.6-0.1-0.9c-0.1-0.6-0.1-1.3-0.1-1.9c-0.3-6.7,0.1-13.4,1-20.1c3-23.1,9.7-45.8,16.8-68c7.3-22.8,17.9-45.2,34.4-62.7
		c11.2-11.9,25.5-21.5,41.5-24.7c3.3-0.7,6.6-1,9.9-1.1c5.3,0,10.6,0.5,15.7,1.6c10.5,2,21.3,6.1,29.3,12.9c3.1,2.6,5.7,5.7,7.7,9.1
		c0.9,1.4,1.5,2.9,2,4.5c0.1,0.2,0.1,0.4,0.1,0.6c0.1,0.4,0-0.4,0,0.2s0,0.9,0,1.4c-0.3,2.6-0.9,5.1-1.9,7.6
		c-1.2,3.5-2.7,7-4.2,10.4c-6.1,13.4-13,26.5-20.4,39.3c-0.5,0.8-0.9,1.6-1.4,2.4l0.7-0.7l-20.7,13.8L260,190.1
		c-2.1,1.4-4.3,2.8-6.4,4.2c-0.5,0.5-1,1-1.3,1.6l-2.9,4.1l-21.7,30.9C222.1,238.9,216.6,246.8,211.2,254.8c-0.2,0-0.3,0.2-0.4,0.3
		c-0.6,0.9-0.3,2.1,0.6,2.7c0,0,0.1,0.1,0.2,0.1c0.8,0.5,2.6,1,3.3,0l10.4-14.8l19.6-28l8.1-11.5l2.7-3.9c0.5-0.6,1-1.3,1.4-2
		c0.3-0.6,0,0.3-0.2,0.1c0,0,0.4-0.3,0.4-0.3l2.5-1.6l9.9-6.6l28.4-18.9c6-4,12-7.9,18-12c1.3-0.9,2-2.7,2.7-4
		c2.2-3.8,4.3-7.6,6.4-11.5c5.8-10.6,11.5-21.4,16-32.6c1.6-4.1,3.4-8.4,3.9-12.9s-2-8.7-4.4-12.1c-9.3-12.8-25.4-19.4-40.5-22.1
		c-6.8-1.3-13.7-1.7-20.5-1.2c-5.3,0.5-10.5,1.7-15.6,3.5c-11.8,4.2-22.3,11.4-31.3,20.2c-11.5,11.3-20.4,25.2-27.4,39.8
		c-4.3,9.1-7.9,18.4-10.9,28c-3.1,9.8-6,19.6-8.7,29.5c-3.7,14-7,28.2-8.4,42.7c-0.8,8.2-1.2,16.8,0.8,24.9
		c1.2,4.8,3.5,9.5,7.6,12.3c3.3,2.1,7.3,3,11.2,2.5c3.6-0.5,7.2-1.5,10.4-3.1c2.1-1,4.2-2.2,6.2-3.5l0.9-0.6
		C216.7,256.5,213,253.4,211.2,254.8z" fill="#333"></path><path class="st1" d="M339.6,189.4c21.6-19.1-0.5-84.4-0.5-84.4c-11-3-28.5-15.1-28.5-15.1c-21.5,36.7-37.8,40.5-37.8,40.5
		c-6.6-19-28.5-14.2-28.8,3.8s16.7,21.4,16.7,21.4s-12.6,43.5-11.6,50.7c0,0,27.3,22.8,47.8-1.4C297,205,324.9,202.4,339.6,189.4z" fill="#FFFFFF"></path><path class="st0" d="M340.9,191.6c6.5-5.8,8.9-14.4,9.8-22.8c1-9.8,0.1-19.7-1.4-29.4c-1.4-8.6-3.2-17-5.6-25.4
		c-0.7-2.4-1.4-4.9-2.1-7.3c-0.2-0.6-0.4-1.2-0.6-1.7l-0.1-0.3c-0.6-1.6-2-1.9-3.4-2.4c-5.3-1.9-10.5-4.4-15.3-7.3
		c-3.5-2-7-4.2-10.4-6.5l-0.6-0.4c-0.6-0.4-1.9-0.7-2.4,0.1c-6.2,10.6-13.2,20.9-22,29.5c-3.8,3.8-8.2,7.5-13.1,9.8l-1,0.4
		c-0.5,0.2,0.5-0.2,0,0l-0.3,0.1l-0.6,0.2l2.7,1.9c-2.2-6.1-6.5-11.8-13.1-13.6c-5.2-1.4-10.8,0.1-14.6,4
		c-4.7,4.6-5.7,11.8-4.6,18.1c1,6.1,4.4,11.6,9.5,15.3c2.8,2,5.9,3.4,9.2,4.2l-2.3-3.7c-3.7,12.6-7.2,25.3-9.9,38.1
		c-0.8,3.3-1.3,6.6-1.7,10c-0.2,1.1-0.2,2.3-0.1,3.4c0.2,1.2,0.8,2.2,1.8,2.9c5.2,4,11.2,6.9,17.6,8.6c5.2,1.4,10.6,1.5,15.8,0.3
		c6.5-1.7,12-5.7,16.4-10.8l-0.8,0.5c3.5-0.4,7-0.9,10.4-1.7c7.4-1.4,14.6-3.8,21.4-6.9C333.7,197,337.4,194.6,340.9,191.6
		c0.8-0.7,0.9-2.1,0.2-3c-0.5-0.7-1.9-2-2.9-1.2c-6.4,5.6-14.5,9-22.5,11.4c-5.9,1.7-11.9,3-18,3.8c-0.5,0.1-1,0.1-1.5,0.2
		c-0.3,0.1-0.6,0.2-0.8,0.4c-1.1,0.9-2,2.2-3,3.2c-3.2,3.1-7,5.3-11.3,6.6c-6.9,2-14.2,0.8-20.7-2c-3.8-1.5-7.4-3.7-10.6-6.3
		l1.3,2.1c0-0.1-0.1-0.8-0.1-0.4s0-0.3,0-0.5c0-0.6,0.1-1.2,0.1-1.8c0.2-1.6,0.4-3.1,0.7-4.7c0.7-4,1.6-8.1,2.7-12.2
		c2-8.3,4.2-16.5,6.5-24.7c0.5-1.8,1-3.6,1.5-5.4c0.4-1.6-0.6-3.2-2.2-3.6c0,0-0.1,0-0.1,0l-0.5-0.1c0.6,0.1,0.2,0.1-0.1,0L259,153
		c-0.7-0.2-1.3-0.5-2-0.8c-0.4-0.1-0.7-0.3-1.1-0.5l-0.6-0.3c0,0-0.3-0.2-0.1,0l-0.2-0.1c-0.9-0.5-1.7-1.1-2.5-1.7l-0.6-0.5
		c-0.4-0.3,0,0-0.3-0.2c-0.4-0.4-0.9-0.9-1.3-1.3l-0.5-0.6c-0.1-0.1-0.6-0.7-0.3-0.3c-0.4-0.5-0.8-1.1-1.1-1.7
		c-0.2-0.3-0.3-0.5-0.4-0.8l-0.2-0.4c0.2,0.3,0-0.1-0.1-0.1c-0.3-0.7-0.6-1.4-0.8-2.1c-1.6-4.9-1.3-11.1,1.8-15.5
		c2.5-3.6,6.6-5.6,10.9-5.3c2.4,0.2,4.7,1.1,6.5,2.7c2.2,2,3.8,4.6,4.7,7.4c0.4,1,1.5,2.2,2.7,1.9c2.6-0.8,5-2,7.2-3.6
		c6.9-4.7,12.8-11,18-17.4c4.9-6.3,9.4-13,13.5-19.9l-2.4,0.1c6.7,4.6,13.7,8.7,21,12.2c2.6,1.3,5.3,2.3,8,3.1l-1.7-1.8
		c0.7,2.2,1.4,4.3,2,6.5c0.3,1.1,0.6,2.2,0.9,3.3c0.2,0.6,0.3,1.2,0.5,1.8c0,0.2,0.1,0.3,0.1,0.5c-0.1-0.4,0-0.1,0,0
		c0.1,0.4,0.2,0.8,0.3,1.2c0.8,3,1.5,6.1,2.1,9.1c2.9,13.7,5.2,28.2,3,42.1c-1,6.2-3.3,13.1-8,17.3c-0.8,0.8-0.9,2.1-0.2,3.1
		C338.5,191.1,340,192.4,340.9,191.6z" fill="#333"></path><path class="st0" d="M281.4,155.9c-0.7,2-1.2,4.1-1.4,6.3c-0.3,3.5,0.1,7.5,3.3,9.5c2.3,1.5,5.4,1.3,8,0.8c0.8-0.2,1.8-0.7,1.6-1.7
		s-1.3-1.3-2.1-1.2c-0.6,0.1-1.3,0.2-1.9,0.3h-0.3c0.5,0,0,0-0.1,0c-0.3,0-0.6,0-0.9,0s-0.4,0-0.6-0.1c0.5,0.1-0.2-0.1-0.3-0.1
		l-0.6-0.2c0.4,0.2-0.1-0.1-0.3-0.2s-0.3-0.2-0.4-0.3c0.4,0.3,0-0.1-0.1-0.1s-0.2-0.2-0.3-0.4s-0.1-0.1-0.2-0.2c0.3,0.3,0,0.1,0,0
		c-0.2-0.3-0.3-0.6-0.5-0.9c-0.1-0.2-0.2-0.3-0.3-0.5c-0.1-0.3,0.1,0.3,0,0c0-0.1,0-0.2-0.1-0.3c-0.2-0.8-0.3-1.5-0.3-2.3
		c0-0.2,0-0.4,0-0.5s0-0.7,0-0.3c0-0.4,0-0.8,0.1-1.2c0.1-1.4,0.4-2.8,0.8-4.1c0.2-0.7,0.4-1.4,0.6-2.1c0.3-0.9-0.9-1.5-1.5-1.6
		C282.6,154.5,281.7,155,281.4,155.9L281.4,155.9z" fill="#333"></path><path class="st1" d="M324.7,138.7c0,0,6.9,6.9,19.8,13.5c24.2,12.2,24.4,22,14.9,24.6s-43-12.1-43-12.1" fill="#FFFFFF"></path><path class="st0" d="M323.1,139.8c5.9,5.9,13.5,10.4,20.9,14.2c5,2.5,10.1,5.5,14.2,9.1c0.7,0.7,1.4,1.3,2.1,2.1
		c0.5,0.5,1,1.1,1.4,1.8c0.2,0.3,0.3,0.6,0.5,0.8c0.3,0.5,0-0.1,0.2,0.4c0.1,0.3,0.2,0.6,0.3,0.9c0,0.1,0.1,0.2,0.1,0.4s0-0.4,0,0.1
		l0.1,0.8c0,0.6,0.1-0.1,0,0.3l-0.1,0.6c0,0.1-0.1,0.2-0.1,0.4c0.2-0.6,0,0-0.1,0.1s-0.2,0.4-0.3,0.5s-0.5,0.6-0.2,0.2
		c-0.4,0.4-0.8,0.7-1.3,1l-0.4,0.2c-0.4,0.2,0.3-0.1,0,0s-0.5,0.2-0.8,0.4s-0.5,0.2-0.8,0.3l-0.5,0.1c-0.1,0-0.6,0.1-0.3,0.1
		s-0.5,0.1-0.6,0.1l-0.8,0.1c-0.4,0-0.7,0-1.1,0H355c0.5,0-0.3,0-0.4,0c-7.7-0.7-14.9-3.4-22.1-6c-5.3-1.9-10.5-4-15.6-6.2
		c-1-0.4-2.5-0.2-2.8,1s0.8,2.4,1.8,2.8c4.6,2,9.2,3.8,13.9,5.6c7.7,2.9,15.8,5.8,24,6.9c3,0.4,5.9,0.4,8.7-0.8
		c2.3-1,4.4-2.8,4.8-5.4c0.5-3.2-1.2-6.2-3.1-8.6c-3.1-3.8-7.3-6.8-11.4-9.4c-3.5-2.1-7.1-3.9-10.7-5.9c-3-1.7-6-3.5-8.9-5.5
		c-1.1-0.8-2.1-1.6-3.2-2.4c-0.5-0.4-0.9-0.7-1.4-1.1c0.4,0.3,0,0-0.1-0.1l-0.5-0.4c-0.6-0.6-1.3-1.1-1.9-1.8
		c-0.8-0.8-2.3-1.4-3.3-0.6S322.3,139.1,323.1,139.8L323.1,139.8z" fill="#333"></path><path class="st0" d="M313.3,132.4c0.1-0.9,0-1.7-0.2-2.6c-0.4-1.2-1.2-2.1-2.3-2.7c-1.8-1.1-4.7-1.1-5.8,1
		c-0.2,0.4-0.3,0.8-0.3,1.2c-0.1,0.7-0.1,1.4,0,2.1c0.1,0.6,0.5,1.2,1.1,1.3c0.5,0.1,1.2-0.1,1.2-0.7c-0.1-0.5-0.1-1,0-1.6
		c0-0.2,0-0.4,0.1-0.7c0,0,0,0.2,0,0.1s0-0.1,0-0.1c0-0.1,0-0.1,0.1-0.2c0-0.1,0.1-0.2,0.1-0.4c0-0.1,0,0.1,0,0.1l0-0.1l0.1-0.2
		l0.1-0.1c-0.1,0.1,0.1-0.1,0.1-0.1l0.2-0.1c0.1,0,0.3-0.1,0.1-0.1c0.2-0.1,0.4-0.1,0.5-0.1h0.2c0.1,0,0.3,0,0.4,0h0.2l0.3,0.1
		l0.3,0.1c0,0,0.2,0.1,0,0s0,0,0.1,0l0.2,0.1l0.1,0.1c0,0-0.2-0.1-0.1-0.1l0.2,0.2l0.1,0.1c0.2,0.1,0,0,0,0c0.1,0.1,0.1,0.2,0.2,0.2
		c0,0,0.1,0.1,0.1,0.1s-0.1-0.2-0.1-0.1c0,0.1,0.1,0.1,0.1,0.2l0,0.1c0.1,0.1,0,0,0-0.1c0.1,0.2,0.1,0.4,0.1,0.5c0,0,0,0.1,0,0.1
		s0-0.2,0,0s0,0.2,0,0.3c0,0.4,0,0.8,0,1.2C311,132.9,313.2,133.8,313.3,132.4L313.3,132.4z" fill="#333"></path><path class="st0" d="M339.4,134.7c0.1-0.9,0-1.7-0.2-2.6c-0.4-1.2-1.2-2.1-2.3-2.7c-1.8-1.1-4.7-1.1-5.8,1
		c-0.2,0.4-0.3,0.8-0.3,1.2c-0.1,0.7-0.1,1.4,0,2.1c0.1,0.6,0.5,1.2,1.1,1.3c0.5,0.1,1.2-0.1,1.1-0.7c0-0.5,0-1,0-1.6
		c0-0.2,0-0.4,0.1-0.7c0,0,0,0.2,0,0.1s0-0.1,0-0.1c0-0.1,0-0.1,0-0.2c0-0.1,0.1-0.2,0.1-0.4s0,0.1,0,0.1l0.1-0.1
		c0-0.1,0.1-0.1,0.1-0.2c0,0,0.2-0.2,0.1-0.1s0.1-0.1,0.1-0.1c0.1,0,0.1-0.1,0.2-0.1c0.1,0,0.3-0.1,0.1-0.1c0.2-0.1,0.4-0.1,0.5-0.1
		h0.5c0,0,0.3,0,0.1,0s0,0,0.1,0l0.3,0.1l0.3,0.1c0,0,0.2,0.1,0,0h0.1l0.2,0.1c0,0,0.1,0.1,0.1,0.1s-0.2-0.1-0.1,0s0.2,0.1,0.2,0.2
		l0.1,0.1c0.1,0.1,0,0,0,0s0.2,0.2,0.2,0.2s0.1,0.1,0.1,0.1s-0.1-0.2-0.1-0.1s0.1,0.1,0.1,0.2c0,0,0,0.1,0,0.1c0.1,0.1,0,0,0-0.1
		s0.1,0.4,0.1,0.5s0,0.1,0,0.1s0-0.2,0,0s0,0.2,0,0.3c0,0.4,0,0.8,0,1.2C337,135.3,339.3,136.2,339.4,134.7L339.4,134.7z" fill="#333"></path><path class="st0" d="M230.4,233.3c-1.2,5.1,3,9.7,7,12.2c4.2,2.6,9.1,3.8,14,3.5c9.8-0.6,18.7-5.8,24.1-14
		c3.5-5.5,5.5-11.8,5.6-18.3l-2.9-1.4c3.5,6.1,7.2,12.2,12.8,16.5c4.8,3.6,10.9,5.6,16.8,4.1c3-0.7,5.6-2.6,7.3-5.2
		c0.5-0.9-2.5-3-3-2.3c-3.4,5.6-11.1,6.7-16.9,4.4c-6.9-2.8-10.9-10.4-14.4-16.5c-0.2-0.4-2.9-2.5-2.9-1.4
		c-0.1,9.9-4.7,19.3-12.4,25.5c-6.7,5.2-16,7.8-24.3,5.3c-4.6-1.4-9.1-5-7.9-10.3c0.2-0.9-2.8-2.9-3.1-1.9L230.4,233.3z" fill="#333"></path><path class="st0" d="M282.6,238.6c0.5,18.1,1.1,36.1,2.6,54.2c1.4,17.9,4.2,35.6,8.4,53c2.4,9.8,5.5,19.4,9.3,28.8
		c0.6,1.6,4.3,1.4,3.5-0.7c-6.5-16.6-11.1-33.8-13.8-51.4c-2.7-17.7-4.4-35.5-5.1-53.4c-0.5-10.1-0.8-20.2-1.1-30.3
		C286.2,236.9,282.5,236.6,282.6,238.6L282.6,238.6z" fill="#333"></path><path class="st0" d="M296.8,262.1c-0.2,0.3-0.2,0.6,0,0.9c0.2,0.3,0.4,0.4,0.7,0.5c0.4,0.1,0.7,0.1,1.1,0c0.2,0,0.5-0.1,0.7-0.2
		c0.5-0.2,1-0.4,1.4-0.7c0.2-0.1,0.4-0.3,0.6-0.5c0.3-0.2,0.5-0.5,0.7-0.9c0.1-0.2,0.1-0.3,0.2-0.5c0,0,0-0.1,0-0.1
		c0-0.3-0.1-0.5-0.3-0.7c-0.2-0.2-0.4-0.4-0.6-0.5c-0.4-0.2-0.7-0.4-1-0.6c-0.2-0.1-0.4-0.2-0.6-0.2c-0.3-0.1-0.5-0.1-0.8,0
		c-0.3,0-0.6,0.1-0.9,0.3c-0.3,0.1-0.6,0.3-0.9,0.5l-0.5,0.4c-0.3,0.2-0.5,0.5-0.6,0.8l-0.1,0.4c0,0.2,0.1,0.4,0.3,0.6
		c0.4,0.4,1,0.5,1.3,1l-0.2-0.2c0.1,0.1,0.2,0.2,0.2,0.4l-0.1-0.3c0,0.1,0,0.1,0,0.2l0.1-0.4l-0.1,0.1l0.2-0.4l-0.1,0.1l0.4-0.4
		l-0.1,0.1l0.5-0.4l-0.1,0.1l0.6-0.3l-0.1,0l0.6-0.2h-0.1l0.6-0.1h-0.1l0.5,0h-0.1l0.5,0h-0.1l0.4,0.1c0,0-0.1,0-0.1,0l0.2,0.2
		c0,0,0,0,0-0.1l0,0.3c0,0,0-0.1,0-0.1l-0.1,0.4l0,0c0.1-0.2,0.1-0.4,0.1-0.5c0-0.2-0.1-0.3-0.2-0.4c-0.2-0.1-0.4-0.2-0.6-0.2
		c-0.3,0-0.5,0-0.8,0l-0.6,0.1c-0.4,0.1-0.8,0.3-1.2,0.6l-0.5,0.4C297.2,261.5,296.9,261.8,296.8,262.1L296.8,262.1z" fill="#333"></path><path class="st0" d="M303.6,298.4c-0.2,0.7-0.2,1.3,0,2c0.4,1.3,0.9,2.5,1.6,3.7c0.3,0.6,0.7,1.1,1.1,1.5l0.1,0
		c0.4-0.4,0.7-0.9,0.8-1.4c0.1-0.9-0.1-1.8-0.5-2.5c-0.2-0.6-0.5-1.2-0.8-1.7c-0.1-0.2-0.3-0.5-0.4-0.7c-0.1-0.2-0.2-0.4-0.4-0.5
		c-0.1-0.1-0.3-0.4-0.3-0.1l0,0.3c0.1,0.3,0.2,0.6,0.3,0.9c0.1,0.2-0.2-0.6-0.1-0.3s-0.1-0.4-0.1-0.2c0,0.1,0,0.1,0,0.2V299
		c0.1,0.4,0,0.8-0.1,1.1V300c-0.1,0.4-0.4,0.8-0.7,1.1h0.1l-0.1-0.1l0.2,0.2l-0.1-0.1l0-0.1c-0.1-0.1,0,0,0.2,0.2v0
		c-0.1-0.1,0,0,0.2,0.4l0.2,0.4c0.2,0.3,0.4,0.7,0.5,1c-0.1-0.2,0,0,0.2,0.4c-0.1-0.2,0,0,0.1,0.4l0,0c0-0.1,0,0,0.1,0.3
		c0-0.1,0-0.2-0.1-0.3v0.3c-0.1-0.4,0-0.8,0.1-1.2v0.1l0,0c0-0.1,0-0.2,0-0.2c0-0.2-0.1-0.3-0.1-0.5c-0.2-0.6-0.4-1.1-0.7-1.6
		c-0.3-0.5-0.5-1.1-0.9-1.5l-0.2-0.3C303.9,298.5,303.7,298.4,303.6,298.4L303.6,298.4z" fill="#333"></path><path class="st0" d="M311.7,335c-0.5,1.9-0.3,3.8,0.5,5.6c0.2,0.2,0.4,0.4,0.7,0.5c0.4,0.1,0.7,0.2,1.1,0.2c0.4,0,0.9,0,1.3-0.1
		c0.4-0.1,0.7-0.2,1.1-0.4c0.6-0.4,1.1-0.9,1.3-1.5c0.2-0.5,0.3-1.1,0.2-1.6c-0.2-1.3-1-2.3-2.2-2.8c-0.6-0.2-1.2-0.3-1.8-0.2
		c-0.6,0-1.2,0.2-1.7,0.5c-0.3,0.2-0.7,0.5-0.7,0.9c0.1,0.4,0.4,0.7,0.8,0.8l0.2,0.1l-0.4-0.2c0.2,0.1,0.3,0.2,0.5,0.4l-0.3-0.3
		c0.2,0.3,0.4,0.6,0.6,0.9l-0.1-0.3c0.2,0.5,0.2,1,0.1,1.5l0.1-0.3c-0.1,0.3-0.2,0.6-0.4,0.9l0.2-0.3c-0.1,0.2-0.3,0.3-0.4,0.4
		l0.4-0.3l0,0l4.2,0.2c-0.1-0.2-0.1-0.3-0.2-0.5l0.1,0.3c-0.5-1.3-0.6-2.8-0.4-4.2l-0.1,0.3c0-0.1,0-0.2,0-0.3
		c0.1-0.2,0.1-0.3,0-0.5c0-0.2-0.2-0.3-0.3-0.4c-0.5-0.3-1-0.4-1.5-0.4c-0.6,0-1.3,0.1-1.9,0.3l-0.5,0.2
		C312,334.5,311.8,334.7,311.7,335L311.7,335z" fill="#333"></path><path class="st1" d="M48,284.4c-2.9,6.1-6.7,11.7-11.3,16.6c-7.3,7.6-3.8,16.5,5.9,13.1S61.8,292,61.8,292L48,284.4z" fill="#FFFFFF"></path><path class="st0" d="M46.4,283.3c-2,4.3-4.4,8.3-7.3,12c-3.2,4.2-10.3,9.6-7.2,15.8c1.3,2.3,3.5,4,6.2,4.6c2.7,0.5,5.5,0,7.9-1.4
		c4.8-2.6,8.4-7.1,11.4-11.5c2.2-3.1,4.2-6.4,6-9.8c0.3-0.6-1.4-1.6-1.7-1.7l-13.8-7.6c-0.3-0.1-1.3-0.8-1.4-0.2s1.4,1.4,1.7,1.6
		l13.9,7.6l-1.7-1.7c-1.2,2.4-2.6,4.7-4.1,7c-2.7,4.4-5.9,8.3-9.7,11.8c-1.8,1.6-3.9,2.8-6.2,3.5c-1.3,0.4-2.7,0.5-4.1,0.4
		c-0.3-0.1-0.6-0.1-0.9-0.2c0.3,0.1,0.2,0.3,0,0s-0.3-0.4-0.4-0.6c-1.1-2.1-0.5-4.6,0.4-6.6c1.5-3.1,4.2-5.4,6.3-8
		c3.1-3.9,5.7-8.1,7.8-12.6C49.9,284.6,46.7,282.8,46.4,283.3z" fill="#333"></path><path class="st3" d="M84.2,436c0,0-50-238.2-47.2-241.1s169.6-51.6,176.8-44.8s60.1,235.9,56.4,244.1S84.6,440.4,84.2,436z" fill="LIGHTBLUE"></path><path class="st3" d="M86,436l-1-4.7c-0.9-4.3-1.8-8.7-2.7-13l-4.1-19.7c-1.7-8.2-3.4-16.5-5.1-24.8c-1.9-9.3-3.8-18.7-5.8-28
		c-2-9.9-4-19.9-6.1-29.8c-2-9.9-4-19.9-6-29.8c-1.9-9.3-3.7-18.7-5.6-28.1c-1.6-8.3-3.2-16.6-4.8-24.9c-1.2-6.6-2.5-13.2-3.6-19.9
		c-0.8-4.4-1.6-8.9-2.2-13.4c-0.2-1.2-0.3-2.4-0.4-3.7c0-0.3,0-0.7,0-1c0-0.1,0-0.2,0-0.3c0-0.1-0.1,0.1,0,0s-0.2,0.1,0.1-0.1
		l0.5-0.2c0.5-0.2,1.1-0.4,1.6-0.6c1.8-0.7,3.6-1.2,5.3-1.8c5.8-1.9,12-3.8,18-5.6c8.4-2.5,16.8-5,25.2-7.4c9.7-2.8,19.3-5.5,29-8.2
		c10-2.7,20-5.4,30-8c9.2-2.4,18.4-4.7,27.7-6.9c7.3-1.7,14.7-3.4,22-4.6c2.7-0.5,5.4-0.9,8.1-1.2l0.8-0.1l0.7-0.1h0.6l0.8-0.1h1.3
		c-0.7,0,0.4,0,0.7,0c-0.8,0,0.9,0,0.1,0c0.1,0,0.2,0,0.3,0.1l0,0c-0.3-0.2,0.3,0.2,0.1,0c0.1,0.1,0.2,0.2,0.3,0.3
		c0.5,0.8,0.9,1.6,1.2,2.5c1.5,3.8,2.7,7.7,3.9,11.6c1.9,6.3,3.6,12.6,5.3,18.9c2.2,8.1,4.3,16.3,6.3,24.4
		c2.4,9.3,4.7,18.7,6.9,28.1c2.5,10.1,5,20.1,7.3,30.3s4.7,20.3,7,30.5c2.2,9.7,4.3,19.5,6.4,29.2c1.9,8.7,3.7,17.4,5.4,26.1
		c1.4,7,2.8,14.1,4,21.1c0.9,4.9,1.7,9.8,2.3,14.7c0.2,1.4,0.3,2.9,0.4,4.3c0,0.4,0,0.9,0,1.3c0,0.2-0.1,0.4-0.2,0.7
		c-0.6,0.7-1.5,1.3-2.4,1.6c-1.7,0.8-3.5,1.5-5.3,2.1c-5.8,2-11.7,3.7-17.7,5.3c-8.2,2.2-16.5,4.3-24.8,6.3
		c-9.6,2.3-19.2,4.6-28.8,6.7c-10,2.3-20,4.4-30.1,6.5c-9.5,2-19,3.9-28.6,5.8c-7.9,1.5-15.9,3-23.8,4.4c-5.6,1-11.2,1.9-16.8,2.6
		l-1.4,0.1l-0.6,0.1c-0.6,0.1,0.2,0-0.2,0l-2,0.1c-0.5,0,0.5,0,0,0c-0.1,0-0.3,0-0.3,0c-0.2,0.2,0.4,0,0.2,0s0.1,0,0.2,0
		c-0.2,0,0.3,0.1,0.3,0.1C86,435.9,86,436,86,436c-0.1-0.9-3.8-0.7-3.7-0.1c0.1,1,2.6,0.9,3.2,0.9c1.7,0,3.4-0.1,5.1-0.3
		c5.4-0.6,10.7-1.5,16.1-2.4c8-1.4,16-2.9,23.9-4.4c9.5-1.8,19-3.8,28.5-5.8c10.1-2.1,20.3-4.3,30.4-6.6c9.8-2.2,19.6-4.4,29.4-6.8
		c8.5-2,16.9-4.1,25.4-6.4c6.2-1.7,12.5-3.4,18.6-5.5c1.9-0.7,3.9-1.4,5.8-2.2c1.1-0.4,2.2-1,3.1-1.8c1.2-1.3,0.4-4.4,0.3-5.9
		c-0.5-4.8-1.3-9.5-2.2-14.2c-1.2-7-2.6-14.1-4-21.1c-1.7-8.7-3.6-17.4-5.4-26.1c-2.1-9.8-4.2-19.6-6.4-29.4
		c-2.3-10.3-4.6-20.6-7-30.9s-4.8-20.5-7.2-30.6c-2.3-9.5-4.6-19-7-28.5c-2.1-8.2-4.2-16.4-6.4-24.6c-1.7-6.4-3.4-12.7-5.3-19
		c-1.1-3.9-2.4-7.8-3.9-11.6c-0.3-0.9-0.7-1.8-1.3-2.6c-0.8-0.9-2.3-1-3.4-1.2c-4.6-0.5-9.5,0.4-14,1.2c-7.4,1.2-14.7,2.8-22,4.5
		c-9.2,2.1-18.4,4.4-27.6,6.8c-10.1,2.6-20.2,5.3-30.2,8c-9.9,2.7-19.8,5.5-29.6,8.3c-8.6,2.5-17.2,5-25.8,7.6
		c-6.3,1.9-12.5,3.8-18.8,5.9c-2,0.7-4,1.3-6,2c-1,0.3-1.9,0.7-2.8,1.2c-1.2,0.8-0.4,3.5-0.2,4.7c0.5,4.3,1.3,8.6,2,12.9
		c1.2,6.6,2.4,13.2,3.6,19.8c1.6,8.3,3.2,16.6,4.8,24.9c1.9,9.5,3.8,19,5.7,28.4c2,10,4,20,6.1,30.1s4.1,20.1,6.1,30.1
		c1.9,9.5,3.9,18.9,5.8,28.4c1.7,8.3,3.4,16.7,5.2,25c1.4,6.6,2.8,13.2,4.1,19.9c0.9,4.3,1.8,8.7,2.7,13c0.3,1.5,0.6,3,0.9,4.5
		C82.5,436.9,86.1,436.5,86,436z" fill="LIGHTBLUE"></path><path class="st1" d="M50.3,204.2L213.1,162c0,0,39.9,187.5,24.5,232.8c0,0-146.4,29.9-163.5,27.1C74.2,421.9,74.8,256.6,50.3,204.2
		z" fill="#FFFFFF"></path><path class="st0" d="M51.3,204.9l16.3-4.2l38.8-10l47.2-12.2l40.5-10.5l13.4-3.5c2.1-0.5,4.3-1,6.4-1.6l0.3-0.1l-2.9-0.6
		c0.4,1.7,0.7,3.4,1.1,5.1c1,4.6,1.9,9.3,2.8,13.9c1.4,7,2.7,14,4,21c1.6,8.7,3.2,17.4,4.7,26.1c1.7,9.8,3.3,19.7,4.9,29.5
		c1.6,10.3,3.1,20.7,4.5,31c1.3,10.2,2.6,20.4,3.6,30.6c0.9,9.5,1.7,19,2.1,28.6c0.4,8.2,0.6,16.4,0.2,24.6
		c-0.1,6.3-0.9,12.6-2.3,18.7c-0.3,1.2-0.6,2.4-1,3.5l1.3-0.7c-4.9,1-9.7,2-14.6,2.9c-11.9,2.4-23.8,4.7-35.7,7
		c-14.9,2.8-29.7,5.6-44.6,8.2c-13.7,2.4-27.4,4.7-41.1,6.7c-2.8,0.4-5.6,0.8-8.4,1.1c-2.6,0.3-4.3,0.5-6.9,0.8
		c-1.9,0.2-3.8,0.3-5.8,0.4c-0.8,0-1.6,0.1-2.4,0.1h-0.6h-0.9l-0.8,0H75c-0.4,0,0.4,0.1,0,0l1,0.7c0-5.6,0-11.3-0.1-16.9
		c-0.2-14.1-0.6-28.1-1.1-42.2c-0.7-18.5-1.8-37-3.3-55.4c-1.5-18.6-3.5-37.2-6.6-55.6c-2.5-14.8-5.4-30-11.1-44
		c-0.5-1.3-1.1-2.6-1.7-3.9c-0.5-1.1-4.2-0.6-3.6,0.6c6.1,13.1,9.1,27.6,11.7,41.7c3.3,18.1,5.4,36.5,7,54.9
		c1.7,18.6,2.8,37.2,3.6,55.8c0.7,14.8,1.1,29.5,1.3,44.3c0.1,4.7,0.1,9.3,0.2,14c0,2.1-0.2,4.4,0,6.5c0,0.1,0,0.2,0,0.3
		c0,0.4,0.6,0.6,1,0.7c3.6,0.4,7.3,0.4,10.9-0.1c6-0.5,11.9-1.3,17.9-2.1c16-2.3,32-5,48-7.9c16.7-3,33.3-6.1,50-9.4
		c11.2-2.2,22.3-4.4,33.4-6.6l3.6-0.7c0.6-0.1,1.8-0.2,2.2-0.7c0.7-0.7,0.8-2.3,1.1-3.2c0.3-1.2,0.6-2.5,0.8-3.7
		c0.5-2.7,0.9-5.4,1.1-8.1c1.4-14.5,0.7-29.3-0.3-43.8c-1.3-18.1-3.4-36.1-5.9-54.1s-5.4-36-8.4-53.9c-2.5-14.4-5.2-28.9-8-43.3
		c-1.4-7.4-2.9-14.7-4.4-22.1l-0.2-1c-0.2-1.1-2.1-0.8-2.9-0.6l-16.3,4.2l-38.8,10L110,187.8l-40.6,10.5c-6.6,1.7-13.3,3.2-19.8,5.1
		l-0.3,0.1c-0.6,0.2-1.2,0.7-0.6,1.2S50.6,205.1,51.3,204.9z" fill="#333"></path><path class="st1" d="M59.8,413.4c0,0,120.6-14.9,163.6-33.9c0,0,27.7-34-19.6-219.3c0,0-151.4,42.9-153.4,43.9
		S80.6,330.2,59.8,413.4z" fill="#FFFFFF"></path><path class="st0" d="M60.5,414.9c6.6-0.8,13.1-1.7,19.7-2.6c15.5-2.2,31.1-4.6,46.6-7.3c18.2-3.1,36.5-6.6,54.5-10.9
		c8.3-2,16.5-4.1,24.7-6.5c3.5-1.1,7-2.2,10.5-3.5c1.5-0.5,3-1.1,4.5-1.7l2.1-0.9c0.9-0.3,1.8-0.7,2.5-1.3c0.8-1.1,1.5-2.2,2-3.5
		c1.5-3.6,2.7-7.4,3.4-11.3c1.5-7.5,2.4-15,2.7-22.6c0.5-12.1,0.3-24.2-0.7-36.2c-1.3-17.8-3.7-35.5-6.6-53.1
		c-4.1-24.5-9.3-48.8-15-72.9c-1.7-7-3.4-13.9-5.2-20.9c-0.3-1-2.3-1.2-3.1-1l-12.8,3.6l-31.4,8.9l-39.7,11.3
		c-12.7,3.6-25.3,7.2-37.9,10.8c-8.8,2.5-17.7,5.1-26.5,7.7c-1.8,0.5-3.6,1-5.3,1.6c-2,0.7-1.7,2.3-1.4,4c1.3,8.9,3.2,17.7,4.8,26.6
		C55.6,249.1,58,265,60,281c2.4,19.5,3.9,39.1,4.3,58.8c0.3,20-0.6,40.2-4.1,60c-0.8,4.5-1.7,8.9-2.8,13.3c-0.6,2.3,4.3,2.6,4.8,0.7
		c4.8-19,6.6-38.8,7-58.4c0.3-19.9-0.6-39.8-2.6-59.6c-1.7-17.3-4.1-34.5-6.9-51.7c-1.8-11.1-4-22-6-33.1c-0.4-2.2-0.7-4.4-1-6.6
		c0-0.3,0.2-0.4,0,0.1c0,0-0.7,1-1,0.8c0.1,0,0.3-0.1,0.4-0.1l2-0.6l3.6-1.1L60,203l1.2-0.3c0.4-0.1,0.5-0.1,0.2-0.1l0.7-0.2
		l13.4-3.9c12-3.5,24-6.9,36-10.3c13.3-3.8,26.7-7.6,40.1-11.4l34-9.6l18.1-5.2l0.8-0.2l-3.1-1c4.2,16.6,8.2,33.2,11.8,50
		c3,13.9,5.7,27.9,8.1,41.9c1.9,11.5,3.6,22.9,4.9,34.5c1.1,9.3,1.9,18.6,2.4,28c0.4,7.3,0.6,14.6,0.4,22c-0.1,5.5-0.4,11.1-1,16.6
		c-0.2,2.2-0.5,4.3-0.9,6.5c-0.1,0.9-0.3,1.9-0.5,2.8c-0.1,0.3,0.1-0.4,0,0l-0.1,0.3c-0.1,0.2-0.1,0.4-0.1,0.6l-0.3,1.3
		c-0.6,2.6-1.3,5.2-2.1,7.8c-0.5,1.5-1.1,3-1.9,4.4c-0.2,0.4-0.4,0.8-0.6,1.1c0.3-0.5,0-0.2-0.1,0.1v0.1l0.9-0.6
		c-10.5,4.6-21.2,7.6-32.2,10.4c-13.7,3.5-27.5,6.4-41.4,9.1s-27.7,5-41.6,7.2c-10.9,1.7-21.7,3.3-32.6,4.9c-5,0.7-10.1,1.2-15,2
		h-0.2c-0.9,0.1-2.1,0.9-1.7,2S59.5,415,60.5,414.9z" fill="#333"></path><path class="st3" d="M123.9,355c7.9-1.7,15.7-3.5,23.6-5.3c12.9-2.9,25.7-5.8,38.5-9c2.3-0.6,4.6-1.1,6.9-1.8
		c1.1-0.2,2.2-0.6,3.3-1c0.6-0.3-0.8-1-1-1.1c-0.5-0.3-1.7-0.8-2.3-0.5c-0.9,0.4-1.8,0.7-2.7,0.9c-1.9,0.5-3.8,1-5.7,1.5
		c-5.7,1.4-11.5,2.8-17.2,4.1c-12.5,2.9-25.1,5.8-37.7,8.5c-2.8,0.6-5.7,1.3-8.5,1.9c-0.8,0.2,0,0.7,0.3,1
		C122.1,354.8,123,355,123.9,355L123.9,355z" fill="LIGHTBLUE"></path><path class="st3" d="M121.1,347.1c8.1-2.1,16.2-4.2,24.3-6.3c13.1-3.4,26.2-6.8,39.3-10.3c3.4-0.8,6.8-1.7,10.2-2.8
		c0.6-0.2,1.2-0.9,0.6-1.5c-0.8-0.5-1.8-0.5-2.6-0.2c-0.4,0.2,0.4-0.1,0.1,0l-0.6,0.2l-1.7,0.5l-5.7,1.5c-5.9,1.6-11.7,3.1-17.6,4.6
		c-12.9,3.4-25.8,6.7-38.7,10.1l-8.8,2.3c-0.6,0.1-1.6,0.6-1.2,1.4S120.4,347.2,121.1,347.1z" fill="LIGHTBLUE"></path><path class="st0" d="M84.2,349.5c-0.2,6.8-0.3,13.7-0.2,20.5c-0.1,1.1,0,2.2,0.2,3.3c0.5,1.5,1.9,1.8,3.3,1.7
		c3.7-0.5,7.4-1.2,11-2.2c3.8-0.9,7.6-2,11.4-3.3c1-0.2,1.8-0.8,2.3-1.6c0.5-1.5,0.7-3,0.6-4.5c0.1-4.4-0.3-8.9-1-13.3
		c-0.1-1.6-0.6-3.1-1.3-4.5c-0.8-1.1-2.2-1.7-3.5-1.5c-3.9,0.1-7.8,1.2-11.5,2.1c-3.4,0.8-6.7,1.6-10.1,2.5l-0.6,0.1
		c-1.8,0.5,0.3,3.6,1.9,3.1c6-1.6,12-3.1,18.2-4.1c1.3-0.3,2.6-0.4,3.9-0.4c0.3,0-0.2,0.1,0,0c0.1,0,0.2,0,0.2,0
		c-0.7-0.4,0.3,0.5-0.9-0.5c0.2,0.2-0.4-0.4-0.1-0.2s-0.2-0.4,0-0.1c0,0.1,0.1,0.2,0.1,0.3c0.1,0.4,0.2,0.7,0.2,0.8
		c0.8,3.8,1.2,7.7,1.3,11.6c0.1,1.8,0.1,3.5-0.1,5.3c0,0.3-0.1,0.6-0.1,0.9c0,0.1,0,0.2-0.1,0.4c0.1-0.3,0-0.1,0-0.1
		c-0.1,0.4,0.1,0,0,0.1s-0.3,0.1,0.1,0c-0.1,0-0.2,0.1-0.3,0.2c-2.9,1.2-5.9,2.1-9,2.9c-3.7,1-7.5,1.9-11.3,2.6
		c-0.6,0.1-1.2,0.2-1.8,0.3c-0.5,0-0.9,0-1.4,0.1c0.4-0.1,1.9,0.9,1.8,1.7c0-0.1,0-0.3,0-0.4c0-0.5-0.1-1-0.1-1.4
		c-0.2-6.9,0-13.8,0.2-20.7c0-1-0.5-1.8-1.4-2.2C85.3,348.5,84.2,348.5,84.2,349.5z" fill="#333"></path><path class="st3" d="M120,297.9c7.9-1.7,15.7-3.5,23.6-5.3c12.9-2.9,25.8-5.8,38.6-9c2.3-0.6,4.7-1.2,7-1.8
		c1.2-0.2,2.3-0.6,3.4-1.1c0.4-0.2-1.2-0.4-1.3-0.5c-0.8-0.1-1.6,0-2.3,0.3c0.1-0.1,0,0-0.2,0.1s-0.4,0.1-0.6,0.2
		c-0.6,0.2-1.2,0.4-1.8,0.5c-1.6,0.5-3.7,1-5.6,1.5c-5.8,1.5-11.6,2.8-17.4,4.2c-12.5,2.9-24.9,5.7-37.4,8.5l-8.5,1.9
		c-0.7,0.1-0.6,0.4,0,0.5C118.2,298.1,119.1,298.1,120,297.9L120,297.9z" fill="LIGHTBLUE"></path><path class="st3" d="M118,291c8.1-2.1,16.2-4.2,24.3-6.3c13-3.4,26.1-6.8,39.1-10.2l6.8-1.8c1-0.2,2.1-0.5,3.1-0.9
		c0.1,0-1.8-3-2.7-2.6c-2.7,0.9-5.4,1.6-8.1,2.2c-5.9,1.6-11.8,3.1-17.7,4.7c-12.9,3.4-25.8,6.7-38.7,10.1l-8.8,2.3
		c-0.3,0.1,1,1.5,1.1,1.6C116.7,290.3,117.4,291.1,118,291L118,291z" fill="LIGHTBLUE"></path><path class="st0" d="M80.8,292.6c-0.2,6.8-0.3,13.5-0.2,20.3c0,2.3,0.3,5.8,3.4,5.5c3.6-0.4,7.2-1.2,10.8-2.2
		c3.9-0.9,7.7-1.9,11.4-3.2c0.8-0.3,1.7-0.5,2-1.4c0.4-1.4,0.6-3,0.4-4.5c0.1-4.4-0.3-8.8-1-13.2c-0.5-2.6-1.4-6.5-4.7-6.4
		c-3.8,0.1-7.6,1.2-11.3,2c-3.4,0.8-6.7,1.6-10.1,2.5l-0.6,0.1c-0.5,0.1,1.1,3.4,2.2,3.1c6-1.6,12.2-3.2,18.3-4.2
		c1.3-0.3,2.7-0.4,4-0.4c0.2,0,0.3,0.1,0.5,0.1c-0.1,0-0.5-0.4-0.7-0.6s-0.5-0.8-0.5-0.8s0,0.2,0,0c0,0.1,0.1,0.2,0.1,0.4
		c0.1,0.3,0.2,0.6,0.2,1c0.8,4,1.2,8,1.2,12c0.1,1.7,0,3.4-0.2,5.1c-0.1,0.9-0.2,1.3-1,1.7c-3,1.2-6,2.2-9.2,2.9
		c-3.8,1-7.6,1.9-11.4,2.6c-1,0.2-2,0.2-3,0.3c0,0-0.1,0-0.2,0c0.9-0.2,2,1.5,1.9,2.5c0-0.1,0-0.3,0-0.4c0-0.5-0.1-1-0.1-1.6
		c-0.2-7,0-14,0.2-20.9c-0.2-0.9-0.6-1.6-1.3-2.2C81.5,292.4,80.8,291.8,80.8,292.6z" fill="#333"></path><path class="st3" d="M111.9,241.2c7.9-1.7,15.9-3.5,23.8-5.3c12.9-2.9,25.8-5.8,38.6-9c2.3-0.6,4.7-1.2,7-1.8
		c1.5-0.3,2.9-0.9,4.3-1.5c0.2-0.1,1.4-0.7,1-1s-1.9,0.5-2.2,0.7s1-0.4,0.5-0.2c-0.4,0.2,0.3-0.1,0.1,0l-0.4,0.1l-1.8,0.5l-0.3,0.1
		l-0.6,0.2l-1.5,0.4l-3.2,0.8c-5.8,1.4-11.6,2.8-17.4,4.2c-12.4,2.9-24.9,5.7-37.3,8.5l-8.3,1.9c-0.9,0.2-1.7,0.6-2.4,1.1
		C111.2,241.1,111.2,241.4,111.9,241.2L111.9,241.2z" fill="LIGHTBLUE"></path><path class="st3" d="M111.5,233.8l24.3-6.3c13-3.4,26.1-6.8,39.1-10.2c2.3-0.6,4.6-1.2,6.8-1.8c1-0.2,2.1-0.5,3.1-0.9
		c2.2-0.9,1.2-3.7-1-2.9c-2.7,0.9-5.4,1.6-8.1,2.2c-5.9,1.6-11.8,3.1-17.7,4.7c-12.9,3.4-25.8,6.7-38.7,10.1l-8.8,2.3
		c-0.9,0.2-1.5,1.1-1.3,2.1C109.5,234,110.7,234,111.5,233.8L111.5,233.8z" fill="LIGHTBLUE"></path><path class="st0" d="M74.9,235.4c-0.2,6.8-0.3,13.5-0.2,20.3c-0.1,1,0,2,0.2,2.9c0.6,1.5,2.1,2.4,3.7,2.3c3.6-0.4,7.2-1.1,10.7-2.1
		c3.9-0.9,7.7-2,11.4-3.3c0.8-0.3,1.7-0.5,2.1-1.3c0.4-1.4,0.6-2.9,0.5-4.4c0.1-4.4-0.3-8.8-1-13.2c-0.5-2.8-1.7-6.2-5.2-6.1
		c-3.8,0.1-7.6,1.2-11.3,2c-3.4,0.8-6.7,1.6-10.1,2.5l-0.6,0.1c-0.6,0.1,1.6,2.9,2.5,2.6c6.1-1.6,12.3-3.2,18.5-4.2
		c1.3-0.3,2.6-0.4,3.9-0.4c0.2,0,0.4,0.1,0.4,0.1s-1.8-2-1.8-1.6c0,0.3,0-0.2,0,0.1c0.1,0.6,0.4,1.1,0.5,1.8c0.8,4,1.2,8,1.2,12
		c0.1,1.7,0,3.4-0.2,5.1c-0.1,0.9-0.2,1.5-1,1.9c-2.8,1.4-6.2,2.1-9.1,2.9c-3.8,1-7.6,1.9-11.4,2.6c-1,0.2-2.1,0.2-3.2,0.4
		c-0.1,0-0.2,0,0,0c-1.1,0.2,2.3,1.1,2.3,2.2c0-0.1,0-0.3-0.1-0.4c0-0.5-0.1-1-0.1-1.6c-0.2-7,0-14,0.2-20.9c0-0.7-1-1.5-1.5-1.8
		C76.1,235.6,74.9,234.8,74.9,235.4z" fill="#333"></path><path class="st0" d="M125.7,351.6c1-2,2.1-3.9,3.4-5.8c0.9-1.4,1.9-2.6,3.1-3.8c0.1-0.1,0.4-0.4,0.5-0.4c-0.8,1.2-1.9,0.5-0.8,0.6
		c0.7,0.1,1.3,0.5,1.7,1.1c1.2,1.5,1.7,3.5,1.5,5.4c-0.1,0.7-0.4,1.5-0.8,2.1c-0.6,1.2-1.2-2.5,2.1-0.9c-0.1,0-0.2,0-0.3,0
		c-0.2-0.1-0.5-0.2-0.7-0.5c-0.6-0.8,0.1-2,0.5-2.7c0.8-1.4,1.8-2.7,3-3.8c1.2-1.3,2.5-2.4,4-3.3c-0.5,0.2,0.3,0,0.5-0.1
		c0.6-0.1,1.1,0.1,1.6,0.4c1.4,1.1,2.3,2.8,2.5,4.6c0.1,0.8,0.2,1.6,0.1,2.3c-0.1,0.3-0.2,0.7-0.3,1c-0.1,0.1-0.2,0.2-0.2,0.4
		c2.5-0.8,3.3-1.2,2.3-1.2h-0.2c-2.6-1.3,1.2-5.6,2.4-6.8c0.7-0.7,1.4-1.4,2.1-2l0.4-0.3c0.2-0.1,0.5-0.2,0.1-0.1
		c-0.9,0.3,0.2,0,0.5,0c1.7,0,3.3,0.9,4.2,2.3c1,1.3,1.4,2.9,1.2,4.5c0,0.1-0.1,0.2-0.2,0.3c2.6-0.9,3.4-1.3,2.4-1.3H162
		c-0.3-0.1-0.6-0.1-0.8-0.3c-0.3-0.4-0.4-0.9-0.3-1.4c0.5-1.8,1.4-3.4,2.7-4.7c0.7-0.8,1.4-1.6,2.2-2.2l0.4-0.3
		c0.9-0.8-0.3,0.4-0.3,0.1c0,0.1-0.5-0.1,0.1,0c0.2,0,0.4-0.1,0.6-0.1c0.8-0.1,1.5-0.5,2.1-0.9c0.2-0.1,1.2-0.9,1-0.9
		c-2.3,0-4.9,1.7-6.6,3.1c-1.9,1.5-3.5,3.3-4.7,5.4c-0.5,0.9-1.8,3.2-0.3,3.9c1,0.5,2.1-0.2,3-0.6s1.9-0.9,2.1-1.9
		c0.5-1.9-1-4.3-2.4-5.5c-1.9-1.6-3.9-1.2-6.1-0.3c-2.5,1.1-4.8,2.7-6.7,4.7c-1.4,1.5-2.9,3.3-3.4,5.4c-0.2,0.6,0,1.2,0.4,1.6
		c0.9,0.6,2.1-0.1,3-0.5c1-0.3,1.8-1.1,2.3-2c0.3-1,0.4-2,0.2-3c-0.3-1.8-1.4-4.7-3.4-5.1s-4.4,1.2-6,2.1c-2.1,1.2-4,2.7-5.6,4.5
		c-1.5,1.4-2.7,3.1-3.6,4.9c-0.5,1.2-0.2,2.6,1.4,2.3c1.4-0.3,2.7-1,3.7-2c0.6-0.7,1-1.6,1.1-2.5c0.3-2.2-0.4-5.5-2.6-6.5
		c-1.8-0.8-4.4,1-5.8,2c-3.2,2.3-5.3,6.2-7.1,9.7l-0.4,0.8c-0.1,0.3,1.2-0.3,1.3-0.3c0.5-0.2,1.7-0.7,2-1.2L125.7,351.6z" fill="#333"></path><path class="st0" d="M176.5,340.1c0.6-1.7,1.4-3.4,2.3-5c0.6-1.2,1.4-2.3,2.2-3.4c0.2-0.2,0.4-0.4,0.6-0.6l0.3-0.3
		c0.2-0.1-0.1,0.1,0.1-0.1s-0.1,0,0.1,0c0,0-0.4,0.1-0.2,0s-0.3,0-0.3,0c-0.2,0-0.5,0-0.7,0c0.2,0,0,0,0.1,0c0.4,0.3,0.7,0.6,0.9,1
		c0.3,0.5,0.5,1,0.6,1.5c0.3,1.1,0.4,2.3,0.3,3.5c0,0.4-0.1,0.7-0.2,1.1c-0.1,0.3-0.1,0.1,0.1,0c0.8-0.1,1.6-0.2,2.4-0.1
		c0.3,0.1,0,0,0,0s0,0.1-0.1-0.1c-0.4-0.6-0.2-1.8,0.1-2.5c0.4-1.4,1.2-2.6,2.1-3.7c0.2-0.2,0.5-0.5,0.7-0.7
		c0.2-0.2,0.4-0.3,0.6-0.4c0.2-0.1,0,0-0.1,0c0.2,0-0.1,0-0.1,0s0.3,0,0,0c-0.2,0-0.5,0-0.7,0c0,0,0.2,0,0,0s0,0.1-0.1,0s0,0,0.1,0
		l0.2,0.2c0.8,0.4,1.7,0.4,2.6,0c0.5-0.2,1.2-0.6,0.6-1.1c-1.6-1.1-4.1-0.8-5.7,0.2c-1.4,0.9-2.5,2.2-3.2,3.7
		c-0.8,1.2-1.1,2.6-1,4.1c0.4,1.9,3,1.8,4.3,1.1c1.1-0.6,1.1-2.1,1.1-3.2c0-1.5-0.4-2.9-1.1-4.2c-1-1.5-2.9-2.2-4.6-1.7
		c-1.7,0.4-3.1,1.4-4.1,2.8c-1.7,2.4-3.1,5-4.1,7.8c-0.4,1,3.3,1.1,3.6,0.1L176.5,340.1z" fill="#333"></path><path class="st0" d="M121.3,297.4c1-2,2.1-3.9,3.3-5.8c0.9-1.4,1.9-2.6,3-3.8c0.8-0.7,1.9-1.7,3.1-1.4c0.2,0.1,0.3,0.1,0.5,0.2
		c-0.1,0-0.2-0.5-0.1-0.1c0,0.2,0.2,0.4,0.2,0.6c0.3,1,0.3,2,0.2,3c-0.1,0.7-0.4,1.4-0.8,2c-0.5,0.6-0.8,0.5-1.4,0.5l1.4,1.8v0.1
		c0,0,0-0.2,0-0.2c0-0.2,0.1-0.4,0.1-0.6c0.2-0.6,0.5-1.2,0.9-1.7c0.9-1.4,2-2.6,3.1-3.8c1.3-1.3,2.7-2.4,4.2-3.4
		c1-0.6,2.4-1.4,3.6-1.2c0.2,0,0.4,0.1,0.5,0.2c0.5,0.2,0.3,0.3,0.2,0.1c0.4,0.8,0.6,1.7,0.7,2.6c0.1,1,0.1,3.2-1.2,3.3
		c-0.1,0-0.4-0.1-0.5-0.1c-0.4,0.1,1.6,1.7,1.4,2c0-0.2,0-0.4,0-0.6c0.1-0.7,0.4-1.4,0.8-2c0.9-1.6,2.1-3,3.5-4.3
		c1.2-1.2,2.7-2.2,4.3-2.8c1.3-0.4,2.6-0.1,3.6,0.7c0.6,0.7,1.1,3,0,3.5c-0.3,0.2-0.6,0.1-0.9,0h-0.1c-0.8-0.3-0.3,0.4,1.4,2
		c0-0.1,0-0.2,0-0.3c0.1-0.7,0.4-1.4,0.7-2.1c1-1.8,2.2-3.4,3.7-4.7c1.2-1.1,2.8-2.5,4.5-2.5c0.5,0-0.3-1.2-0.4-1.4
		c-0.3-0.4-1-1.7-1.6-1.7c-2,0-3.8,1.5-5.1,2.8c-1.6,1.5-2.9,3.4-3.8,5.4c-0.6,2.1,0.3,4.3,2.2,5.3c1.7,0.9,2.5-0.6,2.3-2.1
		c-0.5-2.5-1.8-4.8-3.8-6.5c-1.5-1.6-3.7-2.1-5.7-1.2c-2.2,1.1-4.2,2.7-5.6,4.6c-1,1.3-2.5,3.2-2.4,5c0.1,1.4,2.2,4.6,4,3.8
		s1.1-3.9,0.8-5.2c-0.6-2.5-2.4-5.4-4.6-6.6c-1.4-0.8-3.2,0.1-4.5,0.8c-2,1.2-3.8,2.7-5.4,4.5c-1.4,1.3-2.4,2.9-3.1,4.7
		c-0.6,1.8,1,4,2.6,4.7c1.9,0.9,2.7-1.9,2.8-3.3c0.1-3-1.2-5.8-3.4-7.8c-1.3-1.3-2.7-1.6-4.3-0.5c-3.1,2.2-5.2,6.2-6.9,9.5
		c-0.1,0.3-0.3,0.5-0.4,0.8c-0.2,0.5,0.5,1.4,0.8,1.8c0.1,0.1,1.3,1.5,1.5,1.2L121.3,297.4z" fill="#333"></path><path class="st0" d="M172.6,284.3c0.7-1.8,1.4-3.5,2.4-5.1c0.6-1.2,1.4-2.4,2.3-3.4c0.4-0.4,0.8-0.8,1.3-1.1
		c0.2-0.1,0.4-0.2,0.6-0.2c0.1,0,0.2,0,0.3,0c0,0,0.1,0,0.1,0c0.3,0.2,0,0.1-1.1-0.4s-1.5-0.6-1.1-0.4c0.7,0.8,1.3,1.8,1.5,2.8
		c0.3,1.1,0.4,2.3,0.2,3.4c0,0.4-0.1,0.8-0.3,1.1c-0.1,0.1-0.2,0.2-0.2,0.3c0,0-0.1,0-0.1,0s3,1.1,2.9,1s-0.1-0.1-0.1-0.1
		c-0.4-0.9-0.4-1.8,0-2.7c0.4-1.4,1.2-2.7,2.2-3.9c0.4-0.5,0.9-1,1.5-1.3c0.3-0.2,0.6-0.3,0.9-0.3c0.1,0,0.2,0,0.4,0l0,0
		c0.4,0,0-0.1-1.1-0.4c-1.7-0.6-1.4-0.6-0.9-0.3c0.7,0.4,1.5,0.8,2.4,1c0.2,0.1,1.3,0.4,0.7-0.1c-1.2-0.8-2.5-1.3-3.9-1.5
		c-0.6-0.1-1.3,0-1.8,0.3c-1.3,0.8-2.4,2-3,3.5c-0.7,1.2-1.1,2.6-1,3.9c0.1,0.5,0.5,1,1,1.2c0.8,0.4,1.7,0.8,2.6,1
		c0.3,0.1,0.6,0.1,0.8,0c0.8-0.4,0.8-2,0.7-2.8c0-1.5-0.4-2.9-1.1-4.2c-0.4-0.6-0.9-1.1-1.5-1.4c-1.2-0.7-2.5-1.1-3.9-1.2
		c-1.4,0-2.4,1.2-3.2,2.2c-1.7,2.4-3.1,5-4.1,7.8C168.9,283.3,172.4,284.6,172.6,284.3L172.6,284.3z" fill="#333"></path><path class="st0" d="M116.3,239.1c0.9-1.9,2-3.8,3.2-5.6c0.8-1.3,1.8-2.5,2.9-3.6c0.3-0.4,0.8-0.7,1.2-0.9c0.3-0.1-0.4,0.1,0.1,0
		c0.3-0.1,0,0,0,0s-0.4-0.2-0.2,0c1.3,1.2,1.9,2.9,1.9,4.6c0,0.7-0.2,1.3-0.5,1.9c0,0-0.2,0.4-0.2,0.3c0,0.2-0.3,0,0,0
		s0.7-0.1,0.9-0.1s0.1,0,0.1,0c0.2,0.1,0,0.3,0.1,0s0-0.1,0,0c0-0.1,0-0.2,0.1-0.4c0.2-0.5,0.4-1,0.7-1.5c0.8-1.3,1.7-2.4,2.8-3.4
		c1.2-1.2,2.4-2.3,3.8-3.2c0.5-0.3,1-0.6,1.6-0.8c0.2-0.1,0.3-0.1,0.5-0.2c-0.1,0-0.4,0.1,0,0c0.1,0,0.6,0,0.1,0
		c0.3,0,0.2,0.1,0.1,0c0.2,0.3-0.1-0.2,0,0c0.1,0.1,0.2,0.2,0.3,0.2c0.3,0.3,0.5,0.5,0.7,0.9c0.5,0.8,0.8,1.6,1,2.6
		c0.2,0.7,0.2,1.5,0.1,2.2c0,0.2-0.1,0.6-0.2,0.7s-0.2,0.2-0.2,0.3s0.8-0.3,0.8-0.3s0.3,0,0.4,0.1c0.4,0-0.1,0.1,0.1,0.1
		c0,0,0-0.1,0,0.1c0-0.1,0-0.2,0-0.3c0.1-0.5,0.2-0.9,0.4-1.4c0.8-1.5,1.8-2.9,3.1-4.1c1.1-1.2,2.4-2.1,3.9-2.7
		c0.1,0,0.5-0.1,0.4-0.1c0.2,0,0.5,0.1,0.7,0.1c0.7,0.3,1.3,0.8,1.8,1.4c0.5,0.6,0.9,1.4,1.1,2.2c0.1,0.4,0.2,0.7,0.2,1.1
		c0,0.1-0.1,0.5-0.1,0.4c0.3-0.2,0.7-0.3,1-0.4c-0.2-0.1,0.2,0.1,0.2,0.1c0.4,0.2-0.1,0,0-0.1s0,0.2,0-0.1c0,0.2,0-0.2,0-0.2
		c0.1-0.3,0.2-0.7,0.3-1c0.8-1.6,1.8-3.1,3.1-4.3c0.6-0.7,1.4-1.3,2.1-1.8c0.2-0.2,0.8-0.5,0.9-0.5c0.1,0,0.2-0.1,0.4-0.1
		c0.2-0.1,0.2,0,0,0c0.8,0,1.9-0.3,2.2-1.2s-0.7-1.5-1.5-1.5c-2.4,0-4.5,1.4-6.3,2.9c-1.8,1.6-3.2,3.5-4.3,5.6
		c-0.8,1.7-1.2,3.9,1,4.7s4.5-0.4,4.6-2.8c-0.1-2.2-1.1-4.3-2.9-5.7c-2-1.6-4.7-2-7-0.9c-2.3,1.1-4.4,2.7-6,4.6
		c-1.3,1.5-2.9,3.5-3.1,5.7c-0.2,2.3,2.5,3.3,4.4,2.4c2.2-0.9,2.3-3.7,1.9-5.8c-0.4-2.2-1.8-5-4.2-5.7c-2-0.6-4.1,0.3-5.8,1.3
		c-2.1,1.3-3.9,2.8-5.5,4.6c-1.5,1.4-2.7,3.2-3.5,5.1c-0.6,1.3,0,2.8,1.3,3.4c0.3,0.2,0.7,0.2,1.1,0.2c2.6,0.2,4.1-2.1,4.3-4.4
		c0.3-2.6-0.6-5.6-2.9-7.1c-1.8-1.2-4.1-0.6-5.7,0.6c-3.2,2.4-5.4,6.3-7.2,9.8l-0.4,0.8c-0.9,1.9,2.6,2.5,3.4,0.9L116.3,239.1z" fill="#333"></path><path class="st0" d="M166.9,227c0.1-0.2,0.1-0.3,0.2-0.5c0-0.1,0.1-0.1,0.1-0.2c0.1-0.3-0.2,0.4,0,0.1s0.2-0.5,0.3-0.7
		c0.5-1.2,1.1-2.4,1.7-3.5c0.4-0.6,0.7-1.3,1.1-1.9c0.2-0.3,0.4-0.5,0.6-0.8c0.1-0.2-0.1,0.1-0.1,0.1l0.1-0.2l0.4-0.4
		c0.2-0.2,0.4-0.4,0.6-0.6l0.2-0.1c0,0-0.3,0.2-0.1,0.1l0.3-0.2l0.2-0.1c0,0-0.4,0.1-0.2,0.1c0.1,0,0.2,0,0.3-0.1
		c-0.2,0.1-0.4,0-0.1,0s-0.4-0.1,0,0c-0.3-0.1-0.3-0.1,0,0s-0.1-0.1-0.1-0.1c0.1,0.1,0.2,0.2,0.3,0.3c0.2,0.2-0.2-0.4,0,0.1l0.2,0.3
		c0,0.1,0.2,0.5,0.1,0.2s0,0.1,0.1,0.2c0.1,0.2,0.1,0.3,0.1,0.5c0.1,0.3,0.1,0.6,0.2,0.8c0,0.1,0,0.1,0,0.2c0,0.2,0-0.3,0-0.1
		s0,0.3,0,0.4c0,0.3,0,0.6,0,0.9c0,0.1,0,0.2,0,0.4s-0.1,0.5,0,0.1c0,0.2-0.1,0.4-0.1,0.6c0,0.1-0.1,0.2-0.1,0.3
		c0-0.2,0.2-0.4,0-0.1s0.4-0.4,0.1-0.2c0.2-0.2,0.5-0.3,0.8-0.3c0.2,0,0.4,0.1,0.6,0.1c0.2,0.1,0.2,0.1,0.1,0.1
		c-0.2-0.2,0.3,0.3,0.2,0.1s0.3,0.5,0.1,0.1c0.1,0.1,0.2,0.4,0.1,0.1s0,0.4,0,0c0-0.1,0-0.2,0-0.4c0-0.3-0.1,0.3,0-0.1
		c0-0.1,0.1-0.3,0.1-0.4c0.1-0.3,0.2-0.6,0.3-0.9l0.1-0.2c0.1-0.2-0.2,0.4,0,0c0.1-0.1,0.1-0.3,0.2-0.5c0.2-0.4,0.4-0.7,0.6-1
		s0.4-0.6,0.6-0.9v-0.1c-0.2,0.2,0.1-0.1,0.1-0.1l0.3-0.4c0.1-0.1,0.3-0.2,0.4-0.4c0.1-0.1,0.5-0.4,0.3-0.2s0.2-0.1,0.2-0.1l0.4-0.2
		c-0.3,0.1-0.1,0.1,0.1,0l0,0c-0.3,0,0,0,0.1,0c0.3,0.1-0.4-0.1,0,0c0.2,0.1-0.2,0-0.1-0.1s0.2,0.1,0.2,0.2c0.8,0.5,1.8,0.4,2.4-0.4
		c0,0,0,0,0-0.1c0.4-0.9,0.1-1.9-0.7-2.5c-3.3-2.4-6.7,1.4-8.1,4.2c-0.8,1.5-1.1,3.2-0.8,4.9c0.4,1.6,2.5,3.3,4.1,1.9
		c1-1,1.1-2.7,1.1-4c0-1.7-0.5-3.3-1.3-4.8c-0.8-1.7-2.6-2.6-4.4-2.4c-1.7,0.3-2.9,1.7-3.9,3c-1.7,2.5-3.1,5.2-4.1,8
		c-0.2,1,0.4,2,1.3,2.3C165.6,228.2,166.6,227.8,166.9,227c0-0.1,0-0.1,0-0.2L166.9,227z" fill="#333"></path><path class="st3" d="M85,246.3l2.5,2.9c0.8,0.9,1.7,2.2,3,2.4s1.8-0.8,2.4-1.7c0.7-1,1.4-2.1,2-3.1c2.6-4.3,4.9-8.7,6.9-13.3
		c0.5-1.2-2.1-3.8-2.7-2.4c-1.7,3.9-3.6,7.7-5.7,11.3c-1,1.8-2.1,3.6-3.3,5.2c-0.1,0.2-0.3,0.4-0.4,0.6c-0.1,0.1-0.2,0.2-0.3,0.3
		l0.4,0.4c-0.4-0.4-0.8-0.8-1.1-1.3l-2.2-2.5c-0.4-0.4-1.3-1.3-2-0.8S84.6,245.8,85,246.3L85,246.3z" fill="LIGHTBLUE"></path><path class="st3" d="M88.9,305.9l2.6,3c0.7,1,1.5,1.8,2.4,2.5c2.7,1.7,4.1-2.3,5.1-4.1c2.3-4.1,4.9-8,7.9-11.7
		c0.6-0.7,0.4-1.8-0.3-2.4c-0.5-0.5-1.8-1-2.4-0.3c-2,2.5-3.9,5.1-5.6,7.9c-0.8,1.3-1.7,2.7-2.4,4c-0.4,0.7-0.8,1.3-1.1,2
		c-0.1,0.2-0.7,1.5-0.8,1.5l0.9,0.1c0.3,0.3,0.4,0.4,0.3,0.2l-0.3-0.3l-0.6-0.7l-1.1-1.3l-2.3-2.7c-0.6-0.7-1.7-0.8-2.4-0.2
		C88,304.1,88.4,305.1,88.9,305.9L88.9,305.9z" fill="LIGHTBLUE"></path><path class="st3" d="M97.8,358.9c1,0.4,1.9,0.9,2.6,1.6c0.3,0.2,1.2,1.1,1.5,0.5c2.3-5.4,5-10.6,8.2-15.5c0.6-1-2.1-3.4-2.5-2.8
		c-3.3,5-6.1,10.3-8.4,15.8l1.5,0.4c-1.3-1.2-2.9-2.2-4.6-2.9c-0.8-0.3-0.4,0.8-0.2,1.1C96.4,357.9,97,358.5,97.8,358.9L97.8,358.9z
		" fill="LIGHTBLUE"></path><path class="st3" d="M38.7,180.4c0.2,0,0.4,0,0.5,0h-0.7c0.5,0,0.9,0,1.4,0.1l-0.7-0.1c0.5,0.1,0.9,0.2,1.4,0.4l-0.6-0.2
		c0.4,0.2,0.8,0.4,1.2,0.7c0.3,0.2,0.6,0.3,0.9,0.3c0.3,0.1,0.7,0.1,1,0.1c0.6,0,1.1-0.3,1.6-0.7c0.4-0.4,0.5-0.9,0.4-1.4L45,179
		c-0.2-0.3-0.5-0.6-0.8-0.8c-0.3-0.2-0.7-0.4-1.1-0.6c-0.5-0.3-1.1-0.5-1.7-0.6c-1.2-0.3-2.4-0.4-3.7-0.3c-0.6,0-1.1,0.3-1.6,0.7
		c-0.4,0.4-0.5,0.9-0.4,1.4C36.2,179.9,37.4,180.6,38.7,180.4L38.7,180.4z" fill="LIGHTBLUE"></path><path class="st3" d="M43.6,169.2l4,5.1c0.3,0.3,0.6,0.6,1,0.8c0.6,0.2,1.2,0.4,1.9,0.4c0.5,0.1,1.1,0,1.5-0.2
		c0.2-0.1,0.6-0.4,0.4-0.7l-4-5.1c-0.3-0.3-0.6-0.6-1-0.7c-0.6-0.2-1.2-0.4-1.9-0.4c-0.5-0.1-1.1,0-1.5,0.2
		C43.8,168.6,43.4,168.9,43.6,169.2L43.6,169.2z" fill="LIGHTBLUE"></path><path class="st0" d="M165,158.3c0,0-7-11.4-8.3-13.3s-21.6,7.3-21.6,7.3c3.4-15.4-9.7-23.6-22.4-15.5s1.3,22.2,1.3,22.2
		s-23.7,6.3-25.7,7.4s13.5,28.7,15.4,29s50.4-12.6,51.5-12.9s-0.8-21.9-0.8-21.9L165,158.3z M117.6,148.5c-1.4-2.1-0.8-4.9,1.3-6.2
		c0.1-0.1,0.3-0.2,0.4-0.2c2.9-0.9,6.4,0.1,7.3,4.5S120,152.8,117.6,148.5L117.6,148.5z" fill="#333"></path><path class="st1" d="M158.7,181.4c0.1-8.4,0.1-16.9-0.4-25.3c0-2.1-0.2-4.1-0.6-6.1c-0.5-2.1-5.4-1.4-5,0.7
		c0.9,4.2,0.7,8.7,0.8,12.9c0.1,5.1,0.1,10.1,0.1,15.2c0,1.1,0,2.2,0,3.4C153.8,184.1,158.7,183.6,158.7,181.4L158.7,181.4z" fill="#FFFFFF"></path><path class="st1" d="M42.4,265.8c0,0-8.1,10.5-1,18.6s22.4,5.7,22.9,1.6s-11.7-15.3-11.7-15.3L42.4,265.8z" fill="#FFFFFF"></path><path class="st0" d="M40.7,265.2c-3.3,4.3-5.4,10.9-3.1,16.1c3.3,7.4,12.1,10,19.6,9.5c2.6-0.2,5.6-0.7,7.7-2.5
		c1.9-1.6,1.4-3.5,0.3-5.5c-1.5-2.6-3.4-5-5.5-7.1c-1.7-1.8-3.4-3.5-5.2-5.2c-1.2-1.1-3.1-1.7-4.6-2.4l-6.4-3.1
		c-0.8-0.5-1.8-0.5-2.6-0.1c-0.7,0.5-0.2,1.3,0.4,1.6l4.8,2.3l3.5,1.7c0.4,0.2,1.4,1,1.9,0.9c0,0-0.4-0.4-0.2-0.1
		c0.2,0.2,0.4,0.4,0.6,0.5c0.7,0.7,1.4,1.3,2.1,2c2,1.9,3.8,4,5.5,6.1c1.1,1.4,3.1,3.8,3,5.6c-0.1,1.5-2.4,2.3-3.8,2.6
		c-5.7,1.4-12.8-0.1-16.4-5.1s-1.7-12.1,1.9-16.7C45.1,265.1,41.5,264,40.7,265.2z" fill="#333"></path><path class="st1" d="M43.7,242.4c0,0-10.4,7.8-9,15.1c1.4,7.4,13.1,15,21.9,11.5s-9.9-14.9-9.9-14.9L43.7,242.4z" fill="#FFFFFF"></path><path class="st0" d="M42.3,241.3c-3.5,2.6-6.9,6.2-8.6,10.2c-1.2,2.7-1.1,5.8,0.2,8.5c1.6,3,3.9,5.6,6.8,7.4c3,2.1,6.4,3.4,10,3.8
		c2.8,0.3,6.5,0.2,8.8-1.7c3.4-2.9-0.9-7.5-3.1-9.5c-2.8-2.6-5.8-4.8-9-6.8l1.1,1.3l-3-11.7c-0.3-0.9-1.1-1.5-2-1.7
		c-0.7-0.1-1.6,0.1-1.4,1c1,3.9,1.8,7.8,3,11.6c0.4,1.3,2,1.9,3,2.7c1,0.7,1.5,1,2.3,1.6c1,0.8,2,1.6,3,2.4c0.9,0.7,1.7,1.5,2.4,2.4
		c0.6,0.6,1,1.4,1.3,2.2c0.3,0.6,0.2,1.3-0.2,1.9c-0.9,0.8-2,1.3-3.1,1.5C50,269.1,46,268,42.8,266c-2.8-1.7-5.6-4.4-6.4-7.7
		c-0.9-3.7,1.5-7.3,3.7-10c1.5-1.7,3.1-3.3,4.9-4.6C46.4,242.6,43.5,240.4,42.3,241.3z" fill="#333"></path><path class="st1" d="M409.3,309.5l-12.1,31l-1.7,4.4c-0.4,1.1,3.1,4.4,3.4,3.4l12.1-31l1.7-4.4
		C413.2,311.8,409.7,308.5,409.3,309.5z" fill="#FFFFFF"></path></g></svg>